<?xml version="1.0" encoding="UTF-8"?>
<svg id="_レイヤー_2" data-name="レイヤー 2" xmlns="http://www.w3.org/2000/svg" viewBox="0 0 84.25 12.62">
  <defs>
    <style>
      .cls-1 {
        fill: #2b2b56;
      }

      .cls-1, .cls-2, .cls-3, .cls-4 {
        stroke-width: 0px;
      }

      .cls-2 {
        fill: #ffa118;
      }

      .cls-3 {
        fill: #ffe306;
      }

      .cls-4 {
        fill: #fff2b4;
      }
    </style>
  </defs>
  <g id="pixel">
    <g>
      <g>
        <g>
          <rect class="cls-3" x="2.22" y=".74" width=".74" height="9.65"/>
          <rect class="cls-3" x="1.48" y=".74" width=".74" height="10.39"/>
          <rect class="cls-3" x=".74" y="2.24" width=".74" height="8.15"/>
          <rect class="cls-3" x="2.96" y=".74" width=".74" height="9.65"/>
          <rect class="cls-3" x="6.65" y="8.91" width=".74" height="1.48"/>
          <rect class="cls-3" x="6.65" y="6.69" width=".74" height="1.48"/>
          <rect class="cls-1" x="5.91" y="6.69" width=".74" height="1.48"/>
          <rect class="cls-1" y="2.24" width=".74" height="8.15"/>
          <rect class="cls-1" x="2.96" y="3.72" width=".74" height="5.19"/>
          <rect class="cls-1" x="8.87" y="2.24" width=".74" height="2.22"/>
          <rect class="cls-1" x="6.65" y="4.47" width="2.22" height=".74"/>
          <rect class="cls-1" x="3.7" y="8.91" width="2.96" height=".74"/>
          <rect class="cls-1" x="3.7" y="2.98" width="2.22" height=".74"/>
          <rect class="cls-3" x="2.21" y="10.39" width="5.18" height=".74"/>
          <rect class="cls-3" x="2.22" y="11.13" width="5.18" height=".74"/>
          <rect class="cls-3" x="6.65" y="2.98" width=".74" height="1.48"/>
          <rect class="cls-1" x="1.48" y="11.13" width=".74" height=".74"/>
          <rect class="cls-1" x="7.39" y="11.13" width=".74" height=".74"/>
          <rect class="cls-1" x="1.48" y=".74" width=".74" height=".74"/>
          <rect class="cls-3" x="3.7" y="9.65" width="2.96" height=".74"/>
          <rect class="cls-1" x="8.87" y="6.69" width=".74" height="3.71"/>
          <rect class="cls-1" x="6.65" y="8.17" width=".74" height=".74"/>
          <rect class="cls-1" x="7.39" y=".74" width=".74" height=".74"/>
          <rect class="cls-1" x=".74" y="10.39" width=".74" height=".74"/>
          <rect class="cls-1" x="8.13" y="10.39" width=".74" height=".74"/>
          <rect class="cls-1" x="8.13" y="1.48" width=".74" height=".76"/>
          <rect class="cls-1" x=".74" y="1.48" width=".74" height=".76"/>
          <rect class="cls-3" x="7.39" y="1.48" width=".74" height="2.98"/>
          <rect class="cls-3" x="3.7" y=".74" width="1.48" height="2.24"/>
          <rect class="cls-3" x="5.17" y=".74" width=".74" height="2.24"/>
          <rect class="cls-3" x="5.91" y=".74" width=".74" height="2.98"/>
          <rect class="cls-3" x="6.65" y=".74" width=".74" height="2.24"/>
          <rect class="cls-3" x="7.39" y="6.69" width=".74" height="4.45"/>
          <rect class="cls-3" x="8.13" y="6.69" width=".74" height="3.71"/>
          <rect class="cls-1" x="2.22" y="11.88" width="5.17" height=".74"/>
          <rect class="cls-1" x="2.22" width="5.17" height=".74"/>
          <rect class="cls-4" x="2.22" y=".74" width="5.17" height=".74"/>
          <rect class="cls-4" x="1.48" y="1.48" width=".74" height=".76"/>
          <rect class="cls-4" x="7.39" y="1.48" width=".74" height=".76"/>
          <rect class="cls-2" x="7.39" y="10.39" width=".74" height=".74"/>
          <rect class="cls-2" x="1.48" y="10.39" width=".74" height=".74"/>
          <rect class="cls-2" x=".74" y="9.65" width=".74" height=".74"/>
          <rect class="cls-2" x="2.22" y="11.13" width="5.17" height=".74"/>
          <rect class="cls-3" x="8.13" y="2.24" width=".74" height="2.22"/>
          <rect class="cls-1" x="5.91" y="3.72" width=".74" height=".74"/>
          <rect class="cls-1" x="6.65" y="5.95" width="2.22" height=".74"/>
        </g>
        <g>
          <g>
            <rect class="cls-1" x="20.69" y=".76" width=".74" height="11.12"/>
            <rect class="cls-3" x="21.43" y=".76" width=".74" height="11.12"/>
            <rect class="cls-3" x="22.17" y=".76" width=".74" height="11.12"/>
            <rect class="cls-3" x="22.91" y=".76" width=".74" height="11.12"/>
            <rect class="cls-3" x="23.65" y="2.24" width=".74" height="5.19"/>
            <rect class="cls-3" x="26.61" y="2.24" width=".74" height="5.19"/>
            <rect class="cls-3" x="25.87" y="2.98" width=".74" height="3.71"/>
            <rect class="cls-3" x="24.39" y="2.98" width=".74" height="3.71"/>
            <rect class="cls-3" x="25.13" y="4.47" width=".74" height="2.96"/>
            <rect class="cls-3" x="27.35" y=".76" width=".74" height="11.12"/>
            <rect class="cls-3" x="28.08" y=".76" width=".74" height="11.12"/>
            <rect class="cls-3" x="28.82" y=".76" width=".74" height="11.12"/>
            <rect class="cls-1" x="29.56" y=".76" width=".74" height="11.12"/>
            <rect class="cls-1" x="21.43" y="11.88" width="2.22" height=".74"/>
            <rect class="cls-1" x="27.35" y="11.88" width="2.22" height=".74"/>
            <rect class="cls-1" x="21.43" y=".02" width="2.22" height=".74"/>
            <rect class="cls-1" x="27.35" y=".02" width="2.22" height=".74"/>
            <rect class="cls-4" x="21.43" y=".76" width="2.22" height=".74"/>
            <rect class="cls-4" x="27.35" y=".76" width="2.22" height=".74"/>
            <rect class="cls-2" x="21.43" y="11.13" width="2.22" height=".74"/>
            <rect class="cls-2" x="27.35" y="11.13" width="2.22" height=".74"/>
          </g>
          <rect class="cls-1" x="21.8" y="9.28" width="4.45" height=".74" transform="translate(33.67 -14.37) rotate(90)"/>
          <rect class="cls-1" x="24.75" y="9.28" width="4.45" height=".74" transform="translate(36.63 -17.32) rotate(90)"/>
          <g>
            <rect class="cls-1" x="23.28" y="1.13" width="1.48" height=".74" transform="translate(25.52 -22.52) rotate(90)"/>
            <rect class="cls-1" x="24.02" y="2.61" width="1.48" height=".74" transform="translate(27.74 -21.78) rotate(90)"/>
            <rect class="cls-1" x="25.13" y="3.73" width=".74" height=".74" transform="translate(29.59 -21.4) rotate(90)"/>
            <rect class="cls-1" x="26.24" y="1.13" width="1.48" height=".74" transform="translate(28.48 -25.47) rotate(90)"/>
            <rect class="cls-1" x="25.5" y="2.61" width="1.48" height=".74" transform="translate(29.22 -23.25) rotate(90)"/>
          </g>
          <g>
            <rect class="cls-1" x="24.39" y="6.69" width=".74" height=".74" transform="translate(31.82 -17.7) rotate(90)"/>
            <rect class="cls-1" x="25.87" y="6.69" width=".74" height=".74" transform="translate(33.3 -19.18) rotate(90)"/>
          </g>
          <rect class="cls-1" x="25.13" y="7.43" width=".74" height=".74" transform="translate(33.3 -17.7) rotate(90)"/>
        </g>
        <g>
          <g>
            <rect class="cls-1" x="10.35" y="2.24" width=".74" height="9.63"/>
            <rect class="cls-3" x="11.09" y="2.24" width=".74" height="9.63"/>
            <rect class="cls-3" x="11.83" y="2.24" width=".74" height="9.63"/>
            <rect class="cls-3" x="12.56" y="1.5" width=".74" height="10.37"/>
            <rect class="cls-3" x="17.74" y="1.5" width=".74" height="10.37"/>
            <rect class="cls-3" x="18.48" y="2.24" width=".74" height="9.63"/>
            <rect class="cls-3" x="17" y="1.5" width=".74" height="10.37"/>
            <rect class="cls-1" x="13.3" y="8.91" width=".74" height="2.96"/>
            <rect class="cls-1" x="13.3" y="3.72" width=".74" height="2.22"/>
            <rect class="cls-1" x="16.26" y="3.72" width=".74" height="2.22"/>
            <rect class="cls-1" x="16.26" y="8.91" width=".74" height="2.96"/>
            <rect class="cls-1" x="19.22" y="2.24" width=".74" height="9.63"/>
            <rect class="cls-1" x="14.04" y="8.17" width="2.22" height=".74"/>
            <rect class="cls-1" x="14.04" y="2.98" width="2.22" height=".74"/>
            <rect class="cls-1" x="14.04" y="5.95" width="2.22" height=".74"/>
            <rect class="cls-1" x="11.09" y="11.88" width="2.22" height=".74"/>
            <rect class="cls-1" x="17" y="11.88" width="2.22" height=".74"/>
            <rect class="cls-1" x="12.56" y=".02" width="5.17" height=".74"/>
          </g>
          <rect class="cls-1" x="11.83" y=".76" width=".74" height=".74"/>
          <rect class="cls-1" x="17.74" y=".76" width=".74" height=".74"/>
          <rect class="cls-1" x="11.09" y="1.5" width=".74" height=".74"/>
          <rect class="cls-3" x="13.3" y="1.5" width=".74" height="2.22"/>
          <rect class="cls-3" x="16.26" y="1.5" width=".74" height="2.22"/>
          <rect class="cls-3" x="16.26" y="5.95" width=".74" height="2.96"/>
          <rect class="cls-3" x="13.3" y="5.95" width=".74" height="2.96"/>
          <rect class="cls-3" x="14.04" y="6.69" width=".74" height="1.48"/>
          <rect class="cls-3" x="14.78" y="6.69" width=".74" height="1.48"/>
          <rect class="cls-3" x="15.52" y="6.69" width=".74" height="1.48"/>
          <rect class="cls-3" x="14.04" y="1.5" width=".74" height="1.48"/>
          <rect class="cls-3" x="14.78" y="1.5" width=".74" height="1.48"/>
          <rect class="cls-3" x="15.52" y="1.5" width=".74" height="1.48"/>
          <rect class="cls-1" x="18.48" y="1.5" width=".74" height=".74"/>
          <rect class="cls-4" x="12.56" y=".76" width="5.17" height=".74"/>
          <rect class="cls-2" x="11.09" y="11.13" width="2.22" height=".74"/>
          <rect class="cls-2" x="17" y="11.13" width="2.22" height=".74"/>
          <rect class="cls-4" x="11.83" y="1.5" width=".74" height=".74"/>
          <rect class="cls-4" x="17.74" y="1.5" width=".74" height=".74"/>
        </g>
        <g>
          <rect class="cls-3" x="32.52" y=".76" width=".74" height="11.12"/>
          <rect class="cls-3" x="34" y=".76" width=".74" height="2.96"/>
          <rect class="cls-3" x="34" y="4.47" width=".74" height="3.71"/>
          <rect class="cls-3" x="34" y="8.91" width=".74" height="2.96"/>
          <rect class="cls-3" x="34.74" y=".76" width=".74" height="2.22"/>
          <rect class="cls-3" x="35.48" y=".76" width=".74" height="2.22"/>
          <rect class="cls-3" x="36.21" y=".76" width=".74" height="2.22"/>
          <rect class="cls-3" x="36.21" y=".76" width=".74" height="2.22" transform="translate(73.17 3.74) rotate(180)"/>
          <rect class="cls-3" x="36.21" y=".76" width=".74" height="2.22"/>
          <rect class="cls-3" x="36.95" y=".76" width=".74" height="2.22"/>
          <rect class="cls-3" x="37.69" y=".76" width=".74" height="2.22"/>
          <rect class="cls-3" x="38.43" y=".76" width=".74" height="2.22"/>
          <rect class="cls-3" x="39.17" y=".76" width=".74" height="2.22"/>
          <rect class="cls-3" x="34.74" y="5.21" width=".74" height="2.22"/>
          <rect class="cls-3" x="35.48" y="5.21" width=".74" height="2.22"/>
          <rect class="cls-3" x="36.21" y="5.21" width=".74" height="2.22"/>
          <rect class="cls-3" x="36.21" y="5.21" width=".74" height="2.22" transform="translate(73.17 12.64) rotate(180)"/>
          <rect class="cls-3" x="36.21" y="5.21" width=".74" height="2.22"/>
          <rect class="cls-3" x="36.95" y="5.21" width=".74" height="2.22"/>
          <rect class="cls-3" x="37.69" y="5.21" width=".74" height="2.22"/>
          <rect class="cls-3" x="34.74" y="9.65" width=".74" height="2.22"/>
          <rect class="cls-3" x="35.48" y="9.65" width=".74" height="2.22"/>
          <rect class="cls-3" x="36.21" y="9.65" width=".74" height="2.22"/>
          <rect class="cls-3" x="36.21" y="9.65" width=".74" height="2.22" transform="translate(73.17 21.53) rotate(180)"/>
          <rect class="cls-3" x="36.21" y="9.65" width=".74" height="2.22"/>
          <rect class="cls-3" x="36.95" y="9.65" width=".74" height="2.22"/>
          <rect class="cls-3" x="37.69" y="9.65" width=".74" height="2.22"/>
          <rect class="cls-3" x="38.43" y="9.65" width=".74" height="2.22"/>
          <rect class="cls-3" x="39.17" y="9.65" width=".74" height="2.22"/>
          <rect class="cls-1" x="38.43" y="5.21" width=".74" height="2.22"/>
          <rect class="cls-3" x="33.26" y=".76" width=".74" height="11.12"/>
          <rect class="cls-3" x="31.78" y="1.5" width=".74" height="9.63"/>
          <g>
            <rect class="cls-1" x="34.74" y="7.43" width="3.7" height=".74"/>
            <rect class="cls-1" x="34.74" y="4.47" width="3.7" height=".74"/>
            <g>
              <rect class="cls-1" x="31.04" y="1.5" width=".74" height="9.63"/>
              <rect class="cls-1" x="34" y="3.72" width=".74" height=".74"/>
              <rect class="cls-1" x="34" y="8.17" width=".74" height=".74"/>
              <rect class="cls-1" x="34.74" y="8.91" width="5.17" height=".74"/>
              <rect class="cls-1" x="34.74" y="2.98" width="5.17" height=".74"/>
              <rect class="cls-1" x="32.52" y="11.88" width="7.39" height=".74"/>
              <rect class="cls-1" x="39.91" y="9.65" width=".74" height="2.22"/>
              <rect class="cls-1" x="32.52" y=".02" width="7.39" height=".74"/>
              <rect class="cls-4" x="32.52" y=".76" width="7.39" height=".74"/>
              <rect class="cls-4" x="31.78" y="1.5" width=".74" height=".74"/>
              <rect class="cls-2" x="32.52" y="11.13" width="7.39" height=".74"/>
              <rect class="cls-2" x="31.78" y="10.39" width=".74" height=".74"/>
              <rect class="cls-1" x="39.91" y=".76" width=".74" height="2.22"/>
            </g>
          </g>
          <rect class="cls-1" x="31.78" y=".76" width=".74" height=".74"/>
          <rect class="cls-1" x="31.78" y="11.13" width=".74" height=".74"/>
        </g>
      </g>
      <g>
        <g>
          <rect class="cls-3" x="65.04" y=".76" width=".74" height="11.12"/>
          <rect class="cls-3" x="66.52" y=".76" width=".74" height="2.96"/>
          <rect class="cls-3" x="66.52" y="4.47" width=".74" height="3.71"/>
          <rect class="cls-3" x="66.52" y="8.91" width=".74" height="2.96"/>
          <rect class="cls-3" x="67.26" y=".76" width=".74" height="2.22"/>
          <rect class="cls-3" x="67.99" y=".76" width=".74" height="2.22"/>
          <rect class="cls-3" x="68.73" y=".76" width=".74" height="2.22"/>
          <rect class="cls-3" x="68.73" y=".76" width=".74" height="2.22" transform="translate(138.21 3.74) rotate(180)"/>
          <rect class="cls-3" x="68.73" y=".76" width=".74" height="2.22"/>
          <rect class="cls-3" x="69.47" y=".76" width=".74" height="2.22"/>
          <rect class="cls-3" x="70.21" y=".76" width=".74" height="2.22"/>
          <rect class="cls-3" x="70.95" y=".76" width=".74" height="2.22"/>
          <rect class="cls-3" x="71.69" y=".76" width=".74" height="2.22"/>
          <rect class="cls-3" x="67.26" y="5.21" width=".74" height="2.22"/>
          <rect class="cls-3" x="67.99" y="5.21" width=".74" height="2.22"/>
          <rect class="cls-3" x="68.73" y="5.21" width=".74" height="2.22"/>
          <rect class="cls-3" x="68.73" y="5.21" width=".74" height="2.22" transform="translate(138.21 12.64) rotate(180)"/>
          <rect class="cls-3" x="68.73" y="5.21" width=".74" height="2.22"/>
          <rect class="cls-3" x="69.47" y="5.21" width=".74" height="2.22"/>
          <rect class="cls-3" x="70.21" y="5.21" width=".74" height="2.22"/>
          <rect class="cls-3" x="67.26" y="9.65" width=".74" height="2.22"/>
          <rect class="cls-3" x="67.99" y="9.65" width=".74" height="2.22"/>
          <rect class="cls-3" x="68.73" y="9.65" width=".74" height="2.22"/>
          <rect class="cls-3" x="68.73" y="9.65" width=".74" height="2.22" transform="translate(138.21 21.53) rotate(180)"/>
          <rect class="cls-3" x="68.73" y="9.65" width=".74" height="2.22"/>
          <rect class="cls-3" x="69.47" y="9.65" width=".74" height="2.22"/>
          <rect class="cls-3" x="70.21" y="9.65" width=".74" height="2.22"/>
          <rect class="cls-3" x="70.95" y="9.65" width=".74" height="2.22"/>
          <rect class="cls-3" x="71.69" y="9.65" width=".74" height="2.22"/>
          <rect class="cls-1" x="70.95" y="5.21" width=".74" height="2.22"/>
          <rect class="cls-3" x="65.78" y=".76" width=".74" height="11.12"/>
          <rect class="cls-3" x="64.3" y="1.5" width=".74" height="9.63"/>
          <g>
            <rect class="cls-1" x="67.26" y="7.43" width="3.7" height=".74"/>
            <rect class="cls-1" x="67.26" y="4.47" width="3.7" height=".74"/>
            <g>
              <rect class="cls-1" x="63.56" y="1.5" width=".74" height="9.63"/>
              <rect class="cls-1" x="66.52" y="3.72" width=".74" height=".74"/>
              <rect class="cls-1" x="66.52" y="8.17" width=".74" height=".74"/>
              <rect class="cls-1" x="67.26" y="8.91" width="5.17" height=".74"/>
              <rect class="cls-1" x="67.26" y="2.98" width="5.17" height=".74"/>
              <rect class="cls-1" x="65.04" y="11.88" width="7.39" height=".74"/>
              <rect class="cls-1" x="72.43" y="9.65" width=".74" height="2.22"/>
              <rect class="cls-1" x="65.04" y=".02" width="7.39" height=".74"/>
              <rect class="cls-4" x="65.04" y=".76" width="7.39" height=".74"/>
              <rect class="cls-4" x="64.3" y="1.5" width=".74" height=".74"/>
              <rect class="cls-2" x="65.04" y="11.13" width="7.39" height=".74"/>
              <rect class="cls-2" x="64.3" y="10.39" width=".74" height=".74"/>
              <rect class="cls-1" x="72.43" y=".76" width=".74" height="2.22"/>
            </g>
          </g>
          <rect class="cls-1" x="64.3" y=".76" width=".74" height=".74"/>
          <rect class="cls-1" x="64.3" y="11.13" width=".74" height=".74"/>
        </g>
        <g>
          <rect class="cls-3" x="45.08" y=".76" width=".74" height="9.63"/>
          <rect class="cls-3" x="44.34" y=".76" width=".74" height="10.37"/>
          <rect class="cls-3" x="43.61" y="2.24" width=".74" height="8.15"/>
          <rect class="cls-3" x="45.82" y=".76" width=".74" height="9.63"/>
          <rect class="cls-3" x="48.78" y="8.91" width=".74" height=".74"/>
          <rect class="cls-1" x="42.87" y="2.24" width=".74" height="8.15"/>
          <rect class="cls-1" x="45.82" y="3.72" width=".74" height="5.19"/>
          <rect class="cls-1" x="51.74" y="2.24" width=".74" height="8.15"/>
          <rect class="cls-1" x="46.56" y="8.91" width="2.22" height=".74"/>
          <rect class="cls-1" x="46.56" y="2.98" width="2.22" height=".74"/>
          <rect class="cls-3" x="45.08" y="10.39" width="5.18" height=".74"/>
          <rect class="cls-3" x="45.08" y="11.13" width="5.18" height=".74"/>
          <rect class="cls-1" x="44.34" y="11.13" width=".74" height=".74"/>
          <rect class="cls-1" x="50.26" y="11.13" width=".74" height=".74"/>
          <rect class="cls-1" x="44.34" y=".76" width=".74" height=".74"/>
          <rect class="cls-3" x="46.56" y="9.65" width="2.96" height=".74"/>
          <rect class="cls-1" x="48.78" y="3.72" width=".74" height="5.19"/>
          <rect class="cls-1" x="50.26" y=".76" width=".74" height=".74"/>
          <rect class="cls-1" x="43.61" y="10.39" width=".74" height=".74"/>
          <rect class="cls-1" x="51" y="10.39" width=".74" height=".74"/>
          <rect class="cls-1" x="51" y="1.5" width=".74" height=".74"/>
          <rect class="cls-1" x="43.61" y="1.5" width=".74" height=".74"/>
          <rect class="cls-3" x="50.26" y="1.5" width=".74" height="8.15"/>
          <rect class="cls-3" x="46.56" y=".76" width=".74" height="2.22"/>
          <rect class="cls-3" x="47.3" y=".76" width="1.48" height="2.22"/>
          <rect class="cls-3" x="48.78" y=".76" width=".74" height="2.96"/>
          <rect class="cls-3" x="49.52" y=".76" width=".74" height="2.22"/>
          <rect class="cls-3" x="50.26" y="9.65" width=".74" height="1.48"/>
          <rect class="cls-3" x="51" y="9.65" width=".74" height=".74"/>
          <rect class="cls-3" x="49.52" y="9.65" width=".74" height=".74"/>
          <rect class="cls-1" x="45.08" y="11.88" width="5.17" height=".74"/>
          <rect class="cls-2" x="45.08" y="11.13" width="5.17" height=".74"/>
          <rect class="cls-2" x="44.34" y="10.39" width=".74" height=".74"/>
          <rect class="cls-2" x="50.26" y="10.39" width=".74" height=".74"/>
          <rect class="cls-1" x="45.08" y=".02" width="5.17" height=".74"/>
          <rect class="cls-4" x="45.08" y=".76" width="5.17" height=".74"/>
          <rect class="cls-4" x="44.34" y="1.5" width=".74" height=".74"/>
          <rect class="cls-4" x="50.26" y="1.5" width=".74" height=".74"/>
          <rect class="cls-3" x="49.52" y="2.98" width=".74" height="6.67"/>
          <rect class="cls-3" x="51" y="2.24" width=".74" height="7.41"/>
        </g>
        <g>
          <g>
            <rect class="cls-1" x="76.86" y="3.72" width=".74" height="2.22"/>
            <rect class="cls-1" x="79.82" y="3.72" width=".74" height="2.22"/>
            <rect class="cls-1" x="77.6" y="2.98" width="2.22" height=".74"/>
            <rect class="cls-1" x="77.6" y="5.95" width="2.22" height=".74"/>
            <g>
              <rect class="cls-1" x="73.91" y="1.5" width=".74" height="10.37"/>
              <rect class="cls-3" x="74.65" y="1.5" width=".74" height="10.37"/>
              <rect class="cls-3" x="75.39" y=".76" width=".74" height="11.12"/>
              <rect class="cls-3" x="76.12" y=".76" width=".74" height="11.12"/>
              <rect class="cls-3" x="80.56" y=".76" width=".74" height="10.37"/>
              <rect class="cls-3" x="81.3" y="1.5" width=".74" height="6.67"/>
              <rect class="cls-3" x="82.04" y="1.5" width=".74" height="5.93"/>
              <rect class="cls-1" x="82.78" y="2.98" width=".74" height="4.45"/>
              <rect class="cls-3" x="76.86" y=".76" width=".74" height="2.96"/>
              <rect class="cls-3" x="81.3" y="8.91" width=".74" height="2.96"/>
              <rect class="cls-3" x="82.04" y="9.65" width=".74" height="2.22"/>
              <rect class="cls-3" x="82.78" y="10.39" width=".74" height="1.48"/>
              <rect class="cls-3" x="83.52" y="11.13" width=".74" height=".74"/>
              <rect class="cls-3" x="79.82" y=".76" width=".74" height="2.96"/>
              <rect class="cls-3" x="79.08" y=".76" width=".74" height="2.22"/>
              <rect class="cls-3" x="78.34" y=".76" width=".74" height="2.22"/>
              <rect class="cls-3" x="77.6" y=".76" width=".74" height="2.22"/>
              <rect class="cls-3" x="78.34" y="6.69" width=".74" height="2.22"/>
              <rect class="cls-3" x="77.6" y="6.69" width=".74" height="1.48"/>
              <rect class="cls-3" x="79.08" y="6.69" width=".74" height="2.96"/>
              <rect class="cls-3" x="79.82" y="5.95" width=".74" height="4.45"/>
              <rect class="cls-3" x="76.86" y="5.95" width=".74" height="2.96"/>
              <rect class="cls-1" x="76.86" y="8.91" width=".74" height="2.96"/>
              <rect class="cls-1" x="74.65" y=".76" width=".74" height=".74"/>
              <rect class="cls-1" x="81.3" y=".76" width=".74" height=".74"/>
              <rect class="cls-1" x="82.04" y="1.5" width=".74" height="1.48"/>
              <rect class="cls-1" x="82.04" y="7.43" width=".74" height=".74"/>
              <rect class="cls-1" x="75.39" y=".02" width="5.91" height=".74"/>
              <rect class="cls-4" x="75.39" y=".76" width="5.91" height=".74"/>
              <rect class="cls-1" x="74.65" y="11.88" width="2.22" height=".74"/>
            </g>
          </g>
          <g>
            <rect class="cls-1" x="79.08" y="9.65" width=".74" height=".74" transform="translate(89.47 -69.43) rotate(90)"/>
            <rect class="cls-1" x="78.34" y="8.91" width=".74" height=".74" transform="translate(87.99 -69.43) rotate(90)"/>
            <rect class="cls-1" x="77.6" y="8.17" width=".74" height=".74" transform="translate(86.51 -69.43) rotate(90)"/>
            <rect class="cls-1" x="82.04" y="8.91" width=".74" height=".74"/>
            <rect class="cls-1" x="83.14" y="10.77" width="1.48" height=".74" transform="translate(95.02 -72.75) rotate(90)"/>
            <rect class="cls-1" x="82.78" y="9.65" width=".74" height=".74" transform="translate(93.17 -73.12) rotate(90)"/>
            <rect class="cls-1" x="81.3" y="8.17" width=".74" height=".74"/>
            <g>
              <g>
                <rect class="cls-1" x="80.56" y="11.14" width=".74" height=".74" transform="translate(92.43 -69.42) rotate(90)"/>
                <rect class="cls-1" x="79.82" y="10.39" width=".74" height=".74" transform="translate(90.95 -69.43) rotate(90)"/>
              </g>
              <rect class="cls-1" x="81.3" y="11.88" width="2.22" height=".74"/>
              <rect class="cls-2" x="74.65" y="11.13" width="2.22" height=".74"/>
              <rect class="cls-2" x="81.3" y="11.13" width="2.22" height=".74"/>
            </g>
          </g>
        </g>
        <g>
          <g>
            <rect class="cls-1" x="53.21" y=".76" width=".74" height="5.19"/>
            <rect class="cls-1" x="56.91" y="5.95" width=".74" height="2.22"/>
            <rect class="cls-1" x="58.39" y="5.95" width=".74" height="2.22"/>
            <rect class="cls-1" x="62.08" y=".76" width=".74" height="5.19"/>
            <rect class="cls-3" x="53.95" y=".76" width=".74" height="5.19"/>
            <rect class="cls-3" x="61.34" y=".76" width=".74" height="5.19"/>
            <rect class="cls-3" x="60.6" y=".76" width=".74" height="6.67"/>
            <rect class="cls-3" x="57.65" y="8.91" width=".74" height="2.96"/>
            <rect class="cls-3" x="56.91" y="8.17" width=".74" height="2.96"/>
            <rect class="cls-3" x="58.39" y="8.17" width=".74" height="2.96"/>
            <rect class="cls-3" x="54.69" y=".76" width=".74" height="6.67"/>
            <rect class="cls-3" x="55.43" y=".76" width=".74" height="8.15"/>
            <rect class="cls-3" x="56.17" y=".76" width=".74" height="9.63"/>
            <rect class="cls-3" x="59.13" y="5.95" width=".74" height="4.45"/>
            <rect class="cls-3" x="59.87" y=".76" width=".74" height="8.15"/>
            <rect class="cls-1" x="55.43" y="8.91" width=".74" height="1.48"/>
            <rect class="cls-1" x="58.39" y="11.13" width=".74" height=".74"/>
            <rect class="cls-1" x="59.13" y="10.39" width=".74" height=".74"/>
            <rect class="cls-1" x="56.17" y="10.39" width=".74" height=".74"/>
            <rect class="cls-1" x="59.87" y="8.91" width=".74" height="1.48"/>
            <rect class="cls-1" x="60.6" y="7.43" width=".74" height="1.48"/>
            <rect class="cls-1" x="54.69" y="7.43" width=".74" height="1.48"/>
            <rect class="cls-1" x="53.95" y="5.95" width=".74" height="1.48"/>
            <rect class="cls-1" x="61.34" y="5.95" width=".74" height="1.48"/>
            <rect class="cls-1" x="57.65" y="11.88" width=".74" height=".74"/>
            <rect class="cls-2" x="57.65" y="11.13" width=".74" height=".74"/>
            <rect class="cls-1" x="56.91" y="11.13" width=".74" height=".74"/>
            <rect class="cls-1" x="57.65" y="8.17" width=".74" height=".74" transform="translate(49.48 66.56) rotate(-90)"/>
            <rect class="cls-1" x="53.95" y=".02" width="2.22" height=".74"/>
            <rect class="cls-1" x="59.87" y=".02" width="2.22" height=".74"/>
            <rect class="cls-4" x="53.95" y=".76" width="2.96" height=".74"/>
            <rect class="cls-4" x="59.13" y=".76" width="2.96" height=".74"/>
          </g>
          <rect class="cls-1" x="56.17" y=".76" width=".74" height="5.19"/>
          <rect class="cls-1" x="59.13" y=".76" width=".74" height="5.19"/>
        </g>
      </g>
    </g>
  </g>
</svg>