<?xml version="1.0" encoding="UTF-8"?>
<svg id="_レイヤー_2" data-name="レイヤー 2" xmlns="http://www.w3.org/2000/svg" viewBox="0 0 12.98 10.51">
  <defs>
    <style>
      .cls-1 {
        fill: #07042d;
      }

      .cls-1, .cls-2, .cls-3, .cls-4 {
        stroke-width: 0px;
      }

      .cls-2 {
        fill: #ff5c35;
      }

      .cls-3 {
        fill: #ffa118;
      }

      .cls-4 {
        fill: #ffe306;
      }
    </style>
  </defs>
  <g id="pixel">
    <g>
      <g>
        <rect class="cls-1" x=".62" y="1.85" width=".62" height="1.24"/>
        <rect class="cls-1" x=".62" y="7.42" width=".62" height="1.24"/>
        <rect class="cls-1" x="1.24" y="1.24" width=".62" height=".62"/>
        <rect class="cls-2" x=".62" y="9.89" width=".62" height=".62"/>
        <rect class="cls-2" x="1.24" y="3.09" width=".62" height=".62"/>
        <rect class="cls-1" x="3.09" width="1.85" height=".62"/>
        <rect class="cls-1" x="7.42" y="2.47" width=".62" height=".62" transform="translate(10.51 -4.94) rotate(90)"/>
        <rect class="cls-1" x="8.34" y="2.78" width=".62" height="1.24" transform="translate(12.05 -5.25) rotate(90)"/>
        <rect class="cls-1" x="6.18" y="1.24" width=".62" height=".62"/>
        <rect class="cls-1" x="6.8" y="1.85" width=".62" height=".62"/>
        <rect class="cls-1" x="4.94" y=".62" width="1.24" height=".62"/>
        <rect class="cls-1" x="2.16" y=".31" width=".62" height="1.24" transform="translate(3.4 -1.54) rotate(90)"/>
        <rect class="cls-3" x="9.27" y="1.85" width=".62" height=".62" transform="translate(11.74 -7.42) rotate(90)"/>
        <rect class="cls-4" x="11.12" y="2.47" width=".62" height=".62"/>
        <rect class="cls-2" x="6.8" width=".62" height=".62"/>
        <rect class="cls-4" x="12.36" y="7.42" width=".62" height=".62"/>
        <rect class="cls-1" y="4.33" width=".62" height="3.09"/>
        <rect class="cls-1" y="3.09" width=".62" height="1.24"/>
        <rect class="cls-1" x="3.09" y="9.89" width="1.85" height=".62"/>
        <rect class="cls-2" x="3.09" y="9.27" width="1.85" height=".62"/>
        <rect class="cls-2" x="3.09" y=".62" width="1.85" height=".62"/>
        <rect class="cls-2" x="1.85" y="8.65" width="3.71" height=".62"/>
        <rect class="cls-2" x="1.85" y="1.24" width="4.33" height=".62"/>
        <rect class="cls-2" x="1.24" y="8.03" width="4.94" height=".62"/>
        <rect class="cls-2" x="1.24" y="7.42" width="1.85" height=".62"/>
        <rect class="cls-2" x="6.8" y="4.94" width="4.94" height=".62"/>
        <rect class="cls-2" x="6.8" y="5.56" width="4.33" height=".62"/>
        <rect class="cls-2" x="6.18" y="6.18" width="3.71" height=".62"/>
        <rect class="cls-2" x="8.03" y="6.8" width="1.24" height=".62"/>
        <rect class="cls-2" x="6.8" y="4.33" width="4.33" height=".62"/>
        <rect class="cls-2" x="6.8" y="3.71" width="2.47" height=".62"/>
        <rect class="cls-2" x="6.18" y="3.09" width="1.85" height=".62"/>
        <rect class="cls-2" x="5.56" y="2.47" width="1.85" height=".62"/>
        <rect class="cls-2" x="4.94" y="1.85" width="1.85" height=".62"/>
        <rect class="cls-2" x="5.56" y="6.8" width="1.24" height=".62"/>
        <rect class="cls-2" x="4.94" y="7.42" width="1.24" height=".62"/>
        <rect class="cls-2" x=".62" y="6.8" width="1.85" height=".62"/>
        <rect class="cls-2" x=".62" y="6.18" width="1.24" height=".62"/>
        <rect class="cls-2" x="1.24" y="2.47" width="1.24" height=".62"/>
        <rect class="cls-2" x="1.24" y="1.85" width="1.85" height=".62"/>
        <rect class="cls-2" x="1.24" y="4.33" width=".62" height="1.85"/>
        <rect class="cls-2" x="1.24" y="3.71" width=".62" height="2.47"/>
        <rect class="cls-2" x=".62" y="3.09" width=".62" height="3.09"/>
        <rect class="cls-3" x="7.42" y="8.65" width=".62" height=".62" transform="translate(-1.24 16.69) rotate(-90)"/>
        <rect class="cls-1" x="11.12" y="5.56" width=".62" height=".62" transform="translate(5.56 17.3) rotate(-90)"/>
        <rect class="cls-1" x="8.34" y="7.11" width=".62" height="1.24" transform="translate(.93 16.38) rotate(-90)"/>
        <rect class="cls-1" x="2.16" y="8.96" width=".62" height="1.24" transform="translate(-7.11 12.05) rotate(-90)"/>
        <rect class="cls-1" x="1.24" y="8.65" width=".62" height=".62" transform="translate(-7.42 10.51) rotate(-90)"/>
        <rect class="cls-1" x="9.27" y="6.8" width=".62" height=".62"/>
        <rect class="cls-1" x="9.89" y="6.18" width="1.24" height=".62"/>
        <rect class="cls-2" x="8.65" y="9.89" width=".62" height=".62"/>
        <rect class="cls-1" x="9.27" y="3.71" width="1.85" height=".62"/>
        <rect class="cls-1" x="11.74" y="4.94" width=".62" height=".62"/>
        <rect class="cls-1" x="12.36" y="4.33" width=".62" height=".62"/>
        <rect class="cls-1" x="11.12" y="4.33" width=".62" height=".62"/>
        <rect class="cls-1" x="4.94" y="9.27" width=".62" height=".62"/>
        <rect class="cls-1" x="5.56" y="8.65" width=".62" height=".62"/>
        <rect class="cls-1" x="6.18" y="7.42" width=".62" height="1.24"/>
        <rect class="cls-1" x="6.8" y="6.8" width="1.24" height=".62"/>
      </g>
      <rect class="cls-3" x="5.56" y="6.18" width=".62" height=".62"/>
      <rect class="cls-3" x="5.56" y="3.09" width=".62" height=".62"/>
      <rect class="cls-3" x="6.8" y="3.71" width=".62" height=".62"/>
      <rect class="cls-3" x="8.03" y="5.56" width=".62" height=".62"/>
      <rect class="cls-3" x="3.71" y="8.65" width=".62" height=".62"/>
      <rect class="cls-3" x="4.33" y="5.56" width=".62" height=".62"/>
      <rect class="cls-3" x="4.33" y="3.71" width=".62" height=".62"/>
      <rect class="cls-3" x="2.47" y="5.56" width=".62" height=".62"/>
      <rect class="cls-3" x="2.47" y="3.71" width=".62" height=".62"/>
      <rect class="cls-3" x="1.85" y="3.09" width=".62" height="3.71"/>
      <rect class="cls-3" x="1.24" y="4.33" width=".62" height="1.24"/>
      <rect class="cls-3" x="4.94" y="3.71" width=".62" height="3.71"/>
      <rect class="cls-3" x="4.94" y="2.47" width=".62" height=".62"/>
      <rect class="cls-3" x="2.47" y="2.47" width=".62" height=".62"/>
      <rect class="cls-3" x="2.47" y="6.18" width=".62" height="1.24"/>
      <rect class="cls-3" x="6.18" y="3.71" width=".62" height="2.47" transform="translate(12.98 9.89) rotate(180)"/>
      <rect class="cls-3" x="5.56" y="4.33" width=".62" height="1.85" transform="translate(11.74 10.51) rotate(180)"/>
      <rect class="cls-3" x="3.09" y="7.42" width="1.85" height=".62"/>
      <rect class="cls-3" x="3.09" y="6.8" width="1.85" height=".62"/>
      <rect class="cls-3" x="3.09" y="6.18" width="1.85" height=".62"/>
      <rect class="cls-4" x="2.47" y="4.94" width="2.47" height=".62"/>
      <rect class="cls-4" x="2.47" y="4.33" width="2.47" height=".62"/>
      <rect class="cls-4" x="3.09" y="3.71" width="1.24" height=".62"/>
      <rect class="cls-4" x="5.56" y="3.71" width=".62" height=".62"/>
      <rect class="cls-4" x="3.09" y="5.56" width="1.24" height=".62"/>
      <rect class="cls-3" x="3.09" y="1.85" width="1.85" height=".62"/>
      <rect class="cls-3" x="3.09" y="2.47" width="1.85" height=".62"/>
      <rect class="cls-3" x="2.47" y="3.09" width="3.09" height=".62"/>
    </g>
  </g>
</svg>