<?xml version="1.0" encoding="UTF-8"?>
<svg id="_レイヤー_2" data-name="レイヤー 2" xmlns="http://www.w3.org/2000/svg" viewBox="0 0 9.87 9.25">
  <defs>
    <style>
      .cls-1 {
        fill: #07042d;
      }

      .cls-1, .cls-2, .cls-3, .cls-4, .cls-5, .cls-6 {
        stroke-width: 0px;
      }

      .cls-2 {
        fill: #ffffc9;
      }

      .cls-3 {
        fill: #ffff53;
      }

      .cls-4 {
        fill: #ffd91d;
      }

      .cls-5 {
        fill: #ffa72e;
      }

      .cls-6 {
        fill: #f47d25;
      }
    </style>
  </defs>
  <g id="pixel">
    <g>
      <g>
        <rect class="cls-4" x="3.08" y="1.23" width=".62" height="4.93" transform="translate(6.79 7.4) rotate(180)"/>
        <rect class="cls-4" x="3.7" y=".62" width=".62" height="6.17" transform="translate(8.02 7.4) rotate(180)"/>
        <rect class="cls-4" x="4.32" y=".62" width=".62" height="6.17"/>
        <rect class="cls-4" x="4.93" y=".62" width=".62" height="6.17"/>
        <rect class="cls-4" x="5.55" y=".62" width=".62" height="6.17" transform="translate(11.72 7.4) rotate(180)"/>
        <rect class="cls-4" x="6.17" y="1.23" width=".62" height="4.93" transform="translate(12.95 7.4) rotate(180)"/>
        <rect class="cls-4" x="2.47" y="1.23" width=".62" height="4.93" transform="translate(5.55 7.4) rotate(180)"/>
        <rect class="cls-4" x="6.79" y="1.23" width=".62" height="4.93" transform="translate(14.19 7.4) rotate(180)"/>
        <rect class="cls-4" x="1.85" y="1.85" width=".62" height="3.7" transform="translate(4.32 7.4) rotate(180)"/>
        <rect class="cls-4" x="7.4" y="1.85" width=".62" height="3.7"/>
        <rect class="cls-4" x="8.02" y="2.47" width=".62" height="2.47" transform="translate(16.65 7.4) rotate(180)"/>
        <rect class="cls-4" x="5.55" y="6.79" width=".62" height="1.85" transform="translate(11.72 15.42) rotate(180)"/>
        <rect class="cls-4" x="6.17" y="7.4" width=".62" height=".62" transform="translate(12.95 15.42) rotate(180)"/>
        <rect class="cls-4" x="6.79" y="6.79" width=".62" height="1.23" transform="translate(14.19 14.8) rotate(180)"/>
        <rect class="cls-4" x="2.47" y="6.17" width=".62" height="1.85" transform="translate(5.55 14.19) rotate(180)"/>
        <rect class="cls-4" x="3.08" y="6.17" width=".62" height="1.85" transform="translate(6.79 14.19) rotate(180)"/>
        <rect class="cls-4" x="7.4" y="6.17" width=".62" height="1.23" transform="translate(15.42 13.57) rotate(180)"/>
        <rect class="cls-4" x="1.85" y="5.55" width=".62" height="1.85" transform="translate(4.32 12.95) rotate(180)"/>
        <rect class="cls-4" x="8.02" y="4.93" width=".62" height="1.85" transform="translate(16.65 11.72) rotate(180)"/>
        <rect class="cls-4" x="1.23" y="4.93" width=".62" height="1.85" transform="translate(3.08 11.72) rotate(180)"/>
        <rect class="cls-4" x="8.64" y="4.32" width=".62" height="1.23" transform="translate(17.89 9.87) rotate(180)"/>
        <rect class="cls-4" x=".62" y="4.32" width=".62" height="1.23" transform="translate(1.85 9.87) rotate(180)"/>
        <rect class="cls-4" x="4.93" y="6.79" width=".62" height="1.85" transform="translate(10.49 15.42) rotate(180)"/>
        <rect class="cls-4" x="3.7" y="6.79" width=".62" height="1.85"/>
        <rect class="cls-4" x="4.32" y="6.79" width=".62" height="1.85" transform="translate(9.25 15.42) rotate(180)"/>
        <rect class="cls-4" x="1.23" y="2.47" width=".62" height="2.47" transform="translate(3.08 7.4) rotate(180)"/>
        <rect class="cls-1" x="2.78" y=".31" width=".62" height="1.23" transform="translate(2.16 4.01) rotate(-90)"/>
        <rect class="cls-1" x="1.85" y="1.23" width=".62" height=".62" transform="translate(.62 3.7) rotate(-90)"/>
        <rect class="cls-6" x="3.08" y="2.47" width=".62" height=".62" transform="translate(.62 6.17) rotate(-90)"/>
        <rect class="cls-6" x="6.17" y="2.47" width=".62" height=".62" transform="translate(3.7 9.25) rotate(-90)"/>
        <rect class="cls-5" x="6.17" y="6.17" width=".62" height=".62" transform="translate(0 12.95) rotate(-90)"/>
        <rect class="cls-3" x="4.93" y="6.17" width=".62" height=".62" transform="translate(-1.23 11.72) rotate(-90)"/>
        <rect class="cls-3" x="5.24" y="5.86" width="1.23" height=".62" transform="translate(-.31 12.03) rotate(-90)"/>
        <rect class="cls-3" x="5.86" y="5.24" width="1.23" height=".62" transform="translate(.93 12.03) rotate(-90)"/>
        <rect class="cls-3" x="6.48" y="4.63" width="1.23" height=".62" transform="translate(2.16 12.03) rotate(-90)"/>
        <rect class="cls-5" x="3.08" y="6.17" width=".62" height=".62" transform="translate(-3.08 9.87) rotate(-90)"/>
        <rect class="cls-6" x="2.47" y="3.08" width=".62" height=".62" transform="translate(-.62 6.17) rotate(-90)"/>
        <rect class="cls-6" x="6.79" y="3.08" width=".62" height=".62" transform="translate(3.7 10.49) rotate(-90)"/>
        <rect class="cls-4" x="8.64" y="3.7" width=".62" height=".62" transform="translate(4.93 12.95) rotate(-90)"/>
        <rect class="cls-4" x=".62" y="3.7" width=".62" height=".62" transform="translate(-3.08 4.93) rotate(-90)"/>
        <rect class="cls-5" x="6.79" y="5.55" width=".62" height=".62" transform="translate(1.23 12.95) rotate(-90)"/>
        <rect class="cls-5" x="5.55" y="2.47" width=".62" height=".62" transform="translate(3.08 8.64) rotate(-90)"/>
        <rect class="cls-6" x="2.47" y="5.55" width=".62" height=".62" transform="translate(-3.08 8.64) rotate(-90)"/>
        <rect class="cls-1" x="1.23" y="1.85" width=".62" height=".62" transform="translate(-.62 3.7) rotate(-90)"/>
        <rect class="cls-1" x=".31" y="2.78" width="1.23" height=".62" transform="translate(-2.16 4.01) rotate(-90)"/>
        <rect class="cls-1" x="2.78" y="7.71" width=".62" height="1.23" transform="translate(11.41 5.24) rotate(90)"/>
        <rect class="cls-1" x="4.63" y="7.71" width=".62" height="2.47" transform="translate(13.88 4.01) rotate(90)"/>
        <rect class="cls-1" x="4.63" y="-.93" width=".62" height="2.47" transform="translate(5.24 -4.63) rotate(90)"/>
        <rect class="cls-6" x="4.63" y=".93" width=".62" height="2.47" transform="translate(7.09 -2.78) rotate(90)"/>
        <rect class="cls-5" x="4.63" y="5.86" width=".62" height="2.47" transform="translate(12.03 2.16) rotate(90)"/>
        <rect class="cls-1" x="1.85" y="7.4" width=".62" height=".62" transform="translate(9.87 5.55) rotate(90)"/>
        <rect class="cls-1" x="1.23" y="6.79" width=".62" height=".62" transform="translate(8.64 5.55) rotate(90)"/>
        <rect class="cls-1" x=".31" y="5.86" width="1.23" height=".62" transform="translate(7.09 5.24) rotate(90)"/>
        <rect class="cls-1" x="-.62" y="4.32" width="1.85" height=".62" transform="translate(-4.32 4.93) rotate(-90)"/>
        <rect class="cls-5" x="2.16" y="4.01" width="2.47" height=".62" transform="translate(-.93 7.71) rotate(-90)"/>
        <rect class="cls-5" x="2.78" y="3.39" width="2.47" height=".62" transform="translate(.31 7.71) rotate(-90)"/>
        <rect class="cls-5" x="3.7" y="3.08" width="1.85" height=".62" transform="translate(1.23 8.02) rotate(-90)"/>
        <rect class="cls-5" x="4.63" y="2.78" width="1.23" height=".62" transform="translate(2.16 8.33) rotate(-90)"/>
        <rect class="cls-5" x="1.85" y="4.32" width="1.85" height=".62" transform="translate(-1.85 7.4) rotate(-90)"/>
        <rect class="cls-6" x="1.23" y="4.32" width="1.85" height=".62" transform="translate(-2.47 6.79) rotate(-90)"/>
        <rect class="cls-5" x="6.79" y="4.32" width="1.85" height=".62" transform="translate(3.08 12.34) rotate(-90)"/>
        <rect class="cls-1" x="6.48" y=".31" width=".62" height="1.23" transform="translate(5.86 7.71) rotate(-90)"/>
        <rect class="cls-1" x="7.4" y="1.23" width=".62" height=".62" transform="translate(6.17 9.25) rotate(-90)"/>
        <rect class="cls-1" x="8.02" y="1.85" width=".62" height=".62" transform="translate(6.17 10.49) rotate(-90)"/>
        <rect class="cls-1" x="8.33" y="2.78" width="1.23" height=".62" transform="translate(5.86 12.03) rotate(-90)"/>
        <rect class="cls-1" x="6.48" y="7.71" width=".62" height="1.23" transform="translate(15.11 1.54) rotate(90)"/>
        <rect class="cls-1" x="7.4" y="7.4" width=".62" height=".62" transform="translate(15.42 0) rotate(90)"/>
        <rect class="cls-1" x="8.02" y="6.79" width=".62" height=".62" transform="translate(15.42 -1.23) rotate(90)"/>
        <rect class="cls-1" x="8.33" y="5.86" width="1.23" height=".62" transform="translate(15.11 -2.78) rotate(90)"/>
        <rect class="cls-1" x="8.64" y="4.32" width="1.85" height=".62" transform="translate(4.93 14.19) rotate(-90)"/>
        <rect class="cls-2" x="2.47" y="2.47" width=".62" height=".62" transform="translate(5.55 5.55) rotate(180)"/>
        <rect class="cls-2" x="3.08" y="1.85" width=".62" height=".62" transform="translate(6.79 4.32) rotate(180)"/>
        <rect class="cls-2" x="1.85" y="3.08" width=".62" height=".62" transform="translate(4.32 6.79) rotate(180)"/>
      </g>
      <g>
        <rect class="cls-3" x="3.08" y="5.55" width=".62" height=".62" transform="translate(9.25 2.47) rotate(90)"/>
        <rect class="cls-3" x="2.47" y="6.17" width=".62" height=".62" transform="translate(9.25 3.7) rotate(90)"/>
        <rect class="cls-3" x="1.85" y="6.79" width=".62" height=".62" transform="translate(9.25 4.93) rotate(90)"/>
        <rect class="cls-3" x="3.7" y="4.93" width=".62" height=".62" transform="translate(9.25 1.23) rotate(90)"/>
        <rect class="cls-3" x="4.32" y="4.32" width=".62" height=".62" transform="translate(9.25 0) rotate(90)"/>
        <rect class="cls-3" x="4.93" y="3.7" width=".62" height=".62" transform="translate(9.25 -1.23) rotate(90)"/>
        <rect class="cls-3" x="5.55" y="3.08" width=".62" height=".62" transform="translate(9.25 -2.47) rotate(90)"/>
        <rect class="cls-3" x="6.79" y="1.85" width=".62" height=".62" transform="translate(9.25 -4.93) rotate(90)"/>
      </g>
      <g>
        <rect class="cls-3" x="4.32" y="6.17" width=".62" height=".62" transform="translate(11.1 1.85) rotate(90)"/>
        <rect class="cls-3" x="3.08" y="7.4" width=".62" height=".62" transform="translate(11.1 4.32) rotate(90)"/>
        <rect class="cls-3" x="6.17" y="6.79" width=".62" height=".62" transform="translate(13.57 .62) rotate(90)"/>
        <rect class="cls-3" x="6.79" y="6.17" width=".62" height=".62" transform="translate(13.57 -.62) rotate(90)"/>
        <rect class="cls-3" x="7.4" y="5.55" width=".62" height=".62" transform="translate(13.57 -1.85) rotate(90)"/>
        <rect class="cls-3" x="4.93" y="5.55" width=".62" height=".62" transform="translate(11.1 .62) rotate(90)"/>
        <rect class="cls-3" x="5.55" y="4.93" width=".62" height=".62" transform="translate(11.1 -.62) rotate(90)"/>
        <rect class="cls-3" x="6.17" y="4.32" width=".62" height=".62" transform="translate(11.1 -1.85) rotate(90)"/>
        <rect class="cls-3" x="6.79" y="3.7" width=".62" height=".62" transform="translate(11.1 -3.08) rotate(90)"/>
        <rect class="cls-3" x="8.02" y="2.47" width=".62" height=".62" transform="translate(11.1 -5.55) rotate(90)"/>
        <rect class="cls-3" x="7.4" y="3.08" width=".62" height=".62" transform="translate(11.1 -4.32) rotate(90)"/>
      </g>
    </g>
  </g>
</svg>