<?xml version="1.0" encoding="UTF-8"?>
<svg id="_レイヤー_2" data-name="レイヤー 2" xmlns="http://www.w3.org/2000/svg" viewBox="0 0 123.49 47.63">
  <defs>
    <style>
      .cls-1 {
        fill: #298941;
      }

      .cls-1, .cls-2, .cls-3, .cls-4, .cls-5, .cls-6, .cls-7 {
        stroke-width: 0px;
      }

      .cls-2 {
        fill: #07042d;
      }

      .cls-3 {
        fill: #246430;
      }

      .cls-4 {
        fill: #ff5c35;
      }

      .cls-5 {
        fill: #ffa118;
      }

      .cls-6 {
        fill: #ffe306;
      }

      .cls-7 {
        fill: #e8b714;
      }
    </style>
  </defs>
  <g id="pixel">
    <g>
      <g>
        <rect class="cls-1" x="59.98" y="3.53" width="3.53" height="1.76"/>
        <rect class="cls-1" x="54.69" y="7.06" width="1.76" height="10.58"/>
        <rect class="cls-1" x="52.92" y="7.06" width="1.76" height="10.58"/>
        <rect class="cls-1" x="51.16" y="8.82" width="1.76" height="8.82"/>
        <rect class="cls-1" x="49.4" y="8.82" width="1.76" height="8.82"/>
        <rect class="cls-1" x="47.63" y="10.58" width="1.76" height="7.06"/>
        <rect class="cls-1" x="89.97" y="28.23" width="1.76" height="3.53"/>
        <rect class="cls-1" x="91.73" y="29.99" width="1.76" height="3.53"/>
        <rect class="cls-1" x="45.87" y="12.35" width="1.76" height="3.53"/>
        <rect class="cls-1" x="81.15" y="8.82" width="1.76" height="1.76"/>
        <rect class="cls-7" x="63.51" y="24.7" width="1.76" height="3.53"/>
        <rect class="cls-3" x="67.04" y="28.23" width="1.76" height="3.53"/>
        <rect class="cls-2" x="92.62" y="36.16" width="1.76" height="3.53" transform="translate(55.57 131.43) rotate(-90)"/>
        <rect class="cls-2" x="49.4" y="7.06" width="3.53" height="1.76"/>
        <rect class="cls-2" x="47.63" y="8.82" width="1.76" height="1.76"/>
        <rect class="cls-2" x="47.63" y="14.11" width="1.76" height="1.76"/>
        <rect class="cls-3" x="47.63" y="15.88" width="8.82" height="1.76"/>
        <rect class="cls-3" x="45.87" y="14.11" width="1.76" height="1.76"/>
        <rect class="cls-2" x="52.92" y="10.58" width="1.76" height="1.76"/>
        <rect class="cls-2" x="54.69" y="10.58" width="1.76" height="1.76"/>
        <rect class="cls-2" x="54.69" y="8.82" width="1.76" height="1.76"/>
        <rect class="cls-2" x="63.51" y="19.41" width="1.76" height="5.29"/>
        <rect class="cls-1" x="58.22" y="3.53" width="1.76" height="12.35"/>
        <rect class="cls-1" x="59.98" y="7.06" width="1.76" height="10.58"/>
        <rect class="cls-1" x="61.74" y="7.06" width="1.76" height="10.58"/>
        <rect class="cls-1" x="63.51" y="8.82" width="1.76" height="10.58"/>
        <rect class="cls-1" x="65.27" y="8.82" width="1.76" height="10.58"/>
        <rect class="cls-1" x="67.04" y="8.82" width="1.76" height="14.11"/>
        <rect class="cls-1" x="68.8" y="10.58" width="1.76" height="15.88"/>
        <rect class="cls-1" x="97.03" y="1.76" width="1.76" height="14.11"/>
        <rect class="cls-1" x="97.03" y="21.17" width="1.76" height="14.11"/>
        <rect class="cls-1" x="98.79" y="1.76" width="1.76" height="12.35"/>
        <rect class="cls-1" x="100.56" y="1.76" width="1.76" height="10.58"/>
        <rect class="cls-1" x="102.32" y="1.76" width="1.76" height="8.82"/>
        <rect class="cls-1" x="104.08" y="1.76" width="1.76" height="8.82"/>
        <rect class="cls-1" x="105.85" y="1.76" width="1.76" height="7.06"/>
        <rect class="cls-1" x="107.61" y="1.76" width="1.76" height="7.06"/>
        <rect class="cls-1" x="109.38" y="1.76" width="1.76" height="5.29"/>
        <rect class="cls-1" x="111.14" y="1.76" width="1.76" height="5.29"/>
        <rect class="cls-1" x="112.9" y="1.76" width="1.76" height="3.53"/>
        <rect class="cls-1" x="114.67" y="1.76" width="1.76" height="3.53"/>
        <rect class="cls-1" x="112.9" y="24.7" width="1.76" height="5.29"/>
        <rect class="cls-3" x="100.56" y="44.1" width="8.82" height="1.76"/>
        <rect class="cls-1" x="98.79" y="42.34" width="8.82" height="1.76"/>
        <rect class="cls-1" x="111.14" y="22.93" width="1.76" height="7.06"/>
        <rect class="cls-1" x="109.38" y="21.17" width="1.76" height="8.82"/>
        <rect class="cls-1" x="107.61" y="21.17" width="1.76" height="12.35"/>
        <rect class="cls-1" x="105.85" y="19.41" width="1.76" height="14.11"/>
        <rect class="cls-1" x="104.08" y="19.41" width="1.76" height="15.88"/>
        <rect class="cls-1" x="102.32" y="17.64" width="1.76" height="17.64"/>
        <rect class="cls-1" x="116.43" y="1.76" width="3.53" height="1.76"/>
        <rect class="cls-1" x="98.79" y="15.88" width="1.76" height="19.41"/>
        <rect class="cls-1" x="100.56" y="17.64" width="1.76" height="17.64"/>
        <rect class="cls-1" x="70.57" y="10.58" width="1.76" height="19.41"/>
        <rect class="cls-1" x="72.33" y="10.58" width="1.76" height="24.7"/>
        <rect class="cls-1" x="74.09" y="12.35" width="1.76" height="24.7"/>
        <rect class="cls-1" x="75.86" y="12.35" width="1.76" height="28.23"/>
        <rect class="cls-1" x="77.62" y="14.11" width="1.76" height="24.7"/>
        <rect class="cls-1" x="79.39" y="15.88" width="1.76" height="29.99"/>
        <rect class="cls-1" x="81.15" y="14.11" width="1.76" height="31.75"/>
        <rect class="cls-1" x="82.91" y="8.82" width="1.76" height="35.28"/>
        <rect class="cls-1" x="84.68" y="31.75" width="1.76" height="12.35"/>
        <rect class="cls-1" x="86.44" y="35.28" width="1.76" height="7.06"/>
        <rect class="cls-1" x="88.21" y="37.05" width="1.76" height="1.76"/>
        <rect class="cls-3" x="93.5" y="40.57" width="1.76" height="1.76"/>
        <rect class="cls-3" x="95.26" y="42.34" width="1.76" height="1.76"/>
        <rect class="cls-3" x="97.03" y="44.1" width="1.76" height="1.76"/>
        <rect class="cls-1" x="84.68" y="7.06" width="1.76" height="15.88"/>
        <rect class="cls-1" x="86.44" y="7.06" width="1.76" height="14.11"/>
        <rect class="cls-1" x="88.21" y="5.29" width="1.76" height="17.64"/>
        <rect class="cls-1" x="89.97" y="5.29" width="1.76" height="19.41"/>
        <rect class="cls-1" x="91.73" y="3.53" width="1.76" height="26.46"/>
        <rect class="cls-1" x="93.5" y="3.53" width="1.76" height="29.99"/>
        <rect class="cls-1" x="95.26" y="1.76" width="1.76" height="33.52"/>
        <rect class="cls-3" x="70.57" y="35.28" width="1.76" height="3.53"/>
        <rect class="cls-1" x="68.8" y="38.81" width="1.76" height="7.06"/>
        <rect class="cls-1" x="67.04" y="40.57" width="1.76" height="5.29"/>
        <rect class="cls-1" x="65.27" y="40.57" width="1.76" height="5.29"/>
        <rect class="cls-3" x="63.51" y="42.34" width="1.76" height="3.53"/>
        <rect class="cls-3" x="72.33" y="42.34" width="1.76" height="3.53"/>
        <rect class="cls-3" x="74.09" y="40.57" width="1.76" height="3.53"/>
        <rect class="cls-1" x="75.86" y="40.57" width="1.76" height="5.29"/>
        <rect class="cls-1" x="77.62" y="38.81" width="1.76" height="7.06"/>
        <rect class="cls-3" x="61.74" y="44.1" width="8.82" height="1.76"/>
        <rect class="cls-3" x="65.27" y="42.34" width="7.06" height="1.76"/>
        <rect class="cls-3" x="70.57" y="44.1" width="12.35" height="1.76"/>
        <rect class="cls-7" x="70.57" y="29.99" width="1.76" height="5.29"/>
        <rect class="cls-3" x="68.8" y="38.81" width="7.06" height="1.76"/>
        <rect class="cls-3" x="65.27" y="40.57" width="8.82" height="1.76"/>
        <rect class="cls-1" x="56.45" y="5.29" width="1.76" height="10.58"/>
        <rect class="cls-2" x="63.51" y="28.23" width="1.76" height="3.53"/>
        <rect class="cls-2" x="65.27" y="31.75" width="3.53" height="1.76"/>
        <rect class="cls-2" x="61.74" y="24.7" width="1.76" height="3.53"/>
        <rect class="cls-2" x="44.1" y="12.35" width="1.76" height="3.53"/>
        <rect class="cls-2" x="68.8" y="33.52" width="1.76" height="5.29"/>
        <rect class="cls-2" x="45.87" y="15.88" width="1.76" height="1.76"/>
        <rect class="cls-2" x="52.92" y="5.29" width="3.53" height="1.76"/>
        <rect class="cls-2" x="56.45" y="3.53" width="1.76" height="1.76"/>
        <rect class="cls-2" x="65.27" y="38.81" width="3.53" height="1.76"/>
        <rect class="cls-2" x="63.51" y="40.57" width="1.76" height="1.76"/>
        <rect class="cls-2" x="61.74" y="42.34" width="1.76" height="1.76"/>
        <rect class="cls-2" x="59.98" y="44.1" width="1.76" height="1.76"/>
        <rect class="cls-2" x="74.09" y="37.05" width="1.76" height="3.53"/>
        <rect class="cls-2" x="72.33" y="40.57" width="1.76" height="1.76"/>
        <rect class="cls-2" x="72.33" y="35.28" width="1.76" height="1.76"/>
        <rect class="cls-2" x="70.57" y="42.34" width="1.76" height="1.76"/>
        <rect class="cls-2" x="68.8" y="44.1" width="1.76" height="1.76"/>
        <rect class="cls-2" x="97.03" y="42.34" width="1.76" height="1.76" transform="translate(54.69 141.13) rotate(-90)"/>
        <rect class="cls-2" x="98.79" y="44.1" width="1.76" height="1.76" transform="translate(54.69 144.66) rotate(-90)"/>
        <rect class="cls-2" x="109.38" y="44.1" width="1.76" height="1.76" transform="translate(65.27 155.24) rotate(-90)"/>
        <rect class="cls-2" x="88.21" y="35.28" width="1.76" height="1.76"/>
        <rect class="cls-2" x="89.97" y="37.05" width="1.76" height="1.76" transform="translate(52.92 128.78) rotate(-90)"/>
        <rect class="cls-3" x="111.14" y="35.28" width="1.76" height="1.76" transform="translate(75.86 148.19) rotate(-90)"/>
        <rect class="cls-3" x="110.26" y="32.64" width="1.76" height="3.53" transform="translate(76.74 145.54) rotate(-90)"/>
        <rect class="cls-3" x="112.9" y="33.52" width="1.76" height="1.76" transform="translate(79.39 148.19) rotate(-90)"/>
        <rect class="cls-3" x="112.02" y="30.87" width="1.76" height="3.53" transform="translate(80.27 145.54) rotate(-90)"/>
        <rect class="cls-3" x="112.02" y="29.11" width="1.76" height="3.53" transform="translate(82.03 143.78) rotate(-90)"/>
        <rect class="cls-2" x="112.9" y="35.28" width="1.76" height="1.76" transform="translate(77.62 149.95) rotate(-90)"/>
        <rect class="cls-2" x="111.14" y="37.05" width="1.76" height="1.76" transform="translate(74.09 149.95) rotate(-90)"/>
        <rect class="cls-2" x="108.49" y="37.93" width="1.76" height="3.53" transform="translate(69.68 149.07) rotate(-90)"/>
        <rect class="cls-2" x="106.73" y="32.64" width="1.76" height="3.53" transform="translate(73.21 142.01) rotate(-90)"/>
        <rect class="cls-2" x="92.62" y="37.93" width="1.76" height="3.53" transform="translate(53.81 133.19) rotate(-90)"/>
        <rect class="cls-2" x="100.56" y="35.28" width="1.76" height="12.35" transform="translate(59.98 142.89) rotate(-90)"/>
        <rect class="cls-2" x="99.67" y="30.87" width="1.76" height="10.58" transform="translate(64.39 136.72) rotate(-90)"/>
        <rect class="cls-3" x="89.09" y="34.4" width="3.53" height="1.76" transform="translate(55.57 126.14) rotate(-90)"/>
        <rect class="cls-3" x="87.32" y="32.64" width="3.53" height="1.76" transform="translate(55.57 122.61) rotate(-90)"/>
        <rect class="cls-3" x="85.56" y="29.11" width="3.53" height="1.76" transform="translate(57.33 117.31) rotate(-90)"/>
        <rect class="cls-7" x="83.8" y="25.58" width="3.53" height="1.76" transform="translate(59.1 112.02) rotate(-90)"/>
        <rect class="cls-7" x="85.56" y="23.82" width="3.53" height="1.76" transform="translate(62.63 112.02) rotate(-90)"/>
        <rect class="cls-7" x="87.32" y="25.58" width="3.53" height="1.76" transform="translate(62.63 115.55) rotate(-90)"/>
        <rect class="cls-3" x="92.62" y="36.16" width="1.76" height="3.53" transform="translate(55.57 131.43) rotate(-90)"/>
        <rect class="cls-3" x="92.62" y="34.4" width="1.76" height="3.53" transform="translate(57.33 129.66) rotate(-90)"/>
        <rect class="cls-3" x="100.56" y="31.75" width="1.76" height="12.35" transform="translate(63.51 139.37) rotate(-90)"/>
        <rect class="cls-3" x="104.08" y="31.75" width="1.76" height="12.35" transform="translate(67.04 142.89) rotate(-90)"/>
        <rect class="cls-3" x="100.56" y="33.52" width="1.76" height="12.35" transform="translate(61.74 141.13) rotate(-90)"/>
        <rect class="cls-3" x="108.49" y="36.16" width="1.76" height="3.53" transform="translate(71.45 147.3) rotate(-90)"/>
        <rect class="cls-3" x="107.61" y="33.52" width="1.76" height="5.29" transform="translate(72.33 144.66) rotate(-90)"/>
        <rect class="cls-2" x="89.97" y="31.75" width="1.76" height="1.76" transform="translate(58.22 123.49) rotate(-90)"/>
        <rect class="cls-2" x="91.73" y="33.52" width="3.53" height="1.76"/>
        <rect class="cls-2" x="91.73" y="40.57" width="1.76" height="1.76" transform="translate(51.16 134.07) rotate(-90)"/>
        <rect class="cls-2" x="93.5" y="42.34" width="1.76" height="1.76" transform="translate(51.16 137.6) rotate(-90)"/>
        <rect class="cls-2" x="95.26" y="44.1" width="1.76" height="1.76" transform="translate(51.16 141.13) rotate(-90)"/>
        <rect class="cls-2" x="93.5" y="45.87" width="1.76" height="1.76" transform="translate(47.63 141.13) rotate(-90)"/>
        <rect class="cls-2" x="106.73" y="41.46" width="3.53" height="1.76" transform="translate(66.15 150.83) rotate(-90)"/>
        <rect class="cls-2" x="102.32" y="40.57" width="1.76" height="12.35" transform="translate(56.45 149.95) rotate(-90)"/>
        <rect class="cls-2" x="82.91" y="44.1" width="3.53" height="1.76"/>
        <rect class="cls-2" x="86.44" y="42.34" width="1.76" height="1.76"/>
        <rect class="cls-2" x="88.21" y="38.81" width="1.76" height="3.53"/>
        <rect class="cls-2" x="58.22" y="15.88" width="1.76" height="1.76"/>
        <rect class="cls-2" x="63.51" y="7.06" width="5.29" height="1.76"/>
        <rect class="cls-2" x="59.98" y="5.29" width="3.53" height="1.76"/>
        <rect class="cls-2" x="63.51" y="3.53" width="1.76" height="1.76"/>
        <rect class="cls-2" x="68.8" y="8.82" width="5.29" height="1.76"/>
        <rect class="cls-2" x="74.09" y="10.58" width="3.53" height="1.76"/>
        <rect class="cls-2" x="77.62" y="12.35" width="1.76" height="1.76"/>
        <rect class="cls-2" x="79.39" y="14.11" width="1.76" height="1.76"/>
        <rect class="cls-2" x="100.56" y="15.88" width="3.53" height="1.76"/>
        <rect class="cls-2" x="104.08" y="17.64" width="3.53" height="1.76"/>
        <rect class="cls-2" x="107.61" y="19.41" width="3.53" height="1.76"/>
        <rect class="cls-2" x="111.14" y="21.17" width="1.76" height="1.76"/>
        <rect class="cls-2" x="112.9" y="22.93" width="1.76" height="1.76"/>
        <rect class="cls-2" x="114.67" y="24.7" width="1.76" height="10.58"/>
        <rect class="cls-2" x="86.44" y="31.75" width="1.76" height="3.53"/>
        <g>
          <rect class="cls-2" x="86.44" y="21.17" width="1.76" height="1.76"/>
          <rect class="cls-2" x="84.68" y="22.93" width="1.76" height="1.76"/>
          <rect class="cls-2" x="84.68" y="28.23" width="1.76" height="3.53"/>
          <rect class="cls-2" x="88.21" y="28.23" width="1.76" height="3.53"/>
          <rect class="cls-2" x="86.44" y="26.46" width="1.76" height="1.76"/>
          <rect class="cls-2" x="88.21" y="22.93" width="1.76" height="1.76"/>
          <rect class="cls-2" x="82.91" y="24.7" width="1.76" height="3.53"/>
          <rect class="cls-2" x="89.97" y="24.7" width="1.76" height="3.53"/>
        </g>
        <rect class="cls-2" x="109.38" y="29.99" width="1.76" height="3.53"/>
        <rect class="cls-2" x="79.39" y="8.82" width="1.76" height="1.76"/>
        <rect class="cls-2" x="81.15" y="10.58" width="1.76" height="3.53"/>
        <rect class="cls-2" x="98.79" y="14.11" width="1.76" height="1.76"/>
        <rect class="cls-2" x="100.56" y="12.35" width="1.76" height="1.76"/>
        <rect class="cls-2" x="102.32" y="10.58" width="3.53" height="1.76"/>
        <rect class="cls-2" x="105.85" y="8.82" width="3.53" height="1.76"/>
        <rect class="cls-2" x="109.38" y="7.06" width="3.53" height="1.76"/>
        <rect class="cls-2" x="112.9" y="5.29" width="3.53" height="1.76"/>
        <rect class="cls-2" x="116.43" y="3.53" width="3.53" height="1.76"/>
        <rect class="cls-2" x="119.96" y="1.76" width="3.53" height="1.76"/>
        <rect class="cls-2" x="97.03" y="15.88" width="1.76" height="5.29"/>
        <rect class="cls-2" x="81.15" y="7.06" width="3.53" height="1.76"/>
        <rect class="cls-2" x="84.68" y="5.29" width="3.53" height="1.76"/>
        <rect class="cls-2" x="88.21" y="3.53" width="3.53" height="1.76"/>
        <rect class="cls-2" x="91.73" y="1.76" width="3.53" height="1.76"/>
        <rect class="cls-2" x="95.26" width="24.7" height="1.76"/>
        <rect class="cls-2" x="45.87" y="10.58" width="1.76" height="1.76" transform="translate(93.5 22.93) rotate(180)"/>
        <rect class="cls-2" x="58.22" y="1.76" width="8.82" height="1.76"/>
        <rect class="cls-2" x="61.74" y="45.87" width="21.17" height="1.76"/>
        <rect class="cls-2" x="59.98" y="17.64" width="3.53" height="1.76"/>
        <rect class="cls-2" x="47.63" y="17.64" width="10.58" height="1.76"/>
        <rect class="cls-3" x="58.22" y="14.11" width="3.53" height="1.76"/>
        <rect class="cls-3" x="59.98" y="15.88" width="3.53" height="1.76"/>
        <rect class="cls-3" x="59.98" y="3.53" width="3.53" height="1.76"/>
        <rect class="cls-3" x="58.22" y="5.29" width="1.76" height="1.76"/>
        <rect class="cls-3" x="56.45" y="8.82" width="1.76" height="1.76"/>
        <g>
          <rect class="cls-3" x="75.86" y="17.64" width="1.76" height="1.76"/>
          <rect class="cls-3" x="74.09" y="15.88" width="1.76" height="1.76"/>
        </g>
        <g>
          <rect class="cls-3" x="79.39" y="28.23" width="1.76" height="1.76"/>
          <rect class="cls-3" x="77.62" y="26.46" width="1.76" height="1.76"/>
        </g>
        <g>
          <rect class="cls-3" x="89.97" y="15.88" width="1.76" height="1.76"/>
          <rect class="cls-3" x="100.56" y="7.06" width="1.76" height="1.76"/>
          <rect class="cls-3" x="107.61" y="22.93" width="1.76" height="1.76"/>
          <rect class="cls-3" x="72.33" y="22.93" width="1.76" height="1.76"/>
          <rect class="cls-3" x="82.91" y="37.05" width="1.76" height="1.76"/>
          <rect class="cls-3" x="88.21" y="17.64" width="1.76" height="1.76"/>
        </g>
        <g>
          <rect class="cls-3" x="98.79" y="28.23" width="1.76" height="1.76"/>
          <rect class="cls-3" x="97.03" y="29.99" width="1.76" height="1.76"/>
        </g>
        <g>
          <rect class="cls-3" x="67.04" y="10.58" width="1.76" height="1.76"/>
          <rect class="cls-3" x="65.27" y="12.35" width="1.76" height="1.76"/>
        </g>
        <rect class="cls-3" x="52.92" y="8.82" width="1.76" height="1.76"/>
        <rect class="cls-3" x="63.51" y="17.64" width="3.53" height="1.76"/>
        <rect class="cls-7" x="65.27" y="19.41" width="1.76" height="12.35"/>
        <rect class="cls-7" x="67.04" y="22.93" width="1.76" height="8.82"/>
        <rect class="cls-7" x="68.8" y="26.46" width="1.76" height="7.06"/>
        <rect class="cls-3" x="72.33" y="29.99" width="1.76" height="5.29"/>
        <rect class="cls-3" x="70.57" y="26.46" width="1.76" height="3.53"/>
        <rect class="cls-3" x="68.8" y="22.93" width="1.76" height="3.53"/>
        <rect class="cls-3" x="67.04" y="19.41" width="1.76" height="3.53"/>
        <rect class="cls-3" x="74.09" y="35.28" width="1.76" height="1.76"/>
        <rect class="cls-3" x="72.33" y="37.05" width="1.76" height="1.76"/>
        <rect class="cls-3" x="91.73" y="3.53" width="5.29" height="1.76"/>
        <rect class="cls-3" x="88.21" y="5.29" width="5.29" height="1.76"/>
        <rect class="cls-3" x="84.68" y="7.06" width="5.29" height="1.76"/>
        <rect class="cls-3" x="81.15" y="8.82" width="5.29" height="1.76"/>
        <rect class="cls-3" x="111.14" y="3.53" width="5.29" height="1.76"/>
        <rect class="cls-3" x="98.79" y="15.88" width="1.76" height="5.29"/>
        <rect class="cls-3" x="112.9" y="28.23" width="1.76" height="1.76"/>
        <rect class="cls-3" x="82.91" y="10.58" width="1.76" height="3.53"/>
        <rect class="cls-3" x="95.26" y="1.76" width="24.7" height="1.76"/>
        <rect class="cls-3" x="56.45" y="14.11" width="1.76" height="3.53"/>
      </g>
      <g>
        <rect class="cls-2" x="38.81" y="17.64" width="3.53" height="1.76"/>
        <rect class="cls-2" x="28.23" y="21.17" width="3.53" height="1.76"/>
        <rect class="cls-2" x="26.46" y="14.11" width="3.53" height="1.76"/>
        <rect class="cls-2" x="24.7" y="12.35" width="1.76" height="1.76"/>
        <rect class="cls-5" x="31.75" y="12.35" width="1.76" height="1.76"/>
        <rect class="cls-6" x="19.41" y="10.58" width="1.76" height="1.76"/>
        <rect class="cls-6" x="3.75" y="15.88" width="1.76" height="1.76"/>
        <rect class="cls-6" x="12.32" y="24.7" width="1.76" height="1.76"/>
        <rect class="cls-4" x="35.22" y="22.93" width="1.76" height="1.76"/>
        <rect class="cls-5" y="21.17" width="1.76" height="1.76"/>
        <rect class="cls-2" x="19.41" y="15.88" width="1.76" height="1.76"/>
        <rect class="cls-2" x="14.08" y="10.58" width="1.76" height="1.76"/>
        <rect class="cls-2" x="14.08" y="15.88" width="1.76" height="1.76"/>
        <rect class="cls-2" x="8.79" y="15.88" width="1.76" height="1.76"/>
        <rect class="cls-2" x="8.79" y="10.58" width="1.76" height="1.76"/>
        <rect class="cls-2" x="15.84" y="12.35" width="1.76" height="3.53"/>
        <rect class="cls-2" x="7.02" y="12.35" width="1.76" height="3.53"/>
        <rect class="cls-2" x="10.55" y="17.64" width="3.53" height="1.76"/>
        <rect class="cls-2" x="10.55" y="8.82" width="3.53" height="1.76"/>
        <rect class="cls-2" x="17.64" y="17.64" width="1.76" height="1.76"/>
        <rect class="cls-2" x="15.88" y="19.41" width="1.76" height="1.76"/>
        <rect class="cls-2" x="17.64" y="21.17" width="1.76" height="1.76"/>
        <rect class="cls-2" x="24.7" y="22.93" width="3.53" height="1.76"/>
        <rect class="cls-2" x="19.41" y="22.93" width="1.76" height="1.76"/>
        <rect class="cls-2" x="21.17" y="24.7" width="3.53" height="1.76"/>
        <rect class="cls-2" x="21.17" y="14.11" width="3.53" height="1.76"/>
        <rect class="cls-4" x="21.17" y="15.88" width="1.76" height="3.53"/>
        <rect class="cls-4" x="19.41" y="17.64" width="1.76" height="5.29"/>
        <rect class="cls-5" x="21.17" y="19.41" width="1.76" height="3.53"/>
        <rect class="cls-5" x="22.93" y="17.64" width="1.76" height="5.29"/>
        <rect class="cls-6" x="24.7" y="17.64" width="1.76" height="3.53"/>
        <rect class="cls-6" x="22.93" y="19.41" width="1.76" height="1.76"/>
        <rect class="cls-4" x="17.64" y="19.41" width="1.76" height="1.76"/>
        <rect class="cls-4" x="29.99" y="17.64" width="8.82" height="1.76"/>
        <rect class="cls-4" x="22.93" y="22.93" width="1.76" height="1.76"/>
        <rect class="cls-4" x="22.93" y="15.88" width="1.76" height="1.76"/>
        <rect class="cls-4" x="26.46" y="15.88" width="1.76" height="1.76"/>
        <rect class="cls-4" x="26.46" y="21.17" width="1.76" height="1.76"/>
        <rect class="cls-4" x="28.23" y="15.88" width="1.76" height="5.29"/>
        <rect class="cls-4" x="24.7" y="14.11" width="1.76" height="3.53"/>
        <rect class="cls-4" x="29.99" y="19.41" width="1.76" height="1.76"/>
        <rect class="cls-5" x="26.46" y="17.64" width="1.76" height="3.53"/>
        <rect class="cls-5" x="24.7" y="15.88" width="1.76" height="1.76"/>
        <rect class="cls-5" x="24.7" y="21.17" width="1.76" height="1.76"/>
        <rect class="cls-4" x="21.17" y="22.93" width="1.76" height="1.76"/>
        <g>
          <rect class="cls-2" x="3.49" y="21.17" width="1.76" height="1.76"/>
          <rect class="cls-6" x="5.26" y="21.17" width="1.76" height="1.76"/>
          <rect class="cls-2" x="5.26" y="22.93" width="1.76" height="1.76"/>
          <rect class="cls-2" x="7.02" y="21.17" width="1.76" height="1.76"/>
          <rect class="cls-2" x="5.26" y="19.41" width="1.76" height="1.76"/>
        </g>
        <rect class="cls-2" x="31.75" y="19.41" width="7.06" height="1.76"/>
        <rect class="cls-2" x="29.99" y="15.88" width="8.82" height="1.76"/>
        <rect class="cls-6" x="9.67" y="13.23" width="3.53" height="1.76" transform="translate(-2.68 25.55) rotate(-90)"/>
        <rect class="cls-6" x="11.43" y="13.23" width="3.53" height="1.76" transform="translate(-.92 27.31) rotate(-90)"/>
        <rect class="cls-5" x="10.55" y="15.88" width="3.53" height="1.76" transform="translate(24.63 33.52) rotate(180)"/>
        <rect class="cls-5" x="10.55" y="10.58" width="3.53" height="1.76" transform="translate(24.63 22.93) rotate(180)"/>
        <rect class="cls-5" x="13.2" y="13.23" width="3.53" height="1.76" transform="translate(.85 29.07) rotate(-90)"/>
        <rect class="cls-5" x="7.9" y="13.23" width="3.53" height="1.76" transform="translate(-4.44 23.78) rotate(-90)"/>
      </g>
    </g>
  </g>
</svg>