<?xml version="1.0" encoding="UTF-8"?>
<svg id="_レイヤー_2" data-name="レイヤー 2" xmlns="http://www.w3.org/2000/svg" viewBox="0 0 25.92 22.11">
  <defs>
    <style>
      .cls-1 {
        fill: #07042d;
      }

      .cls-1, .cls-2 {
        stroke-width: 0px;
      }

      .cls-2 {
        fill: #fff;
      }
    </style>
  </defs>
  <g id="pixel">
    <g>
      <polygon class="cls-2" points=".76 .76 .76 17.54 19.07 17.54 19.07 18.3 19.83 18.3 19.83 20.59 20.59 20.59 20.59 19.82 21.36 19.82 21.36 18.3 22.12 18.3 22.12 17.54 25.16 17.54 25.16 .76 .76 .76"/>
      <g>
        <g>
          <rect class="cls-1" x=".76" width="24.4" height=".76"/>
          <rect class="cls-1" x=".76" y="17.54" width="18.31" height=".76"/>
          <rect class="cls-1" x="22.12" y="17.54" width="3.04" height=".76"/>
          <g>
            <rect class="cls-1" x="18.31" y="21.35" width=".76" height=".76"/>
            <rect class="cls-1" x="21.36" y="18.3" width=".76" height="1.52"/>
            <rect class="cls-1" x="19.83" y="20.59" width=".76" height=".76"/>
            <rect class="cls-1" x="20.59" y="19.82" width=".76" height=".76"/>
            <rect class="cls-1" x="19.07" y="18.3" width=".76" height="3.05"/>
          </g>
          <rect class="cls-1" y=".76" width=".76" height="16.77"/>
          <rect class="cls-1" x="25.16" y=".76" width=".76" height="16.77"/>
        </g>
        <g>
          <g>
            <rect class="cls-1" x="19.83" y="9.91" width=".76" height="1.52"/>
            <rect class="cls-1" x="22.88" y="9.91" width=".76" height="1.52"/>
            <rect class="cls-1" x="22.12" y="11.44" width=".76" height=".76"/>
            <rect class="cls-1" x="21.36" y="12.2" width=".76" height=".76"/>
            <rect class="cls-1" x="21.36" y="13.72" width=".76" height=".76" transform="translate(7.63 35.84) rotate(-90)"/>
            <rect class="cls-1" x="21.36" y="8.39" width=".76" height="2.29" transform="translate(12.21 31.27) rotate(-90)"/>
          </g>
          <g>
            <g>
              <rect class="cls-1" x="6.87" y="3.03" width=".76" height="4.6"/>
              <rect class="cls-1" x="6.87" y=".76" width=".76" height="3.81" transform="translate(4.58 9.92) rotate(-90)"/>
            </g>
            <g>
              <rect class="cls-1" x="9.92" y="3.81" width=".76" height="3.81"/>
              <rect class="cls-1" x="10.68" y="4.57" width=".76" height=".76" transform="translate(6.11 16.02) rotate(-90)"/>
              <rect class="cls-1" x="11.45" y="3.81" width=".76" height=".76" transform="translate(7.63 16.02) rotate(-90)"/>
              <rect class="cls-1" x="12.21" y="3.81" width=".76" height=".76" transform="translate(8.4 16.78) rotate(-90)"/>
            </g>
            <g>
              <rect class="cls-1" x="16.02" y="3.81" width=".76" height="4.57"/>
              <rect class="cls-1" x="14.88" y="5.72" width=".76" height="1.52" transform="translate(8.78 21.74) rotate(-90)"/>
              <rect class="cls-1" x="14.88" y="8.01" width=".76" height="1.52" transform="translate(6.49 24.03) rotate(-90)"/>
              <rect class="cls-1" x="13.73" y="3.81" width=".76" height="2.29"/>
            </g>
          </g>
          <g>
            <g>
              <rect class="cls-1" x="2.3" y="9.91" width=".76" height="4.57"/>
              <rect class="cls-1" x="3.82" y="10.67" width=".76" height="2.29" transform="translate(-7.61 16.02) rotate(-90)"/>
              <rect class="cls-1" x="3.82" y="8.39" width=".76" height="2.29" transform="translate(-5.33 13.73) rotate(-90)"/>
              <rect class="cls-1" x="4.58" y="9.91" width=".76" height=".76" transform="translate(-5.33 15.26) rotate(-90)"/>
              <rect class="cls-1" x="5.35" y="9.91" width=".76" height="4.57"/>
            </g>
            <g>
              <rect class="cls-1" x="16.02" y="10.67" width=".76" height="3.81" transform="translate(32.8 25.16) rotate(180)"/>
              <rect class="cls-1" x="17.16" y="10.29" width=".76" height="1.52" transform="translate(28.6 -6.49) rotate(90)"/>
              <rect class="cls-1" x="18.31" y="11.44" width=".76" height="3.05" transform="translate(37.38 25.92) rotate(180)"/>
            </g>
            <g>
              <rect class="cls-1" x="10.68" y="12.96" width=".76" height=".76"/>
              <rect class="cls-1" x="12.97" y="11.44" width=".76" height="3.05"/>
              <rect class="cls-1" x="11.83" y="10.29" width=".76" height="1.52" transform="translate(1.15 23.26) rotate(-90)"/>
              <rect class="cls-1" x="11.83" y="11.82" width=".76" height="1.52" transform="translate(-.37 24.79) rotate(-90)"/>
              <rect class="cls-1" x="11.83" y="13.34" width=".76" height="1.52" transform="translate(-1.9 26.31) rotate(-90)"/>
            </g>
            <g>
              <rect class="cls-1" x="6.87" y="11.44" width=".76" height="1.52"/>
              <rect class="cls-1" x="9.16" y="10.67" width=".76" height="4.57"/>
              <rect class="cls-1" x="8.02" y="10.29" width=".76" height="1.52" transform="translate(-2.66 19.45) rotate(-90)"/>
              <rect class="cls-1" x="8.02" y="14.87" width=".76" height="1.52" transform="translate(-7.23 24.03) rotate(-90)"/>
              <rect class="cls-1" x="8.02" y="12.58" width=".76" height="1.52" transform="translate(-4.95 21.74) rotate(-90)"/>
            </g>
            <g>
              <rect class="cls-1" x="14.5" y="11.44" width=".76" height="3.05"/>
              <rect class="cls-1" x="14.5" y="9.91" width=".76" height=".76"/>
            </g>
          </g>
        </g>
      </g>
    </g>
  </g>
</svg>