<?xml version="1.0" encoding="UTF-8"?>
<svg id="_レイヤー_2" data-name="レイヤー 2" xmlns="http://www.w3.org/2000/svg" viewBox="0 0 295.78 144.44">
  <defs>
    <style>
      .cls-1 {
        stroke-width: 0px;
      }
    </style>
  </defs>
  <g id="_レイヤー_6" data-name="レイヤー 6">
    <g>
      <path class="cls-1" d="M11.08,128.13c-1.49.5-2.32,2.17-1.85,3.58l2.79,8.31c.56,1.66-.27,3.33-1.68,3.8l-1.5.5c-1.41.47-3.08-.35-3.63-2.01L.13,127.18c-.47-1.41.35-3.08,1.77-3.55l1.5-.5c1.41-.47,2.24-2.14,1.68-3.8l-2.79-8.3c-.5-1.5.33-3.16,1.82-3.66,1.41-.47,2.93-1.45,3.21-2,.28-.55.05-2.05-.45-3.54l-2.29-6.81c-.56-1.66.27-3.32,1.93-3.88,1.41-.47,2.82-1.22,3.1-1.78.28-.55.13-2.35-.34-3.77l-2.31-6.89c-.47-1.41.35-3.08,1.77-3.55l1.5-.5c1.41-.47,3.08.35,3.55,1.77l2.31,6.89c.47,1.41,1.45,2.93,2,3.21.55.28,2.13.02,3.54-.45,1.66-.56,3.16.33,3.72,1.99l2.29,6.81c.5,1.5,1.39,2.77,1.95,3.04.55.28,2.11.22,3.77-.34,1.5-.5,3.16.33,3.66,1.82l2.79,8.3c.56,1.66,2.22,2.49,3.63,2.01l1.49-.5c1.41-.47,3.08.35,3.55,1.76l5.07,15.12c.56,1.66-.27,3.32-1.68,3.8l-1.5.5c-1.41.47-3.08-.35-3.63-2.01l-2.79-8.31c-.47-1.41-2.14-2.24-3.8-1.68l-29.07,9.76ZM30.97,113.87c1.49-.5,2.32-2.17,1.76-3.83l-2.31-6.89c-.47-1.41-1.28-2.99-1.83-3.26-.55-.28-2.3.03-3.71.51-1.5.5-3.16-.33-3.63-1.74l-2.31-6.89c-.56-1.66-1.2-3.02-1.75-3.29s-1.94-.27-3.19.15c-1.08.36-2.19,1.2-2.46,1.75-.28.55.03,2.02.59,3.68l2.31,6.89c.47,1.41-.35,3.08-1.85,3.58-1.66.56-2.99,1.28-3.26,1.84-.28.55-.13,2.35.34,3.77l2.31,6.89c.56,1.66,2.22,2.49,3.88,1.93l15.12-5.07Z"/>
      <path class="cls-1" d="M70.96,123.46l-1.5.5c-1.41.47-3.08-.35-3.63-2.02l-14.33-42.69c-.56-1.66.27-3.32,1.68-3.8l1.5-.5c1.41-.47,3.08.35,3.63,2.01l.42,1.25c.56,1.66,2.22,2.49,3.72,1.99,1.41-.47,2.93-1.45,3.21-2,.28-.55.02-2.13-.53-3.79-.47-1.41.35-3.08,2.01-3.63l8.3-2.79c1.41-.47,3.08.35,3.55,1.77.56,1.66,1.47,3.02,2.03,3.29.55.28,2.19.19,3.6-.28,1.66-.56,3.16.33,3.63,1.74l.5,1.5c.47,1.41-.35,3.08-1.85,3.58l-1.41.47c-1.5.5-3.16-.33-3.63-1.74-.5-1.5-1.22-3.1-1.78-3.38-.55-.28-2.27.12-3.77.62l-5.4,1.81c-1.41.47-3.02,1.2-3.29,1.75-.28.55-.13,2.35.37,3.85.47,1.41-.35,3.08-1.85,3.58l-1.41.47c-1.5.5-2.32,2.17-1.82,3.66l9.73,28.98c.56,1.66-.27,3.32-1.68,3.8Z"/>
      <path class="cls-1" d="M114.51,85.83c-1.49.5-2.32,2.17-1.85,3.58l2.29,6.81c.5,1.5,1.47,3.02,2.03,3.29.55.28,2.11-.06,3.77-.62l12.21-4.1c1.49-.5,3.1-1.22,3.38-1.78.28-.55-.12-2.27-.62-3.77-.47-1.41.35-3.08,1.85-3.58l1.41-.47c1.49-.5,3.16.33,3.63,1.74l.5,1.5c.47,1.41-.19,3.02-1.85,3.58-1.41.47-2.77,1.39-3.04,1.95s-.19,2.19.28,3.6c.56,1.66-.27,3.33-1.68,3.8l-15.36,5.16c-1.5.5-3.16-.33-3.72-1.99-.47-1.41-1.14-2.85-1.7-3.13-.55-.28-2.36-.13-3.85.37-1.41.47-3.08-.35-3.55-1.77l-9.76-29.07c-.47-1.41.35-3.08,1.77-3.55,1.5-.5,3.02-1.47,3.29-2.03.28-.55-.06-2.1-.62-3.77-.47-1.41.35-3.08,1.85-3.58l15.36-5.16c1.41-.47,3.08.35,3.55,1.76.56,1.66,1.47,3.02,2.03,3.29.55.28,2.19.19,3.6-.28,1.66-.56,3.16.33,3.63,1.74l5.1,15.2c.56,1.66-.27,3.33-1.76,3.83l-22.17,7.44ZM108.48,76.95c.5,1.49,2.17,2.32,3.66,1.82l13.45-4.52c1.66-.56,3.05-.56,3.19-.15.2.58,1.17.72,2,.44,1.08-.36,1.38-1.39,1.05-2.38-.28-.83-.72-1.61-1.39-1.38-.42.14-1.25-.97-1.75-2.46l-1.73-5.15c-.5-1.5-1.22-3.1-1.78-3.38-.56-.28-2.27.12-3.77.62l-12.21,4.1c-1.66.56-3.1,1.23-3.38,1.78-.28.55-.13,2.36.37,3.85l2.29,6.81Z"/>
      <path class="cls-1" d="M172.62,59.4c-.55-.28-2.35-.13-3.77.34-1.5.5-3.16-.33-3.66-1.82l-2.29-6.81c-.5-1.5-1.23-3.1-1.78-3.38-.55-.28-2.27.12-3.77.62-1.41.47-3.08-.35-3.63-2.01l-5.1-15.2c-.47-1.41.35-3.08,1.77-3.55l1.5-.5c1.41-.47,3.08.35,3.55,1.77l4.6,13.7c.56,1.66,1.47,3.02,2.03,3.29s2.19.19,3.6-.28c1.66-.56,3.16.33,3.63,1.74l2.31,6.89c.47,1.41,1.45,2.93,2,3.21s1.88.11,2.88-.23c1.08-.36,2.24-1.03,2.52-1.58.28-.55.13-2.35-.34-3.77l-2.31-6.89c-.47-1.41.35-3.08,1.77-3.55,1.5-.5,3.02-1.47,3.29-2.03s-.06-2.1-.62-3.77l-4.6-13.7c-.47-1.41.35-3.08,1.85-3.58l1.41-.47c1.5-.5,3.16.33,3.63,1.74l5.1,15.2c.56,1.66-.1,3.27-1.76,3.83-1.41.47-2.85,1.14-3.13,1.7-.28.55-.13,2.35.37,3.85l2.29,6.81c.5,1.49-.33,3.16-1.74,3.63-1.49.5-3.02,1.47-3.29,2.03-.28.55.03,2.02.59,3.68l6.88,20.51c.56,1.66-.27,3.33-1.93,3.88l-1.25.42c-1.66.56-3.32-.27-3.88-1.93l-6.88-20.51c-.56-1.66-1.28-2.99-1.84-3.26Z"/>
      <path class="cls-1" d="M244.91,54.26c.47,1.41-.19,3.02-1.85,3.58-1.41.47-2.77,1.39-3.04,1.95-.28.55-.19,2.19.28,3.6.56,1.66-.27,3.33-1.68,3.8l-15.36,5.16c-1.5.5-3.16-.33-3.72-1.99-.47-1.41-1.14-2.85-1.7-3.13-.55-.28-2.35-.13-3.85.37-1.41.47-3.08-.35-3.55-1.77l-9.76-29.07c-.47-1.41.35-3.08,1.77-3.55,1.5-.5,3.02-1.47,3.29-2.03.28-.55-.06-2.1-.62-3.77-.47-1.41.35-3.08,1.85-3.58l15.36-5.16c1.41-.47,3.08.35,3.55,1.77.56,1.66,1.47,3.02,2.03,3.29.55.28,2.19.19,3.6-.28,1.66-.56,3.16.33,3.63,1.74l9.76,29.07ZM228.76,29c-.5-1.5-1.22-3.1-1.78-3.38-.55-.28-2.27.12-3.77.62l-12.21,4.1c-1.66.56-3.1,1.23-3.38,1.78s-.13,2.35.37,3.85l8.75,26.08c.5,1.5,1.47,3.02,2.03,3.29.55.28,2.1-.06,3.77-.62l12.21-4.1c1.49-.5,3.1-1.23,3.38-1.78.28-.55-.12-2.27-.62-3.77l-8.75-26.08Z"/>
      <path class="cls-1" d="M274.39,4.45c-.56-1.66.27-3.32,1.76-3.83l1.41-.47c1.49-.5,3.16.33,3.72,1.99l14.33,42.69c.56,1.66-.27,3.32-1.76,3.83l-1.41.47c-1.5.5-3.16-.33-3.72-1.99l-.42-1.25c-.56-1.66-2.22-2.49-3.63-2.02-1.49.5-3.02,1.48-3.29,2.03s.06,2.1.53,3.52c.56,1.66-.27,3.33-1.93,3.88l-8.3,2.79c-1.5.5-3.16-.33-3.72-1.99-.47-1.41-1.14-2.85-1.7-3.13-.55-.28-2.36-.13-3.85.37-1.41.47-3.08-.35-3.55-1.77l-12.04-35.88c-.56-1.66.27-3.32,1.68-3.8l1.5-.5c1.41-.47,3.08.35,3.63,2.01l11.54,34.38c.5,1.5,1.47,3.02,2.03,3.29s2.11-.06,3.77-.62l5.15-1.73c1.66-.56,3.1-1.23,3.38-1.78.28-.55.13-2.35-.37-3.85-.47-1.41.35-3.08,1.77-3.55l1.49-.5c1.41-.47,2.24-2.14,1.77-3.55l-9.76-29.07Z"/>
    </g>
  </g>
</svg>