<?xml version="1.0" encoding="UTF-8"?>
<svg id="_レイヤー_2" data-name="レイヤー 2" xmlns="http://www.w3.org/2000/svg" viewBox="0 0 27.83 32.22">
  <defs>
    <style>
      .cls-1 {
        fill: #4c4c70;
      }

      .cls-1, .cls-2, .cls-3, .cls-4, .cls-5, .cls-6, .cls-7, .cls-8, .cls-9, .cls-10, .cls-11 {
        stroke-width: 0px;
      }

      .cls-2 {
        fill: #60608d;
      }

      .cls-3 {
        fill: #353554;
      }

      .cls-4 {
        fill: #88a;
      }

      .cls-5 {
        fill: #07042d;
      }

      .cls-6 {
        fill: #c7c7d7;
      }

      .cls-7 {
        fill: #dfdfe8;
      }

      .cls-8 {
        fill: #ababc3;
      }

      .cls-9 {
        fill: #c40851;
      }

      .cls-10 {
        fill: #ff2968;
      }

      .cls-11 {
        fill: #e5e5ec;
      }
    </style>
  </defs>
  <g id="pixel">
    <g>
      <rect class="cls-10" x="6.59" y="1.46" width=".73" height=".73"/>
      <g>
        <g>
          <g>
            <g>
              <rect class="cls-5" x="10.25" y="12.45" width=".73" height="3.66"/>
              <rect class="cls-8" x="5.13" y="10.25" width=".73" height="2.2"/>
              <rect class="cls-8" x="4.39" y="10.98" width=".73" height="1.46"/>
              <rect class="cls-8" x="3.66" y="10.98" width=".73" height="1.46"/>
              <rect class="cls-8" x="6.59" y="19.04" width=".73" height="2.2"/>
              <rect class="cls-8" x="5.86" y="19.77" width=".73" height="2.2"/>
              <rect class="cls-6" x="7.32" y="13.91" width=".73" height="2.2"/>
              <rect class="cls-6" x="2.93" y="13.91" width=".73" height="2.2"/>
              <rect class="cls-8" x="3.66" y="19.04" width=".73" height="2.2"/>
              <rect class="cls-8" x="4.39" y="19.77" width=".73" height="2.2"/>
              <rect class="cls-8" x="5.13" y="20.5" width=".73" height="2.2"/>
              <rect class="cls-8" x="7.32" y="17.58" width=".73" height="2.93"/>
              <rect class="cls-6" x="6.59" y="13.18" width=".73" height="4.39"/>
              <rect class="cls-6" x="3.66" y="13.18" width=".73" height="4.39"/>
              <rect class="cls-6" x="5.86" y="13.18" width=".73" height="5.86"/>
              <rect class="cls-6" x="4.39" y="13.18" width=".73" height="5.86"/>
              <rect class="cls-6" x="5.13" y="13.18" width=".73" height="6.59"/>
              <rect class="cls-8" x="2.93" y="17.58" width=".73" height="2.93"/>
              <rect class="cls-8" x="6.59" y="10.98" width=".73" height="1.46"/>
              <rect class="cls-8" x="7.32" y="11.72" width=".73" height="1.46"/>
              <rect class="cls-8" x="2.93" y="11.72" width=".73" height="1.46"/>
              <rect class="cls-8" x="8.06" y="11.72" width=".73" height="7.32"/>
              <rect class="cls-8" x="2.2" y="11.72" width=".73" height="7.32"/>
              <rect class="cls-8" x="8.79" y="12.45" width=".73" height="5.13"/>
              <rect class="cls-8" x="1.46" y="12.45" width=".73" height="5.13"/>
              <rect class="cls-8" x="9.52" y="12.45" width=".73" height="3.66"/>
              <rect class="cls-4" x="8.06" y="14.65" width=".73" height="1.46"/>
              <rect class="cls-4" x="8.06" y="13.91" width=".73" height=".73"/>
              <rect class="cls-4" x="7.32" y="13.18" width=".73" height=".73"/>
              <rect class="cls-4" x="7.32" y="16.11" width=".73" height="1.46"/>
              <rect class="cls-4" x="2.93" y="13.18" width=".73" height=".73"/>
              <rect class="cls-9" x="8.06" y="13.18" width=".73" height=".73"/>
              <rect class="cls-7" x=".73" y="11.72" width=".73" height=".73"/>
              <rect class="cls-4" x="6.59" y="17.58" width=".73" height="1.46"/>
              <rect class="cls-4" x="7.32" y="19.04" width=".73" height="1.46"/>
              <rect class="cls-4" x="8.06" y="18.31" width=".73" height=".73"/>
              <rect class="cls-4" x="8.79" y="16.84" width=".73" height=".73"/>
              <rect class="cls-4" x="2.2" y="18.31" width=".73" height=".73"/>
              <rect class="cls-4" x="1.46" y="16.84" width=".73" height=".73"/>
              <rect class="cls-4" x="2.93" y="19.04" width=".73" height="1.46"/>
              <rect class="cls-4" x="6.59" y="20.5" width=".73" height=".73"/>
              <rect class="cls-4" x="3.66" y="20.5" width=".73" height=".73"/>
              <rect class="cls-4" x="4.39" y="21.24" width="2.2" height=".73"/>
              <rect class="cls-4" x="2.2" y="13.91" width=".73" height="2.2"/>
              <rect class="cls-8" x=".73" y="12.45" width=".73" height="3.66"/>
              <rect class="cls-8" x="5.86" y="10.98" width=".73" height="1.46"/>
              <rect class="cls-5" x="6.59" y="21.24" width=".73" height=".73" transform="translate(13.91 43.21) rotate(180)"/>
              <rect class="cls-5" x="7.32" y="20.5" width=".73" height=".73" transform="translate(15.38 41.74) rotate(180)"/>
              <rect class="cls-5" x="7.32" y="10.98" width="1.46" height=".73" transform="translate(16.11 22.7) rotate(180)"/>
              <rect class="cls-5" x="8.79" y="11.72" width="1.46" height=".73" transform="translate(19.04 24.17) rotate(180)"/>
              <rect class="cls-5" x="5.13" y="9.52" width=".73" height=".73" transform="translate(10.98 19.77) rotate(180)"/>
              <rect class="cls-5" x="3.66" y="21.24" width=".73" height=".73" transform="translate(8.06 43.21) rotate(180)"/>
              <rect class="cls-5" x="5.86" y="10.25" width="1.46" height=".73" transform="translate(13.18 21.24) rotate(180)"/>
              <rect class="cls-5" x="8.79" y="17.58" width=".73" height="1.46"/>
              <rect class="cls-5" x="8.06" y="19.04" width=".73" height="1.46"/>
              <rect class="cls-5" x="9.52" y="16.11" width=".73" height="1.46"/>
              <rect class="cls-5" x="4.39" y="21.97" width="2.2" height=".73"/>
              <rect class="cls-5" y="12.45" width=".73" height="3.66"/>
              <rect class="cls-5" x="2.2" y="10.98" width="1.46" height=".73"/>
              <rect class="cls-5" x=".73" y="11.72" width="1.46" height=".73"/>
              <rect class="cls-5" x="1.46" y="17.58" width=".73" height="1.46"/>
              <rect class="cls-5" x="2.2" y="19.04" width=".73" height="1.46"/>
              <rect class="cls-5" x=".73" y="16.11" width=".73" height="1.46"/>
              <rect class="cls-5" x="2.93" y="20.5" width=".73" height=".73"/>
              <rect class="cls-5" x="3.66" y="10.25" width="1.46" height=".73"/>
            </g>
            <rect class="cls-9" x="5.13" y="11.72" width=".73" height=".73"/>
            <rect class="cls-9" x="2.2" y="13.18" width=".73" height=".73"/>
            <rect class="cls-9" x="7.32" y="17.58" width=".73" height=".73"/>
            <rect class="cls-11" x="5.86" y="14.65" width=".73" height=".73"/>
            <rect class="cls-11" x="6.59" y="15.38" width=".73" height=".73"/>
            <rect class="cls-11" x="5.13" y="13.91" width=".73" height=".73"/>
            <rect class="cls-11" x="4.39" y="13.18" width=".73" height=".73"/>
            <rect class="cls-11" x="5.13" y="16.11" width=".73" height=".73"/>
            <rect class="cls-11" x="5.86" y="16.84" width=".73" height=".73"/>
            <rect class="cls-11" x="4.39" y="15.38" width=".73" height=".73"/>
            <rect class="cls-11" x="3.66" y="14.65" width=".73" height=".73"/>
            <rect class="cls-11" x="2.93" y="13.91" width=".73" height=".73"/>
            <rect class="cls-9" x="2.93" y="17.58" width=".73" height=".73"/>
            <rect class="cls-9" x="5.13" y="20.5" width=".73" height=".73"/>
            <rect class="cls-4" x="3.66" y="12.45" width="3.66" height=".73"/>
            <rect class="cls-4" x="5.86" y="19.04" width=".73" height=".73"/>
            <rect class="cls-4" x="5.13" y="19.77" width=".73" height=".73"/>
            <rect class="cls-4" x="4.39" y="19.04" width=".73" height=".73"/>
            <rect class="cls-4" x="3.66" y="17.58" width=".73" height="1.46"/>
            <rect class="cls-4" x="2.93" y="16.11" width=".73" height="1.46"/>
          </g>
          <g>
            <rect class="cls-5" x="21.24" y="20.5" width=".73" height=".73" transform="translate(42.47 -.73) rotate(90)"/>
            <rect class="cls-5" x="20.5" y="19.77" width=".73" height=".73" transform="translate(41.01 -.73) rotate(90)"/>
            <rect class="cls-5" x="21.97" y="21.24" width=".73" height=".73" transform="translate(43.94 -.73) rotate(90)"/>
            <rect class="cls-5" x="22.7" y="21.97" width=".73" height=".73" transform="translate(45.4 -.73) rotate(90)"/>
            <rect class="cls-5" x="23.43" y="22.7" width=".73" height=".73" transform="translate(46.87 -.73) rotate(90)"/>
            <rect class="cls-5" x="24.17" y="23.43" width=".73" height=".73" transform="translate(48.33 -.73) rotate(90)"/>
            <rect class="cls-5" x="24.9" y="24.17" width=".73" height=".73" transform="translate(49.8 -.73) rotate(90)"/>
            <rect class="cls-5" x="25.63" y="24.9" width=".73" height=".73" transform="translate(51.26 -.73) rotate(90)"/>
            <rect class="cls-5" x="26.36" y="25.63" width=".73" height=".73" transform="translate(52.73 -.73) rotate(90)"/>
            <rect class="cls-5" x="19.04" y="22.7" width=".73" height=".73" transform="translate(42.47 3.66) rotate(90)"/>
            <rect class="cls-5" x="18.31" y="21.97" width=".73" height=".73" transform="translate(41.01 3.66) rotate(90)"/>
            <rect class="cls-5" x="19.77" y="23.43" width=".73" height=".73" transform="translate(43.94 3.66) rotate(90)"/>
            <rect class="cls-5" x="20.5" y="24.17" width=".73" height=".73" transform="translate(45.4 3.66) rotate(90)"/>
            <rect class="cls-5" x="21.24" y="24.9" width=".73" height=".73" transform="translate(46.87 3.66) rotate(90)"/>
            <rect class="cls-5" x="21.97" y="25.63" width=".73" height=".73" transform="translate(48.33 3.66) rotate(90)"/>
            <rect class="cls-5" x="22.7" y="26.36" width=".73" height=".73" transform="translate(49.8 3.66) rotate(90)"/>
            <rect class="cls-5" x="21.24" y="18.31" width=".73" height=".73" transform="translate(43.21 37.35) rotate(180)"/>
            <rect class="cls-5" x="21.97" y="16.84" width=".73" height="1.46" transform="translate(44.67 35.15) rotate(180)"/>
            <rect class="cls-5" x="20.5" y="19.04" width=".73" height=".73" transform="translate(41.74 38.81) rotate(180)"/>
            <rect class="cls-5" x="19.77" y="19.77" width=".73" height=".73" transform="translate(40.28 40.28) rotate(180)"/>
            <rect class="cls-5" x="19.04" y="20.5" width=".73" height=".73" transform="translate(38.81 41.74) rotate(180)"/>
            <rect class="cls-5" x="18.31" y="21.24" width=".73" height=".73" transform="translate(37.35 43.21) rotate(180)"/>
            <rect class="cls-5" x="17.58" y="21.97" width=".73" height=".73" transform="translate(35.88 44.67) rotate(180)"/>
            <rect class="cls-5" x="16.84" y="22.7" width=".73" height=".73" transform="translate(34.42 46.14) rotate(180)"/>
            <rect class="cls-5" x="15.38" y="23.43" width="1.46" height=".73" transform="translate(32.22 47.6) rotate(180)"/>
            <rect class="cls-5" x="21.24" y="16.84" width=".73" height=".73"/>
            <rect class="cls-5" x="18.31" y="18.31" width=".73" height=".73" transform="translate(37.35 37.35) rotate(180)"/>
            <rect class="cls-5" x="17.58" y="17.58" width=".73" height=".73" transform="translate(35.88 35.88) rotate(180)"/>
            <rect class="cls-5" x="16.84" y="16.84" width=".73" height=".73" transform="translate(34.42 34.42) rotate(180)"/>
            <rect class="cls-5" x="16.11" y="19.04" width=".73" height=".73" transform="translate(32.95 38.81) rotate(180)"/>
            <rect class="cls-5" x="15.38" y="18.31" width=".73" height=".73"/>
            <rect class="cls-5" x="16.11" y="17.58" width=".73" height=".73"/>
            <rect class="cls-5" x="16.84" y="19.77" width=".73" height=".73" transform="translate(34.42 40.28) rotate(180)"/>
            <rect class="cls-5" x="15.38" y="22.7" width=".73" height=".73" transform="translate(31.49 46.14) rotate(180)"/>
            <rect class="cls-5" x="20.5" y="17.58" width=".73" height=".73" transform="translate(41.74 35.88) rotate(180)"/>
            <rect class="cls-5" x="19.77" y="18.31" width=".73" height=".73" transform="translate(40.28 37.35) rotate(180)"/>
            <rect class="cls-5" x="19.04" y="19.04" width=".73" height=".73" transform="translate(38.81 38.81) rotate(180)"/>
            <rect class="cls-5" x="18.31" y="19.77" width=".73" height=".73" transform="translate(37.35 40.28) rotate(180)"/>
            <rect class="cls-5" x="17.58" y="20.5" width=".73" height=".73" transform="translate(35.88 41.74) rotate(180)"/>
            <rect class="cls-5" x="16.84" y="21.24" width=".73" height=".73" transform="translate(34.42 43.21) rotate(180)"/>
            <rect class="cls-5" x="16.11" y="21.97" width=".73" height=".73" transform="translate(32.95 44.67) rotate(180)"/>
            <rect class="cls-5" x="23.43" y="27.1" width=".73" height=".73" transform="translate(51.26 3.66) rotate(90)"/>
            <rect class="cls-5" x="24.17" y="27.83" width=".73" height=".73" transform="translate(52.73 3.66) rotate(90)"/>
            <rect class="cls-5" x="26" y="27.46" width=".73" height="2.93" transform="translate(55.29 2.56) rotate(90)"/>
            <rect class="cls-5" x="26.36" y="27.1" width="2.2" height=".73" transform="translate(54.92 0) rotate(90)"/>
            <rect class="cls-10" x="16.84" y="17.58" width=".73" height="2.2"/>
            <rect class="cls-10" x="18.31" y="19.04" width=".73" height=".73"/>
            <rect class="cls-11" x="26.36" y="26.36" width=".73" height="2.2"/>
            <rect class="cls-8" x="19.04" y="21.24" width=".73" height="1.46"/>
            <rect class="cls-8" x="23.43" y="24.17" width=".73" height=".73"/>
            <rect class="cls-8" x="23.43" y="25.63" width=".73" height="1.46"/>
            <rect class="cls-8" x="24.17" y="26.36" width=".73" height="1.46"/>
            <rect class="cls-8" x="24.9" y="27.1" width=".73" height=".73"/>
            <rect class="cls-8" x="25.63" y="26.36" width=".73" height=".73"/>
            <rect class="cls-8" x="24.9" y="25.63" width=".73" height=".73"/>
            <rect class="cls-8" x="24.17" y="24.9" width=".73" height=".73"/>
            <rect class="cls-8" x="22.7" y="22.7" width=".73" height="3.66"/>
            <rect class="cls-8" x="21.97" y="21.97" width=".73" height="3.66"/>
            <rect class="cls-8" x="21.24" y="21.24" width=".73" height="3.66"/>
            <rect class="cls-8" x="20.5" y="20.5" width=".73" height="3.66"/>
            <rect class="cls-8" x="19.77" y="20.5" width=".73" height="2.93"/>
            <g>
              <rect class="cls-2" x="19.77" y="21.24" width=".73" height=".73" transform="translate(41.74 1.46) rotate(90)"/>
              <rect class="cls-10" x="21.24" y="17.58" width=".73" height=".73" transform="translate(39.54 -3.66) rotate(90)"/>
              <rect class="cls-9" x="20.5" y="18.31" width=".73" height=".73" transform="translate(39.54 -2.2) rotate(90)"/>
              <rect class="cls-10" x="19.77" y="19.04" width=".73" height=".73" transform="translate(39.54 -.73) rotate(90)"/>
              <rect class="cls-9" x="19.04" y="19.77" width=".73" height=".73" transform="translate(39.54 .73) rotate(90)"/>
              <rect class="cls-10" x="18.31" y="20.5" width=".73" height=".73" transform="translate(39.54 2.2) rotate(90)"/>
              <rect class="cls-9" x="17.58" y="21.24" width=".73" height=".73" transform="translate(39.54 3.66) rotate(90)"/>
              <rect class="cls-10" x="16.84" y="21.97" width=".73" height=".73" transform="translate(39.54 5.13) rotate(90)"/>
              <rect class="cls-9" x="16.84" y="19.04" width="2.2" height=".73" transform="translate(37.35 1.46) rotate(90)"/>
              <rect class="cls-9" x="16.11" y="18.31" width=".73" height=".73" transform="translate(35.15 2.2) rotate(90)"/>
              <rect class="cls-9" x="16.11" y="22.7" width=".73" height=".73" transform="translate(39.54 6.59) rotate(90)"/>
              <rect class="cls-2" x="20.5" y="21.97" width=".73" height=".73" transform="translate(43.21 1.46) rotate(90)"/>
              <rect class="cls-2" x="21.24" y="22.7" width=".73" height=".73" transform="translate(44.67 1.46) rotate(90)"/>
              <rect class="cls-2" x="21.97" y="23.43" width=".73" height=".73" transform="translate(46.14 1.46) rotate(90)"/>
              <rect class="cls-2" x="22.7" y="24.17" width=".73" height=".73" transform="translate(47.6 1.46) rotate(90)"/>
              <rect class="cls-2" x="23.43" y="24.9" width=".73" height=".73" transform="translate(49.06 1.46) rotate(90)"/>
              <rect class="cls-2" x="24.17" y="25.63" width=".73" height=".73" transform="translate(50.53 1.46) rotate(90)"/>
              <rect class="cls-2" x="24.9" y="26.36" width=".73" height=".73" transform="translate(51.99 1.46) rotate(90)"/>
              <rect class="cls-2" x="25.63" y="27.1" width=".73" height=".73" transform="translate(53.46 1.46) rotate(90)"/>
            </g>
            <rect class="cls-11" x="24.9" y="27.83" width="2.2" height=".73"/>
            <rect class="cls-11" x="24.9" y="24.9" width=".73" height=".73"/>
            <rect class="cls-11" x="25.63" y="25.63" width=".73" height=".73"/>
            <rect class="cls-11" x="24.17" y="24.17" width=".73" height=".73"/>
            <rect class="cls-11" x="21.97" y="21.97" width=".73" height=".73"/>
            <rect class="cls-11" x="21.24" y="21.24" width=".73" height=".73"/>
            <rect class="cls-11" x="20.5" y="20.5" width=".73" height=".73"/>
            <rect class="cls-11" x="20.5" y="23.43" width=".73" height=".73"/>
            <rect class="cls-11" x="23.43" y="23.43" width=".73" height=".73"/>
            <rect class="cls-11" x="22.7" y="22.7" width=".73" height=".73"/>
          </g>
          <g>
            <rect class="cls-3" x="14.65" y="12.45" width=".73" height="5.86"/>
            <rect class="cls-3" x="13.91" y="13.91" width=".73" height="1.46"/>
            <rect class="cls-3" x="15.38" y="15.38" width=".73" height="2.93"/>
            <rect class="cls-1" x="16.11" y="15.38" width=".73" height="2.2"/>
            <rect class="cls-1" x="15.38" y="13.91" width=".73" height="1.46"/>
            <rect class="cls-1" x="13.18" y="7.32" width=".73" height="6.59"/>
            <rect class="cls-1" x="12.45" y="7.32" width=".73" height="6.59"/>
            <rect class="cls-1" x="11.72" y="6.59" width=".73" height="7.32"/>
            <rect class="cls-1" x="10.98" y="7.32" width=".73" height="6.59"/>
            <rect class="cls-1" x="10.25" y="8.06" width=".73" height="4.39"/>
            <rect class="cls-1" x="9.52" y="8.06" width=".73" height="3.66"/>
            <rect class="cls-1" x="8.79" y="8.06" width=".73" height="3.66"/>
            <rect class="cls-1" x="6.59" y="6.59" width=".73" height="3.66"/>
            <rect class="cls-1" x="5.86" y="7.32" width=".73" height="2.93"/>
            <rect class="cls-1" x="7.32" y="7.32" width=".73" height="3.66"/>
            <rect class="cls-1" x="8.06" y="8.06" width=".73" height="2.93"/>
            <rect class="cls-4" x="12.45" y="16.84" width=".73" height="4.39"/>
            <rect class="cls-8" x="13.18" y="16.11" width=".73" height="5.13"/>
            <rect class="cls-8" x="12.45" y="15.38" width=".73" height="1.46"/>
            <rect class="cls-1" x="10.25" y="16.11" width=".73" height="1.46"/>
            <rect class="cls-3" x="13.91" y="17.58" width=".73" height=".73"/>
            <rect class="cls-1" x="9.52" y="17.58" width=".73" height="1.46"/>
            <rect class="cls-1" x="8.79" y="19.04" width=".73" height="2.2"/>
            <rect class="cls-4" x="11.72" y="16.11" width=".73" height="5.13"/>
            <rect class="cls-4" x="10.98" y="14.65" width=".73" height="6.59"/>
            <rect class="cls-4" x="10.25" y="17.58" width=".73" height="4.39"/>
            <rect class="cls-4" x="9.52" y="19.04" width=".73" height="2.2"/>
            <rect class="cls-1" x="16.84" y="16.11" width=".73" height=".73"/>
            <g>
              <rect class="cls-9" x="4.76" y="2.56" width="2.93" height=".73" transform="translate(3.3 9.15) rotate(-90)"/>
              <rect class="cls-9" x="4.03" y="2.56" width="2.93" height=".73" transform="translate(2.56 8.42) rotate(-90.01)"/>
              <rect class="cls-9" x="4.03" y="1.83" width="1.46" height=".73" transform="translate(2.56 6.96) rotate(-90)"/>
            </g>
          </g>
          <rect class="cls-5" x="7.32" y="1.46" width="3.66" height=".73"/>
          <rect class="cls-5" x="11.72" y="2.93" width=".73" height="2.2"/>
          <rect class="cls-8" x="10.25" y="2.2" width=".73" height="3.66"/>
          <rect class="cls-8" x="10.98" y="4.39" width=".73" height=".73"/>
          <rect class="cls-8" x="6.59" y="2.93" width=".73" height="2.2"/>
          <rect class="cls-8" x="7.32" y="2.2" width=".73" height="3.66"/>
          <rect class="cls-8" x="9.52" y="2.2" width=".73" height="3.66"/>
          <rect class="cls-8" x="8.79" y="2.2" width=".73" height="3.66"/>
          <rect class="cls-8" x="8.06" y="2.2" width=".73" height="3.66"/>
          <rect class="cls-5" x="10.98" y="5.13" width=".73" height=".73"/>
          <rect class="cls-5" x="12.45" y="6.59" width="2.2" height=".73"/>
          <rect class="cls-5" x="10.98" y="31.49" width="2.93" height=".73"/>
          <rect class="cls-5" x="15.38" y="10.25" width="1.46" height=".73"/>
          <rect class="cls-5" x="14.65" y="7.32" width="1.46" height=".73"/>
          <rect class="cls-5" x="10.98" y="2.2" width=".73" height=".73"/>
          <rect class="cls-5" x="11.72" y="5.86" width=".73" height=".73"/>
          <rect class="cls-5" x="6.59" y="5.86" width=".73" height=".73"/>
          <rect class="cls-5" x="6.59" y=".73" width=".73" height=".73"/>
          <rect class="cls-5" x="5.13" width="1.46" height=".73"/>
          <rect class="cls-5" x="4.39" y="2.93" width=".73" height=".73"/>
          <rect class="cls-5" x="5.13" y="3.66" width=".73" height=".73"/>
          <rect class="cls-5" x="5.86" y="4.39" width=".73" height=".73"/>
          <rect class="cls-5" x="4.39" y=".73" width=".73" height=".73"/>
          <rect class="cls-5" x="3.66" y="1.46" width=".73" height="1.46"/>
          <rect class="cls-5" x="16.11" y="8.06" width=".73" height=".73"/>
          <rect class="cls-5" x="14.65" y="17.58" width=".73" height=".73"/>
          <rect class="cls-5" x="13.91" y="15.38" width=".73" height="2.2"/>
          <rect class="cls-5" x="13.18" y="13.91" width=".73" height="1.46"/>
          <rect class="cls-5" x="13.91" y="12.45" width=".73" height="1.46"/>
          <rect class="cls-5" x="13.91" y="25.63" width=".73" height="5.86"/>
          <rect class="cls-5" x="10.25" y="25.63" width=".73" height="5.86"/>
          <rect class="cls-5" x="16.84" y="15.38" width=".73" height=".73"/>
          <rect class="cls-5" x="17.58" y="16.11" width=".73" height=".73"/>
          <rect class="cls-5" x="14.65" y="10.98" width=".73" height="1.46"/>
          <rect class="cls-5" x="10.98" y="21.97" width=".73" height="3.66"/>
          <rect class="cls-5" x="13.91" y="18.31" width=".73" height="3.66"/>
          <rect class="cls-5" x="13.18" y="21.24" width=".73" height="4.39"/>
          <rect class="cls-1" x="12.45" y="21.24" width=".73" height="4.39"/>
          <rect class="cls-1" x="11.72" y="21.24" width=".73" height="4.39"/>
          <rect class="cls-5" x="7.32" y="21.97" width=".73" height="3.66"/>
          <rect class="cls-1" x="6.59" y="21.97" width=".73" height="3.66"/>
          <rect class="cls-3" x="8.06" y="20.5" width=".73" height="1.46"/>
          <rect class="cls-3" x="10.27" y="21.24" width="2.92" height=".73"/>
          <rect class="cls-3" x="13.18" y="21.24" width=".73" height=".73"/>
          <rect class="cls-1" x="7.32" y="21.24" width=".73" height=".73"/>
          <rect class="cls-1" x="5.86" y="22.7" width=".73" height="2.93"/>
          <rect class="cls-5" x="5.13" y="22.7" width=".73" height="2.93"/>
          <rect class="cls-5" x="8.79" y="21.24" width="1.46" height=".73"/>
          <rect class="cls-5" x="10.25" y="21.97" width=".73" height=".73"/>
          <rect class="cls-5" x="8.06" y="21.97" width=".73" height=".73"/>
          <rect class="cls-5" x="15.38" y="12.45" width=".73" height="1.46"/>
          <rect class="cls-5" x="16.11" y="13.91" width=".73" height="1.46"/>
          <rect class="cls-5" x="7.32" y="5.13" width=".73" height=".73"/>
          <rect class="cls-5" x="6.59" y="2.2" width=".73" height="2.93"/>
          <rect class="cls-5" x="8.79" y="3.66" width="2.93" height=".73"/>
          <rect class="cls-4" x="7.32" y="5.86" width="4.39" height=".73"/>
          <rect class="cls-4" x="8.06" y="6.59" width="2.93" height=".73"/>
          <rect class="cls-3" x="8.06" y="7.32" width="2.93" height=".73"/>
          <rect class="cls-3" x="10.98" y="6.59" width=".73" height=".73"/>
          <rect class="cls-3" x="13.18" y="7.32" width=".73" height="1.46"/>
          <rect class="cls-3" x="5.86" y="7.32" width=".73" height="1.46"/>
          <rect class="cls-3" x="12.45" y="8.79" width=".73" height="1.46"/>
          <rect class="cls-3" x="6.59" y="8.79" width=".73" height="1.46"/>
          <rect class="cls-3" x="11.72" y="10.25" width=".73" height=".73"/>
          <rect class="cls-3" x="7.32" y="10.25" width=".73" height=".73"/>
          <rect class="cls-3" x="10.98" y="10.98" width=".73" height=".73"/>
          <rect class="cls-3" x="10.25" y="11.72" width=".73" height=".73"/>
          <rect class="cls-3" x="7.32" y="6.59" width=".73" height=".73"/>
          <rect class="cls-4" x="16.11" y="9.52" width=".73" height=".73"/>
          <rect class="cls-11" x="16.11" y="8.79" width=".73" height=".73"/>
          <rect class="cls-11" x="13.18" y="15.38" width=".73" height=".73"/>
          <rect class="cls-11" x="13.91" y="7.32" width=".73" height=".73"/>
          <rect class="cls-11" x="10.98" y="2.93" width=".73" height=".73"/>
          <rect class="cls-11" x="9.52" y="2.2" width="1.46" height=".73"/>
          <rect class="cls-11" x="14.65" y="8.06" width="1.46" height=".73"/>
          <rect class="cls-8" x="2.2" y="8.79" width=".73" height=".73"/>
          <rect class="cls-8" x="4.39" y="7.32" width=".73" height=".73"/>
          <rect class="cls-8" x="2.93" y="8.06" width="1.46" height=".73"/>
          <rect class="cls-4" x="15.38" y="8.79" width=".73" height="1.46"/>
          <rect class="cls-4" x="14.65" y="8.79" width=".73" height="2.2"/>
          <rect class="cls-4" x="13.91" y="8.06" width=".73" height="2.93"/>
          <rect class="cls-4" x="10.98" y="10.25" width=".73" height=".73"/>
          <rect class="cls-4" x="10.25" y="10.98" width=".73" height=".73"/>
          <rect class="cls-4" x="11.72" y="8.79" width=".73" height="1.46"/>
          <rect class="cls-4" x="12.45" y="7.32" width=".73" height="1.46"/>
          <rect class="cls-1" x="5.13" y="7.32" width=".73" height="2.2"/>
          <rect class="cls-4" x="4.39" y="8.06" width=".73" height="2.2"/>
          <rect class="cls-4" x="2.93" y="8.79" width=".73" height="2.2"/>
          <rect class="cls-4" x="3.66" y="8.79" width=".73" height="1.46"/>
          <rect class="cls-4" x="2.2" y="9.52" width=".73" height=".73"/>
          <rect class="cls-1" x="13.91" y="10.98" width=".73" height="1.46"/>
          <rect class="cls-6" x="13.18" y="25.63" width=".73" height="5.86"/>
          <rect class="cls-1" x="11.72" y="25.63" width=".73" height="5.86"/>
          <rect class="cls-4" x="12.45" y="25.63" width=".73" height="5.86"/>
          <rect class="cls-1" x="10.98" y="25.63" width=".73" height="5.86"/>
          <rect class="cls-5" x="5.13" y="31.49" width="2.93" height=".73"/>
          <rect class="cls-5" x="8.06" y="25.63" width=".73" height="5.86"/>
          <rect class="cls-5" x="4.39" y="25.63" width=".73" height="5.86"/>
          <rect class="cls-6" x="7.32" y="25.63" width=".73" height="5.86"/>
          <rect class="cls-1" x="5.86" y="25.63" width=".73" height="5.86"/>
          <rect class="cls-4" x="6.59" y="25.63" width=".73" height="5.86"/>
          <rect class="cls-1" x="5.13" y="25.63" width=".73" height="5.86"/>
          <rect class="cls-5" x="16.84" y="8.79" width=".73" height="1.46"/>
          <rect class="cls-5" x="4.39" y="6.59" width="2.2" height=".73"/>
          <rect class="cls-5" x="2.2" y="10.25" width=".73" height=".73"/>
          <rect class="cls-5" x="2.93" y="7.32" width="1.46" height=".73"/>
          <rect class="cls-5" x="2.2" y="8.06" width=".73" height=".73"/>
          <rect class="cls-5" x="1.46" y="8.79" width=".73" height="1.46"/>
          <rect class="cls-4" x="13.18" y="12.45" width=".73" height="1.46"/>
          <rect class="cls-4" x="10.98" y="13.91" width="2.2" height=".73"/>
          <rect class="cls-8" x="11.72" y="15.38" width=".73" height=".73"/>
          <rect class="cls-3" x="10.98" y="14.65" width="2.2" height=".73"/>
        </g>
        <rect class="cls-10" x="5.13" y=".73" width="1.46" height=".73"/>
      </g>
    </g>
  </g>
</svg>