<?xml version="1.0" encoding="UTF-8"?>
<svg id="_レイヤー_2" data-name="レイヤー 2" xmlns="http://www.w3.org/2000/svg" viewBox="0 0 737.02 73.98">
  <defs>
    <style>
      .cls-1 {
        fill: #3fa8ec;
        stroke-width: 0px;
      }
    </style>
  </defs>
  <g id="_レイヤー_6" data-name="レイヤー 6">
    <g>
      <path class="cls-1" d="M23.94,6.47c5.93,0,21.55,1.08,21.55,16.4,0,8.31-5.54,15.17-14.7,19.48-8.7,4-17.71,9.16-21.25,13.16,5.47.31,19.25.31,24.25-.15,2.46-.77,4.46-2.54,6.85-5.54,2.08,4.31,4.62,8.08,7.08,10.78-2.62,2.54-5,6.16-7.08,9.39-1.23-1.23-3.93-3.16-6.31-3.31-8.93-.31-24.25.08-34.33.23,1.54-8.01,4.62-12.09,10.62-18.17,9.31-9.47,19.17-14.32,19.17-28.94,0-7.47-5.62-10.32-10.16-10.32-9.01,0-14.55,6.85-15.94,11.24-.38-3.08-1.39-6.16-2.23-8.62,4.16-2.69,12.86-5.62,22.48-5.62Z"/>
      <path class="cls-1" d="M82.22,6.08c12.01,0,25.63,4.31,25.63,30.87s-12.93,31.49-25.63,31.49c-11.85,0-25.71-4.31-25.71-31.49s13.63-30.87,25.71-30.87ZM82.29,9.08c-6.7,0-10.47,6.31-10.47,28.02,0,22.94,3.77,28.79,10.47,28.79s10.24-5.85,10.24-28.79-3.54-28.02-10.24-28.02Z"/>
      <path class="cls-1" d="M139.41,6.47c5.93,0,21.55,1.08,21.55,16.4,0,8.31-5.54,15.17-14.7,19.48-8.7,4-17.71,9.16-21.25,13.16,5.47.31,19.25.31,24.25-.15,2.46-.77,4.46-2.54,6.85-5.54,2.08,4.31,4.62,8.08,7.08,10.78-2.62,2.54-5,6.16-7.08,9.39-1.23-1.23-3.93-3.16-6.31-3.31-8.93-.31-24.25.08-34.33.23,1.54-8.01,4.62-12.09,10.62-18.17,9.31-9.47,19.17-14.32,19.17-28.94,0-7.47-5.62-10.32-10.16-10.32-9.01,0-14.55,6.85-15.94,11.24-.38-3.08-1.39-6.16-2.23-8.62,4.16-2.69,12.86-5.62,22.48-5.62Z"/>
      <path class="cls-1" d="M217.39,55.81c-1.08-1.69-2.08-2.85-4.31-2.85.15,3.46.38,11.08.62,13.86h-16.09c.23-3.16.46-10.78.62-14.24-8.16-.38-18.32-.15-25.79.39-.23-3.39-1.39-7.08-2.46-10.01,9.24-9.62,25.02-26.56,30.02-37.26,2,1.92,11.01,4.46,16.17,5.54-1.46,1.69-2.16,3.16-2.46,4.93-.69,7.62-.92,15.17-.85,25.48,1.69-.31,3.16-1.46,4.85-4.31,1.54,3.85,3.16,6.54,5.47,9.39-2.08,2.62-4.31,6-5.77,9.08ZM198.61,41.88c.08-6.16.69-23.02.23-28.48-6.24,9.08-18.01,22.17-24.25,28.64,6.39.46,15.86.31,24.02-.15Z"/>
      <path class="cls-1" d="M309.92,52.35h-11.47c.08,7.16.15,14.47.23,21.63h-14.01c.31-6.93.54-14.24.62-21.63h-34.56l-.38-1.15h9.55c.38-3.62.62-13.16.08-17.4-.23-.38-1.38-1.15-2.54-1.85-1.92.92-4.16,1.92-6.7,3l-.77-.69c5.16-8.24,9.08-17.94,10.47-26.02-.54-.92-1.15-2.54-3.39-3.7,4.08-1.15,7.08-2.16,10.08-4.23,3.39,2.23,7.78,4.16,12.47,5.47-3.16,1.39-4.62,2.62-5.85,5h33.79c2.31-2,4.85-4.31,6.77-7.16,2.54,2.69,5.54,5.93,8.01,7.7-2.39,1.54-6.62,5.24-7.47,6.24-1.62-1.69-4.39-4.16-6.7-5.62h-9.47c-.23,5.24-.31,11.24-.38,17.01h7.77c2.31-1.92,4.62-4.08,6.62-6.85,2.54,2.7,5.54,5.62,7.93,7.39-2.31,1.54-6.39,5.23-7.24,6.31-1.62-1.77-4.39-4.23-6.7-5.62h-8.39c0,6.93.08,13.7.15,21.02h10.85c2.31-2,4.85-4.31,6.85-7.16,2.54,2.69,5.54,5.93,7.93,7.7-2.31,1.54-6.62,5.24-7.47,6.24-1.62-1.69-4.39-4.16-6.7-5.62ZM266.97,24.79c2.23,1.54,4.31,3,7.16,4.16h11.01c-.15-5.62-.31-11.62-.46-17.01h-11.47c-.54,1.23-1.16,2.69-1.85,4.47-1.23,3.46-2.54,6.08-4.39,8.39ZM285.29,51.19c0-7.16,0-13.93-.15-21.02h-12.16v21.02h12.32Z"/>
      <path class="cls-1" d="M403.23,22.17c-2.69,2.92-4.62,7.08-6.7,14.55-2.23,9.7-2.16,22.79-1.77,30.25h-16.7c.62-12.62,3-21.32,7.31-28.94,3.62-6.54,10.78-13.32,16.78-19.01-8.24-.31-26.4-.38-35.64.54.92-3.16,1.92-9.31,1.77-11.7,7.24.62,26.56.69,33.26.38,2.31-.08,4.62-1.08,6.93-3,1.31,4.62,3.31,9.01,5.23,11.85-5,.69-8.16,2.62-10.47,5.08Z"/>
      <path class="cls-1" d="M490.29,58.12c.23-3.54.31-8.78.38-14.55h-27.79c-.92,15.7-6.08,22.79-22.86,29.87l-1.08-.62c5.77-6.47,10.55-18.01,11.08-36.57.15-3.77.15-15.24-.46-23.09-.31-2.46-1.69-3.77-4.46-4.93,3.54-1.85,6.7-4.54,9.16-7.93,2.54,2.46,6.47,4.85,10.47,6.62h24.1c1.85-.85,6.16-4.7,8.16-6.93,3.62,3.16,7.85,5.54,11.39,7.7-3.31,2.16-4.46,3.16-4.54,5.23-.62,14.4-.85,34.03,0,48.11.54,3.16,4.85,6.7,5.54,6.93-3.85.69-8.31,2.93-12.16,5.39-2.31-3.08-6.08-3.77-8.39-3.77-2.85,0-5.7,1.31-8.78,3.16l-2.85-3c8.85-2.31,12.78-5.31,13.09-11.62ZM490.68,42.34c.08-5.46,0-11.39,0-16.86h-27.56c0,4.54-.08,8.7-.08,11.01,0,2.08,0,4-.08,5.85h27.71ZM463.35,8.16c-.38,3.31-.08,9.93-.15,16.17h27.48c-.08-6.7-.23-12.55-.38-16.17h-26.94Z"/>
      <path class="cls-1" d="M557.19,6.77c12.32,0,19.63,3.08,19.63,13.09,0,7.7-2.77,14.32-18.86,15.78,13.7,1.39,20.25,6.85,20.25,15.78,0,12.7-6.85,17.17-22.32,17.17-3.62,0-15.4-.46-19.4-1.92.46-2.39.69-5.39,1-8.7,2.77,5.24,6.85,7.47,12.7,7.47,8.24,0,12.09-4.16,12.09-14.01s-5.08-12.86-12.39-12.86c-2.54,0-5,0-8.01.46.54-1.38.92-3.46,1.08-5.16,3.23.39,6.77.08,9.54-.46,4.85-.85,8.54-5.39,8.54-14.09,0-5.39-3.46-9.47-9.55-9.47-6.54,0-10.85,2.23-13.86,7.62.08-2.69-.38-5.54-1.15-8.08,4.85-1.31,12.7-2.62,20.71-2.62Z"/>
      <path class="cls-1" d="M613.39,6.08c12.01,0,25.63,4.31,25.63,30.87s-12.93,31.49-25.63,31.49c-11.86,0-25.71-4.31-25.71-31.49s13.63-30.87,25.71-30.87ZM613.46,9.08c-6.7,0-10.47,6.31-10.47,28.02,0,22.94,3.77,28.79,10.47,28.79s10.24-5.85,10.24-28.79-3.54-28.02-10.24-28.02Z"/>
      <path class="cls-1" d="M732.47,15.17c-.39,14.86.08,41.03.15,57.66h-13.78v-4.77h-31.79v4.77h-13.63c.92-19.86,1.39-40.95.69-58.12-.92-1.85-2.85-3.16-4.54-4,3.39-2.39,6.39-5,8.78-7.7,2.77,2.62,7.54,5.39,11.39,6.85h27.33c1.92-1.23,5.7-4.54,8.16-8.08,3.08,3.23,7.39,5.85,11.78,8.31-2.69,1.77-3.93,3.62-4.54,5.08ZM687.06,11.01v26.56h31.79V11.01h-31.79ZM718.85,66.9v-28.17h-31.79v28.17h31.79Z"/>
    </g>
  </g>
</svg>