<?xml version="1.0" encoding="UTF-8"?>
<svg id="_レイヤー_2" data-name="レイヤー 2" xmlns="http://www.w3.org/2000/svg" viewBox="0 0 146.06 135.98">
  <defs>
    <style>
      .cls-1 {
        fill: #07042d;
      }

      .cls-1, .cls-2, .cls-3, .cls-4, .cls-5 {
        stroke-width: 0px;
      }

      .cls-2 {
        fill: #ffffc9;
      }

      .cls-3 {
        fill: #ffd91d;
      }

      .cls-4 {
        fill: #fbfbfb;
      }

      .cls-5 {
        fill: #e8b714;
      }
    </style>
  </defs>
  <g id="_レイヤー_1-2" data-name="レイヤー 1">
    <g>
      <g>
        <g>
          <rect class="cls-1" x="6.07" y="38.82" width="6.89" height="6.89" transform="translate(49.28 25.06) rotate(79.3)"/>
          <rect class="cls-1" x="11.19" y="65.91" width="6.89" height="6.89" transform="translate(80.07 42.09) rotate(79.3)"/>
          <rect class="cls-1" x="1.86" y="46.75" width="6.89" height="20.68" transform="translate(-10.51 1.98) rotate(-10.7)"/>
          <rect class="cls-1" x="11.51" y="30.12" width="13.78" height="6.89" transform="translate(-5.91 4) rotate(-10.7)"/>
          <rect class="cls-1" x="14.07" y="43.67" width="13.78" height="6.89" transform="translate(-8.38 4.71) rotate(-10.7)"/>
          <rect class="cls-1" x="16.62" y="57.21" width="13.78" height="6.89" transform="translate(-10.86 5.42) rotate(-10.7)"/>
          <rect class="cls-1" x="16.04" y="51.02" width="6.89" height="13.78" transform="translate(-10.42 4.63) rotate(-10.7)"/>
          <rect class="cls-3" x="12.79" y="36.9" width="13.78" height="6.89" transform="translate(-7.15 4.36) rotate(-10.7)"/>
          <rect class="cls-3" x="17.84" y="63.35" width="20.68" height="6.89" transform="translate(-11.91 6.4) rotate(-10.7)"/>
          <rect class="cls-3" x="1.74" y="52.36" width="20.68" height="6.89" transform="translate(-40.51 78.04) rotate(-100.7)"/>
          <rect class="cls-3" x="89.91" y="17.51" width="27.57" height="6.89" transform="translate(102.36 126.74) rotate(-100.7)"/>
          <rect class="cls-1" x="19.12" y="70.12" width="20.68" height="6.89" transform="translate(-13.15 6.75) rotate(-10.7)"/>
        </g>
        <g>
          <rect class="cls-1" x="127.98" y="15.78" width="6.89" height="6.89" transform="translate(125.91 -113.48) rotate(79.3)"/>
          <rect class="cls-1" x="133.1" y="42.87" width="6.89" height="6.89" transform="translate(156.69 -96.45) rotate(79.3)"/>
          <rect class="cls-1" x="137.31" y="21.15" width="6.89" height="20.68" transform="translate(-3.4 26.69) rotate(-10.7)"/>
          <rect class="cls-1" x="113.09" y="10.93" width="13.78" height="6.89" transform="translate(240.55 6.21) rotate(169.3)"/>
          <rect class="cls-1" x="115.65" y="24.47" width="13.78" height="6.89" transform="translate(-3.05 23.24) rotate(-10.7)"/>
          <rect class="cls-1" x="118.21" y="38.01" width="13.78" height="6.89" transform="translate(-5.52 23.95) rotate(-10.7)"/>
          <rect class="cls-1" x="124.4" y="30.54" width="6.89" height="13.78" transform="translate(-4.73 24.39) rotate(-10.7)"/>
          <rect class="cls-3" x="114.37" y="17.7" width="13.78" height="6.89" transform="translate(244.35 19.4) rotate(169.3)"/>
          <rect class="cls-3" x="112.66" y="45.43" width="20.68" height="6.89" transform="translate(252.93 74.06) rotate(169.3)"/>
          <rect class="cls-3" x="123.64" y="29.32" width="20.68" height="6.89" transform="translate(126.66 170.51) rotate(-100.7)"/>
          <rect class="cls-1" x="113.94" y="52.2" width="20.68" height="6.89" transform="translate(256.73 87.25) rotate(169.3)"/>
        </g>
        <rect class="cls-1" x="60.33" y="81.23" width="6.89" height="13.78" transform="translate(138.52 9.09) rotate(79.3)"/>
        <rect class="cls-1" x="48.89" y="79.82" width="6.89" height="6.89" transform="translate(124.44 16.38) rotate(79.3)"/>
        <rect class="cls-1" x="32.67" y="67.56" width="20.68" height="6.89" transform="translate(104.79 15.56) rotate(79.3)"/>
        <rect class="cls-1" x="9.8" y="38.36" width="41.35" height="6.89" transform="translate(65.9 4.1) rotate(79.3)"/>
        <rect class="cls-1" x="62.07" y="105.51" width="6.89" height="20.68" transform="translate(167.18 29.97) rotate(79.3)"/>
        <rect class="cls-1" x="102.7" y="97.83" width="6.89" height="20.68" transform="translate(192.73 -16.22) rotate(79.3)"/>
        <rect class="cls-3" x="16.57" y="37.08" width="41.35" height="6.89" transform="translate(4.34 84.66) rotate(-100.7)"/>
        <rect class="cls-3" x="14.93" y="45.96" width="62.03" height="6.89" transform="translate(5.92 103.72) rotate(-100.7)"/>
        <rect class="cls-3" x="18.89" y="48.07" width="68.92" height="6.89" transform="translate(12.64 113.5) rotate(-100.7)"/>
        <rect class="cls-4" x="34.32" y="39.19" width="20.68" height="6.89" transform="translate(11.06 94.44) rotate(-100.7)"/>
        <rect class="cls-3" x="25.66" y="46.79" width="68.92" height="6.89" transform="translate(21.93 118.64) rotate(-100.7)"/>
        <rect class="cls-3" x="29.63" y="48.89" width="75.82" height="6.89" transform="translate(28.65 128.42) rotate(-100.7)"/>
        <rect class="cls-3" x="39.21" y="44.23" width="68.92" height="6.89" transform="translate(40.51 128.92) rotate(-100.7)"/>
        <rect class="cls-3" x="72.8" y="113.23" width="13.78" height="6.89" transform="translate(-20.15 216.66) rotate(-100.7)"/>
        <rect class="cls-3" x="79.58" y="111.95" width="13.78" height="6.89" transform="translate(-10.87 221.79) rotate(-100.7)"/>
        <path class="cls-3" d="M76.31,117.32l1.28,6.77-1.28-6.77Z"/>
        <rect class="cls-3" x="70.12" y="117.9" width="6.89" height="6.89" transform="translate(-21.25 15.77) rotate(-10.7)"/>
        <rect class="cls-2" x="56.57" y="120.46" width="6.89" height="6.89" transform="translate(-21.96 13.3) rotate(-10.7)"/>
        <path class="cls-3" d="M103.4,112.2l1.28,6.77-1.28-6.77Z"/>
        <rect class="cls-5" x="97.09" y="111.5" width="20.68" height="6.89" transform="translate(-19.48 21.95) rotate(-10.7)"/>
        <rect class="cls-5" x="56.45" y="119.18" width="20.68" height="6.89" transform="translate(-21.61 14.54) rotate(-10.7)"/>
        <rect class="cls-5" x="89.16" y="107.29" width="6.89" height="6.89" transform="translate(.99 222.29) rotate(-100.7)"/>
        <rect class="cls-5" x="75.61" y="109.85" width="6.89" height="6.89" transform="translate(-17.58 212.01) rotate(-100.7)"/>
        <rect class="cls-3" x="90.44" y="114.06" width="6.89" height="6.89" transform="translate(-4.15 231.57) rotate(-100.7)"/>
        <rect class="cls-5" x="79.18" y="81.3" width="6.89" height="27.57" transform="translate(-16.22 17) rotate(-10.7)"/>
        <rect class="cls-3" x="48.79" y="39.56" width="62.03" height="6.89" transform="translate(52.36 129.41) rotate(-100.7)"/>
        <rect class="cls-3" x="58.37" y="34.9" width="55.14" height="6.89" transform="translate(64.22 129.9) rotate(-100.7)"/>
        <rect class="cls-5" x="88.13" y="64.09" width="20.68" height="6.89" transform="translate(50.39 176.83) rotate(-100.7)"/>
        <rect class="cls-5" x="85.44" y="68.76" width="13.78" height="6.89" transform="translate(38.53 176.34) rotate(-100.7)"/>
        <rect class="cls-5" x="79.95" y="76.81" width="13.78" height="6.89" transform="translate(24.11 180.49) rotate(-100.7)"/>
        <rect class="cls-3" x="67.94" y="30.23" width="48.25" height="6.89" transform="translate(76.07 130.4) rotate(-100.7)"/>
        <rect class="cls-5" x="89.54" y="52.65" width="27.57" height="6.89" transform="translate(67.38 168.04) rotate(-100.7)"/>
        <rect class="cls-3" x="80.33" y="22.18" width="34.46" height="6.89" transform="translate(90.5 126.25) rotate(-100.7)"/>
        <rect class="cls-5" x="100.64" y="37.83" width="13.78" height="6.89" transform="translate(86.94 154.6) rotate(-100.7)"/>
        <rect class="cls-5" x="47.49" y="71.77" width="20.68" height="6.89" transform="translate(-5.34 146.01) rotate(-100.7)"/>
        <rect class="cls-5" x="58.35" y="73.88" width="13.78" height="6.89" transform="translate(1.38 155.79) rotate(-100.7)"/>
        <rect class="cls-5" x="66.4" y="79.37" width="13.78" height="6.89" transform="translate(5.53 170.22) rotate(-100.7)"/>
        <rect class="cls-5" x="35.36" y="62.89" width="27.57" height="6.89" transform="translate(-6.92 126.94) rotate(-100.7)"/>
        <rect class="cls-5" x="32.92" y="50.63" width="13.78" height="6.89" transform="translate(-5.93 103.23) rotate(-100.7)"/>
        <rect class="cls-1" x="94.19" y="74.83" width="6.89" height="13.78" transform="translate(159.81 -29.4) rotate(79.3)"/>
        <rect class="cls-1" x="103.07" y="69.58" width="6.89" height="6.89" transform="translate(158.5 -45.2) rotate(79.3)"/>
        <rect class="cls-1" x="107.29" y="47.87" width="6.89" height="20.68" transform="translate(-8.88 21.58) rotate(-10.7)"/>
        <rect class="cls-1" x="91.07" y="23" width="41.35" height="6.89" transform="translate(106.51 141.16) rotate(-100.7)"/>
        <rect class="cls-1" x="50.48" y="122.11" width="75.82" height="6.89" transform="translate(-21.78 18.6) rotate(-10.7)"/>
        <rect class="cls-1" x="63.18" y="-27.48" width="6.89" height="75.82" transform="translate(68.76 77.83) rotate(-100.7)"/>
        <rect class="cls-1" x="49.8" y="121.74" width="6.89" height="6.89" transform="translate(-59.87 200.75) rotate(-100.7)"/>
        <rect class="cls-1" x="117.53" y="108.94" width="6.89" height="6.89" transform="translate(33 252.12) rotate(-100.7)"/>
        <rect class="cls-1" x="66.16" y="96.3" width="20.68" height="6.89" transform="translate(-7.31 193.44) rotate(-100.7)"/>
        <rect class="cls-1" x="79.7" y="93.74" width="20.68" height="6.89" transform="translate(11.27 203.71) rotate(-100.7)"/>
      </g>
      <rect class="cls-4" x="47.74" y="54.84" width="13.78" height="6.89" transform="translate(7.51 122.79) rotate(-100.7)"/>
      <rect class="cls-4" x="59.88" y="63.72" width="6.89" height="6.89" transform="translate(9.09 141.86) rotate(-100.7)"/>
      <rect class="cls-4" x="37.14" y="16.33" width="34.27" height="6.89" transform="translate(111.27 29.13) rotate(169.3)"/>
    </g>
  </g>
</svg>