<?xml version="1.0" encoding="UTF-8"?>
<svg id="_レイヤー_2" data-name="レイヤー 2" xmlns="http://www.w3.org/2000/svg" viewBox="0 0 273.66 167.69">
  <defs>
    <style>
      .cls-1 {
        fill: #07042d;
      }

      .cls-1, .cls-2 {
        stroke-width: 0px;
      }

      .cls-2 {
        fill: #fff;
      }
    </style>
  </defs>
  <g id="_レイヤー_1-2" data-name="レイヤー 1">
    <g>
      <polygon class="cls-2" points="14.98 63.95 238.33 6.04 239.9 12.07 245.93 10.51 247.5 16.54 253.53 14.98 267.62 69.31 261.59 70.87 263.15 76.91 257.11 78.48 258.68 84.51 77.58 131.47 79.15 137.51 73.11 139.07 77.81 157.18 72.02 158.68 70.45 152.65 64.17 154.28 61.04 142.2 55 143.77 53.44 137.73 35.33 142.43 33.76 136.39 27.73 137.96 26.16 131.92 20.12 133.49 6.04 79.16 12.07 77.59 10.51 71.55 16.54 69.99 14.98 63.95"/>
      <g>
        <g>
          <rect class="cls-1" x="10.5" y="28.86" width="230.74" height="6.24" transform="translate(-4 32.62) rotate(-14.54)"/>
          <rect class="cls-1" x="257.8" y="77.59" width="6.24" height="6.24" transform="translate(533.74 93.35) rotate(165.46)"/>
          <rect class="cls-1" x="262.27" y="69.99" width="6.24" height="6.24" transform="translate(540.63 77.26) rotate(165.46)"/>
          <rect class="cls-1" x="239.01" y="5.15" width="6.24" height="6.24" transform="translate(478.59 -44.5) rotate(165.46)"/>
          <rect class="cls-1" x="246.62" y="9.63" width="6.24" height="6.24" transform="translate(494.67 -37.6) rotate(165.46)"/>
          <rect class="cls-1" x="28.41" y="137.07" width="6.24" height="6.24" transform="translate(97.23 267.98) rotate(165.46)"/>
          <rect class="cls-1" x="20.81" y="132.6" width="6.24" height="6.24" transform="translate(81.15 261.09) rotate(165.46)"/>
          <rect class="cls-1" x="9.63" y="64.64" width="6.24" height="6.24" transform="translate(42.08 130.14) rotate(165.46)"/>
          <rect class="cls-1" x="5.15" y="72.24" width="6.24" height="6.24" transform="translate(35.19 146.22) rotate(165.46)"/>
          <rect class="cls-1" x="75.37" y="107.89" width="187.09" height="6.24" transform="translate(360.28 176.07) rotate(165.46)"/>
          <rect class="cls-1" x="35.81" y="139.98" width="18.71" height="6.24" transform="translate(124.8 270.28) rotate(165.46)"/>
          <g>
            <rect class="cls-1" x="86.09" y="160.77" width="6.24" height="6.24" transform="translate(216.7 300.14) rotate(165.46)"/>
            <rect class="cls-1" x="56.47" y="142.79" width="6.24" height="12.47" transform="translate(154.67 278.32) rotate(165.46)"/>
            <rect class="cls-1" x="72.45" y="157.87" width="6.24" height="6.24" transform="translate(189.13 297.84) rotate(165.46)"/>
            <rect class="cls-1" x="64.85" y="153.39" width="6.24" height="6.24" transform="translate(173.05 290.95) rotate(165.46)"/>
            <rect class="cls-1" x="76.14" y="137.89" width="6.24" height="24.94" transform="translate(193.73 276.02) rotate(165.46)"/>
          </g>
          <rect class="cls-1" x="260.48" y="13.3" width="6.24" height="56.13" transform="translate(529.14 15.23) rotate(165.46)"/>
          <rect class="cls-1" x="6.94" y="79.04" width="6.24" height="56.13" transform="translate(46.69 208.25) rotate(165.46)"/>
        </g>
        <g>
          <g>
            <rect class="cls-1" x="31.09" y="85.25" width="6.24" height="31.18" transform="translate(-24.22 11.81) rotate(-14.54)"/>
            <rect class="cls-1" x="38.47" y="70.25" width="6.24" height="18.71" transform="translate(-25.03 139.83) rotate(-104.54)"/>
            <rect class="cls-1" x="52.11" y="79.39" width="6.24" height="6.24" transform="translate(-10.78 156.67) rotate(-104.54)"/>
            <rect class="cls-1" x="47.86" y="106.47" width="6.24" height="18.71" transform="translate(-48.34 194.24) rotate(-104.54)"/>
            <rect class="cls-1" x="56.8" y="91.26" width="6.24" height="18.71" transform="translate(-23.34 18.26) rotate(-14.54)"/>
            <rect class="cls-1" x="49.2" y="93.03" width="6.24" height="6.24" transform="translate(-22.46 16.21) rotate(-14.54)"/>
          </g>
          <g>
            <rect class="cls-1" x="68.87" y="88.13" width="6.24" height="18.71" transform="translate(-22.16 21.19) rotate(-14.54)"/>
            <rect class="cls-1" x="86.98" y="83.43" width="6.24" height="18.71" transform="translate(-20.41 25.59) rotate(-14.54)"/>
            <rect class="cls-1" x="74.8" y="76.83" width="6.24" height="12.47" transform="translate(17.07 179.33) rotate(-104.54)"/>
            <rect class="cls-1" x="81.06" y="100.97" width="6.24" height="12.47" transform="translate(1.53 215.6) rotate(-104.54)"/>
          </g>
          <g>
            <rect class="cls-1" x="99.06" y="80.3" width="6.24" height="18.71" transform="translate(-19.23 28.52) rotate(-14.54)"/>
            <rect class="cls-1" x="117.17" y="75.61" width="6.24" height="18.71" transform="translate(-17.47 32.91) rotate(-14.54)"/>
            <rect class="cls-1" x="104.98" y="69" width="6.24" height="12.47" transform="translate(62.4 198.76) rotate(-104.54)"/>
            <rect class="cls-1" x="111.24" y="93.15" width="6.24" height="12.47" transform="translate(46.86 235.03) rotate(-104.54)"/>
          </g>
          <g>
            <rect class="cls-1" x="129.24" y="72.48" width="6.24" height="18.71" transform="translate(-16.3 35.84) rotate(-14.54)"/>
            <rect class="cls-1" x="145.78" y="49.27" width="6.24" height="43.65" transform="translate(-13.08 39.65) rotate(-14.54)"/>
            <rect class="cls-1" x="135.16" y="61.17" width="6.24" height="12.47" transform="translate(107.74 218.18) rotate(-104.54)"/>
            <rect class="cls-1" x="141.42" y="85.32" width="6.24" height="12.47" transform="translate(92.2 254.45) rotate(-104.54)"/>
          </g>
          <g>
            <rect class="cls-1" x="177.53" y="59.95" width="6.24" height="18.71" transform="translate(372.91 91.05) rotate(165.46)"/>
            <rect class="cls-1" x="157.86" y="46.14" width="6.24" height="43.65" transform="translate(-11.91 42.58) rotate(-14.54)"/>
            <rect class="cls-1" x="165.35" y="53.35" width="6.24" height="12.47" transform="translate(153.07 237.61) rotate(-104.54)"/>
            <rect class="cls-1" x="171.61" y="77.49" width="6.24" height="12.47" transform="translate(137.53 273.88) rotate(-104.54)"/>
          </g>
          <g>
            <rect class="cls-1" x="208.5" y="45.79" width="6.24" height="37.42" transform="translate(-9.42 55.18) rotate(-14.54)"/>
            <rect class="cls-1" x="200.23" y="63.64" width="6.24" height="12.47" transform="translate(186.75 284.24) rotate(-104.54)"/>
            <rect class="cls-1" x="204.92" y="81.74" width="6.24" height="12.47" transform="translate(175.1 311.44) rotate(-104.54)"/>
            <rect class="cls-1" x="188.04" y="50.79" width="6.24" height="18.71" transform="translate(-8.98 49.91) rotate(-14.54)"/>
          </g>
          <g>
            <rect class="cls-1" x="219.79" y="49" width="6.24" height="18.71" transform="translate(-7.51 57.82) rotate(-14.54)"/>
            <rect class="cls-1" x="231.97" y="61.84" width="6.24" height="12.47" transform="translate(228.2 312.73) rotate(-104.54)"/>
            <rect class="cls-1" x="225.71" y="37.7" width="6.24" height="12.47" transform="translate(243.74 276.47) rotate(-104.54)"/>
            <rect class="cls-1" x="234" y="47.52" width="12.47" height="6.24" transform="translate(251.51 295.89) rotate(-104.54)"/>
            <rect class="cls-1" x="228.84" y="49.77" width="6.24" height="12.47" transform="translate(235.97 294.6) rotate(-104.54)"/>
          </g>
        </g>
      </g>
    </g>
  </g>
</svg>