<?xml version="1.0" encoding="UTF-8"?>
<svg id="_レイヤー_2" data-name="レイヤー 2" xmlns="http://www.w3.org/2000/svg" viewBox="0 0 243.84 191.96">
  <defs>
    <style>
      .cls-1 {
        fill: #8342be;
      }

      .cls-1, .cls-2, .cls-3, .cls-4, .cls-5, .cls-6, .cls-7 {
        stroke-width: 0px;
      }

      .cls-2 {
        fill: #61dc78;
      }

      .cls-3 {
        fill: #07042d;
      }

      .cls-4 {
        fill: #c2c2d6;
      }

      .cls-5 {
        fill: #ff5a8e;
      }

      .cls-6 {
        fill: #ffe21f;
      }

      .cls-7 {
        fill: #e7e7ef;
      }
    </style>
  </defs>
  <g id="_レイヤー_1-2" data-name="レイヤー 1">
    <g>
      <g>
        <rect class="cls-3" x="83.01" y="72.63" width="5.19" height="5.19" transform="translate(10.38 160.83) rotate(-90)"/>
        <rect class="cls-3" x="88.2" y="77.82" width="5.19" height="5.19" transform="translate(10.38 171.21) rotate(-90)"/>
        <rect class="cls-3" x="93.38" y="83.01" width="5.19" height="5.19" transform="translate(10.38 181.58) rotate(-90)"/>
        <rect class="cls-6" x="72.63" y="72.63" width="5.19" height="15.56"/>
        <rect class="cls-6" x="77.82" y="72.63" width="5.19" height="15.56"/>
        <rect class="cls-6" x="83.01" y="77.82" width="5.19" height="15.56"/>
        <rect class="cls-6" x="67.44" y="67.44" width="5.19" height="20.75"/>
        <rect class="cls-6" x="62.26" y="67.44" width="5.19" height="20.75"/>
        <rect class="cls-6" x="57.07" y="72.63" width="5.19" height="20.75"/>
        <rect class="cls-6" x="51.88" y="83.01" width="5.19" height="10.38"/>
        <rect class="cls-6" x="46.69" y="83.01" width="5.19" height="5.19"/>
        <rect class="cls-6" x="41.5" y="88.2" width="5.19" height="5.19"/>
        <rect class="cls-6" x="88.2" y="83.01" width="5.19" height="5.19"/>
        <rect class="cls-1" x="46.69" y="88.2" width="5.19" height="10.38"/>
        <rect class="cls-6" x="31.13" y="88.2" width="5.19" height="10.38"/>
        <rect class="cls-6" x="25.94" y="83.01" width="5.19" height="20.75"/>
        <rect class="cls-6" x="20.75" y="83.01" width="5.19" height="20.75"/>
        <rect class="cls-3" x="64.85" y="59.66" width="5.19" height="10.38" transform="translate(132.29 -2.59) rotate(90)"/>
        <rect class="cls-3" x="57.07" y="67.44" width="5.19" height="5.19" transform="translate(129.7 10.38) rotate(90)"/>
        <rect class="cls-3" x="75.23" y="64.85" width="5.19" height="10.38" transform="translate(147.86 -7.78) rotate(90)"/>
        <rect class="cls-3" x="49.29" y="75.23" width="10.38" height="5.19" transform="translate(-23.35 132.29) rotate(-90)"/>
        <rect class="cls-3" x="31.13" y="83.01" width="5.19" height="5.19" transform="translate(119.32 51.88) rotate(90)"/>
        <rect class="cls-3" x="41.5" y="83.01" width="5.19" height="5.19" transform="translate(129.7 41.5) rotate(90)"/>
        <rect class="cls-3" x="46.69" y="77.82" width="5.19" height="5.19" transform="translate(129.7 31.13) rotate(90)"/>
        <rect class="cls-3" x="10.38" y="88.2" width="15.56" height="5.19" transform="translate(-72.63 108.95) rotate(-90)"/>
        <rect class="cls-3" x="23.35" y="75.23" width="5.19" height="10.38" transform="translate(-54.47 106.35) rotate(-90)"/>
        <rect class="cls-3" x="20.75" y="98.57" width="5.19" height="5.19" transform="translate(-77.82 124.51) rotate(-90)"/>
      </g>
      <rect class="cls-3" x="194.55" y="44.1" width="5.19" height="10.38" transform="translate(246.43 -147.86) rotate(90)"/>
      <rect class="cls-3" x="215.3" y="33.72" width="5.19" height="10.38" transform="translate(256.81 -178.99) rotate(90)"/>
      <rect class="cls-3" x="181.58" y="25.94" width="5.19" height="5.19" transform="translate(212.71 -155.64) rotate(90)"/>
      <rect class="cls-3" x="186.77" y="31.13" width="5.19" height="5.19" transform="translate(223.09 -155.64) rotate(90)"/>
      <rect class="cls-3" x="215.3" y="80.41" width="5.19" height="20.75" transform="translate(308.69 -127.11) rotate(90)"/>
      <rect class="cls-3" x="129.7" y="62.26" width="5.19" height="46.69" transform="translate(217.9 -46.69) rotate(90)"/>
      <rect class="cls-3" x="95.98" y="80.41" width="5.19" height="20.75" transform="translate(189.36 -7.78) rotate(90)"/>
      <rect class="cls-3" x="70.04" y="80.41" width="5.19" height="20.75" transform="translate(163.42 18.16) rotate(90)"/>
      <rect class="cls-3" x="54.47" y="90.79" width="5.19" height="10.38" transform="translate(153.05 38.91) rotate(90)"/>
      <rect class="cls-3" x="41.5" y="93.38" width="5.19" height="5.19" transform="translate(140.08 51.88) rotate(90)"/>
      <rect class="cls-3" x="75.23" y="111.54" width="10.38" height="5.19" transform="translate(194.55 33.72) rotate(90)"/>
      <rect class="cls-3" x="72.63" y="119.32" width="5.19" height="5.19" transform="translate(197.15 46.69) rotate(90)"/>
      <rect class="cls-3" x="62.26" y="129.7" width="5.19" height="5.19" transform="translate(197.15 67.44) rotate(90)"/>
      <rect class="cls-3" x="54.47" y="137.48" width="10.38" height="5.19" transform="translate(199.74 80.41) rotate(90)"/>
      <rect class="cls-3" x="41.5" y="119.32" width="5.19" height="5.19" transform="translate(166.02 77.82) rotate(90)"/>
      <rect class="cls-3" x="33.72" y="121.92" width="5.19" height="10.38" transform="translate(163.42 90.79) rotate(90)"/>
      <rect class="cls-3" x="59.66" y="106.35" width="5.19" height="10.38" transform="translate(173.8 49.29) rotate(90)"/>
      <rect class="cls-3" x="49.29" y="111.54" width="5.19" height="10.38" transform="translate(168.61 64.85) rotate(90)"/>
      <rect class="cls-3" x="83.01" y="93.38" width="5.19" height="5.19" transform="translate(181.58 10.38) rotate(90)"/>
      <rect class="cls-5" x="38.91" y="101.17" width="20.75" height="5.19" transform="translate(153.05 54.47) rotate(90)"/>
      <rect class="cls-5" x="20.75" y="119.32" width="15.56" height="5.19" transform="translate(150.45 93.38) rotate(90)"/>
      <rect class="cls-5" x="15.56" y="124.51" width="15.56" height="5.19" transform="translate(150.45 103.76) rotate(90)"/>
      <rect class="cls-5" x="5.19" y="119.32" width="15.56" height="5.19" transform="translate(134.89 108.95) rotate(90)"/>
      <rect class="cls-5" x="46.69" y="103.76" width="15.56" height="5.19" transform="translate(160.83 51.88) rotate(90)"/>
      <rect class="cls-5" x="83.01" y="181.58" width="20.75" height="5.19" transform="translate(186.77 368.35) rotate(180)"/>
      <rect class="cls-5" x="83.01" y="176.39" width="20.75" height="5.19" transform="translate(186.77 357.97) rotate(180)"/>
      <rect class="cls-5" x="171.21" y="181.58" width="20.75" height="5.19" transform="translate(363.16 368.35) rotate(180)"/>
      <rect class="cls-5" x="166.02" y="176.39" width="20.75" height="5.19" transform="translate(352.79 357.97) rotate(180)"/>
      <rect class="cls-5" x="197.15" y="150.45" width="5.19" height="10.38" transform="translate(399.48 311.28) rotate(180)"/>
      <rect class="cls-5" x="202.33" y="150.45" width="5.19" height="10.38" transform="translate(409.85 311.28) rotate(180)"/>
      <rect class="cls-5" x="207.52" y="155.64" width="5.19" height="5.19" transform="translate(420.23 316.47) rotate(180)"/>
      <rect class="cls-5" x="57.07" y="98.57" width="15.56" height="5.19" transform="translate(166.02 36.32) rotate(90)"/>
      <rect class="cls-5" x="2.59" y="111.54" width="10.38" height="5.19" transform="translate(121.92 106.35) rotate(90)"/>
      <rect class="cls-5" x="54.47" y="101.17" width="10.38" height="5.19" transform="translate(163.42 44.1) rotate(90)"/>
      <rect class="cls-5" x="64.85" y="95.98" width="10.38" height="5.19" transform="translate(168.61 28.53) rotate(90)"/>
      <rect class="cls-2" x="70.04" y="111.54" width="10.38" height="5.19" transform="translate(189.36 38.91) rotate(90)"/>
      <rect class="cls-2" x="33.72" y="132.29" width="10.38" height="5.19" transform="translate(173.8 95.98) rotate(90)"/>
      <rect class="cls-2" x="31.13" y="129.7" width="5.19" height="5.19" transform="translate(166.02 98.57) rotate(90)"/>
      <rect class="cls-2" x="62.26" y="114.14" width="15.56" height="5.19" transform="translate(186.77 46.69) rotate(90)"/>
      <rect class="cls-2" x="57.07" y="119.32" width="15.56" height="5.19" transform="translate(186.77 57.07) rotate(90)"/>
      <rect class="cls-2" x="36.32" y="129.7" width="15.56" height="5.19" transform="translate(176.39 88.2) rotate(90)"/>
      <rect class="cls-2" x="49.29" y="121.92" width="20.75" height="5.19" transform="translate(184.17 64.85) rotate(90)"/>
      <rect class="cls-2" x="41.5" y="129.7" width="25.94" height="5.19" transform="translate(186.77 77.82) rotate(90)"/>
      <rect class="cls-2" x="36.32" y="129.7" width="25.94" height="5.19" transform="translate(181.58 83.01) rotate(90)"/>
      <rect class="cls-5" x="70.04" y="95.98" width="10.38" height="5.19" transform="translate(173.8 23.35) rotate(90)"/>
      <rect class="cls-5" x="77.82" y="93.38" width="5.19" height="5.19" transform="translate(176.39 15.56) rotate(90)"/>
      <rect class="cls-5" x="7.78" y="121.92" width="20.75" height="5.19" transform="translate(142.67 106.35) rotate(90)"/>
      <rect class="cls-5" x="33.72" y="106.35" width="20.75" height="5.19" transform="translate(153.05 64.85) rotate(90)"/>
      <rect class="cls-5" x="23.35" y="106.35" width="31.13" height="5.19" transform="translate(147.86 70.04) rotate(90)"/>
      <rect class="cls-5" x="23.35" y="111.54" width="20.75" height="5.19" transform="translate(147.86 80.41) rotate(90)"/>
      <rect class="cls-3" x="49.29" y="142.67" width="5.19" height="10.38" transform="translate(199.74 95.98) rotate(90)"/>
      <rect class="cls-3" x="38.91" y="137.48" width="5.19" height="10.38" transform="translate(184.18 101.17) rotate(90)"/>
      <rect class="cls-3" x="25.94" y="129.7" width="5.19" height="5.19" transform="translate(160.83 103.76) rotate(90)"/>
      <rect class="cls-3" x="18.16" y="132.29" width="5.19" height="10.38" transform="translate(158.23 116.73) rotate(90)"/>
      <rect class="cls-3" x="31.13" y="134.89" width="5.19" height="5.19" transform="translate(171.2 103.76) rotate(90)"/>
      <rect class="cls-3" x="155.64" y="77.82" width="5.19" height="5.19" transform="translate(238.65 -77.82) rotate(90)"/>
      <rect class="cls-3" x="101.17" y="147.86" width="10.38" height="5.19" transform="translate(256.81 44.1) rotate(90)"/>
      <rect class="cls-3" x="64.85" y="147.86" width="20.75" height="5.19" transform="translate(225.68 75.23) rotate(90)"/>
      <rect class="cls-3" x="95.98" y="168.61" width="10.38" height="5.19" transform="translate(272.37 70.04) rotate(90)"/>
      <rect class="cls-3" x="101.17" y="178.99" width="10.38" height="5.19" transform="translate(287.94 75.23) rotate(90)"/>
      <rect class="cls-3" x="93.38" y="160.83" width="5.19" height="5.19" transform="translate(259.4 67.44) rotate(90)"/>
      <rect class="cls-3" x="77.82" y="98.57" width="5.19" height="5.19" transform="translate(181.58 20.75) rotate(90)"/>
      <rect class="cls-3" x="70.04" y="101.17" width="5.19" height="10.38" transform="translate(178.99 33.72) rotate(90)"/>
      <rect class="cls-3" x="31.13" y="98.57" width="5.19" height="5.19" transform="translate(134.89 67.44) rotate(90)"/>
      <rect class="cls-3" x="46.69" y="88.2" width="5.19" height="5.19" transform="translate(140.08 41.5) rotate(90)"/>
      <rect class="cls-3" x="36.32" y="88.2" width="5.19" height="5.19" transform="translate(129.7 51.88) rotate(90)"/>
      <rect class="cls-3" x="95.98" y="153.05" width="5.19" height="10.38" transform="translate(256.81 59.66) rotate(90)"/>
      <rect class="cls-3" x="204.93" y="49.29" width="5.19" height="10.38" transform="translate(153.05 262) rotate(-90)"/>
      <rect class="cls-3" x="90.79" y="178.99" width="5.19" height="20.75" transform="translate(-95.98 282.75) rotate(-90)"/>
      <rect class="cls-3" x="116.73" y="147.86" width="10.38" height="5.19" transform="translate(272.37 28.53) rotate(90)"/>
      <rect class="cls-3" x="111.54" y="168.61" width="10.38" height="5.19" transform="translate(287.94 54.47) rotate(90)"/>
      <rect class="cls-3" x="116.73" y="178.99" width="10.38" height="5.19" transform="translate(303.5 59.66) rotate(90)"/>
      <rect class="cls-3" x="108.95" y="160.83" width="5.19" height="5.19" transform="translate(274.97 51.88) rotate(90)"/>
      <rect class="cls-3" x="111.54" y="153.05" width="5.19" height="10.38" transform="translate(272.37 44.1) rotate(90)"/>
      <rect class="cls-3" x="111.54" y="184.18" width="5.19" height="10.38" transform="translate(-75.23 303.5) rotate(-90)"/>
      <rect class="cls-3" x="171.21" y="186.77" width="25.94" height="5.19"/>
      <rect class="cls-3" x="215.3" y="54.47" width="5.19" height="10.38" transform="translate(158.23 277.56) rotate(-90)"/>
      <rect class="cls-3" x="204.93" y="116.73" width="5.19" height="10.38" transform="translate(85.6 329.44) rotate(-90)"/>
      <rect class="cls-3" x="197.15" y="98.57" width="5.19" height="5.19" transform="translate(98.57 300.91) rotate(-90)"/>
      <g>
        <rect class="cls-3" x="197.15" y="67.44" width="5.19" height="5.19" transform="translate(269.78 -129.7) rotate(90)"/>
        <rect class="cls-3" x="199.74" y="59.66" width="5.19" height="10.38" transform="translate(267.18 -137.48) rotate(90)"/>
      </g>
      <rect class="cls-3" x="225.68" y="59.66" width="5.19" height="10.38" transform="translate(163.42 293.12) rotate(-90)"/>
      <rect class="cls-3" x="181.58" y="41.5" width="5.19" height="5.19" transform="translate(140.08 228.27) rotate(-90)"/>
      <rect class="cls-3" x="158.23" y="70.04" width="10.38" height="5.19" transform="translate(90.79 236.06) rotate(-90)"/>
      <rect class="cls-3" x="184.18" y="173.8" width="10.38" height="5.19" transform="translate(12.97 365.76) rotate(-90)"/>
      <rect class="cls-3" x="207.52" y="140.08" width="25.94" height="5.19" transform="translate(77.82 363.16) rotate(-90)"/>
      <rect class="cls-3" x="189.36" y="153.05" width="10.38" height="5.19" transform="translate(38.91 350.19) rotate(-90)"/>
      <rect class="cls-3" x="194.55" y="142.67" width="10.38" height="5.19" transform="translate(54.47 345) rotate(-90)"/>
      <rect class="cls-3" x="212.71" y="155.64" width="5.19" height="5.19" transform="translate(57.07 373.54) rotate(-90)"/>
      <rect class="cls-3" x="176.39" y="36.32" width="5.19" height="5.19" transform="translate(140.08 217.9) rotate(-90)"/>
      <rect class="cls-3" x="160.83" y="41.5" width="5.19" height="5.19" transform="translate(119.32 207.52) rotate(-90)"/>
      <rect class="cls-3" x="168.61" y="28.53" width="10.38" height="5.19" transform="translate(142.67 204.93) rotate(-90)"/>
      <rect class="cls-3" x="189.36" y="18.16" width="5.19" height="10.38" transform="translate(168.61 215.3) rotate(-90)"/>
      <rect class="cls-3" x="199.74" y="12.97" width="5.19" height="10.38" transform="translate(184.18 220.49) rotate(-90)"/>
      <rect class="cls-3" x="210.12" y="7.78" width="5.19" height="10.38" transform="translate(199.74 225.68) rotate(-90)"/>
      <rect class="cls-3" x="217.9" y="5.19" width="5.19" height="5.19" transform="translate(212.71 228.27) rotate(-90)"/>
      <rect class="cls-3" x="223.09" y="0" width="5.19" height="5.19" transform="translate(223.09 228.27) rotate(-90)"/>
      <rect class="cls-3" x="228.27" y="0" width="5.19" height="5.19" transform="translate(228.27 233.46) rotate(-90)"/>
      <rect class="cls-3" x="228.27" y="10.38" width="5.19" height="5.19" transform="translate(217.9 243.84) rotate(-90)"/>
      <rect class="cls-3" x="233.46" y="5.19" width="5.19" height="5.19" transform="translate(228.27 243.84) rotate(-90)"/>
      <rect class="cls-3" x="223.09" y="15.56" width="5.19" height="5.19" transform="translate(207.52 243.84) rotate(-90)"/>
      <rect class="cls-3" x="217.9" y="20.75" width="5.19" height="5.19" transform="translate(197.15 243.84) rotate(-90)"/>
      <rect class="cls-3" x="212.71" y="25.94" width="5.19" height="5.19" transform="translate(186.77 243.84) rotate(-90)"/>
      <rect class="cls-3" x="202.43" y="26.04" width="5.19" height="15.37" transform="translate(171.3 238.75) rotate(-90)"/>
      <rect class="cls-3" x="202.33" y="93.38" width="5.19" height="5.19" transform="translate(108.95 300.91) rotate(-90)"/>
      <rect class="cls-3" x="191.96" y="36.32" width="5.19" height="5.19" transform="translate(155.64 233.46) rotate(-90)"/>
      <rect class="cls-3" x="186.77" y="41.5" width="5.19" height="5.19" transform="translate(145.27 233.46) rotate(-90)"/>
      <rect class="cls-3" x="230.87" y="44.1" width="10.38" height="5.19" transform="translate(189.36 282.75) rotate(-90)"/>
      <rect class="cls-5" x="230.87" y="33.72" width="10.38" height="5.19" transform="translate(199.74 272.37) rotate(-90)"/>
      <rect class="cls-5" x="194.55" y="38.91" width="10.38" height="5.19" transform="translate(158.23 241.24) rotate(-90)"/>
      <rect class="cls-5" x="191.96" y="41.5" width="5.19" height="5.19" transform="translate(150.45 238.65) rotate(-90)"/>
      <rect class="cls-1" x="178.99" y="33.72" width="10.38" height="5.19" transform="translate(147.86 220.49) rotate(-90)"/>
      <rect class="cls-1" x="173.8" y="28.53" width="10.38" height="5.19" transform="translate(147.86 210.12) rotate(-90)"/>
      <rect class="cls-1" x="186.77" y="36.32" width="5.19" height="5.19" transform="translate(150.45 228.27) rotate(-90)"/>
      <rect class="cls-5" x="223.09" y="41.5" width="15.56" height="5.19" transform="translate(186.77 274.97) rotate(-90)"/>
      <rect class="cls-5" x="217.9" y="41.5" width="15.56" height="5.19" transform="translate(181.58 269.78) rotate(-90)"/>
      <rect class="cls-5" x="204.93" y="18.16" width="10.38" height="5.19" transform="translate(189.36 230.87) rotate(-90)"/>
      <rect class="cls-5" x="212.71" y="20.75" width="5.19" height="5.19" transform="translate(191.96 238.65) rotate(-90)"/>
      <rect class="cls-1" x="207.52" y="25.94" width="5.19" height="5.19" transform="translate(181.58 238.65) rotate(-90)"/>
      <rect class="cls-1" x="199.74" y="23.35" width="10.38" height="5.19" transform="translate(178.99 230.87) rotate(-90)"/>
      <rect class="cls-2" x="212.71" y="15.56" width="5.19" height="5.19" transform="translate(197.15 233.46) rotate(-90)"/>
      <rect class="cls-2" x="186.77" y="25.94" width="5.19" height="5.19" transform="translate(160.83 217.9) rotate(-90)"/>
      <rect class="cls-2" x="217.9" y="15.56" width="5.19" height="5.19" transform="translate(202.33 238.65) rotate(-90)"/>
      <rect class="cls-2" x="189.36" y="28.53" width="10.38" height="5.19" transform="translate(163.42 225.68) rotate(-90)"/>
      <rect class="cls-2" x="217.9" y="10.38" width="5.19" height="5.19" transform="translate(207.52 233.46) rotate(-90)"/>
      <rect class="cls-6" x="223.09" y="10.38" width="5.19" height="5.19" transform="translate(212.71 238.65) rotate(-90)"/>
      <rect class="cls-6" x="225.68" y="2.59" width="5.19" height="10.38" transform="translate(220.49 236.06) rotate(-90)"/>
      <rect class="cls-6" x="194.55" y="23.35" width="10.38" height="5.19" transform="translate(173.8 225.68) rotate(-90)"/>
      <rect class="cls-5" x="212.71" y="46.69" width="15.56" height="5.19" transform="translate(171.21 269.78) rotate(-90)"/>
      <rect class="cls-5" x="207.52" y="46.69" width="15.56" height="5.19" transform="translate(166.02 264.59) rotate(-90)"/>
      <rect class="cls-5" x="202.33" y="41.5" width="15.56" height="5.19" transform="translate(166.02 254.21) rotate(-90)"/>
      <rect class="cls-5" x="197.15" y="41.5" width="15.56" height="5.19" transform="translate(160.83 249.03) rotate(-90)"/>
      <rect class="cls-3" x="215.3" y="75.23" width="10.38" height="5.19" transform="translate(142.67 298.31) rotate(-90)"/>
      <rect class="cls-3" x="236.06" y="33.72" width="10.38" height="5.19" transform="translate(204.93 277.56) rotate(-90)"/>
      <rect class="cls-3" x="228.27" y="83.01" width="5.19" height="5.19" transform="translate(145.26 316.47) rotate(-90)"/>
      <rect class="cls-3" x="223.09" y="51.88" width="10.38" height="5.19"/>
      <rect class="cls-3" x="225.68" y="28.53" width="5.19" height="10.38" transform="translate(194.55 262) rotate(-90)"/>
      <rect class="cls-3" x="176.39" y="20.75" width="5.19" height="5.19" transform="translate(155.64 202.33) rotate(-90)"/>
      <rect class="cls-3" x="228.27" y="72.63" width="15.56" height="5.19" transform="translate(160.83 311.28) rotate(-90)"/>
      <rect class="cls-3" x="233.46" y="25.94" width="5.19" height="5.19" transform="translate(207.52 264.59) rotate(-90)"/>
      <rect class="cls-3" x="166.02" y="36.32" width="5.19" height="31.13"/>
      <rect class="cls-1" x="160.83" y="46.69" width="5.19" height="20.75"/>
      <rect class="cls-1" x="155.64" y="51.88" width="5.19" height="25.94"/>
      <rect class="cls-1" x="150.45" y="51.88" width="5.19" height="31.13"/>
      <rect class="cls-1" x="145.26" y="57.07" width="5.19" height="25.94"/>
      <rect class="cls-1" x="140.08" y="67.44" width="5.19" height="15.56"/>
      <rect class="cls-1" x="134.89" y="72.63" width="5.19" height="10.38"/>
      <rect class="cls-1" x="129.7" y="72.63" width="5.19" height="10.38"/>
      <rect class="cls-1" x="124.51" y="67.44" width="5.19" height="10.38"/>
      <rect class="cls-1" x="119.32" y="62.26" width="5.19" height="10.38"/>
      <rect class="cls-3" x="191.96" y="103.76" width="5.19" height="25.94"/>
      <rect class="cls-3" x="108.95" y="129.7" width="15.56" height="5.19" transform="translate(-15.56 249.03) rotate(-90)"/>
      <rect class="cls-3" x="62.26" y="129.7" width="15.56" height="5.19" transform="translate(-62.26 202.33) rotate(-90)"/>
      <rect class="cls-3" x="23.35" y="106.35" width="10.38" height="5.19" transform="translate(-80.41 137.48) rotate(-90)"/>
      <rect class="cls-3" x="150.45" y="160.83" width="15.56" height="5.19" transform="translate(-5.19 321.66) rotate(-90)"/>
      <rect class="cls-3" x="166.02" y="150.45" width="36.32" height="5.19" transform="translate(31.13 337.22) rotate(-90)"/>
      <rect class="cls-7" x="106.35" y="101.17" width="134.89" height="5.19" transform="translate(70.04 277.56) rotate(-90)"/>
      <rect class="cls-7" x="114.14" y="119.32" width="108.95" height="5.19" transform="translate(46.69 290.53) rotate(-90)"/>
      <rect class="cls-7" x="113.99" y="103.9" width="129.99" height="5.19" transform="translate(72.49 285.49) rotate(-90)"/>
      <rect class="cls-7" x="140.08" y="88.2" width="88.2" height="5.19" transform="translate(93.38 274.97) rotate(-90)"/>
      <rect class="cls-7" x="116.73" y="121.92" width="93.38" height="5.19" transform="translate(38.91 287.94) rotate(-90)"/>
      <rect class="cls-7" x="121.92" y="116.73" width="72.63" height="5.19" transform="translate(38.91 277.56) rotate(-90)"/>
      <rect class="cls-7" x="121.92" y="116.73" width="62.26" height="5.19" transform="translate(33.72 272.37) rotate(-90)"/>
      <rect class="cls-7" x="124.51" y="108.95" width="46.69" height="5.19" transform="translate(36.32 259.4) rotate(-90)"/>
      <rect class="cls-7" x="116.73" y="111.54" width="51.88" height="5.19" transform="translate(28.53 256.81) rotate(-90)"/>
      <rect class="cls-7" x="111.54" y="111.54" width="51.88" height="5.19" transform="translate(23.35 251.62) rotate(-90)"/>
      <rect class="cls-7" x="106.35" y="111.54" width="51.88" height="5.19" transform="translate(18.16 246.43) rotate(-90)"/>
      <rect class="cls-7" x="101.17" y="111.54" width="51.88" height="5.19" transform="translate(12.97 241.24) rotate(-90)"/>
      <rect class="cls-7" x="95.98" y="111.54" width="51.88" height="5.19" transform="translate(7.78 236.06) rotate(-90)"/>
      <rect class="cls-7" x="85.6" y="111.54" width="51.88" height="5.19" transform="translate(-2.59 225.68) rotate(-90)"/>
      <rect class="cls-7" x="80.41" y="116.73" width="51.88" height="5.19" transform="translate(-12.97 225.68) rotate(-90)"/>
      <rect class="cls-7" x="70.04" y="121.92" width="62.26" height="5.19" transform="translate(-23.35 225.68) rotate(-90)"/>
      <rect class="cls-7" x="64.85" y="121.92" width="62.26" height="5.19" transform="translate(-28.53 220.49) rotate(-90)"/>
      <rect class="cls-7" x="49.29" y="132.29" width="83.01" height="5.19" transform="translate(-44.1 225.68) rotate(-90)"/>
      <rect class="cls-7" x="83.01" y="98.57" width="5.19" height="77.82"/>
      <rect class="cls-7" x="77.82" y="119.32" width="5.19" height="62.26"/>
      <rect class="cls-7" x="98.57" y="103.76" width="36.32" height="5.19" transform="translate(10.38 223.09) rotate(-90)"/>
      <rect class="cls-7" x="147.86" y="85.6" width="83.01" height="5.19" transform="translate(101.17 277.56) rotate(-90)"/>
      <rect class="cls-7" x="168.61" y="75.23" width="51.88" height="5.19" transform="translate(116.73 272.37) rotate(-90)"/>
      <rect class="cls-7" x="194.55" y="54.47" width="10.38" height="5.19" transform="translate(142.67 256.81) rotate(-90)"/>
      <rect class="cls-7" x="194.55" y="70.04" width="31.13" height="5.19" transform="translate(137.48 282.75) rotate(-90)"/>
      <rect class="cls-7" x="202.33" y="72.63" width="25.94" height="5.19" transform="translate(140.08 290.53) rotate(-90)"/>
      <rect class="cls-4" x="191.96" y="134.89" width="25.94" height="5.19" transform="translate(67.44 342.41) rotate(-90)"/>
      <rect class="cls-4" x="189.36" y="127.11" width="20.75" height="5.19" transform="translate(70.04 329.44) rotate(-90)"/>
      <rect class="cls-7" x="67.44" y="129.7" width="15.56" height="5.19" transform="translate(-57.07 207.52) rotate(-90)"/>
      <rect class="cls-4" x="108.95" y="145.26" width="15.56" height="5.19" transform="translate(-31.13 264.59) rotate(-90)"/>
      <rect class="cls-5" x="111.54" y="178.99" width="10.38" height="5.19" transform="translate(-64.85 298.31) rotate(-90)"/>
      <rect class="cls-4" x="103.76" y="150.45" width="15.56" height="5.19" transform="translate(-41.5 264.59) rotate(-90)"/>
      <rect class="cls-4" x="106.35" y="168.61" width="10.38" height="5.19" transform="translate(-59.66 282.75) rotate(-90)"/>
      <rect class="cls-4" x="95.98" y="163.42" width="20.75" height="5.19" transform="translate(-59.66 272.37) rotate(-90)"/>
      <rect class="cls-5" x="106.35" y="178.99" width="10.38" height="5.19" transform="translate(-70.04 293.12) rotate(-90)"/>
      <rect class="cls-4" x="98.57" y="160.83" width="5.19" height="5.19" transform="translate(-62.26 264.59) rotate(-90)"/>
      <rect class="cls-7" x="67.44" y="166.02" width="15.56" height="5.19" transform="translate(-93.38 243.84) rotate(-90)"/>
      <rect class="cls-7" x="90.79" y="168.61" width="10.38" height="5.19" transform="translate(-75.23 267.18) rotate(-90)"/>
      <rect class="cls-7" x="77.82" y="103.76" width="5.19" height="5.19"/>
      <rect class="cls-4" x="191.96" y="129.7" width="5.19" height="5.19" transform="translate(62.26 326.85) rotate(-90)"/>
      <rect class="cls-4" x="202.33" y="140.08" width="25.94" height="5.19" transform="translate(72.63 357.97) rotate(-90)"/>
      <rect class="cls-4" x="194.55" y="137.48" width="31.13" height="5.19" transform="translate(70.04 350.19) rotate(-90)"/>
      <rect class="cls-7" x="215.3" y="75.23" width="20.75" height="5.19" transform="translate(147.86 303.5) rotate(-90)"/>
      <rect class="cls-7" x="223.09" y="72.63" width="15.56" height="5.19" transform="translate(155.64 306.09) rotate(-90)"/>
      <rect class="cls-7" x="215.3" y="64.85" width="10.38" height="5.19" transform="translate(153.05 287.94) rotate(-90)"/>
      <rect class="cls-7" x="217.9" y="83.01" width="5.19" height="5.19" transform="translate(134.89 306.09) rotate(-90)"/>
      <rect class="cls-7" x="202.33" y="57.07" width="5.19" height="5.19" transform="translate(145.26 264.59) rotate(-90)"/>
      <rect class="cls-7" x="186.77" y="83.01" width="25.94" height="5.19" transform="translate(114.14 285.34) rotate(-90)"/>
      <rect class="cls-7" x="191.96" y="77.82" width="25.94" height="5.19" transform="translate(124.51 285.34) rotate(-90)"/>
      <rect class="cls-3" x="191.96" y="181.58" width="5.19" height="5.19" transform="translate(10.38 378.73) rotate(-90)"/>
      <rect class="cls-3" x="166.02" y="181.58" width="5.19" height="5.19" transform="translate(-15.56 352.79) rotate(-90)"/>
      <rect class="cls-3" x="77.82" y="181.58" width="5.19" height="5.19" transform="translate(-103.76 264.59) rotate(-90)"/>
      <rect class="cls-3" x="72.63" y="176.39" width="5.19" height="5.19" transform="translate(-103.76 254.21) rotate(-90)"/>
      <rect class="cls-3" x="108.95" y="140.08" width="5.19" height="5.19" transform="translate(-31.13 254.21) rotate(-90)"/>
      <rect class="cls-3" x="62.26" y="166.02" width="15.56" height="5.19" transform="translate(-98.57 238.65) rotate(-90)"/>
      <rect class="cls-3" x="186.77" y="134.89" width="10.38" height="5.19"/>
      <rect class="cls-3" x="186.77" y="129.7" width="5.19" height="5.19" transform="translate(57.07 321.66) rotate(-90)"/>
      <rect class="cls-3" x="150.45" y="150.45" width="5.19" height="5.19" transform="translate(0 306.09) rotate(-90)"/>
      <rect class="cls-3" x="140.08" y="140.08" width="15.56" height="5.19" transform="translate(5.19 290.53) rotate(-90)"/>
      <rect class="cls-4" x="145.26" y="140.08" width="15.56" height="5.19" transform="translate(10.38 295.72) rotate(-90)"/>
      <rect class="cls-4" x="114.14" y="129.7" width="15.56" height="5.19" transform="translate(-10.38 254.21) rotate(-90)"/>
      <rect class="cls-4" x="103.76" y="129.7" width="15.56" height="5.19" transform="translate(-20.75 243.84) rotate(-90)"/>
      <rect class="cls-4" x="67.44" y="129.7" width="15.56" height="5.19" transform="translate(-57.07 207.52) rotate(-90)"/>
      <rect class="cls-4" x="80.41" y="111.54" width="10.38" height="5.19" transform="translate(-28.53 199.74) rotate(-90)"/>
      <rect class="cls-4" x="67.44" y="166.02" width="15.56" height="5.19" transform="translate(-93.38 243.84) rotate(-90)"/>
      <rect class="cls-4" x="95.98" y="147.86" width="10.38" height="5.19" transform="translate(-49.29 251.62) rotate(-90)"/>
      <rect class="cls-4" x="70.04" y="147.86" width="20.75" height="5.19" transform="translate(-70.04 230.87) rotate(-90)"/>
      <rect class="cls-4" x="129.7" y="124.51" width="5.19" height="25.94" transform="translate(-5.19 269.78) rotate(-90)"/>
      <rect class="cls-4" x="155.64" y="160.83" width="15.56" height="5.19" transform="translate(0 326.85) rotate(-90)"/>
      <rect class="cls-4" x="155.64" y="150.45" width="5.19" height="5.19" transform="translate(5.19 311.28) rotate(-90)"/>
      <rect class="cls-4" x="145.26" y="129.7" width="5.19" height="5.19" transform="translate(15.56 280.15) rotate(-90)"/>
      <rect class="cls-4" x="114.14" y="119.32" width="5.19" height="5.19" transform="translate(-5.19 238.65) rotate(-90)"/>
      <rect class="cls-4" x="103.76" y="140.08" width="5.19" height="5.19" transform="translate(-36.32 249.03) rotate(-90)"/>
      <rect class="cls-4" x="77.82" y="119.32" width="5.19" height="5.19" transform="translate(-41.5 202.33) rotate(-90)"/>
      <rect class="cls-4" x="77.82" y="103.76" width="5.19" height="5.19" transform="translate(-25.94 186.77) rotate(-90)"/>
      <rect class="cls-4" x="83.01" y="98.57" width="5.19" height="5.19" transform="translate(-15.56 186.77) rotate(-90)"/>
      <rect class="cls-4" x="77.82" y="176.39" width="5.19" height="5.19" transform="translate(-98.57 259.4) rotate(-90)"/>
      <rect class="cls-4" x="93.38" y="150.45" width="5.19" height="5.19" transform="translate(-57.07 249.03) rotate(-90)"/>
      <rect class="cls-4" x="166.02" y="171.2" width="5.19" height="5.19" transform="translate(-5.19 342.41) rotate(-90)"/>
      <rect class="cls-4" x="171.21" y="160.83" width="5.19" height="15.56" transform="translate(5.19 342.41) rotate(-90)"/>
      <rect class="cls-4" x="85.6" y="163.42" width="5.19" height="20.75" transform="translate(-85.6 262) rotate(-90)"/>
      <rect class="cls-4" x="95.98" y="85.6" width="5.19" height="20.75" transform="translate(2.59 194.55) rotate(-90)"/>
      <rect class="cls-4" x="114.14" y="83.01" width="5.19" height="15.56" transform="translate(25.94 207.52) rotate(-90)"/>
      <rect class="cls-3" x="119.32" y="140.08" width="25.94" height="5.19"/>
      <rect class="cls-3" x="212.71" y="124.51" width="5.19" height="5.19" transform="translate(88.2 342.41) rotate(-90)"/>
      <rect class="cls-3" x="197.15" y="114.14" width="5.19" height="5.19" transform="translate(83.01 316.47) rotate(-90)"/>
      <rect class="cls-3" x="202.33" y="155.64" width="5.19" height="15.56" transform="translate(41.5 368.35) rotate(-90)"/>
      <rect class="cls-3" x="20.75" y="114.14" width="5.19" height="5.19" transform="translate(140.08 93.38) rotate(90)"/>
      <rect class="cls-3" x="-2.59" y="111.54" width="10.38" height="5.19" transform="translate(-111.54 116.73) rotate(-90)"/>
      <rect class="cls-3" x="12.97" y="106.35" width="5.19" height="10.38" transform="translate(-95.98 127.11) rotate(-90)"/>
      <rect class="cls-3" x="5.19" y="103.76" width="5.19" height="5.19" transform="translate(-98.57 114.14) rotate(-90)"/>
      <rect class="cls-3" x="5.19" y="119.32" width="5.19" height="5.19" transform="translate(-114.14 129.7) rotate(-90)"/>
      <rect class="cls-3" x="10.38" y="129.7" width="5.19" height="5.19" transform="translate(-119.32 145.26) rotate(-90)"/>
      <rect class="cls-3" x="5.19" y="124.51" width="5.19" height="5.19" transform="translate(-119.32 134.89) rotate(-90)"/>
      <rect class="cls-3" x="153.05" y="44.1" width="5.19" height="10.38" transform="translate(204.93 -106.35) rotate(90)"/>
      <rect class="cls-3" x="145.26" y="51.88" width="5.19" height="5.19" transform="translate(202.33 -93.38) rotate(90)"/>
      <rect class="cls-3" x="137.48" y="59.66" width="10.38" height="5.19" transform="translate(80.41 204.93) rotate(-90)"/>
      <rect class="cls-3" x="132.29" y="64.85" width="5.19" height="10.38" transform="translate(204.93 -64.85) rotate(90)"/>
      <rect class="cls-3" x="111.54" y="64.85" width="10.38" height="5.19" transform="translate(49.29 184.18) rotate(-90)"/>
      <rect class="cls-3" x="124.51" y="62.26" width="5.19" height="5.19" transform="translate(62.26 191.96) rotate(-90)"/>
      <rect class="cls-3" x="119.32" y="57.07" width="5.19" height="5.19" transform="translate(62.26 181.58) rotate(-90)"/>
      <rect class="cls-3" x="119.32" y="72.63" width="5.19" height="5.19" transform="translate(46.69 197.15) rotate(-90)"/>
      <rect class="cls-3" x="124.51" y="77.82" width="5.19" height="5.19" transform="translate(46.69 207.52) rotate(-90)"/>
      <rect class="cls-5" x="171.21" y="171.2" width="15.56" height="5.19" transform="translate(357.97 347.6) rotate(180)"/>
      <rect class="cls-3" x="158.23" y="173.8" width="10.38" height="5.19" transform="translate(-12.97 339.82) rotate(-90)"/>
      <g>
        <rect class="cls-3" x="129.7" y="93.38" width="5.19" height="5.19" transform="translate(228.27 -36.32) rotate(90)"/>
        <rect class="cls-3" x="124.51" y="88.2" width="5.19" height="5.19" transform="translate(217.9 -36.32) rotate(90)"/>
        <rect class="cls-3" x="155.64" y="98.57" width="5.19" height="5.19" transform="translate(57.07 259.4) rotate(-90)"/>
        <rect class="cls-3" x="147.86" y="101.17" width="5.19" height="10.38" transform="translate(44.1 256.81) rotate(-90)"/>
        <rect class="cls-3" x="137.48" y="95.98" width="5.19" height="10.38" transform="translate(38.91 241.24) rotate(-90)"/>
        <rect class="cls-3" x="163.42" y="80.41" width="10.38" height="5.19" transform="translate(85.6 251.62) rotate(-90)"/>
        <rect class="cls-2" x="158.23" y="80.41" width="10.38" height="5.19" transform="translate(80.41 246.43) rotate(-90)"/>
        <rect class="cls-2" x="150.45" y="88.2" width="15.56" height="5.19" transform="translate(67.44 249.03) rotate(-90)"/>
        <rect class="cls-2" x="137.48" y="90.79" width="10.38" height="5.19" transform="translate(49.29 236.06) rotate(-90)"/>
        <rect class="cls-2" x="132.29" y="90.79" width="10.38" height="5.19" transform="translate(44.1 230.87) rotate(-90)"/>
        <rect class="cls-2" x="129.7" y="88.2" width="5.19" height="5.19" transform="translate(41.5 223.09) rotate(-90)"/>
        <rect class="cls-2" x="145.26" y="93.38" width="15.56" height="5.19" transform="translate(57.07 249.03) rotate(-90)"/>
        <rect class="cls-2" x="140.08" y="93.38" width="15.56" height="5.19" transform="translate(51.88 243.84) rotate(-90)"/>
        <rect class="cls-3" x="158.23" y="90.79" width="10.38" height="5.19" transform="translate(70.04 256.81) rotate(-90)"/>
      </g>
    </g>
  </g>
</svg>