<?xml version="1.0" encoding="UTF-8"?>
<svg id="_レイヤー_2" data-name="レイヤー 2" xmlns="http://www.w3.org/2000/svg" viewBox="0 0 286.61 141.66">
  <defs>
    <style>
      .cls-1 {
        fill: #4eb947;
      }

      .cls-1, .cls-2, .cls-3, .cls-4, .cls-5, .cls-6, .cls-7, .cls-8, .cls-9, .cls-10 {
        stroke-width: 0px;
      }

      .cls-2 {
        fill: #298941;
      }

      .cls-3 {
        fill: #07042d;
      }

      .cls-4 {
        fill: #246430;
      }

      .cls-5 {
        fill: #c9704f;
      }

      .cls-6 {
        fill: #c40851;
      }

      .cls-7 {
        fill: #6ae061;
      }

      .cls-8 {
        fill: #eda661;
      }

      .cls-9 {
        fill: #fff;
      }

      .cls-10 {
        fill: #ff2968;
      }
    </style>
  </defs>
  <g id="_レイヤー_1-2" data-name="レイヤー 1">
    <g>
      <g>
        <g>
          <g>
            <rect class="cls-3" x="94.34" y="43.06" width="9.17" height="45.83" transform="translate(178.25 154.56) rotate(-165.55)"/>
            <rect class="cls-3" x="271.87" y="88.82" width="9.17" height="45.83" transform="translate(36.63 -65.46) rotate(14.45)"/>
            <path class="cls-1" d="M109.08,44.93l-11.44,44.38,11.44-44.38Z"/>
          </g>
          <rect class="cls-3" x="176.24" y="28.4" width="9.17" height="174.16" transform="translate(23.86 261.76) rotate(-75.55)"/>
          <rect class="cls-7" x="104.07" y="56.95" width="27.5" height="18.33" transform="translate(20.23 -27.31) rotate(14.45)"/>
          <rect class="cls-2" x="98.35" y="83.72" width="27.5" height="9.17" transform="translate(25.59 -25.18) rotate(14.45)"/>
          <rect class="cls-1" x="100.64" y="74.85" width="27.5" height="9.17" transform="translate(23.44 -26.03) rotate(14.45)"/>
          <rect class="cls-1" x="107.5" y="48.22" width="27.5" height="9.17" transform="translate(17.01 -28.59) rotate(14.45)"/>
          <g>
            <rect class="cls-2" x="133.85" y="92.87" width="27.5" height="9.17" transform="translate(28.99 -33.75) rotate(14.45)"/>
            <rect class="cls-1" x="143.01" y="57.37" width="27.5" height="9.17" transform="translate(20.42 -37.16) rotate(14.45)"/>
            <rect class="cls-1" x="136.14" y="84" width="27.5" height="9.17" transform="translate(26.85 -34.61) rotate(14.45)"/>
            <rect class="cls-7" x="140.72" y="66.24" width="27.5" height="9.17" transform="translate(22.56 -36.31) rotate(14.45)"/>
          </g>
          <rect class="cls-7" x="138.43" y="75.12" width="27.5" height="9.17" transform="translate(24.71 -35.46) rotate(14.45)"/>
          <g>
            <rect class="cls-2" x="169.36" y="102.02" width="27.5" height="9.17" transform="translate(32.4 -42.33) rotate(14.45)"/>
            <rect class="cls-1" x="178.51" y="66.52" width="27.5" height="9.17" transform="translate(23.83 -45.73) rotate(14.45)"/>
            <rect class="cls-1" x="171.65" y="93.15" width="27.5" height="9.17" transform="translate(30.26 -43.18) rotate(14.45)"/>
            <rect class="cls-7" x="176.22" y="75.4" width="27.5" height="9.17" transform="translate(25.97 -44.88) rotate(14.45)"/>
          </g>
          <rect class="cls-7" x="173.94" y="84.27" width="27.5" height="9.17" transform="translate(28.12 -44.03) rotate(14.45)"/>
          <g>
            <rect class="cls-2" x="204.87" y="111.17" width="27.5" height="9.17" transform="translate(35.81 -50.9) rotate(14.45)"/>
            <rect class="cls-1" x="214.02" y="75.67" width="27.5" height="9.17" transform="translate(27.24 -54.3) rotate(14.45)"/>
            <rect class="cls-1" x="207.15" y="102.3" width="27.5" height="9.17" transform="translate(33.67 -51.75) rotate(14.45)"/>
            <rect class="cls-7" x="211.73" y="84.55" width="27.5" height="9.17" transform="translate(29.38 -53.45) rotate(14.45)"/>
          </g>
          <rect class="cls-7" x="209.44" y="93.42" width="27.5" height="9.17" transform="translate(31.52 -52.6) rotate(14.45)"/>
          <g>
            <rect class="cls-2" x="240.37" y="120.33" width="27.5" height="9.17" transform="translate(39.22 -59.47) rotate(14.45)"/>
            <rect class="cls-1" x="249.52" y="84.82" width="27.5" height="9.17" transform="translate(30.64 -62.88) rotate(14.45)"/>
            <rect class="cls-1" x="242.66" y="111.45" width="27.5" height="9.17" transform="translate(37.07 -60.32) rotate(14.45)"/>
            <rect class="cls-7" x="247.23" y="93.7" width="27.5" height="9.17" transform="translate(32.79 -62.02) rotate(14.45)"/>
          </g>
          <rect class="cls-7" x="244.95" y="102.57" width="27.5" height="9.17" transform="translate(34.93 -61.17) rotate(14.45)"/>
          <rect class="cls-3" x="189.96" y="-24.86" width="9.17" height="174.16" transform="translate(85.74 235.09) rotate(-75.55)"/>
        </g>
        <rect class="cls-3" x="129.84" y="52.21" width="9.17" height="45.83" transform="translate(245.85 181.43) rotate(-165.55)"/>
        <rect class="cls-3" x="165.35" y="61.36" width="9.17" height="45.83" transform="translate(313.45 208.3) rotate(-165.55)"/>
        <rect class="cls-3" x="200.85" y="70.51" width="9.17" height="45.83" transform="translate(381.06 235.18) rotate(-165.55)"/>
        <rect class="cls-3" x="236.36" y="79.66" width="9.17" height="45.83" transform="translate(448.66 262.05) rotate(-165.55)"/>
      </g>
      <g>
        <rect class="cls-8" x="41.35" y="9.88" width="9.17" height="9.17" transform="translate(71.4 -26.42) rotate(104.45)"/>
        <rect class="cls-5" x="50.23" y="12.16" width="9.17" height="9.17" transform="translate(84.71 -32.15) rotate(104.45)"/>
        <g>
          <rect class="cls-3" x="48.08" y="-2.44" width="9.17" height="18.33" transform="translate(33.01 56.04) rotate(-75.55)"/>
          <rect class="cls-3" x="43.5" y="15.31" width="9.17" height="18.33" transform="translate(12.38 64.94) rotate(-75.55)"/>
          <rect class="cls-3" x="27.49" y="68.28" width="9.17" height="36.67" transform="translate(123.95 77.17) rotate(104.45)"/>
          <rect class="cls-3" x="7.59" y="67.43" width="9.17" height="9.17" transform="translate(-60.61 65.83) rotate(-75.55)"/>
          <rect class="cls-3" x="14.45" y="40.81" width="9.17" height="9.17" transform="translate(-29.67 52.49) rotate(-75.55)"/>
          <rect class="cls-3" x="58.83" y="52.24" width="9.17" height="9.17" transform="translate(-7.44 104.05) rotate(-75.55)"/>
          <rect class="cls-3" x="59.69" y="67.85" width="18.33" height="9.17" transform="translate(-18.46 121.03) rotate(-75.55)"/>
          <rect class="cls-3" x="51.97" y="78.87" width="9.17" height="9.17" transform="translate(-38.38 117.39) rotate(-75.55)"/>
          <rect class="cls-3" x="-2.44" y="51.83" width="18.33" height="9.17" transform="translate(-49.58 48.85) rotate(-75.55)"/>
          <rect class="cls-10" x="9.88" y="58.56" width="9.17" height="9.17" transform="translate(-50.29 61.38) rotate(-75.55)"/>
          <rect class="cls-10" x="18.75" y="60.85" width="9.17" height="9.17" transform="translate(-45.85 71.7) rotate(-75.55)"/>
          <rect class="cls-10" x="27.63" y="63.13" width="9.17" height="9.17" transform="translate(-41.4 82.01) rotate(-75.55)"/>
          <rect class="cls-10" x="36.5" y="65.42" width="9.17" height="9.17" transform="translate(-36.96 92.32) rotate(-75.55)"/>
          <rect class="cls-6" x="49.82" y="64.27" width="9.17" height="18.33" transform="translate(-30.29 107.79) rotate(-75.55)"/>
          <rect class="cls-4" x="56.55" y="61.12" width="9.17" height="9.17" transform="translate(-17.75 108.5) rotate(-75.55)"/>
          <rect class="cls-2" x="12.16" y="49.68" width="9.17" height="9.17" transform="translate(-39.98 56.94) rotate(-75.55)"/>
          <rect class="cls-2" x="29.92" y="54.26" width="9.17" height="9.17" transform="translate(-31.09 77.56) rotate(-75.55)"/>
          <rect class="cls-2" x="23.33" y="43.09" width="9.17" height="9.17" transform="translate(-25.22 62.8) rotate(-75.55)"/>
          <rect class="cls-2" x="44.23" y="54.39" width="18.33" height="9.17" transform="translate(-17.04 95.96) rotate(-75.55)"/>
          <rect class="cls-2" x="31.05" y="32.07" width="18.33" height="9.17" transform="translate(-5.31 66.45) rotate(-75.55)"/>
          <rect class="cls-2" x="28.47" y="43.23" width="36.67" height="9.17" transform="translate(-11.18 81.21) rotate(-75.55)"/>
          <rect class="cls-3" x="32.48" y="7.59" width="9.17" height="9.17" transform="translate(16.03 45.02) rotate(-75.55)"/>
          <rect class="cls-3" x="22.18" y="29.78" width="18.33" height="9.17" transform="translate(-9.75 56.14) rotate(-75.55)"/>
          <rect class="cls-3" x="59.11" y="14.45" width="9.17" height="9.17" transform="translate(29.36 75.96) rotate(-75.55)"/>
          <rect class="cls-3" x="48.8" y="36.64" width="18.33" height="9.17" transform="translate(3.58 87.07) rotate(-75.55)"/>
        </g>
        <rect class="cls-6" x="29.78" y="59.4" width="9.17" height="36.67" transform="translate(-49.49 91.61) rotate(-75.55)"/>
        <rect class="cls-9" x="32.2" y="45.38" width="9.17" height="9.17" transform="translate(-20.78 73.12) rotate(-75.55)"/>
        <rect class="cls-9" x="21.04" y="51.97" width="9.17" height="9.17" transform="translate(-35.54 67.25) rotate(-75.55)"/>
        <rect class="cls-4" x="49.96" y="49.96" width="9.17" height="9.17" transform="translate(-11.89 93.74) rotate(-75.55)"/>
        <rect class="cls-4" x="39.93" y="34.35" width="18.33" height="9.17" transform="translate(-.86 76.76) rotate(-75.55)"/>
      </g>
    </g>
  </g>
</svg>