<?xml version="1.0" encoding="UTF-8"?>
<svg id="_レイヤー_2" data-name="レイヤー 2" xmlns="http://www.w3.org/2000/svg" viewBox="0 0 128.24 173.12">
  <defs>
    <style>
      .cls-1 {
        fill: #07042d;
      }

      .cls-1, .cls-2, .cls-3 {
        stroke-width: 0px;
      }

      .cls-2 {
        fill: #ffd91d;
      }

      .cls-3 {
        fill: #ffa72e;
      }
    </style>
  </defs>
  <g id="_レイヤー_1-2" data-name="レイヤー 1">
    <g>
      <g>
        <rect class="cls-1" x="28.43" y="14" width="25.01" height="8.34" transform="translate(72 -14.11) rotate(109.96)"/>
        <rect class="cls-1" x="12.06" y="34.67" width="25.01" height="8.34" transform="translate(69.45 29) rotate(109.96)"/>
        <rect class="cls-1" x="91.03" y="48.53" width="16.68" height="8.34" transform="translate(182.82 -22.71) rotate(109.96)"/>
        <rect class="cls-1" x="104.56" y="35.7" width="16.68" height="8.34" transform="translate(188.92 -52.64) rotate(109.96)"/>
        <rect class="cls-1" x="77.5" y="61.36" width="16.68" height="8.34" transform="translate(176.73 7.21) rotate(109.96)"/>
        <rect class="cls-1" x="105.2" y="118.69" width="8.34" height="8.34" transform="translate(262.19 62) rotate(109.96)"/>
        <rect class="cls-1" x="-1.43" y="145.09" width="25.01" height="8.34" transform="translate(155.15 189.81) rotate(109.96)"/>
        <rect class="cls-1" x="113.14" y="109.78" width="16.68" height="8.34" transform="translate(270.06 38.67) rotate(109.96)"/>
        <rect class="cls-1" x="69.56" y="70.27" width="8.34" height="8.34" transform="translate(168.87 30.54) rotate(109.96)"/>
        <rect class="cls-1" x="94.52" y="123.69" width="8.34" height="8.34" transform="translate(252.55 78.74) rotate(109.96)"/>
        <rect class="cls-1" x="83.84" y="128.68" width="8.34" height="8.34" transform="translate(242.91 95.48) rotate(109.96)"/>
        <rect class="cls-1" x="73.15" y="133.67" width="8.34" height="8.34" transform="translate(233.27 112.21) rotate(109.96)"/>
        <rect class="cls-1" x="62.47" y="138.66" width="8.34" height="8.34" transform="translate(223.63 128.95) rotate(109.96)"/>
        <rect class="cls-1" x="51.78" y="143.65" width="8.34" height="8.34" transform="translate(213.99 145.69) rotate(109.96)"/>
        <rect class="cls-1" x="19.73" y="158.62" width="8.34" height="8.34" transform="translate(185.07 195.9) rotate(109.96)"/>
        <rect class="cls-1" x="9.05" y="163.61" width="8.34" height="8.34" transform="translate(175.43 212.63) rotate(109.96)"/>
        <rect class="cls-1" x="41.1" y="148.64" width="8.34" height="8.34" transform="translate(204.35 162.42) rotate(109.96)"/>
        <rect class="cls-1" x="30.42" y="153.63" width="8.34" height="8.34" transform="translate(194.71 179.16) rotate(109.96)"/>
        <rect class="cls-1" x="31.32" y="103.76" width="25.01" height="8.34" transform="translate(160.23 103.58) rotate(109.96)"/>
        <rect class="cls-1" x="14.94" y="124.43" width="25.01" height="8.34" transform="translate(157.69 146.69) rotate(109.96)"/>
        <rect class="cls-1" x="-4.32" y="55.33" width="25.01" height="8.34" transform="translate(66.91 72.12) rotate(109.96)"/>
        <rect class="cls-1" x="25.76" y="60.12" width="8.34" height="50.03" transform="translate(-60.31 84.2) rotate(-70.04)"/>
        <rect class="cls-1" x="77.73" y="-18.05" width="8.34" height="66.71" transform="translate(39.56 87.06) rotate(-70.04)"/>
        <rect class="cls-1" x="73.3" y="88.07" width="50.03" height="8.34" transform="translate(159.24 212.49) rotate(-160.04)"/>
        <rect class="cls-2" x="2.72" y="40.36" width="75.04" height="8.34" transform="translate(-15.35 67.15) rotate(-70.04)"/>
        <rect class="cls-2" x="3.12" y="49.27" width="50.03" height="8.34" transform="translate(-31.7 61.64) rotate(-70.04)"/>
        <rect class="cls-2" x="11.6" y="135.11" width="41.69" height="8.34" transform="translate(-109.55 122.23) rotate(-70.04)"/>
        <rect class="cls-2" x="3.52" y="58.18" width="25.01" height="8.34" transform="translate(-48.05 56.13) rotate(-70.04)"/>
        <rect class="cls-2" x="51.58" y="111.23" width="50.03" height="8.34" transform="translate(-58.01 148) rotate(-70.04)"/>
        <rect class="cls-2" x="65.01" y="110.15" width="41.69" height="8.34" transform="translate(-50.91 156) rotate(-70.04)"/>
        <rect class="cls-2" x="78.44" y="109.08" width="33.35" height="8.34" transform="translate(-43.8 164) rotate(-70.04)"/>
        <rect class="cls-2" x="91.87" y="108.01" width="25.01" height="8.34" transform="translate(-36.69 172) rotate(-70.04)"/>
        <rect class="cls-2" x="6.4" y="147.94" width="25.01" height="8.34" transform="translate(-130.51 117.96) rotate(-70.04)"/>
        <rect class="cls-2" x="105.3" y="106.94" width="16.68" height="8.34" transform="translate(-29.59 179.99) rotate(-70.04)"/>
        <rect class="cls-2" x="96.73" y="32.85" width="16.68" height="8.34" transform="translate(34.4 123.14) rotate(-70.04)"/>
        <rect class="cls-2" x="10.55" y="43.21" width="75.04" height="8.34" transform="translate(-12.86 76.39) rotate(-70.04)"/>
        <rect class="cls-2" x="18.39" y="46.05" width="75.04" height="8.34" transform="translate(-10.38 85.63) rotate(-70.04)"/>
        <rect class="cls-2" x="26.23" y="48.9" width="75.04" height="8.34" transform="translate(-7.89 94.87) rotate(-70.04)"/>
        <rect class="cls-2" x="-10.67" y="83.09" width="141.75" height="8.34" transform="translate(-42.37 114.06) rotate(-70.04)"/>
        <rect class="cls-2" x="24.73" y="113.37" width="66.71" height="8.34" transform="translate(-72.23 132.01) rotate(-70.04)"/>
        <rect class="cls-2" x="38.15" y="112.3" width="58.37" height="8.34" transform="translate(-65.12 140) rotate(-70.04)"/>
        <rect class="cls-2" x="58.68" y="42.84" width="50.03" height="8.34" transform="translate(10.94 109.63) rotate(-70.04)"/>
        <rect class="cls-2" x="77.7" y="37.84" width="33.35" height="8.34" transform="translate(22.67 116.38) rotate(-70.04)"/>
      </g>
      <g>
        <rect class="cls-3" x="13.32" y="147.69" width="8.34" height="16.68" transform="translate(-19.34 308.65) rotate(-160.04)"/>
        <rect class="cls-3" x="24" y="142.7" width="8.34" height="16.68" transform="translate(3.09 302.61) rotate(-160.04)"/>
        <rect class="cls-3" x="34.69" y="137.71" width="8.34" height="16.68" transform="translate(25.52 296.58) rotate(-160.04)"/>
        <rect class="cls-3" x="45.37" y="132.71" width="8.34" height="16.68" transform="translate(47.95 290.54) rotate(-160.04)"/>
        <rect class="cls-3" x="56.05" y="127.72" width="8.34" height="16.68" transform="translate(70.38 284.51) rotate(-160.04)"/>
        <rect class="cls-3" x="66.74" y="122.73" width="8.34" height="16.68" transform="translate(92.81 278.47) rotate(-160.04)"/>
        <rect class="cls-3" x="77.42" y="117.74" width="8.34" height="16.68" transform="translate(115.24 272.44) rotate(-160.04)"/>
        <rect class="cls-3" x="88.1" y="112.75" width="8.34" height="16.68" transform="translate(137.67 266.4) rotate(-160.04)"/>
        <rect class="cls-3" x="97.37" y="115.85" width="8.34" height="8.34" transform="translate(156 267.48) rotate(-160.04)"/>
        <rect class="cls-3" x="109.47" y="102.77" width="8.34" height="16.68" transform="translate(182.53 254.33) rotate(-160.04)"/>
        <rect class="cls-3" x="11.86" y="49.84" width="8.34" height="25.01" transform="translate(9.8 126.42) rotate(-160.04)"/>
        <rect class="cls-3" x="48.97" y="90.19" width="8.34" height="33.04" transform="translate(66.66 225.15) rotate(-160.04)"/>
        <rect class="cls-3" x="15.85" y="74.56" width="41.69" height="8.34" transform="translate(44.3 165.24) rotate(-160.04)"/>
        <rect class="cls-3" x="70.71" y="94.48" width="41.69" height="8.34" transform="translate(143.93 222.63) rotate(-160.04)"/>
        <rect class="cls-3" x="66.72" y="78.1" width="8.34" height="8.34" transform="translate(109.43 183.8) rotate(-160.04)"/>
        <rect class="cls-3" x="61.73" y="67.42" width="8.34" height="8.34" transform="translate(103.4 161.37) rotate(-160.04)"/>
        <rect class="cls-3" x="85.94" y="49.6" width="8.34" height="8.34" transform="translate(156.45 135.07) rotate(-160.04)"/>
        <rect class="cls-3" x="73.83" y="54.34" width="8.34" height="16.68" transform="translate(129.92 148.22) rotate(-160.04)"/>
        <rect class="cls-3" x="33.96" y="119.43" width="8.34" height="8.34" transform="translate(31.78 252.8) rotate(-160.04)"/>
        <rect class="cls-3" x="28.23" y="29.17" width="8.34" height="25.01" transform="translate(48.63 91.92) rotate(-160.04)"/>
        <rect class="cls-3" x="19.69" y="61.02" width="8.34" height="8.34" transform="translate(24.04 134.62) rotate(-160.04)"/>
      </g>
    </g>
  </g>
</svg>