<?xml version="1.0" encoding="UTF-8"?>
<svg id="_レイヤー_2" data-name="レイヤー 2" xmlns="http://www.w3.org/2000/svg" viewBox="0 0 131.06 54.99">
  <defs>
    <style>
      .cls-1 {
        fill: #ff0;
        stroke-width: 0px;
      }
    </style>
  </defs>
  <g id="_レイヤー_6" data-name="レイヤー 6">
    <g>
      <path class="cls-1" d="M25.11,47.19c.87-.19,1.75.38,1.96,1.35l.16.73c.21.97-.36,1.85-1.23,2.04l-16.94,3.65c-.82.18-1.71-.39-1.91-1.36L.03,20.58c-.18-.82.39-1.71,1.21-1.88l.87-.19c.82-.18,1.71.39,1.88,1.21l6.05,28.07c.18.82.09,1.6-.15,1.65-.24.05-.38.59-.28,1.07.14.63.72,1.01,1.21.91.63-.14.92-.45.83-.84-.05-.24.62-.64,1.59-.85l11.86-2.56Z"/>
      <path class="cls-1" d="M38.7,35.96c-.87.19-1.44,1.07-1.26,1.89l.85,3.97c.19.87.64,1.79.93,1.98.29.19,1.19.1,2.15-.11l7.12-1.53c.87-.19,1.82-.49,2.01-.79.19-.29.08-1.28-.11-2.15-.18-.82.39-1.71,1.26-1.89l.82-.18c.87-.19,1.75.38,1.93,1.21l.19.87c.18.82-.29,1.68-1.26,1.89-.82.18-1.64.61-1.83.9-.19.29-.24,1.22-.07,2.04.21.97-.36,1.85-1.18,2.03l-8.95,1.93c-.87.19-1.75-.38-1.96-1.35-.18-.82-.46-1.67-.76-1.86s-1.31-.22-2.19-.04c-.82.18-1.71-.39-1.88-1.21l-3.65-16.94c-.18-.82.39-1.71,1.22-1.88.87-.19,1.79-.64,1.98-.93.19-.29.1-1.19-.11-2.15-.18-.82.39-1.71,1.26-1.89l8.95-1.93c.82-.18,1.71.39,1.88,1.22.21.97.64,1.79.93,1.98.29.19,1.22.24,2.04.07.97-.21,1.75.38,1.93,1.2l1.91,8.86c.21.97-.36,1.85-1.23,2.04l-12.92,2.78ZM35.87,30.59c.19.87,1.07,1.44,1.94,1.25l7.84-1.69c.97-.21,1.75-.12,1.8.12.07.34.61.48,1.09.37.63-.14.86-.69.74-1.27-.1-.48-.31-.95-.69-.86-.24.05-.64-.62-.83-1.49l-.65-3c-.19-.87-.49-1.82-.79-2.01-.29-.19-1.28-.08-2.15.11l-7.12,1.53c-.97.21-1.82.49-2.01.79-.19.29-.22,1.31-.04,2.19l.86,3.97Z"/>
      <path class="cls-1" d="M61.17,18.45l-.87.19c-.82.18-1.71-.39-1.91-1.36l-.16-.73c-.21-.97.36-1.85,1.18-2.03l.87-.19c.82-.18,1.39-1.06,1.21-1.93l-1.04-4.84c-.18-.82.39-1.71,1.26-1.89l.82-.18c.87-.19,1.75.38,1.93,1.2l1.04,4.84c.19.87,1.07,1.44,2.04,1.23l4.84-1.04c.82-.18,1.71.39,1.91,1.36l.16.73c.21.97-.36,1.85-1.18,2.03l-4.84,1.04c-.97.21-1.54,1.09-1.36,1.91l3.46,16.07c.19.87.64,1.79.93,1.98.29.19,1.28.08,2.11-.1l3.15-.68c.87-.19,1.82-.49,2.01-.79.19-.29.08-1.28-.11-2.15-.18-.82.39-1.71,1.26-1.89l.82-.18c.87-.19,1.75.38,1.93,1.21l.19.87c.18.82-.29,1.68-1.26,1.89-.82.18-1.64.61-1.83.9-.19.29-.24,1.22-.07,2.04.21.97-.36,1.85-1.18,2.03l-4.84,1.04c-.97.21-1.85-.36-2.06-1.33-.18-.82-.51-1.66-.8-1.85s-1.31-.22-2.14-.05c-.87.19-1.75-.38-1.93-1.2l-3.65-16.94c-.18-.82-1.06-1.39-1.88-1.22Z"/>
      <path class="cls-1" d="M91.63,7.22l-.35.08c-.88.19-1.76,0-2.63-.56-.87-.56-1.41-1.33-1.62-2.31-.22-1.01-.04-1.93.53-2.76.57-.83,1.38-1.36,2.44-1.59.72-.16,1.45-.09,2.17.19.72.28,1.34.78,1.86,1.5.52.72.9,1.66,1.15,2.81.34,1.56.32,3.09-.05,4.6-.37,1.51-.94,2.76-1.73,3.76-.78,1-1.56,1.58-2.33,1.75-.49.11-.92.04-1.29-.2-.37-.24-.61-.58-.7-1.02-.15-.71.06-1.3.63-1.77.73-.67,1.27-1.34,1.62-2.03.35-.68.45-1.5.32-2.44Z"/>
      <path class="cls-1" d="M115.76,30.19c-.18-.82-.46-1.67-.76-1.86-.29-.19-1.31-.22-2.19-.04-.82.18-1.71-.39-1.88-1.22l-.19-.87c-.18-.82.39-1.71,1.21-1.88l.87-.19c.82-.18,1.71.39,1.88,1.22.19.87.64,1.79.93,1.98.29.19,1.19.1,2.15-.11l7.12-1.53c.87-.19,1.82-.49,2.01-.79.19-.29.08-1.28-.11-2.15l-.67-3.1c-.19-.87-.49-1.82-.79-2.01-.29-.19-1.28-.08-2.15.11l-8.08,1.74c-.87.19-1.75-.38-1.96-1.35-.19-.87-.46-1.67-.76-1.86-.29-.19-1.31-.22-2.19-.04-.82.18-1.71-.39-1.89-1.26l-1.04-4.84c-.18-.82.39-1.71,1.22-1.88.87-.19,1.79-.64,1.98-.93.19-.29.1-1.19-.11-2.15-.18-.82.39-1.71,1.26-1.89l8.96-1.93c.82-.18,1.71.39,1.88,1.22.21.97.64,1.79.93,1.98.29.19,1.22.24,2.04.07.97-.21,1.75.38,1.93,1.2l.19.87c.18.82-.39,1.71-1.26,1.89l-.82.18c-.87.19-1.75-.38-1.93-1.2-.19-.87-.49-1.82-.79-2.01-.29-.19-1.28-.08-2.15.11l-7.12,1.53c-.97.21-1.82.49-2.01.79-.19.29-.22,1.31-.04,2.19l.68,3.15c.18.82.63,1.74.92,1.93.29.19,1.2.15,2.16-.06l7.99-1.72c.82-.18,1.71.39,1.88,1.22.21.97.64,1.79.93,1.98.29.19,1.22.24,2.04.07.97-.21,1.75.38,1.93,1.2l1.04,4.84c.18.82-.29,1.68-1.26,1.89-.82.18-1.64.61-1.83.9-.19.29-.24,1.22-.07,2.04.21.97-.36,1.85-1.18,2.03l-8.96,1.93c-.87.19-1.75-.38-1.96-1.35Z"/>
    </g>
  </g>
</svg>