<?xml version="1.0" encoding="UTF-8"?>
<svg id="_レイヤー_2" data-name="レイヤー 2" xmlns="http://www.w3.org/2000/svg" viewBox="0 0 385.96 186.68">
  <defs>
    <style>
      .cls-1 {
        stroke-width: 0px;
      }
    </style>
  </defs>
  <g id="_レイヤー_6" data-name="レイヤー 6">
    <g>
      <path class="cls-1" d="M56.44,11.31c1.58.57,2.51,2.1,1.87,3.86-.57,1.58-.68,3.23-.4,3.83.28.6,1.61,1.58,3.36,2.21,1.58.57,2.42,2.37,1.84,3.94l-5.89,16.22c-.54,1.49-2.33,2.33-3.91,1.75-1.75-.64-3.4-.74-3.94-.64-.6.28-1.67,1.87-2.21,3.36-.57,1.58-2.37,2.42-3.94,1.84l-8.77-3.18c-1.49-.54-3.28.3-3.83,1.79-.64,1.75-1.03,3.4-.75,3.99.28.6,1.87,1.67,3.45,2.25,1.49.54,2.42,2.07,1.79,3.82-.57,1.58-.68,3.23-.4,3.83.28.6,1.7,1.61,3.19,2.15,1.75.64,2.42,2.37,1.87,3.86-.57,1.58-.77,3.49-.49,4.09.28.6,1.71,1.31,3.46,1.95,1.58.57,2.42,2.37,1.78,4.12l-.48,1.31c-.64,1.75-2.43,2.59-4.18,1.96l-1.32-.48c-1.75-.64-2.59-2.43-1.96-4.18.54-1.49.85-3.16.57-3.76-.28-.6-1.87-1.67-3.36-2.21-1.58-.57-2.41-2.37-1.87-3.86.57-1.58,1.03-3.4.76-3.99-.38-.33-1.97-1.41-3.55-1.98-1.49-.54-2.33-2.33-1.79-3.83.57-1.58.77-3.49.49-4.09-.28-.6-1.79-1.35-3.29-1.89-1.75-.64-2.59-2.43-1.95-4.18l.48-1.32c.64-1.75-.2-3.55-1.78-4.12l-1.49-.54c-1.58-.57-3.37.26-4.01,2.02l-8.41,23.15c-.64,1.75-2.43,2.59-3.92,2.05l-1.58-.57c-1.49-.54-2.33-2.33-1.69-4.09L21.93,1.95c.54-1.49,2.33-2.33,3.82-1.79l30.69,11.14ZM55.13,23.93c.54-1.49.92-3.34.64-3.94-.28-.6-1.94-1.5-3.43-2.04l-21.92-7.96c-1.58-.57-3.37.26-3.94,1.84l-5.89,16.22c-.54,1.49.3,3.28,1.88,3.86l21.92,7.96c1.49.54,3.4.74,4,.46.6-.28,1.4-1.67,1.97-3.25l4.78-13.15Z"/>
      <path class="cls-1" d="M75.59,67.88c-1.58-.57-3.37.26-3.91,1.75l-2.61,7.19c-.57,1.58-.77,3.49-.49,4.09.28.6,1.79,1.35,3.55,1.98l12.89,4.68c1.58.57,3.39,1.03,3.99.76.6-.28,1.41-1.97,1.98-3.55.54-1.49,2.33-2.33,3.91-1.75l1.49.54c1.58.57,2.42,2.37,1.88,3.86l-.57,1.58c-.54,1.49-2.16,2.39-3.91,1.75-1.49-.54-3.23-.68-3.82-.4-.6.28-1.61,1.7-2.15,3.19-.64,1.75-2.43,2.59-3.92,2.05l-16.22-5.89c-1.58-.57-2.42-2.37-1.78-4.12.54-1.49.94-3.13.66-3.73-.28-.6-1.87-1.67-3.45-2.25-1.49-.54-2.33-2.33-1.79-3.83l11.14-30.69c.54-1.49,2.33-2.33,3.82-1.79,1.58.57,3.49.77,4.09.49.6-.28,1.35-1.79,1.98-3.55.54-1.49,2.33-2.33,3.91-1.75l16.22,5.89c1.49.54,2.33,2.33,1.79,3.82-.64,1.75-.77,3.49-.49,4.09.28.6,1.7,1.61,3.19,2.15,1.75.64,2.42,2.37,1.88,3.86l-5.83,16.04c-.64,1.75-2.43,2.59-4.01,2.02l-23.41-8.5ZM76.45,56.49c-.57,1.58.26,3.37,1.84,3.94l14.2,5.16c1.75.64,2.91,1.55,2.75,1.99-.22.61.49,1.37,1.37,1.69,1.14.41,2.07-.24,2.45-1.29.32-.88.46-1.82-.24-2.07-.44-.16-.4-1.63.17-3.21l1.97-5.44c.57-1.58,1.03-3.4.76-3.99-.28-.6-1.97-1.41-3.55-1.98l-12.89-4.68c-1.75-.64-3.4-1.03-3.99-.76-.6.28-1.67,1.87-2.25,3.45l-2.61,7.19Z"/>
      <path class="cls-1" d="M123.55,63.67c.54-1.49,2.33-2.33,3.82-1.79,1.58.57,3.49.77,4.09.49.6-.28,1.35-1.79,1.98-3.55.54-1.49,2.33-2.33,3.91-1.75l16.22,5.89c1.49.54,3.28-.3,3.86-1.88l3.18-8.77c.54-1.49,2.33-2.33,3.91-1.75l1.49.54c1.58.57,2.42,2.37,1.88,3.86l-21.72,59.79c-.64,1.75-2.43,2.59-4.01,2.02l-23.41-8.5c-1.58-.57-2.42-2.37-1.78-4.12.54-1.49.94-3.13.66-3.73-.28-.6-1.87-1.67-3.45-2.25-1.49-.54-2.33-2.33-1.79-3.82l11.14-30.69ZM152.66,74.24c.54-1.49-.3-3.28-1.79-3.82l-14.47-5.25c-1.75-.64-3.4-1.03-3.99-.76-.6.28-1.67,1.87-2.25,3.45l-10,27.53c-.57,1.58-.77,3.49-.49,4.09.28.6,1.79,1.35,3.55,1.98l14.47,5.25c1.49.54,3.28-.3,3.82-1.79l11.14-30.69Z"/>
      <path class="cls-1" d="M206.41,85.53c.54-1.49,2.33-2.33,3.91-1.75l1.49.54c1.58.57,2.42,2.37,1.87,3.86l-21.72,59.79c-.64,1.75-2.25,2.65-4.01,2.02-1.49-.54-3.17-.85-3.76-.57-.6.28-1.67,1.87-2.22,3.36-.57,1.58-2.37,2.42-3.86,1.87l-16.22-5.89c-1.58-.57-2.42-2.37-1.84-3.94.54-1.49,1-3.31.72-3.9-.28-.6-1.94-1.5-3.51-2.07-1.49-.54-2.33-2.33-1.69-4.09l.48-1.32c.64-1.75,2.43-2.59,3.92-2.05l1.58.57c1.49.54,2.33,2.33,1.69,4.09-.57,1.58-.68,3.23-.4,3.83s1.7,1.61,3.45,2.25l12.89,4.68c1.58.57,3.49.77,4.09.49.6-.28,1.31-1.71,1.95-3.46l2.64-7.28c.54-1.49-.3-3.28-1.79-3.82l-16.22-5.89c-1.58-.57-2.42-2.37-1.88-3.86.57-1.58,1.03-3.4.76-3.99-.28-.6-1.97-1.41-3.55-1.98-1.49-.54-2.33-2.33-1.69-4.09l13.79-37.96c.54-1.49,2.33-2.33,3.83-1.79l1.58.57c1.49.54,2.33,2.33,1.79,3.82l-13.21,36.38c-.64,1.75-.77,3.49-.49,4.09.28.6,1.7,1.61,3.45,2.25l14.47,5.25c1.49.54,3.28-.3,3.92-2.05l13.79-37.96Z"/>
      <path class="cls-1" d="M225.94,145.43c.64-1.75,2.43-2.59,4.18-1.95l1.32.48c1.75.64,2.59,2.43,1.95,4.18l-.48,1.31c-.64,1.75-2.43,2.59-4.18,1.95l-1.32-.48c-1.75-.64-2.59-2.43-1.95-4.18l.48-1.32ZM273.9,104.89l-3.18,8.77c-.64,1.75-2.43,2.59-4.01,2.02-1.75-.64-3.31-1-3.91-.72s-1.67,1.87-2.25,3.45c-.54,1.49-2.16,2.39-3.91,1.75-1.49-.54-3.16-.85-3.76-.57-.6.28-1.67,1.87-2.21,3.36-.57,1.58-2.37,2.42-3.86,1.87-1.58-.57-3.49-.77-4.09-.49-.6.28-1.32,1.71-1.95,3.46l-2.64,7.28c-.54,1.49-2.33,2.33-4.09,1.69l-1.32-.48c-1.75-.64-2.59-2.43-2.05-3.92l3.18-8.77c.64-1.75,2.43-2.59,4.18-1.95,1.49.54,3.16.85,3.76.57.6-.28,1.67-1.87,2.21-3.36.57-1.58,2.37-2.42,3.86-1.87,1.58.57,3.49.77,4.09.49.6-.28,1.31-1.71,1.89-3.28.64-1.75,2.33-2.33,3.91-1.75,1.49.54,3.4.74,4,.46.6-.28,1.5-1.94,2.07-3.52l2.07-5.7c.54-1.49.92-3.34.64-3.94-.28-.6-1.94-1.5-3.43-2.04l-20.16-7.32c-1.75-.64-3.43-.95-4.02-.67-.6.28-1.67,1.87-2.22,3.36l-2.64,7.28c-.64,1.75-2.43,2.59-3.92,2.05l-1.58-.57c-1.49-.54-2.33-2.33-1.69-4.09l3.18-8.77c.57-1.58,2.37-2.42,3.86-1.87,1.58.57,3.49.77,4.09.49s1.31-1.71,1.89-3.28c.64-1.75,2.33-2.33,3.91-1.75l23.41,8.5c1.58.57,2.51,2.1,1.87,3.86-.57,1.58-.67,3.23-.4,3.83.28.6,1.61,1.58,3.36,2.21,1.58.57,2.42,2.37,1.84,3.94Z"/>
      <path class="cls-1" d="M292.61,138.62c1.75.64,2.59,2.43,1.95,4.18l-3.18,8.77c-.57,1.58-2.37,2.42-4.12,1.78l-8.77-3.18c-1.58-.57-2.42-2.37-1.84-3.94l3.18-8.77c.64-1.75,2.43-2.59,4.01-2.02l8.77,3.18Z"/>
      <path class="cls-1" d="M338.2,155.18c1.75.64,2.59,2.43,1.96,4.18l-3.18,8.77c-.57,1.58-2.37,2.42-4.12,1.78l-8.77-3.18c-1.58-.57-2.41-2.37-1.84-3.94l3.18-8.77c.64-1.75,2.43-2.59,4.01-2.02l8.77,3.18Z"/>
      <path class="cls-1" d="M383.79,171.73c1.75.64,2.59,2.43,1.95,4.18l-3.18,8.77c-.57,1.58-2.37,2.42-4.12,1.78l-8.77-3.18c-1.58-.57-2.42-2.37-1.84-3.94l3.18-8.77c.64-1.75,2.43-2.59,4.01-2.02l8.77,3.18Z"/>
    </g>
  </g>
</svg>