<?xml version="1.0" encoding="UTF-8"?>
<svg id="_レイヤー_2" data-name="レイヤー 2" xmlns="http://www.w3.org/2000/svg" viewBox="0 0 51.5 51.5">
  <defs>
    <style>
      .cls-1 {
        stroke-width: 0px;
      }
    </style>
  </defs>
  <g id="_レイヤー_5" data-name="レイヤー 5">
    <path class="cls-1" d="M25.75,4.29c11.83,0,21.46,9.63,21.46,21.46s-9.63,21.46-21.46,21.46S4.29,37.58,4.29,25.75,13.92,4.29,25.75,4.29ZM25.75,0C11.53,0,0,11.53,0,25.75s11.53,25.75,25.75,25.75,25.75-11.53,25.75-25.75S39.97,0,25.75,0ZM39.69,18.83c-.95.42-1.97.7-3.03.83,1.09-.65,1.93-1.69,2.32-2.92-1.02.61-2.15,1.04-3.36,1.28-.96-1.03-2.34-1.67-3.85-1.67-3.41,0-5.92,3.18-5.15,6.49-4.39-.22-8.28-2.32-10.89-5.52-1.38,2.37-.72,5.48,1.63,7.05-.86-.03-1.68-.27-2.39-.66-.06,2.45,1.7,4.74,4.24,5.25-.74.2-1.56.25-2.39.09.67,2.1,2.63,3.62,4.93,3.67-2.23,1.74-5.02,2.52-7.83,2.19,2.34,1.5,5.11,2.37,8.1,2.37,9.81,0,15.35-8.28,15.02-15.71,1.03-.74,1.93-1.67,2.64-2.73Z"/>
  </g>
</svg>