<?xml version="1.0" encoding="UTF-8"?>
<svg id="_レイヤー_2" data-name="レイヤー 2" xmlns="http://www.w3.org/2000/svg" viewBox="0 0 49.68 49.68">
  <defs>
    <style>
      .cls-1 {
        stroke-width: 0px;
      }
    </style>
  </defs>
  <g id="_レイヤー_5" data-name="レイヤー 5">
    <path class="cls-1" d="M24.84,4.14c11.41,0,20.7,9.29,20.7,20.7s-9.29,20.7-20.7,20.7S4.14,36.25,4.14,24.84,13.43,4.14,24.84,4.14ZM24.84,0C11.12,0,0,11.12,0,24.84s11.12,24.84,24.84,24.84,24.84-11.12,24.84-24.84S38.56,0,24.84,0ZM24.84,14.66c3.32,0,3.71.01,5.02.07,3.37.15,4.94,1.75,5.09,5.09.06,1.31.07,1.7.07,5.02s-.01,3.71-.07,5.02c-.16,3.34-1.72,4.94-5.09,5.09-1.31.06-1.7.07-5.02.07s-3.71-.01-5.02-.07c-3.37-.16-4.94-1.76-5.09-5.09-.06-1.31-.07-1.7-.07-5.02s.01-3.71.07-5.02c.15-3.34,1.72-4.94,5.09-5.09,1.31-.06,1.7-.07,5.02-.07ZM24.84,12.42c-3.37,0-3.79.01-5.12.08-4.51.21-7.02,2.71-7.22,7.22-.06,1.33-.07,1.75-.07,5.12s.01,3.8.07,5.12c.21,4.51,2.71,7.02,7.22,7.22,1.33.06,1.75.07,5.12.07s3.8-.01,5.12-.07c4.5-.21,7.02-2.71,7.22-7.22.06-1.32.07-1.75.07-5.12s-.01-3.79-.07-5.12c-.2-4.51-2.71-7.02-7.22-7.22-1.33-.06-1.75-.08-5.12-.08ZM24.84,18.46c-3.52,0-6.38,2.85-6.38,6.38s2.86,6.38,6.38,6.38,6.38-2.85,6.38-6.38-2.86-6.38-6.38-6.38ZM24.84,28.98c-2.29,0-4.14-1.85-4.14-4.14s1.85-4.14,4.14-4.14,4.14,1.85,4.14,4.14-1.86,4.14-4.14,4.14ZM31.47,16.72c-.82,0-1.49.67-1.49,1.49s.67,1.49,1.49,1.49,1.49-.67,1.49-1.49-.67-1.49-1.49-1.49Z"/>
  </g>
</svg>