<?xml version="1.0" encoding="UTF-8"?>
<svg id="_レイヤー_2" data-name="レイヤー 2" xmlns="http://www.w3.org/2000/svg" viewBox="0 0 266.49 75.33">
  <defs>
    <style>
      .cls-1 {
        fill: #ff0;
        stroke-width: 0px;
      }
    </style>
  </defs>
  <g id="_レイヤー_6" data-name="レイヤー 6">
    <g>
      <path class="cls-1" d="M2.21,11.78l-.88-.13c-.83-.12-1.46-.97-1.31-1.95l.11-.73c.15-.98.99-1.6,1.82-1.48l.88.13c.83.12,1.68-.5,1.81-1.38l.73-4.9c.12-.83.97-1.46,1.85-1.32l.83.12c.88.13,1.51.98,1.38,1.81l-.73,4.9c-.13.88.49,1.73,1.47,1.87l4.9.73c.83.12,1.46.97,1.31,1.95l-.11.73c-.15.98-.99,1.6-1.82,1.48l-4.9-.73c-.98-.15-1.83.48-1.95,1.31l-2.43,16.26c-.13.88-.03,1.9.17,2.18s1.17.53,2,.65l3.18.48c.88.13,1.88.18,2.16-.03.28-.21.53-1.17.66-2.05.12-.83.97-1.46,1.85-1.32l.83.12c.88.13,1.51.98,1.38,1.81l-.13.88c-.12.83-.87,1.47-1.85,1.33-.83-.12-1.75-.01-2.03.2-.28.21-.66,1.05-.78,1.89-.15.98-.99,1.6-1.82,1.48l-4.9-.73c-.98-.15-1.6-.99-1.46-1.97.12-.83.11-1.74-.1-2.02s-1.15-.67-1.98-.8c-.88-.13-1.51-.98-1.38-1.81L3.55,13.58c.12-.83-.5-1.68-1.33-1.8Z"/>
      <path class="cls-1" d="M49.5,41.35l-.11.73c-.15.98-.99,1.6-1.97,1.46l-.74-.11c-.98-.15-1.6-.99-1.46-1.97.12-.83.11-1.74-.1-2.02-.21-.28-.91-.64-1.49-.73-.64-.09-1.41.04-1.69.25-.28.21-.66,1.05-.78,1.89-.15.98-.99,1.6-1.82,1.48l-9.06-1.36c-.88-.13-1.51-.98-1.36-1.96.12-.83.16-1.73-.05-2.01s-1.15-.67-2.03-.81c-.83-.12-1.46-.97-1.33-1.8l1.33-8.91c.15-.98.99-1.6,1.82-1.48.88.13,1.88.13,2.17-.08.28-.21.53-1.17.65-2.01.13-.88.98-1.5,1.86-1.37l9.06,1.36c.83.12,1.68-.5,1.8-1.33.13-.88.18-1.88-.03-2.16-.21-.28-1.17-.53-2.05-.66l-7.2-1.08c-.98-.15-1.88-.18-2.16.03-.28.21-.67,1.15-.81,2.03-.12.83-.97,1.46-1.8,1.33l-.88-.13c-.83-.12-1.46-.97-1.33-1.8l.13-.88c.12-.83.97-1.46,1.8-1.33.88.13,1.9.03,2.18-.17.28-.21.51-1.08.66-2.05.12-.83.97-1.46,1.85-1.33l9.06,1.36c.83.12,1.46.97,1.33,1.8-.15.98-.03,1.9.17,2.18.21.28,1.05.66,1.89.78.98.15,1.51.98,1.38,1.81l-2.43,16.26c-.13.88-.03,1.9.17,2.18s1.03.5,2,.65c.88.13,1.51.98,1.36,1.96ZM39.09,38.03c.88.13,1.88.18,2.16-.03.28-.21.53-1.17.66-2.05l1.2-8.03c.15-.98-.48-1.82-1.31-1.95l-8.08-1.21c-.98-.15-1.9-.03-2.18.17s-.65,1-.8,1.98l-1.08,7.2c-.13.88-.03,1.9.17,2.18s1.08.51,2.05.66l7.2,1.08Z"/>
      <path class="cls-1" d="M62.57,9.91c.12-.83.97-1.46,1.8-1.33l.88.13c.83.12,1.46.97,1.33,1.8l-2.57,17.14c-.13.88.49,1.73,1.37,1.86.83.12,1.83.12,2.12-.08.28-.21.58-1.17.7-2,.13-.88.98-1.51,1.96-1.36.83.12,1.75.01,2.03-.2.28-.21.65-1,.78-1.88.15-.98.97-1.46,1.8-1.33.88.13,1.9.03,2.18-.17.28-.21.51-1.08.66-2.05.12-.83.97-1.46,1.85-1.33l.83.12c.88.13,1.51.98,1.36,1.96l-.11.73c-.15.98-.89,1.62-1.87,1.47-.83-.12-1.73-.16-2.01.05s-.67,1.15-.81,2.03c-.12.83-.97,1.46-1.8,1.33-.88-.13-1.88-.13-2.16.08s-.53,1.17-.65,2c-.13.88-.98,1.51-1.86,1.37-.98-.15-1.85-.03-2.13.18-.28.21-.64.91-.72,1.49-.1.64.04,1.41.25,1.69.21.28,1,.65,1.98.8.88.13,1.53.83,1.38,1.81-.13.88-.16,1.73.05,2.01.21.28,1.15.67,2.03.8.83.12,1.46.97,1.33,1.8-.13.88-.03,1.9.17,2.18.21.28,1.08.51,1.91.64.98.15,1.5.98,1.36,1.96l-.11.73c-.15.98-.99,1.6-1.87,1.47l-.83-.12c-.88-.13-1.51-.98-1.36-1.96.12-.83.16-1.73-.05-2.01-.21-.28-1.15-.67-2.03-.81-.83-.12-1.46-.97-1.33-1.8.13-.88.03-1.9-.17-2.18-.23-.13-1.07-.51-1.91-.64-.98-.15-1.6-.99-1.48-1.82.13-.88.13-1.88-.08-2.16-.21-.28-1.17-.53-2-.65-.88-.13-1.73.49-1.85,1.32l-1.33,8.91c-.15.98-.99,1.6-1.82,1.48l-.88-.13c-.83-.12-1.46-.97-1.31-1.95l5-33.4Z"/>
      <path class="cls-1" d="M89.26,37.34c-.88-.13-1.73.49-1.85,1.33l-.6,4.02c-.13.88-.03,1.9.17,2.18.21.28,1.08.51,2.05.66l7.2,1.08c.88.13,1.88.18,2.16-.03.28-.21.53-1.17.66-2.05.12-.83.97-1.46,1.85-1.33l.83.12c.88.13,1.51.98,1.38,1.81l-.13.88c-.12.83-.87,1.47-1.85,1.33-.83-.12-1.75-.01-2.03.2-.28.21-.66,1.05-.78,1.89-.15.98-.99,1.6-1.82,1.48l-9.06-1.36c-.88-.13-1.51-.98-1.36-1.96.12-.83.16-1.73-.05-2.01s-1.15-.67-2.03-.81c-.83-.12-1.46-.97-1.33-1.8l2.57-17.14c.12-.83.97-1.46,1.8-1.33.88.13,1.9.03,2.18-.17.28-.21.51-1.08.66-2.05.12-.83.97-1.46,1.85-1.33l9.06,1.36c.83.12,1.46.97,1.33,1.8-.15.98-.03,1.9.17,2.18.21.28,1.05.66,1.89.78.98.15,1.5.98,1.38,1.81l-1.34,8.96c-.15.98-.99,1.6-1.87,1.47l-13.07-1.96ZM88.51,31.32c-.13.88.49,1.73,1.37,1.86l7.93,1.19c.98.15,1.68.5,1.64.75-.05.34.4.66.89.73.64.09,1.05-.34,1.14-.93.07-.49.05-.99-.34-1.05-.25-.04-.38-.81-.25-1.69l.45-3.04c.13-.88.18-1.88-.03-2.16-.21-.28-1.17-.53-2.05-.66l-7.2-1.08c-.98-.15-1.88-.18-2.16.03-.28.21-.67,1.15-.8,2.03l-.6,4.02Z"/>
      <path class="cls-1" d="M156.01,53.94c-.12.83-.87,1.47-1.85,1.32-.83-.12-1.75-.01-2.03.2-.28.21-.66,1.05-.78,1.88-.15.98-.99,1.6-1.82,1.48l-9.06-1.36c-.88-.13-1.51-.98-1.36-1.96.12-.83.16-1.73-.05-2.01-.21-.28-1.15-.67-2.03-.81-.83-.12-1.46-.97-1.33-1.8l2.57-17.14c.12-.83.97-1.46,1.8-1.33.88.13,1.9.03,2.18-.17s.51-1.07.66-2.05c.12-.83.97-1.46,1.85-1.33l9.06,1.36c.83.12,1.46.97,1.33,1.8-.15.98-.03,1.9.17,2.18.21.28,1.05.66,1.89.78.98.15,1.51.98,1.38,1.81l-2.57,17.14ZM154.38,37.08c.13-.88.18-1.88-.03-2.16-.21-.28-1.17-.53-2.05-.66l-7.2-1.08c-.98-.15-1.88-.18-2.16.03-.28.21-.67,1.15-.8,2.03l-2.3,15.38c-.13.88-.03,1.9.17,2.18s1.07.51,2.05.66l7.2,1.08c.88.13,1.88.18,2.16-.03.28-.21.53-1.17.66-2.05l2.3-15.38Z"/>
      <path class="cls-1" d="M169.49,36.83l-.88-.13c-.83-.12-1.46-.97-1.31-1.95l.11-.73c.15-.98.99-1.6,1.82-1.48l.88.13c.83.12,1.68-.5,1.81-1.38l.12-.83c.13-.88.98-1.51,1.86-1.37.83.12,1.85.03,2.13-.18.28-.21.55-1.02.69-1.9.15-.98.97-1.46,1.95-1.31l4.9.73c.83.12,1.46.97,1.33,1.8l-.13.88c-.12.83-.97,1.46-1.8,1.33l-4.06-.61c-.83-.12-1.83-.12-2.12.08-.28.21-.67,1.15-.8,1.98-.13.88.49,1.73,1.47,1.87l.73.11c.98.15,1.6.99,1.46,1.97l-.11.73c-.15.98-.99,1.6-1.97,1.46l-.73-.11c-.98-.15-1.82.48-1.95,1.31l-3.17,21.15c-.15.98-.99,1.6-1.87,1.47l-.83-.12c-.88-.13-1.51-.98-1.36-1.96l3.17-21.15c.12-.83-.5-1.68-1.33-1.8Z"/>
      <path class="cls-1" d="M193.97,40.5l-.88-.13c-.83-.12-1.46-.97-1.31-1.95l.11-.73c.15-.98.99-1.6,1.82-1.48l.88.13c.83.12,1.68-.5,1.81-1.38l.12-.83c.13-.88.98-1.5,1.86-1.37.83.12,1.85.03,2.13-.18s.55-1.02.69-1.9c.15-.98.97-1.46,1.95-1.31l4.9.73c.83.12,1.46.97,1.33,1.8l-.13.88c-.12.83-.97,1.46-1.8,1.33l-4.06-.61c-.83-.12-1.83-.12-2.12.08-.28.21-.67,1.15-.8,1.98-.13.88.49,1.73,1.47,1.87l.73.11c.98.15,1.6.99,1.46,1.97l-.11.73c-.15.98-.99,1.6-1.97,1.46l-.73-.11c-.98-.15-1.82.48-1.95,1.31l-3.17,21.15c-.15.98-.99,1.6-1.87,1.47l-.83-.12c-.88-.13-1.51-.98-1.36-1.96l3.17-21.15c.12-.83-.5-1.68-1.33-1.8Z"/>
      <path class="cls-1" d="M241.22,70.06c.15-.98.99-1.6,1.87-1.47l.83.12c.88.13,1.51.98,1.36,1.96l-.11.73c-.15.98-.99,1.6-1.87,1.47l-.83-.12c-.88-.13-1.51-.98-1.36-1.96l.11-.73ZM244.52,64.69l-.83-.12c-.88-.13-1.51-.98-1.38-1.81l3.8-25.37c.12-.83.97-1.46,1.85-1.32l.83.12c.88.13,1.51.98,1.38,1.81l-3.8,25.37c-.12.83-.97,1.46-1.85,1.33Z"/>
      <path class="cls-1" d="M257.52,72.5c.15-.98.99-1.6,1.87-1.47l.83.12c.88.13,1.51.98,1.36,1.96l-.11.73c-.15.98-.99,1.6-1.87,1.47l-.83-.12c-.88-.13-1.51-.98-1.36-1.96l.11-.73ZM260.83,67.14l-.83-.12c-.88-.13-1.51-.98-1.38-1.81l3.8-25.37c.12-.83.97-1.46,1.85-1.33l.83.12c.88.13,1.51.98,1.38,1.81l-3.8,25.37c-.12.83-.97,1.46-1.85,1.33Z"/>
    </g>
  </g>
</svg>