<?xml version="1.0" encoding="UTF-8"?>
<svg id="_レイヤー_2" data-name="レイヤー 2" xmlns="http://www.w3.org/2000/svg" viewBox="0 0 172.56 27.51">
  <defs>
    <style>
      .cls-1 {
        stroke-width: 0px;
      }
    </style>
  </defs>
  <g id="_レイヤー_6" data-name="レイヤー 6">
    <g>
      <path class="cls-1" d="M22.5,18.51v3c0,.51-.45.96-.99.96-.51,0-1.11.15-1.26.3-.15.09-.24.69-.24,1.2,0,.54-.45.99-.96.99h-5.55c-.54,0-.99-.45-.99-.99v-.51c0-.54.45-.99.99-.99h5.01c.54,0,1.05-.15,1.2-.3.15-.15.3-.66.3-1.2v-1.92c0-.6-.15-1.14-.3-1.29-.15-.15-.66-.3-1.2-.3-.6,0-.96-.45-.96-.96,0-.54-.15-1.05-.3-1.2-.15-.15-.69-.3-1.29-.3h-7.41c-.6,0-1.05.45-1.05.96v8.01c0,.54-.45.99-.99.99h-3c-.51,0-.96-.45-.96-.99,0-.51-.15-1.11-.3-1.2-.15-.15-.69-.3-1.2-.3-.6,0-1.05-.45-1.05-.96v-3c0-.6.45-1.05,1.05-1.05.51,0,1.05-.06,1.2-.21.15-.15.3-.75.3-1.29,0-.51.45-.96.96-.96h.54c.51,0,.96-.45.96-.99v-3c0-.6-.45-1.05-.96-1.05H1.05c-.6,0-1.05-.45-1.05-.96v-.54c0-.51.45-.96,1.05-.96h3c.51,0,.96-.45.96-.99v-3c0-.51.45-.96.99-.96h.51c.54,0,.99.45.99.96v3c0,.54.45.99,1.05.99h3c.51,0,.96.45.96.96v.54c0,.51-.45.96-.96.96h-3c-.6,0-1.05.45-1.05,1.05v.45c0,.6.45,1.05,1.05,1.05h7.95c.6,0,1.05.45,1.05.99,0,.51.06,1.11.21,1.26.15.09.75.24,1.29.24.51,0,.96.45.96.96,0,.54.09,1.14.24,1.29.15.15.75.21,1.26.21.54,0,.99.45.99,1.05ZM5.31,21.87c-.15,0-.3-.45-.3-1.05v-2.31c0-.6-.45-1.05-.96-1.05-.54,0-1.14.15-1.29.3-.15.15-.21.69-.21,1.29v1.92c0,.54.06,1.05.21,1.2.15.15.6.3.99.3.36,0,.66.15.66.3s.24.3.6.3c.39,0,.6-.21.6-.6,0-.36-.06-.6-.3-.6ZM22.5,8.46v.54c0,.51-.45.96-.99.96h-.51c-.54,0-.99-.36-.99-.96,0-.54-.15-1.05-.3-1.2-.15-.15-.66-.3-1.2-.3h-2.46c-.6,0-1.05-.45-1.05-.99v-.51c0-.54.45-.99,1.05-.99h3c.51,0,.96.45.96.99,0,.51.09,1.11.24,1.26.15.15.75.24,1.26.24.54,0,.99.45.99.96Z"/>
      <path class="cls-1" d="M39,0c.6,0,1.05.45,1.05,1.05v7.95c0,.51-.45.96-1.05.96h-7.95c-.6,0-1.05.45-1.05,1.05v15.45c0,.6-.45,1.05-.99,1.05h-.51c-.54,0-.99-.45-.99-1.05V1.05c0-.6.45-1.05.99-1.05h10.5ZM37.5,4.41c-.3,0-.6.09-.6.3,0,.15-.45.3-.99.3h-4.86c-.6,0-1.05.45-1.05.99v.51c0,.54.45.99,1.05.99h5.46c.54,0,.99-.39.99-.9,0-.54.15-.99.36-.99.15,0,.3-.3.3-.6,0-.36-.3-.6-.66-.6ZM46.5,15c.6,0,1.05.45,1.05.96v8.01c0,.54-.45.99-1.05.99h-10.5c-.54,0-.99-.45-.99-.99v-8.01c0-.51.45-.96.99-.96h10.5ZM45,16.86c-.3,0-.6.15-.6.3s-.45.3-.99.3h-4.86c-.6,0-1.05.45-1.05,1.05v3c0,.51.45.96,1.05.96h5.46c.54,0,.99-.45.99-.96v-2.4c0-.51.15-.96.3-.96.21,0,.36-.3.36-.69,0-.3-.3-.6-.66-.6ZM54,0c.6,0,1.05.45,1.05,1.05v25.41c0,.6-.45,1.05-1.05,1.05h-3c-.54,0-.99-.45-.99-1.05v-.45c0-.6.45-1.05.9-1.05.54,0,.99.15.99.3,0,.21.3.36.6.36.36,0,.66-.3.66-.66,0-.3-.15-.6-.36-.6-.15,0-.3-.45-.3-.99v-12.36c0-.6-.45-1.05-.99-1.05h-8.01c-.54,0-.99-.45-.99-.96V1.05c0-.6.45-1.05.99-1.05h10.5ZM52.5,4.41c-.3,0-.6.09-.6.3,0,.15-.45.3-.99.3h-4.86c-.6,0-1.05.45-1.05.99v.51c0,.54.45.99,1.05.99h5.46c.54,0,.99-.39.99-.9,0-.54.15-.99.3-.99.21,0,.36-.3.36-.6,0-.36-.3-.6-.66-.6Z"/>
      <path class="cls-1" d="M69,22.47c-.54,0-1.05.15-1.2.3-.15.09-.3.69-.3,1.2,0,.54-.45.99-.99.99h-.51c-.54,0-.99-.45-.99-.99,0-.51-.15-1.11-.3-1.2-.15-.15-.66-.3-1.2-.3-.6,0-1.05-.45-1.05-.96,0-.54-.06-1.14-.21-1.29s-.75-.21-1.29-.21c-.51,0-.96-.45-.96-1.05v-10.5c0-.51.45-.96.96-.96.54,0,1.14-.09,1.29-.24s.21-.75.21-1.26c0-.54.45-.99,1.05-.99h.45c.6,0,1.05.45,1.05.99v.51c0,.54-.45.99-.96.99-.6,0-1.14.15-1.29.3-.15.15-.3.66-.3,1.26v9.39c0,.6.15,1.11.3,1.26.15.15.69.3,1.29.3.51,0,.96.45.96.96,0,.54.09,1.05.24,1.2s.6.3.96.3c.45,0,.9-.15,1.05-.3.09-.15.24-.66.24-1.2v-2.46c0-.6.45-1.05.96-1.05h.54c.51,0,.96.45.96,1.05v3c0,.51-.45.96-.96.96ZM81.51,20.01h-.51c-.54,0-.99-.45-.99-1.05v-4.95c0-.51-.15-1.11-.3-1.26-.15-.15-.66-.24-1.26-.24-.54,0-.99-.45-.99-1.05v-2.4c0-.6-.06-1.11-.21-1.26s-.75-.3-1.29-.3c-.51,0-.96-.45-.96-.99v-.51c0-.54.45-.99.96-.99h.54c.51,0,.96.45.96.99,0,.51.15,1.11.3,1.26.15.15.69.24,1.2.24.6,0,1.05.45,1.05.96v2.49c0,.6.09,1.11.24,1.26s.75.3,1.26.3c.54,0,.99.45.99.99v5.46c0,.6-.45,1.05-.99,1.05Z"/>
      <path class="cls-1" d="M111.06,12.51c-.6,0-1.05-.45-1.05-.96,0-.6-.06-1.14-.21-1.29s-.75-.3-1.29-.3c-.51,0-.96-.36-.96-.96,0-.54-.15-1.05-.3-1.2s-.69-.3-1.2-.3c-.6,0-.99-.45-.99-.99,0-.51-.15-1.11-.3-1.26-.15-.15-.66-.24-1.26-.24-.54,0-.99-.45-.99-.96,0-.6-.06-1.14-.21-1.29s-.6-.21-.99-.21c-.45,0-.9.06-.96.21-.15.15-.3.69-.3,1.29,0,.51-.45.96-.99.96-.51,0-1.11.09-1.26.24s-.24.75-.24,1.26c0,.54-.45.99-.96.99-.6,0-1.14.15-1.29.3-.15.15-.3.66-.3,1.2,0,.6-.45.96-.96.96-.54,0-1.05.15-1.2.3-.15.15-.3.69-.3,1.29,0,.51-.45.96-.99.96h-3c-.6,0-1.05-.45-1.05-1.05v-.45c0-.6.45-1.05,1.05-1.05h2.49c.51,0,1.11-.06,1.26-.21.09-.15.24-.75.24-1.29,0-.51.45-.96.96-.96.54,0,1.14-.09,1.29-.24s.21-.75.21-1.26c0-.54.45-.99.99-.99.6,0,1.11-.15,1.26-.3s.3-.66.3-1.2c0-.6.45-.96.99-.96.51,0,1.11-.15,1.2-.3.15-.15.3-.69.3-1.29,0-.51.45-.96.96-.96h.54c.51,0,.96.45.96.96,0,.6.15,1.14.3,1.29.15.15.69.3,1.2.3.6,0,1.05.36,1.05.96,0,.54.09,1.05.24,1.2.15.15.75.3,1.26.3.54,0,.99.45.99.99,0,.51.06,1.11.21,1.26.15.15.75.24,1.29.24.51,0,.96.45.96.96,0,.54.15,1.14.3,1.29.15.15.69.21,1.29.21h2.4c.6,0,1.05.45,1.05,1.05v.45c0,.6-.45,1.05-1.05,1.05h-2.94ZM109.05,17.46c.51,0,.96.45.96,1.05v7.95c0,.6-.45,1.05-.96,1.05h-15.54c-.51,0-.96-.45-.96-1.05v-7.95c0-.6.45-1.05.96-1.05h15.54ZM96.06,12.51c-.6,0-1.05-.45-1.05-1.05v-.45c0-.6.45-1.05,1.05-1.05h10.5c.54,0,.99.45.99,1.05v.45c0,.6-.45,1.05-.99,1.05h-10.5ZM107.55,19.35c-.39,0-.6.15-.6.36,0,.15-.45.3-1.05.3h-9.84c-.6,0-1.05.45-1.05.96v3c0,.54.45.99,1.05.99h10.5c.54,0,.99-.45.99-.99v-2.4c0-.51.15-.96.3-.96s.3-.3.3-.6c0-.36-.3-.66-.6-.66Z"/>
      <path class="cls-1" d="M142.56,13.5v5.46c0,.6-.45,1.05-1.05,1.05-.51,0-1.05.06-1.2.21-.15.15-.3.75-.3,1.29,0,.51-.45.96-.96.96-.54,0-1.14.15-1.29.3-.15.09-.21.69-.21,1.2,0,.54-.45.99-.99.99h-5.55c-.51,0-.96-.45-.96-.99v-.51c0-.54.45-.99.96-.99h5.04c.51,0,1.05-.15,1.2-.3.15-.06.3-.66.3-1.2,0-.51.45-.96.96-.96.54,0,1.14-.15,1.29-.3s.21-.66.21-1.26v-4.44c0-.51-.06-1.11-.21-1.26-.15-.15-.75-.24-1.29-.24-.51,0-.96-.45-.96-.96,0-.6-.15-1.14-.3-1.29s-.69-.3-1.2-.3h-4.5c-.54,0-1.14.15-1.2.3-.15.15-.3.69-.3,1.29,0,.51-.45.96-.99.96h-.51c-.54,0-.99.45-.99.99v10.47c0,.54-.45.99-1.05.99h-.45c-.6,0-1.05-.45-1.05-.99v-5.46c0-.6-.45-1.05-.96-1.05-.54,0-1.05.15-1.2.3s-.3.69-.3,1.29c0,.51-.45.96-.99.96h-.51c-.54,0-.99-.45-.99-1.05v-.45c0-.6.45-1.05.99-1.05.51,0,1.11-.06,1.26-.21.09-.15.24-.75.24-1.29,0-.51.45-.96.96-.96h.54c.51,0,.96-.45.96-.99v-3c0-.6-.45-1.05-.96-1.05h-3c-.54,0-.99-.45-.99-.96v-.54c0-.51.45-.96.99-.96h3c.51,0,.96-.45.96-.99v-3c0-.51.45-.96,1.05-.96h.45c.6,0,1.05.45,1.05.96v.54c0,.51.45.96.99.96h.51c.54,0,.99.45.99.99v.51c0,.54-.45.99-.99.99h-.51c-.54,0-.99.45-.99.96v.54c0,.51.45.96.99.96.51,0,1.11-.06,1.2-.21.15-.15.3-.75.3-1.29,0-.51.45-.96.96-.96h5.55c.54,0,.99.45.99.96,0,.54.06,1.14.21,1.29.15.15.75.21,1.29.21.51,0,.96.45.96,1.05,0,.54.15,1.05.3,1.2.15.15.69.3,1.2.3.6,0,1.05.45,1.05.99Z"/>
      <path class="cls-1" d="M158.55,24.96c-.54,0-.99-.45-.99-.99,0-.51-.15-1.11-.3-1.2-.15-.15-.66-.3-1.26-.3-.54,0-.99-.45-.99-.96v-8.01c0-.54-.45-.99-.96-.99h-3c-.54,0-.99-.45-.99-1.05v-.45c0-.6.45-1.05.99-1.05h3c.51,0,.96-.45.96-.96v-3c0-.54.45-.99,1.05-.99h.45c.6,0,1.05.45,1.05.99v3c0,.51.45.96.99.96h5.46c.6,0,1.05-.45,1.05-.96V3.51c0-.51.45-.96.99-.96h.51c.54,0,.99.45.99.96v5.49c0,.51.45.96.96.96h3c.6,0,1.05.45,1.05,1.05v.45c0,.6-.45,1.05-1.05,1.05h-3c-.51,0-.96.45-.96.99v3c0,.51-.45.96-.99.96-.51,0-1.11.15-1.26.3-.15.15-.24.69-.24,1.29,0,.51-.45.96-1.05.96h-.45c-.6,0-1.05-.45-1.05-1.05v-.45c0-.6.45-1.05.99-1.05.6,0,1.11-.06,1.26-.21.15-.15.3-.75.3-1.29v-2.46c0-.54-.45-.99-1.05-.99h-5.46c-.54,0-.99.45-.99.99v7.47c0,.54.09,1.14.24,1.2.15.15.75.3,1.26.3h9.99c.51,0,.96.45.96.99v.51c0,.54-.45.99-.96.99h-10.5Z"/>
    </g>
  </g>
</svg>