<?xml version="1.0" encoding="UTF-8"?>
<svg id="_レイヤー_2" data-name="レイヤー 2" xmlns="http://www.w3.org/2000/svg" viewBox="0 0 707.43 136.54">
  <defs>
    <style>
      .cls-1 {
        fill: #e65319;
        stroke-width: 0px;
      }
    </style>
  </defs>
  <g id="_レイヤー_6" data-name="レイヤー 6">
    <g>
      <path class="cls-1" d="M54.35,111.52c-2.53,0-4.76-2.23-4.76-4.76v-2.68c0-2.53,2.23-4.76,4.76-4.76h27.55c2.98,0,5.21-2.23,5.21-5.21v-2.23c0-2.98-2.23-5.21-5.21-5.21h-14.89c-2.53,0-4.76-2.23-4.76-4.76V29.78c0-2.68,2.23-4.91,4.76-4.91h14.89c2.98,0,5.21-2.23,5.21-4.76v-2.68c0-2.53-2.23-4.76-5.21-4.76h-14.89c-2.53,0-4.76,2.23-4.76,4.76v2.68c0,2.53-2.23,4.76-4.91,4.76h-2.53c-2.68,0-4.91-2.23-4.91-4.76V5.21c0-2.98,2.23-5.21,4.91-5.21h76.68c2.98,0,5.21,2.23,5.21,5.21v14.89c0,2.53-2.23,4.76-5.21,4.76h-2.23c-2.68,0-4.91-2.23-4.91-4.76,0-2.68.45-4.47,1.49-4.47.74,0,1.49-1.49,1.49-2.98,0-1.94-1.49-3.42-2.98-3.42-1.79,0-3.28.74-3.28,1.49,0,1.19-2.23,1.94-4.91,1.94h-11.91c-2.53,0-4.76,2.23-4.76,4.76v2.68c0,2.53,2.23,4.76,4.76,4.76h14.89c2.98,0,5.21,2.23,5.21,4.91v52.11c0,2.53-2.23,4.76-5.21,4.76h-14.89c-2.53,0-4.76,2.23-4.76,5.21v2.23c0,2.98,2.23,5.21,4.76,5.21h27.25c2.98,0,5.21,2.23,5.21,4.76v2.68c0,2.53-2.23,4.76-5.21,4.76h-27.25c-2.53,0-4.76,2.23-4.76,4.91v2.53c0,2.68,2.23,4.91,4.76,4.91h27.25c2.98,0,5.21,2.23,5.21,5.21v2.23c0,2.98-2.23,5.21-5.21,5.21H54.79c-2.68,0-4.91-2.23-4.91-5.21,0-2.68-.74-5.21-1.49-5.96-.74-.74-3.28-1.49-6.25-1.49-2.68,0-4.91-2.23-4.91-4.91,0-2.53-.3-5.51-1.04-5.96-.74-.74-2.98-1.49-4.91-1.49-2.23,0-4.02.74-4.76,1.49-.74.45-1.49,3.42-1.49,5.96,0,2.68-2.23,4.91-4.91,4.91-2.53,0-5.51.74-6.25,1.49-.74.75-1.19,3.28-1.19,5.96,0,2.98-2.23,5.21-5.21,5.21h-2.23c-2.98,0-5.21-2.23-5.21-5.21v-2.23c0-2.98,2.23-5.21,5.21-5.21,2.68,0,5.21-.45,5.96-1.19s1.49-3.72,1.49-6.25c0-2.68,2.23-4.91,4.91-4.91,2.53,0,5.51-.75,6.25-1.49.45-.3,1.19-3.28,1.19-5.96v-34.1c0-2.68.74-4.91,1.49-4.91,1.04,0,1.49-1.49,1.49-2.98,0-1.79-1.19-3.28-2.98-3.28-1.94,0-2.98.74-2.98,1.79,0,.74-2.23,1.49-5.21,1.49H5.21c-2.98,0-5.21-2.23-5.21-5.21v-2.23c0-2.98,2.23-5.21,5.21-5.21h27.25c2.53,0,4.76,2.23,4.76,5.21v49.43c0,2.68.74,5.66,1.49,5.96.74.74,3.42,1.49,6.4,1.49,2.53,0,4.76,2.23,4.76,4.91,0,2.53.45,5.51,1.19,6.25s3.72,1.19,6.25,1.19h24.57c2.98,0,5.21-2.23,5.21-4.91v-2.53c0-2.68-2.23-4.91-5.21-4.91h-27.55ZM17.57,12.66c-2.68,0-4.91-2.23-4.91-5.21v-2.23c0-2.98,2.23-5.21,4.91-5.21h2.53c2.68,0,4.91,2.23,4.91,4.76,0,2.98.74,5.66,1.49,6.4.74.74,3.28,1.49,5.96,1.49,2.53,0,4.76,2.23,4.76,4.76v2.68c0,2.53-2.23,4.76-4.76,4.76h-2.68c-2.53,0-4.76-2.23-4.76-4.76,0-2.68-.74-5.66-1.19-6.4-.74-.74-3.72-1.04-6.25-1.04ZM87.1,41.99c0-2.53-2.23-4.76-5.21-4.76h-2.23c-2.98,0-5.21,2.23-5.21,4.76v2.68c0,2.53,2.23,4.76,5.21,4.76h2.23c2.98,0,5.21-2.23,5.21-4.76v-2.68ZM87.1,67c0-2.68-2.23-4.91-5.21-4.91h-2.23c-2.98,0-5.21,2.23-5.21,4.91v2.53c0,2.68,2.23,4.91,5.21,4.91h2.23c2.98,0,5.21-2.23,5.21-4.91v-2.53ZM99.46,44.67c0,2.53,2.23,4.76,4.76,4.76h2.68c2.53,0,4.76-1.79,4.76-4.47,0-2.53.74-4.76,1.49-4.76,1.19,0,1.94-1.19,1.94-2.98,0-1.49-1.49-2.98-3.42-2.98-1.49,0-2.98.74-2.98,1.49s-2.23,1.49-4.76,1.49c-2.23,0-4.47,2.23-4.47,4.76v2.68ZM99.46,69.53c0,2.68,2.23,4.91,4.76,4.91h2.68c2.53,0,4.76-2.23,4.76-4.91v-2.53c0-2.68-2.23-4.91-4.76-4.91h-2.68c-2.53,0-4.76,2.23-4.76,4.91v2.53Z"/>
      <path class="cls-1" d="M175.4,13.7c-.74.74-1.49,3.42-1.49,6.4,0,2.53-2.23,4.76-4.91,4.76-2.53,0-5.21.45-5.96,1.19-.74.74-1.49,3.72-1.49,6.25,0,2.68-2.23,4.91-4.76,4.91h-2.68c-2.53,0-4.76-2.23-4.76-4.91v-2.53c0-2.68,2.23-4.91,4.76-4.91,2.68,0,5.66-.74,6.4-1.49.3-.74,1.04-3.28,1.04-5.96,0-2.98,2.23-4.76,4.91-4.76,2.53,0,5.51-.75,6.25-1.49.74-.74,1.19-3.42,1.19-6.4,0-2.53,2.23-4.76,5.21-4.76h2.23c2.98,0,5.21,2.23,5.21,5.21v2.23c0,2.98-2.23,5.21-4.91,5.21-2.98,0-5.51.3-6.25,1.04ZM161.56,79.21c0-2.53-2.23-4.76-4.76-4.76h-2.68c-2.53,0-4.76-2.23-4.76-4.91v-2.53c0-2.68,2.23-4.91,4.76-4.91h2.68c2.53,0,4.76-2.23,4.76-5.21v-2.23c0-2.98,2.23-5.21,4.91-5.21,2.53,0,5.51-.3,6.25-1.04.74-.74,1.19-3.72,1.19-6.4,0-2.53,2.23-4.76,4.76-4.76,2.98,0,5.66-.45,6.4-1.19.74-.74,1.49-3.72,1.49-6.25,0-2.68,2.23-4.91,4.76-4.91h2.68c2.53,0,4.76,2.23,4.76,4.91v2.53c0,2.68-2.23,4.91-4.76,4.91-2.68,0-5.66.74-6.4,1.49-.74.74-1.04,3.28-1.04,5.96,0,2.98-2.23,4.76-4.91,4.76-2.98,0-5.51.75-6.25,1.49-.74.74-1.49,3.72-1.49,6.4v74c0,2.98-2.23,5.21-4.91,5.21h-2.53c-2.68,0-4.91-2.23-4.91-5.21v-52.11ZM280.67,49.43c2.68,0,4.91,2.23,4.91,5.21v2.23c0,2.98-2.23,5.21-4.91,5.21h-14.89c-2.53,0-4.76,2.23-4.76,4.91v64.32c0,2.98-2.23,5.21-5.21,5.21h-14.89c-2.68,0-4.91-2.23-4.91-5.21v-2.23c0-2.98,2.23-5.21,4.47-5.21,2.68,0,4.91.74,4.91,1.49,0,1.04,1.49,1.79,2.98,1.79,1.79,0,3.28-1.49,3.28-3.28,0-1.49-.74-2.98-1.79-2.98-.74,0-1.49-2.23-1.49-4.91v-48.99c0-2.68-2.23-4.91-4.91-4.91h-39.75c-2.68,0-4.91-2.23-4.91-5.21v-2.23c0-2.98,2.23-5.21,4.91-5.21h76.98ZM216.35,24.87c-2.98,0-5.21-2.23-5.21-4.76v-2.68c0-2.53,2.23-4.76,5.21-4.76h52.11c2.53,0,4.76,2.23,4.76,4.76v2.68c0,2.53-2.23,4.76-4.76,4.76h-52.11Z"/>
      <path class="cls-1" d="M355.13,0c2.68,0,4.91,2.23,4.91,5.21v39.46c0,2.53-2.23,4.76-4.91,4.76h-39.75c-2.68,0-4.91,2.23-4.91,5.21v76.68c0,2.98-2.23,5.21-4.76,5.21h-2.68c-2.53,0-4.76-2.23-4.76-5.21V5.21c0-2.98,2.23-5.21,4.76-5.21h52.11ZM347.68,21.89c-1.79,0-2.98.45-2.98,1.49,0,.75-2.23,1.49-5.21,1.49h-24.12c-2.68,0-4.91,2.23-4.91,4.91v2.53c0,2.68,2.23,4.91,4.91,4.91h27.55c2.53,0,4.76-1.94,4.76-4.47,0-2.68.74-4.91,1.49-4.91s1.49-1.49,1.49-2.98c0-1.79-1.04-2.98-2.98-2.98ZM384.91,118.97c0,2.68-2.23,4.91-4.76,4.91h-2.68c-2.53,0-4.76-2.23-4.76-4.91v-14.89c0-2.53-2.23-4.76-5.21-4.76h-2.23c-2.98,0-5.21,2.23-5.21,4.76v2.68c0,2.53-2.23,4.76-4.91,4.76-2.53,0-5.51.74-5.96,1.49-.74.45-1.49,3.42-1.49,5.96,0,2.68-2.23,4.91-4.76,4.91h-2.68c-2.53,0-4.76-2.23-4.76-4.91v-2.53c0-2.68,2.23-4.91,4.76-4.91,2.68,0,5.66-.75,5.96-1.49.74-.3,1.49-3.28,1.49-5.96,0-2.53-2.23-4.76-4.76-4.76h-2.68c-2.53,0-4.76-2.23-4.76-5.21v-2.23c0-2.98,2.23-5.21,4.76-5.21h2.68c2.53,0,4.76-2.23,4.76-4.76v-2.68c0-2.53-2.23-4.76-4.76-4.76h-2.68c-2.53,0-4.76-2.23-4.76-4.91v-2.53c0-2.68,2.23-4.91,4.76-4.91h52.11c2.68,0,4.91,2.23,4.91,4.91v2.53c0,2.68-2.23,4.91-4.91,4.91h-2.53c-2.68,0-4.91,2.23-4.91,4.76v2.68c0,2.53,2.23,4.76,4.91,4.76h2.53c2.68,0,4.91,2.23,4.91,5.21v2.23c0,2.98-2.23,5.21-4.91,5.21h-2.53c-2.68,0-4.91,2.23-4.91,4.76v14.89ZM372.7,79.21c0-2.53-2.23-4.76-5.21-4.76h-2.23c-2.98,0-5.21,2.23-5.21,4.76v2.68c0,2.53,2.23,4.76,5.21,4.76h2.23c2.98,0,5.21-2.23,5.21-4.76v-2.68ZM429.58,0c2.68,0,4.91,2.23,4.91,5.21v126.11c0,2.98-2.23,5.21-4.91,5.21h-14.89c-2.53,0-4.76-2.23-4.76-5.21v-2.23c0-2.98,1.79-5.21,4.47-5.21,2.53,0,4.47.74,4.47,1.49,0,1.04,1.49,1.79,3.28,1.79,1.49,0,2.98-1.49,2.98-3.28,0-1.49-.75-2.98-1.49-2.98s-1.49-2.23-1.49-4.91v-61.34c0-2.98-2.23-5.21-4.76-5.21h-39.9c-2.53,0-4.76-2.23-4.76-4.76V5.21c0-2.98,2.23-5.21,4.76-5.21h52.11ZM422.13,21.89c-1.79,0-3.28.45-3.28,1.49,0,.75-1.94,1.49-4.91,1.49h-24.12c-2.68,0-4.91,2.23-4.91,4.91v2.53c0,2.68,2.23,4.91,4.91,4.91h27.55c2.53,0,4.76-1.94,4.76-4.47,0-2.68.74-4.91,1.49-4.91s1.49-1.49,1.49-2.98c0-1.79-1.49-2.98-2.98-2.98Z"/>
      <path class="cls-1" d="M483.93,105.27c0,2.23.74,4.02,1.49,4.76.74.74,3.42,1.49,5.96,1.49,2.68,0,4.91,2.23,4.91,4.91v2.53c0,2.68-2.23,4.91-4.91,4.91h-2.53c-2.68,0-4.91-2.23-4.91-4.91,0-2.53-.74-5.51-1.04-5.96-.75-.74-2.98-1.49-5.21-1.49-1.94,0-4.17.74-4.91,1.49-.75.45-1.04,3.42-1.04,5.96,0,2.68-2.23,4.91-4.91,4.91-2.98,0-5.51.74-6.25,1.49-.74.75-1.49,3.28-1.49,5.96,0,2.98-2.23,5.21-4.91,5.21h-2.53c-2.68,0-4.91-2.23-4.91-5.21v-2.23c0-2.98,2.23-5.21,4.91-5.21,2.53,0,5.51-.45,6.25-1.19s1.19-3.72,1.19-6.25c0-2.68,2.23-4.91,5.21-4.91,2.53,0,5.21-.75,5.96-1.49.74-.74,1.49-2.53,1.49-4.76,0-1.94-.74-4.17-1.49-4.91s-3.42-1.04-6.4-1.04h-12.21c-2.68,0-4.91-2.23-4.91-5.21v-27.1c0-2.68,2.23-4.91,4.91-4.91,2.53,0,5.51-.74,6.25-1.49.74-.75,1.19-3.28,1.19-6.25v-12.36c0-2.53-2.23-4.76-4.91-4.76h-2.53c-2.68,0-4.91-2.23-4.91-4.91v-2.53c0-2.68,2.23-4.91,4.91-4.91h2.53c2.68,0,4.91-2.23,4.91-5.21V5.21c0-2.98,2.23-5.21,5.21-5.21h2.23c2.98,0,5.21,2.23,5.21,5.21v14.44c0,2.98,2.23,5.21,4.77,5.21h14.89c2.68,0,4.91,2.23,4.91,4.91v64.32c0,2.98-2.23,5.21-4.91,5.21-2.53,0-5.21.3-5.96,1.04-.75.74-1.49,2.98-1.49,4.91ZM483.93,91.57v-49.58c0-2.53-2.23-4.76-4.76-4.76h-2.68c-2.53,0-4.77,2.23-4.77,4.76v14.89c0,2.98-2.23,5.21-4.91,5.21-2.98,0-5.51.45-6.25,1.19-.74.74-1.49,3.72-1.49,6.25v9.38c0,2.53-.45,4.76-1.49,4.76-.74,0-1.49,1.49-1.49,2.98,0,1.94,1.49,3.42,2.98,3.42,1.79,0,3.28-.74,3.28-1.49,0-1.19,1.94-1.94,4.47-1.94,2.68,0,4.91,2.23,4.91,4.91,0,2.98.3,5.51,1.04,6.25s2.98,1.49,4.91,1.49c2.23,0,4.47-.74,5.21-1.49.3-.75,1.04-3.28,1.04-6.25ZM583.39,54.64v2.23c0,2.98-2.23,5.21-5.21,5.21h-2.23c-2.98,0-5.21-2.23-5.21-4.76,0-2.98-.45-5.66-1.19-6.4-.74-.74-2.98-1.49-4.76-1.49-2.23,0-4.47.75-5.21,1.49s-1.19,3.42-1.19,6.4c0,2.53-2.23,4.76-4.76,4.76h-39.9c-2.53,0-4.76-2.23-4.76-5.21v-2.23c0-2.98,2.23-5.21,4.76-5.21h2.68c2.53,0,4.76-2.23,4.76-4.76v-14.89c0-2.68,2.23-4.91,4.91-4.91h.74c2.53,0,5.21-.3,5.96-1.04.3-.45.74-2.98.74-5.96V5.21c0-2.98,2.23-5.21,5.21-5.21h2.23c2.98,0,5.21,2.23,5.21,5.21v14.44c0,2.98-2.23,5.21-4.91,5.21-2.23,0-5.21.74-5.96,1.49-1.04,1.19-1.79,4.17-1.79,6.7v11.61c0,2.53,2.23,4.76,5.21,4.76h12.21c2.68,0,5.21-.3,5.96-1.04.74-.74,1.49-3.72,1.49-6.4,0-2.53,2.23-4.76,4.91-4.76h2.53c2.68,0,4.91,2.23,4.91,4.76,0,2.68.75,5.66,1.49,6.4s3.28,1.04,5.96,1.04c2.98,0,5.21,2.23,5.21,5.21ZM565.82,74.45c2.68,0,4.91,2.23,4.91,4.76v52.11c0,2.98-2.23,5.21-4.91,5.21h-52.11c-2.53,0-4.76-2.23-4.76-5.21v-52.11c0-2.53,2.23-4.76,4.76-4.76h52.11ZM558.38,83.68c-1.79,0-2.98.74-2.98,1.49s-2.23,1.49-5.21,1.49h-24.12c-2.68,0-4.91,2.23-4.91,5.21v27.1c0,2.68,2.23,4.91,4.91,4.91h27.54c2.53,0,4.76-2.23,4.76-4.91v-24.12c0-2.53.75-4.76,1.49-4.76s1.49-1.49,1.49-3.42c0-1.49-1.49-2.98-2.98-2.98Z"/>
      <path class="cls-1" d="M652.93,99.31h-2.53c-2.68,0-4.91-2.23-4.91-4.76V17.42c0-2.53,2.23-4.76,4.91-4.76h2.53c2.68,0,4.91,2.23,4.91,4.76v77.13c0,2.53-2.23,4.76-4.91,4.76ZM645.49,116.73c0-2.98,2.23-5.21,4.91-5.21h2.53c2.68,0,4.91,2.23,4.91,5.21v2.23c0,2.98-2.23,5.21-4.91,5.21h-2.53c-2.68,0-4.91-2.23-4.91-5.21v-2.23Z"/>
      <path class="cls-1" d="M702.51,99.31h-2.53c-2.68,0-4.91-2.23-4.91-4.76V17.42c0-2.53,2.23-4.76,4.91-4.76h2.53c2.68,0,4.91,2.23,4.91,4.76v77.13c0,2.53-2.23,4.76-4.91,4.76ZM695.07,116.73c0-2.98,2.23-5.21,4.91-5.21h2.53c2.68,0,4.91,2.23,4.91,5.21v2.23c0,2.98-2.23,5.21-4.91,5.21h-2.53c-2.68,0-4.91-2.23-4.91-5.21v-2.23Z"/>
    </g>
  </g>
</svg>