<?xml version="1.0" encoding="UTF-8"?>
<svg id="_レイヤー_2" data-name="レイヤー 2" xmlns="http://www.w3.org/2000/svg" viewBox="0 0 470.66 134.43">
  <defs>
    <style>
      .cls-1 {
        fill: #ff7bac;
        stroke-width: 0px;
      }
    </style>
  </defs>
  <g id="_レイヤー_6" data-name="レイヤー 6">
    <g>
      <path class="cls-1" d="M5.31,5.42c.63.15,1.4.21,1.63.07.23-.14.51-.86.66-1.49l.72-3.08c.15-.63.83-1.06,1.58-.88l.56.13c.74.17,1.17.86,1.02,1.49l-.87,3.71c-.16.67-.84,1.09-1.51.94-.74-.17-1.42-.14-1.65,0-.23.14-.56.73-.74,1.47l-3.45,14.73c-.16.67-.15,1.45.02,1.57.14.23.73.56,1.47.74.67.16,1.09.84.94,1.51l-.15.63c-.16.67-.84,1.09-1.58.92l-.56-.13c-.74-.17-1.17-.86-1.01-1.53.15-.63.21-1.4.05-1.55-.14-.23-.84-.59-1.47-.74-.67-.16-1.09-.84-.95-1.47L3.81,6.32c.15-.63.83-1.06,1.5-.9ZM13.14,13.79c-.67-.16-1.09-.84-.92-1.59l.13-.56c.17-.74.86-1.17,1.53-1.01l6.86,1.61c.63.15,1.32-.28,1.47-.91l.16-.67c.15-.63-.28-1.32-.91-1.47l-6.86-1.61c-.67-.16-1.09-.84-.94-1.51l.15-.63c.16-.67.84-1.09,1.51-.94l16.14,3.78c.63.15,1.06.83.9,1.5l-.15.63c-.16.67-.84,1.09-1.48.95l-3.71-.87c-.74-.17-1.43.25-1.58.88l-.16.67c-.15.63.28,1.32,1.02,1.49l3.71.87c.63.15,1.06.83.88,1.58l-.13.56c-.17.74-.86,1.17-1.49,1.02l-3.71-.87c-.74-.17-1.43.25-1.59.92l-1.58,6.75c-.17.74.25,1.43,1,1.6l.56.13c.74.17,1.17.86,1.02,1.49-.16.67-.26,1.43-.09,1.54.14.23.77.57,1.51.75.63.15,1.06.83.9,1.5l-.15.63c-.16.67-.84,1.09-1.48.95l-.67-.16c-.63-.15-1.06-.83-.9-1.5.15-.63.14-1.42-.02-1.57-.14-.23-.84-.59-1.51-.74l-2.41-.57c-.63-.15-1.42-.14-1.64,0-.14.09-.5.78-.64,1.41-.16.67-.84,1.09-1.47.95l-6.86-1.61c-.67-.16-1.09-.84-.94-1.51.15-.63.14-1.42-.02-1.57-.03-.2-.73-.56-1.4-.72-.63-.15-1.06-.83-.91-1.47l.16-.67c.15-.63.83-1.06,1.46-.91.67.16,1.45.15,1.57-.02.23-.14.56-.73.74-1.47.16-.67.84-1.09,1.51-.94l6.86,1.61c.63.15,1.32-.28,1.47-.91l.87-3.71c.16-.67-.27-1.35-.9-1.5l-6.86-1.61ZM17.83,24.67l-6.23-1.46c-.63-.15-1.39-.25-1.54-.09-.23.14-.54.66-.66,1.14-.13.56-.08,1.16.09,1.27.07.21.77.57,1.4.72l5.56,1.3c.67.16,1.34.12,1.57-.02.2-.03.56-.73.72-1.4.15-.63-.28-1.32-.91-1.47Z"/>
      <path class="cls-1" d="M55.52,20.79c-.14-.23-.77-.57-1.51-.74l-3.04-.71c-.67-.16-1.35.27-1.53,1.01l-.87,3.71c-.16.67-.84,1.09-1.47.95-.67-.16-1.45-.14-1.68,0-.23.14-.45.75-.61,1.42l-.71,3.04c-.17.74-.86,1.17-1.53,1.01-.74-.17-1.39-.25-1.62-.11-.23.14-.59.84-.74,1.51l-.71,3.04c-.16.67-.84,1.09-1.51.94l-.63-.15c-.67-.16-1.09-.84-.94-1.51l.87-3.71c.15-.63.84-1.06,1.5-.9.63.15,1.42.14,1.65,0,.23-.14.49-.75.66-1.49l.72-3.08c.15-.63.83-1.06,1.47-.91.74.17,1.45.14,1.67.08.23-.14.59-.84.74-1.47l.72-3.08c.17-.74-.25-1.43-.99-1.6l-3.71-.87c-.67-.16-1.09-.84-.95-1.47l.16-.67c.15-.63.83-1.06,1.5-.9l6.86,1.61c.63.15,1.32-.28,1.47-.95l.87-3.71c.15-.63.83-1.06,1.5-.9l.63.15c.67.16,1.09.84.95,1.47l-.87,3.71c-.16.67.27,1.35,1.01,1.53l.56.13c.74.17,1.17.86,1.02,1.49-.16.67-.25,1.43-.11,1.66.14.23.87.48,1.53.63.63.15,1.06.83.88,1.58l-3.04,12.98c-.15.63-.83,1.06-1.47.91-.67-.16-1.45-.15-1.68,0-.21.07-.46.79-.61,1.42-.16.67-.84,1.09-1.58.92l-3.71-.87c-.67-.16-1.09-.84-.94-1.51l.15-.63c.16-.67.84-1.09,1.51-.94l3.04.71c.74.17,1.45.14,1.68,0,.2-.03.56-.73.72-1.4l2.73-11.65c.16-.67.14-1.45,0-1.68ZM67.99,24.69l-2.3,9.83c-.17.74-.86,1.17-1.49,1.02l-.67-.16c-.63-.15-1.06-.83-.88-1.58l2.15-9.16c.16-.67.14-1.45,0-1.68-.14-.23-.77-.57-1.51-.74-.63-.15-1.08-.72-.91-1.46.16-.67.19-1.32.05-1.55s-.84-.59-1.47-.74c-.67-.16-1.09-.84-.94-1.51l.15-.63c.16-.67.84-1.09,1.51-.94l.63.15c.67.16,1.09.84.94,1.51-.15.63-.14,1.42,0,1.64.14.23.75.49,1.42.65.74.17,1.17.86,1.02,1.49-.16.67-.26,1.43-.12,1.66.14.23.79.46,1.54.63.63.15,1.06.83.88,1.58Z"/>
      <path class="cls-1" d="M105.09,33.39l-2.3,9.83c-.17.74-.86,1.17-1.49,1.02-.74-.17-1.43-.26-1.66-.11s-.48.87-.63,1.53c-.15.63-.83,1.06-1.58.88-.67-.16-1.34-.12-1.57.02-.21.07-.57.77-.72,1.4-.16.67-.84,1.09-1.51.94l-3.71-.87c-.63-.15-1.06-.83-.9-1.5l.15-.63c.16-.67.84-1.09,1.47-.95l3.08.72c.63.15,1.42.14,1.64,0,.23-.14.49-.75.64-1.41.15-.63.83-1.06,1.47-.91.74.17,1.45.14,1.68,0,.23-.14.56-.73.73-1.47l2-8.53c.17-.74.14-1.45,0-1.68-.14-.23-.77-.57-1.51-.74-.63-.15-1.08-.72-.91-1.47.16-.67.19-1.32.05-1.55-.14-.23-.84-.59-1.47-.74l-3.08-.72c-.63-.15-1.32.28-1.47.91l-1.61,6.86c-.16.67-.84,1.09-1.58.92-.67-.16-1.34-.12-1.57.02-.23.14-.56.73-.72,1.4-.15.63-.41,1.74-.58,2.49l-.13.56c-.17.74-.86,1.17-1.53,1.01-.63-.15-1.39-.25-1.55-.09-.23.14-.59.84-.74,1.51-.15.63-.83,1.06-1.47.91l-3.71-.87c-.74-.17-1.17-.86-1.02-1.49.16-.67.22-1.44.08-1.66-.14-.23-.87-.48-1.5-.62-.67-.16-1.09-.84-.92-1.59l1.58-6.75c.16-.67.84-1.09,1.51-.94.63.15,1.42.14,1.65,0,.23-.14.49-.75.64-1.41.17-.74.86-1.17,1.49-1.02.74.17,1.43.26,1.66.11.23-.14.59-.84.75-1.51.15-.63.83-1.06,1.46-.91.67.16,1.44.22,1.55.05.23-.14.59-.84.74-1.47.16-.67.84-1.09,1.51-.94l9.91,2.32c.67.16,1.09.84.94,1.51-.15.63-.14,1.42,0,1.64.14.23.75.49,1.42.65.74.17,1.17.86,1.02,1.49-.16.67-.26,1.43-.11,1.66.14.23.79.46,1.53.63.63.15,1.06.83.88,1.58ZM90.36,26.61c.15-.63-.28-1.32-.95-1.47-.63-.15-1.42-.14-1.57.02-.23.14-.56.73-.72,1.4-.17.74-.83,1.06-1.47.91-.67-.16-1.45-.14-1.68,0-.23.14-.46.79-.63,1.54-.15.63-.84,1.06-1.5.9-.74-.17-1.4-.21-1.63-.07s-.59.84-.74,1.47l-1.29,5.49c-.17.74-.14,1.42,0,1.65.14.23.73.56,1.47.74l2.41.56c.67.16,1.45.15,1.57-.02.23-.14.56-.73.74-1.47l.72-3.08c.15-.63.83-1.06,1.5-.9.63.15,1.42.14,1.63.07.23-.14.51-.86.66-1.49l1.46-6.23Z"/>
      <path class="cls-1" d="M139.18,46.58c-.63-.15-1.32.28-1.47.91l-.16.67c-.15.63.28,1.32.91,1.47l.67.16c.63.15,1.06.83.88,1.58l-.13.56c-.17.74-.86,1.17-1.49,1.02l-3.71-.87c-.74-.17-1.43.25-1.58.88-.16.67-.15,1.45.02,1.57.14.23.73.56,1.4.72.74.17,1.17.86,1.01,1.53-.15.63-.25,1.39-.11,1.62.14.23.86.51,1.53.67l3.04.71c.67.16,1.09.84.92,1.59l-.13.56c-.17.74-.86,1.17-1.53,1.01l-3.71-.87c-.63-.15-1.06-.83-.88-1.58.16-.67.12-1.34-.02-1.57-.14-.23-.77-.57-1.51-.74-.63-.15-1.06-.83-.9-1.5.15-.63.21-1.4.05-1.55-.14-.23-.84-.59-1.47-.74-.67-.16-1.09-.84-.95-1.47l.16-.67c.15-.63-.28-1.32-.91-1.47l-.67-.16c-.63-.15-1.32.28-1.46.91l-1.59,6.79c-.17.74-.86,1.17-1.6.99l-.56-.13c-.74-.17-1.17-.86-1-1.6l1.59-6.79c.15-.63-.28-1.32-.95-1.47l-.63-.15c-.67-.16-1.35.27-1.5.9l-.16.67c-.15.63-.83,1.06-1.46.91-.67-.16-1.45-.15-1.68,0-.21.07-.46.79-.61,1.42-.16.67-.84,1.09-1.51.94-.74-.17-1.42-.14-1.64,0-.23.14-.56.73-.72,1.4-.17.74-.86,1.17-1.53,1.01l-3.71-.87c-.63-.15-1.06-.83-.88-1.58l.13-.56c.17-.74.86-1.17,1.49-1.02l3.08.72c.63.15,1.4.21,1.63.07.23-.14.51-.86.66-1.49.16-.67.84-1.09,1.47-.95.74.17,1.45.15,1.68,0,.2-.03.56-.73.72-1.4.15-.63-.28-1.32-1.02-1.49l-3.71-.87c-.67-.16-1.09-.84-.92-1.59l.13-.56c.17-.74.86-1.17,1.53-1.01l.63.15c.67.16,1.35-.27,1.5-.9l.16-.67c.15-.63-.28-1.32-.95-1.47l-3.71-.87c-.63-.15-1.06-.83-.9-1.5l.15-.63c.16-.67.84-1.09,1.47-.95l3.71.87c.67.16,1.35-.27,1.53-1.01l.13-.56c.17-.74-.25-1.43-.92-1.58l-.63-.15c-.67-.16-1.09-.84-.95-1.47l.16-.67c.15-.63.83-1.06,1.5-.9l9.91,2.32c.67.16,1.35-.27,1.51-.94l.15-.63c.16-.67-.27-1.35-.94-1.51l-6.75-1.58c-.74-.17-1.17-.86-1.02-1.49l.16-.67c.15-.63.83-1.06,1.58-.88l12.32,2.89c.67.16,1.34.12,1.57-.02.23-.14.57-.77.75-1.51.15-.63.83-1.06,1.5-.9l3.71.87c.74.17,1.17.86.99,1.6l-.13.56c-.17.74-.86,1.17-1.6.99l-3.08-.72c-.63-.15-1.39-.25-1.62-.1-.23.14-.5.78-.67,1.52-.15.63-.83,1.06-1.47.91l-.67-.16c-.63-.15-1.32.28-1.47.95l-.15.63c-.16.67.27,1.35.9,1.5l9.94,2.33c.63.15,1.06.83.91,1.47l-.16.67c-.15.63-.84,1.06-1.47.91l-.67-.16c-.63-.15-1.32.28-1.49,1.02l-.13.56c-.17.74.25,1.43.88,1.58l3.71.87c.67.16,1.09.84.94,1.51l-.15.63c-.16.67-.84,1.09-1.51.94l-3.71-.87ZM125.29,44.58c.15-.63-.28-1.32-.95-1.47l-3.71-.87c-.63-.15-1.32.28-1.46.91l-.16.67c-.15.63.28,1.32.91,1.46l3.71.87c.67.16,1.35-.27,1.5-.9l.16-.67ZM126.72,38.45c.17-.74-.25-1.43-.92-1.58l-3.71-.87c-.63-.15-1.32.28-1.49,1.02l-.13.56c-.17.74.25,1.43.88,1.58l3.71.87c.67.16,1.35-.27,1.53-1.01l.13-.56ZM134.56,46.75c.15-.63-.28-1.32-.95-1.47l-3.71-.87c-.63-.15-1.32.28-1.47.91l-.16.67c-.15.63.28,1.32.91,1.47l3.71.87c.67.16,1.35-.27,1.5-.9l.16-.67ZM136.48,38.59c-.37-.09-.78.01-.83.2-.07.3-.64.24-1.31.08l-2.97-.7c-.63-.15-1.32.28-1.49,1.02l-.13.56c-.17.74.25,1.43.88,1.58l3.71.87c.67.16,1.35-.27,1.5-.9.16-.67.45-1.07.63-1.03.26.06.53-.27.65-.75.09-.37-.2-.83-.64-.93Z"/>
      <path class="cls-1" d="M181.77,43.53c.1-.45-.2-.83-.57-.92-.45-.1-.84-.08-.9.18-.04.19-.64.24-1.31.08l-12.24-2.87c-.63-.15-1.32.28-1.48.95l-.15.63c-.16.67.27,1.35.9,1.5l9.94,2.33c.63.15,1.06.83.91,1.46l-.16.67c-.15.63-.83,1.06-1.46.91l-.67-.16c-.63-.15-1.32.28-1.49,1.02l-.13.56c-.17.74-.86,1.17-1.53,1.01-.63-.15-1.4-.21-1.63-.07-.23.14-.47.67-.6,1.23-.1.45-.12,1.03.02,1.26.03.2.75.49,1.41.64l3.15.74c.63.15,1.06.83.91,1.46l-.16.67c-.15.63.28,1.32,1.02,1.49l3.63.85c.74.17,1.17.86,1,1.6l-.13.56c-.17.74-.86,1.17-1.6.99l-3.63-.85c-.74-.17-1.43.25-1.58.88l-1.59,6.79c-.17.74-.86,1.17-1.49,1.02l-19.22-4.5c-.63-.15-1.06-.83-.88-1.58l1.59-6.79c.15-.63-.28-1.32-.95-1.47l-3.71-.87c-.74-.17-1.17-.86-.99-1.6l.13-.56c.17-.74.86-1.17,1.6-.99l3.71.87c.67.16,1.35-.27,1.5-.9l.16-.67c.15-.63.83-1.06,1.47-.91l3.08.72c.74.17,1.42.14,1.63.07.23-.14.54-.66.67-1.21.1-.45.05-1.04-.09-1.27-.14-.23-.86-.51-1.49-.66l-6.12-1.43c-.67-.16-1.09-.84-.92-1.59l.13-.56c.17-.74.86-1.17,1.53-1.01l3.71.87c.63.15,1.32-.28,1.47-.91l.16-.67c.15-.63.83-1.06,1.58-.88l.56.13c.74.17,1.43-.25,1.59-.92l.15-.63c.16-.67-.27-1.35-1.01-1.53l-6.75-1.58c-.67-.16-1.35.27-1.51.94l-.15.63c-.16.67-.84,1.09-1.59.92l-.56-.13c-.74-.17-1.17-.86-1.01-1.53l.87-3.71c.15-.63.83-1.06,1.58-.88l12.98,3.04c.67.16,1.35-.27,1.53-1.01l.13-.56c.17-.74.86-1.17,1.49-1.02l.67.16c.63.15,1.06.83.88,1.58l-.13.56c-.17.74.25,1.43.99,1.6l12.91,3.03c.74.17,1.17.86,1.02,1.49l-.87,3.71c-.16.67-.84,1.09-1.59.92l-.56-.13c-.67-.16-1.11-.77-.96-1.4.16-.67.4-1.2.66-1.14.19.04.46-.28.54-.65ZM156.28,57.12c-.74-.17-1.43.25-1.58.88l-.87,3.71c-.16.67.27,1.35,1.01,1.53l12.98,3.04c.67.16,1.35-.27,1.51-.94l.67-2.86c.16-.67.47-1.18.66-1.14.19.04.46-.28.54-.65.1-.45-.18-.9-.55-.99-.48-.11-.78.01-.83.2-.04.19-.64.24-1.38.07l-12.17-2.85ZM160.1,54.69l6.75,1.58c.74.17,1.4-.14,1.56-.81.15-.63.14-1.42,0-1.64-.22-.25-.84-.59-1.58-.76l-5.38-1.26c-.63-.15-1.42-.14-1.64,0-.23.14-.49.75-.64,1.41-.15.63.28,1.32.95,1.47ZM162.27,45.42c-.67-.16-1.35.27-1.53,1.01-.16.67-.19,1.32-.05,1.55s.84.59,1.47.74l5.49,1.29c.74.17,1.42.14,1.65,0,.23-.14.56-.73.72-1.4.17-.74-.25-1.43-.99-1.6l-6.75-1.58Z"/>
      <path class="cls-1" d="M201.66,54.37c.14.23.76.45,1.5.62l9.2,2.16c.74.17,1.17.86.99,1.6l-.13.56c-.17.74-.86,1.17-1.6.99l-6.79-1.59c-.63-.15-1.32.28-1.47.95l-.15.63c-.16.67-.84,1.09-1.58.92l-3.08-.72c-.63-.15-1.42-.14-1.57.02-.23.14-.56.73-.72,1.4-.15.63-.83,1.06-1.47.91-.67-.16-1.45-.14-1.68,0-.23.14-.46.79-.63,1.53l-.56,2.37c-.16.67-.26,1.43-.09,1.54.14.23.84.59,1.51.75l15.4,3.61c.74.17,1.17.86,1.01,1.53l-.15.63c-.16.67-.84,1.09-1.58.92l-16.06-3.76c-.63-.15-1.06-.83-.9-1.5.15-.63.14-1.42-.02-1.57-.14-.23-.77-.57-1.51-.75-.63-.15-1.06-.83-.91-1.47l.87-3.71c.17-.74.86-1.17,1.49-1.02.74.17,1.43.26,1.66.11.23-.14.59-.84.75-1.51.15-.63.83-1.06,1.46-.91.67.16,1.45.14,1.55.05.23-.14.59-.84.74-1.47.16-.67.84-1.09,1.51-.94l.63.15c.67.16,1.35-.27,1.5-.9.17-.74.22-1.44.08-1.67-.14-.23-.84-.59-1.47-.74-.67-.16-1.09-.84-.95-1.47l1.59-6.79c.15-.63.83-1.06,1.5-.9l.63.15c.67.16,1.09.84.95,1.47l-1.43,6.12c-.16.67-.14,1.45,0,1.68Z"/>
      <path class="cls-1" d="M222.74,82.48l-.63-.15c-.67-.16-1.09-.84-.92-1.58l4.48-19.1c.17-.74-.25-1.43-.88-1.58l-.67-.16c-.63-.15-1.06-.83-.91-1.46l.16-.67c.15-.63.83-1.06,1.46-.91l.67.16c.63.15,1.32-.28,1.48-.95l1.58-6.75c.17-.74.86-1.17,1.53-1.01l.63.15c.67.16,1.09.84.92,1.58l-1.58,6.75c-.16.67.27,1.35,1.01,1.53l.56.13c.74.17,1.17.86,1.02,1.49l-.16.67c-.15.63-.84,1.06-1.58.88l-.56-.13c-.74-.17-1.43.25-1.6.99l-4.48,19.1c-.17.74-.86,1.17-1.53,1.01ZM254.19,73.53c.67.16,1.09.84.95,1.47l-2.32,9.91c-.16.67-.84,1.09-1.51.94-.63-.15-1.42-.14-1.64,0s-.49.75-.64,1.41c-.17.74-.86,1.17-1.49,1.02l-.67-.16c-.63-.15-1.06-.83-.88-1.58l.13-.56c.17-.74.75-1.19,1.49-1.02.67.16,1.32.19,1.55.05.23-.14.59-.84.74-1.47l1.26-5.38c.15-.63.46-1.14.65-1.1.19.04.46-.28.57-.77.09-.37-.2-.83-.57-.92-.45-.1-.79.01-.83.2-.04.19-.64.24-1.27.09-.67-.16-1.24.3-1.42,1.04l-1.58,6.75c-.16.67-.84,1.09-1.58.92-.67-.16-1.34-.12-1.57.02-.23.14-.56.73-.72,1.4-.17.74-.86,1.17-1.53,1.01l-.63-.15c-.67-.16-1.09-.84-.92-1.59l.13-.56c.17-.74.86-1.17,1.53-1.01.63.15,1.4.21,1.63.07.23-.14.51-.86.66-1.49l1.43-6.12c.17-.74-.25-1.43-.92-1.58l-.63-.15c-.67-.16-1.35.27-1.53,1.01l-1.58,6.75c-.16.67-.84,1.09-1.47.95-.74-.17-1.45-.15-1.68,0-.23.14-.45.76-.61,1.42-.17.74-.86,1.17-1.6.99l-.56-.13c-.74-.17-1.17-.86-1-1.6l.13-.56c.17-.74.86-1.17,1.49-1.02.67.16,1.44.22,1.67.08.23-.14.59-.84.74-1.47l1.26-5.38c.15-.63.35-1.17.65-1.1.19.04.46-.28.57-.77.09-.37-.2-.83-.57-.92-.48-.11-.9-.01-.94.17-.04.19-.53.27-1.2.11-.63-.15-1.32.28-1.49,1.02l-1.58,6.75c-.16.67-.84,1.09-1.51.94-.63-.15-1.42-.14-1.57.02-.23.14-.56.73-.72,1.4-.17.74-.86,1.17-1.49,1.02l-.67-.16c-.63-.15-1.06-.83-.88-1.58l.13-.56c.17-.74.86-1.17,1.49-1.02.67.16,1.44.22,1.55.05.23-.14.59-.84.74-1.47l1.43-6.12c.17-.74-.25-1.43-.88-1.58l-.67-.16c-.63-.15-1.06-.83-.91-1.47l.16-.67c.15-.63.83-1.06,1.46-.91l.67.16c.63.15,1.32-.28,1.47-.95l.87-3.71c.17-.74.86-1.17,1.53-1.01.63.15,1.39.25,1.62.11.23-.14.51-.86.67-1.53.15-.63.83-1.06,1.47-.91.74.17,1.44.22,1.66.08.23-.14.59-.84.74-1.47.16-.67-.27-1.35-1.01-1.53l-3.71-.87c-.67-.16-1.09-.84-.95-1.47l.16-.67c.15-.63.83-1.06,1.5-.9l3.71.87c.74.17,1.43-.25,1.6-.99l.13-.56c.17-.74.86-1.17,1.49-1.02l.67.16c.63.15,1.06.83.88,1.58l-.13.56c-.17.74.25,1.43.92,1.59l6.86,1.61c.63.15,1.06.83.91,1.47l-1.59,6.79c-.15.63-.84,1.06-1.47.91-.74-.17-1.45-.15-1.68,0-.23.14-.48.87-.63,1.53l-.71,3.04c-.16.67.27,1.35.9,1.5l3.71.87ZM251.19,64.3l.54-2.3c.16-.67.36-1.21.66-1.14.19.04.46-.28.54-.66.1-.45-.2-.83-.57-.92-.48-.11-.88-.09-.94.17-.04.19-.64.24-1.27.09l-2.97-.7c-.67-.16-1.35.27-1.51.94l-.15.63c-.16.67-.84,1.09-1.47.95-.67-.16-1.45-.15-1.68,0-.23.14-.45.76-.61,1.42-.17.74-.83,1.06-1.58.88-.67-.16-1.34-.12-1.57.02-.23.14-.59.84-.75,1.51l-.71,3.04c-.16.67.27,1.35,1.01,1.53l6.75,1.58c.67.16,1.35-.27,1.51-.94l.15-.63c.16-.67-.27-1.35-.94-1.51l-.63-.15c-.67-.16-1.09-.84-.92-1.59l.13-.56c.17-.74.86-1.17,1.53-1.01l3.04.71c.67.16,1.43.26,1.65.11.23-.14.59-.84.75-1.51Z"/>
      <path class="cls-1" d="M291.03,69.14c.74.17,1.17.86,1.01,1.53l-5.21,22.22c-.16.67-.84,1.09-1.59.92-.63-.15-1.34-.12-1.57.02-.23.14-.56.73-.72,1.4-.17.74-.86,1.17-1.49,1.02l-3.71-.87c-.67-.16-1.09-.84-.92-1.59l.13-.56c.17-.74.86-1.17,1.53-1.01l3.04.71c.67.16,1.44.22,1.67.08.23-.14.48-.87.62-1.5l4.15-17.69c.17-.74.49-1.25.67-1.21.3.07.55-.18.66-.63.09-.37-.2-.83-.68-.94-.37-.09-.79.01-.83.2-.04.19-.64.24-1.27.09l-9.2-2.16c-.63-.15-1.32.28-1.47.91l-1.61,6.86c-.16.67-.84,1.09-1.51.94-.63-.15-1.42-.14-1.64,0-.23.14-.49.75-.64,1.41l-.71,3.04c-.17.74-.86,1.17-1.49,1.02-.74-.17-1.43-.26-1.66-.11-.23.14-.59.84-.75,1.51-.15.63-.83,1.06-1.46.91-.67-.16-1.34-.12-1.57.02-.21.07-.57.77-.72,1.4-.16.67-.84,1.09-1.51.94-.63-.15-1.42-.14-1.64,0-.23.14-.49.75-.65,1.41-.17.74-.86,1.17-1.6.99l-.56-.13c-.74-.17-1.17-.86-.99-1.6l.13-.56c.17-.74.86-1.17,1.6-.99.67.16,1.32.19,1.55.05.23-.14.59-.84.74-1.47.16-.67.84-1.09,1.51-.94.63.15,1.42.14,1.65,0,.13-.05.49-.75.64-1.41.15-.63.83-1.06,1.46-.91.67.16,1.45.15,1.68,0,.23-.14.45-.75.62-1.5l.72-3.08c.15-.63.83-1.06,1.5-.9.74.17,1.42.14,1.63.07.23-.14.59-.84.74-1.47l1.46-6.23c.15-.63-.28-1.32-1.02-1.49l-9.83-2.3c-.74-.17-1.17-.86-1.01-1.53l.15-.63c.16-.67.84-1.09,1.58-.92l9.83,2.3c.74.17,1.43-.25,1.58-.88l.87-3.71c.17-.74.86-1.17,1.53-1.01l.63.15c.67.16,1.09.84.92,1.58l-.87,3.71c-.15.63.28,1.32.91,1.47l12.98,3.04Z"/>
      <path class="cls-1" d="M320.74,95.67c-.67-.16-1.32-.23-1.54-.09-.23.14-.59.84-.75,1.51-.15.63-.83,1.06-1.5.9-.63-.15-1.42-.14-1.65,0-.21.07-.5.78-.64,1.41-.16.67-.84,1.09-1.47.95l-6.86-1.61c-.67-.16-1.09-.84-.94-1.51.15-.63.14-1.42-.02-1.57-.03-.2-.73-.56-1.4-.72-.63-.15-1.06-.83-.91-1.47.16-.67.15-1.45,0-1.68-.14-.23-.79-.46-1.53-.63-.63-.15-1.06-.83-.88-1.58l2.3-9.83c.17-.74.86-1.17,1.49-1.02.74.17,1.43.26,1.65.11.23-.14.59-.84.75-1.51l1.43-6.12c.15-.63.83-1.06,1.46-.91l.67.16c.63.15,1.06.83.91,1.47l-1.59,6.79c-.15.63-.83,1.06-1.47.91-.67-.16-1.45-.15-1.68,0-.23.14-.48.87-.63,1.53l-2,8.53c-.17.74-.25,1.39-.11,1.62.14.23.84.59,1.51.74.63.15,1.06.83.91,1.47-.16.67-.15,1.45.02,1.57.07.21.77.57,1.4.72l5.56,1.3c.67.16,1.34.12,1.57-.02.2-.03.56-.73.72-1.4.15-.63.83-1.06,1.5-.9.63.15,1.42.14,1.64,0,.23-.14.49-.75.66-1.49l.72-3.08c.15-.63.83-1.06,1.58-.88l.56.13c.74.17,1.17.86,1.02,1.49l-.87,3.71c-.17.74-.86,1.17-1.6.99Z"/>
      <path class="cls-1" d="M343.94,86.04c.15-.63-.28-1.32-1.02-1.49l-3.71-.87c-.67-.16-1.09-.84-.94-1.51l.15-.63c.16-.67.84-1.09,1.51-.94l6.86,1.61c.63.15,1.32-.28,1.47-.91l.16-.67c.15-.63.83-1.06,1.5-.9l.63.15c.67.16,1.09.84.95,1.47l-.16.67c-.15.63.28,1.32,1.02,1.49l3.71.87c.63.15,1.06.83.9,1.5l-.15.63c-.16.67-.84,1.09-1.47.95l-6.86-1.61c-.67-.16-1.35.27-1.5.9l-.87,3.71c-.17.74-.86,1.17-1.49,1.02-.67-.16-1.43-.22-1.66-.08-.23.14-.48.87-.62,1.5l-.72,3.08c-.15.63-.84,1.06-1.5.9-.74-.17-1.42-.14-1.65,0-.23.14-.57.77-.75,1.51l-1.43,6.08c-.16.67-.84,1.09-1.51.94l-.63-.15c-.67-.16-1.09-.84-.94-1.51l1.58-6.75c.17-.74.86-1.17,1.53-1.01.63.15,1.39.25,1.62.11.23-.14.51-.86.67-1.53l.71-3.04c.16-.67.84-1.09,1.47-.95.74.17,1.45.15,1.68,0,.23-.14.56-.73.74-1.47l.72-3.08ZM346.58,108.18c-.74-.17-1.17-.86-1.01-1.53.15-.63.21-1.4.05-1.55-.14-.23-.84-.59-1.47-.74-.67-.16-1.09-.84-.95-1.47l.87-3.71c.17-.74.86-1.17,1.53-1.01l.63.15c.67.16,1.09.84.92,1.58l-.71,3.04c-.16.67-.15,1.45.02,1.57.14.23.73.56,1.47.74l12.35,2.9c.63.15,1.06.83.9,1.5l-.15.63c-.16.67-.84,1.09-1.47.95l-12.98-3.04ZM353.22,93.5c-.63-.15-1.06-.83-.88-1.58l.13-.56c.17-.74.86-1.17,1.49-1.02l6.79,1.59c.74.17,1.17.86.99,1.6l-.13.56c-.17.74-.86,1.17-1.6.99l-6.79-1.59Z"/>
      <path class="cls-1" d="M379.54,106.12c-.67-.16-1.09-.84-.95-1.47.16-.67.12-1.34.09-1.54-.14-.23-.84-.59-1.51-.75-.63-.15-1.06-.83-.9-1.5l2.32-9.9c.16-.67.84-1.09,1.47-.95.67.16,1.45.14,1.68,0,.12-.17.45-.76.61-1.42.17-.74.83-1.06,1.5-.9l.63.15c.67.16,1.09.84.95,1.47l-.16.67c-.15.63-.83,1.06-1.5.9-.63-.15-1.32-.19-1.55-.05-.23.14-.59.84-.74,1.47l-2.03,8.64c-.15.63-.14,1.42,0,1.65.16.15.6.45,1.15.58.45.1,1.05.05,1.26-.02.23-.14.51-.86.66-1.49.16-.67.84-1.09,1.58-.92l.56.13c.74.17,1.17.86,1.01,1.53l-.15.63c-.16.67-.84,1.09-1.51.94-.74-.17-1.42-.14-1.64,0-.23.14-.56.73-.72,1.4-.15.63-.83,1.06-1.5.9l-.63-.15ZM391.79,112.32c-.67-.16-1.32-.23-1.55-.09-.23.14-.59.84-.74,1.51-.15.63-.83,1.06-1.5.9-.63-.15-1.42-.14-1.57.02-.21.07-.57.77-.72,1.4-.16.67-.84,1.09-1.47.95l-3.71-.87c-.74-.17-1.17-.86-1.01-1.53l.15-.63c.16-.67.84-1.09,1.58-.92l3.04.71c.67.16,1.34.12,1.57-.02.2-.03.56-.73.72-1.4.15-.63.84-1.06,1.5-.9.63.15,1.42.14,1.65,0,.23-.14.49-.75.66-1.49l3.61-15.39c.16-.67.84-1.09,1.58-.92l.56.13c.74.17,1.17.86,1.01,1.53l-3.76,16.03c-.17.74-.86,1.17-1.6.99Z"/>
      <path class="cls-1" d="M420.63,120.33c.15-.63.84-1.06,1.47-.91l.67.16c.63.15,1.06.83.91,1.47l-.87,3.71c-.16.67-.84,1.09-1.47.95l-.67-.16c-.63-.15-1.06-.83-.9-1.5l.87-3.71ZM423.5,116.43l-.67-.16c-.63-.15-1.06-.83-.91-1.46l3.76-16.06c.15-.63.83-1.06,1.47-.91l.67.16c.63.15,1.06.83.91,1.47l-3.76,16.06c-.15.63-.83,1.06-1.46.91Z"/>
      <path class="cls-1" d="M470.63,115.73l-.87,3.71c-.17.74-.86,1.17-1.53,1.01-.63-.15-1.4-.21-1.63-.07-.23.14-.51.86-.66,1.49-.16.67-.84,1.09-1.47.95-.67-.16-1.45-.14-1.68,0-.23.14-.45.75-.61,1.42l-.71,3.04c-.17.74-.86,1.17-1.6.99l-.55-.13c-.74-.17-1.17-.86-1-1.6l.87-3.71c.15-.63.83-1.06,1.47-.91.74.17,1.45.14,1.66.08.23-.14.59-.84.74-1.47.16-.67.84-1.09,1.47-.95.67.16,1.34.12,1.57-.02.23-.14.56-.73.74-1.47l.55-2.34c.17-.74.14-1.42,0-1.65s-.73-.56-1.4-.72l-5.56-1.3c-.63-.15-1.42-.14-1.57.02-.23.14-.56.73-.74,1.47l-.7,2.97c-.17.74-.86,1.17-1.49,1.02l-.67-.16c-.63-.15-1.06-.83-.88-1.58l.87-3.71c.15-.63.83-1.06,1.46-.91.67.16,1.44.22,1.55.05.23-.14.59-.84.74-1.47.16-.67.84-1.09,1.51-.94l6.86,1.61c.63.15,1.06.83.9,1.5-.15.63-.21,1.4-.07,1.63.14.23.86.51,1.49.66.67.16,1.09.84.95,1.47ZM457.01,132.11c.16-.67.84-1.09,1.59-.92l.55.13c.74.17,1.17.86,1.01,1.53l-.15.63c-.16.67-.84,1.09-1.58.92l-.56-.13c-.74-.17-1.17-.86-1.01-1.53l.15-.63Z"/>
    </g>
  </g>
</svg>