<?xml version="1.0" encoding="UTF-8"?>
<svg id="_レイヤー_2" data-name="レイヤー 2" xmlns="http://www.w3.org/2000/svg" viewBox="0 0 435.89 113.93">
  <defs>
    <style>
      .cls-1 {
        fill: #f15a24;
        stroke-width: 0px;
      }
    </style>
  </defs>
  <g id="_レイヤー_6" data-name="レイヤー 6">
    <g>
      <path class="cls-1" d="M5.43,91.55c-.14-.68.3-1.36.98-1.5l.64-.14c.68-.14,1.36.3,1.5.97l1.45,6.84c.16.75-.28,1.44-.96,1.58-.64.14-1.29.39-1.44.62-.15.23-.18,1.02-.04,1.66l.66,3.12c.14.64-.31,1.32-.95,1.46-.68.14-1.39.49-1.54.72s-.08.92.08,1.67c.14.64-.31,1.32-.98,1.47-.75.16-1.37.37-1.52.6-.15.23-.18,1.02-.03,1.7.14.64-.31,1.32-.98,1.46l-.64.14c-.68.14-1.36-.3-1.5-.94l-.14-.68c-.14-.64.31-1.32.98-1.46.64-.14,1.35-.48,1.5-.71.15-.23.13-.89-.03-1.64-.14-.67.3-1.36,1.05-1.52.64-.14,1.3-.36,1.45-.58.15-.23.17-1.02.03-1.7l-.65-3.08c-.14-.68.3-1.36.94-1.49.68-.14,1.39-.49,1.54-.72.03-.2.09-.88-.07-1.63l-1.32-6.2ZM29.14,101.51c.68-.14,1.36.3,1.52,1.05l.8,3.76c.14.64-.31,1.32-.98,1.46l-.64.14c-.68.14-1.36-.3-1.5-.94l-.65-3.08c-.16-.75-.49-1.39-.72-1.54-.23-.15-.91-.2-1.58-.06-.75.16-1.32-.31-1.46-.95l-.66-3.12c-.14-.64-.48-1.35-.71-1.5-.23-.15-.93-.12-1.68.04-.64.14-1.32-.31-1.48-1.06l-.64-3.01c-.16-.75-.41-1.37-.64-1.51-.23-.15-1.02-.18-1.66-.04-.68.14-1.36-.3-1.5-.98l-.14-.64c-.14-.68.3-1.36.98-1.5l.64-.14c.68-.14,1.36.3,1.5.97.14.64.48,1.35.71,1.5.23.15.89.12,1.57-.02.75-.16,1.44.28,1.57.92l.66,3.12c.16.75.37,1.37.6,1.52.23.15,1.02.18,1.69.03.64-.14,1.32.31,1.47.98l.65,3.08c.14.68.42,1.4.64,1.55.23.15.99.06,1.63-.07Z"/>
      <path class="cls-1" d="M59.43,104.88l-.68.14c-.64.14-1.32-.31-1.47-.98l-2.79-13.11c-.14-.68-.83-1.12-1.58-.96-.68.14-1.29.39-1.44.62-.15.23-.18,1.02-.04,1.66.14.68-.3,1.36-.98,1.5l-3.08.66c-.68.14-1.39.49-1.54.72-.15.23-.09.88.06,1.56.14.64-.31,1.32-1.06,1.48l-3.76.8c-.68.14-1.36-.3-1.5-.94l-.14-.68c-.14-.64.31-1.32.98-1.47l3.08-.66c.75-.16,1.39-.49,1.55-.64.15-.23.18-1.02.04-1.66-.14-.68.3-1.36.94-1.49l3.12-.66c.64-.14,1.35-.48,1.5-.71.15-.23.13-.89-.02-1.57-.16-.75.28-1.43,1.04-1.59l.56-.12c.75-.16,1.2-.84,1.06-1.48l-.14-.68c-.14-.64.31-1.32.95-1.46.68-.14,1.29-.39,1.44-.62s.18-1.02.04-1.66c-.14-.68.3-1.36.98-1.5.64-.14,1.35-.48,1.5-.71.15-.23.12-.89-.02-1.57-.16-.75.31-1.32,1.06-1.48l.56-.12c.75-.16,1.43.28,1.57.92l.14.68c.14.64-.31,1.32-1.06,1.48-.68.14-1.29.39-1.44.62-.15.23-.18,1.02-.04,1.66.14.68-.3,1.36-.98,1.5-.64.14-1.35.48-1.5.71-.07.21-.12.89.04,1.64l3.97,18.67c.14.68-.3,1.36-.94,1.5Z"/>
      <path class="cls-1" d="M107.2,92.76l.14.64c.14.68-.3,1.36-.94,1.5l-.68.14c-.64.14-1.32-.31-1.47-.98-.14-.64-.48-1.35-.69-1.42-.23-.15-.94-.19-1.7-.03-.64.14-1.32-.31-1.46-.95-.14-.68-.42-1.4-.64-1.55-.23-.15-.99-.06-1.63.07-.68.14-1.36-.3-1.5-.94-.16-.75-.49-1.39-.72-1.54-.23-.15-.91-.2-1.58-.06l-2.44.52c-.75.16-1.35.48-1.5.71s-.19.94-.03,1.7c.14.64-.31,1.32-.98,1.47-.64.14-1.37.37-1.45.58-.15.23-.18,1.02-.03,1.69.14.64-.31,1.32-.95,1.46-.68.14-1.39.49-1.54.72-.16.15-.08.92.06,1.56.14.68-.3,1.36-1.05,1.52l-3.76.8c-.68.14-1.36-.3-1.5-.98l-.14-.64c-.14-.68.3-1.36.98-1.5l3.08-.66c.75-.16,1.39-.49,1.54-.72.17-.12.2-.91.06-1.58-.14-.64.31-1.32.95-1.46.68-.14,1.39-.49,1.42-.7.15-.23.2-.91.04-1.66-.14-.67.3-1.36.98-1.5.64-.14,1.37-.37,1.52-.6.15-.23.1-1-.04-1.68-.14-.64.31-1.32,1.06-1.48l.56-.12c.75-.16,1.19-.84,1.05-1.52l-.8-3.76c-.16-.75.28-1.43.92-1.57.68-.14,1.3-.36,1.45-.58.15-.23.22-.83.11-1.32-.1-.45.01-.87.2-.91.19-.04.31-.38.22-.83-.08-.38-.54-.67-.91-.59-.45.1-.71.35-.67.54s-.48.5-1.24.66l-12.28,2.61c-.75.16-1.44-.28-1.58-.96l-.14-.64c-.14-.68.3-1.36,1.05-1.52l16.23-3.45c.68-.14,1.36.3,1.5.97l.8,3.76c.14.64-.31,1.32-.98,1.47-.64.14-1.35.48-1.5.71-.07.21-.1,1,.04,1.68l1.17,5.52c.14.68.49,1.39.64,1.55.23.15,1,.06,1.63-.07.68-.14,1.36.3,1.5.97.16.75.48,1.35.71,1.5.23.15.91.2,1.58.06.75-.16,1.43.28,1.57.92.14.68.38,1.41.58,1.45.23.15.94.19,1.7.03.64-.14,1.32.31,1.47.98Z"/>
      <path class="cls-1" d="M135.46,62.61c.75-.16,1.43.28,1.58.96l4.78,22.5c.14.68-.3,1.36-1.05,1.52l-.56.12c-.75.16-1.43-.28-1.58-.96l-.14-.64c-.14-.68-.83-1.12-1.5-.98l-16.23,3.45c-.75.16-1.43-.28-1.57-.92l-.14-.68c-.14-.64.31-1.32,1.06-1.48l16.23-3.45c.68-.14,1.12-.83.96-1.58l-2.61-12.28c-.16-.75-.09-1.35.1-1.4.26-.06.39-.4.29-.85-.08-.38-.54-.67-.99-.58-.38.08-.71.35-.67.54s-.48.5-1.16.64l-15.48,3.29c-.75.16-1.43-.28-1.58-.96l-.14-.64c-.14-.68.3-1.36,1.05-1.52l19.35-4.11Z"/>
      <path class="cls-1" d="M176.22,53.94c.64-.14,1.32.31,1.47.98l.8,3.76c.14.64-.31,1.32-.95,1.46-.75.16-1.39.49-1.54.72-.15.23-.08.92.08,1.67.14.64-.31,1.32-1.06,1.48-.68.14-1.29.39-1.44.62-.15.23-.18,1.02-.04,1.66.14.68-.3,1.36-.98,1.5l-.64.14c-.68.14-1.36-.3-1.5-.98l-.14-.64c-.14-.68.3-1.36.98-1.5.64-.14,1.35-.48,1.5-.71.15-.23.13-.89-.02-1.57-.16-.75.28-1.43.92-1.57.75-.16,1.41-.38,1.56-.61.15-.23.22-.83.11-1.32-.1-.45-.1-.84.2-.91.19-.04.31-.38.22-.83-.08-.38-.54-.67-.91-.59-.49.1-.82.37-.78.56.04.19-.48.5-1.12.63l-21.79,4.63c-.68.14-1.36-.3-1.5-.98l-.14-.64c-.14-.68.3-1.36.98-1.5l25.73-5.47ZM163.36,64.53c-.16-.75.28-1.43,1.04-1.59l.56-.12c.75-.16,1.43.28,1.59,1.04l2.12,9.96c.16.75-.28,1.44-1.04,1.59-.68.14-1.3.35-1.45.58-.15.23-.18,1.02-.03,1.7.14.64-.31,1.32-.98,1.46-.64.14-1.35.48-1.42.7-.16.15-.19.94-.06,1.58.14.68-.3,1.36-.94,1.5l-3.76.8c-.75.16-1.43-.28-1.58-.96l-.14-.64c-.14-.68.3-1.36,1.05-1.52l3.08-.65c.68-.14,1.39-.49,1.42-.69.15-.23.2-.91.06-1.58-.14-.64.31-1.32.98-1.46.64-.14,1.35-.48,1.5-.71.15-.23.12-.89-.03-1.64l-1.98-9.32Z"/>
      <path class="cls-1" d="M188.72,54.54c-.68.14-1.36-.3-1.5-.98l-.14-.64c-.14-.68.3-1.36.98-1.5l10.03-2.13c.68-.14,1.12-.83.98-1.47l-.14-.68c-.14-.64.31-1.32.95-1.46l.68-.14c.64-.14,1.32.31,1.46.95l.14.68c.14.64.82,1.08,1.57.92l3.76-.8c.68-.14,1.36.3,1.5.97l.14.64c.14.68-.3,1.36-.98,1.5l-6.95,1.48c-.64.14-1.08.82-.95,1.46l.14.68c.14.64.82,1.08,1.46.95l.68-.14c.64-.14,1.32.31,1.48,1.06l.12.56c.16.75.84,1.2,1.59,1.04l3.12-.66c.64-.14,1.27-.47,1.42-.7.15-.23.2-.91.06-1.58-.16-.75.28-1.43.92-1.57l3.76-.8c.75-.16,1.43.28,1.59,1.03l.12.56c.16.75-.28,1.44-1.04,1.6l-3.08.65c-.68.14-1.4.42-1.55.64-.15.23-.06.99.07,1.63.14.68-.3,1.36-.98,1.5l-.64.14c-.68.14-1.12.83-.98,1.47l.8,3.76c.16.75-.28,1.44-1.04,1.59l-.56.12c-.75.16-1.44-.28-1.59-1.04l-.8-3.76c-.14-.64-.82-1.08-1.46-.95-.68.14-1.39.49-1.42.7-.15.23-.2.91-.06,1.58.14.64-.31,1.32-.98,1.47-.64.14-1.35.48-1.5.71-.15.23-.12.93.04,1.68l.51,2.4c.14.68.42,1.4.62,1.44.23.15,1.02.18,1.66.04l9.39-2c.68-.14,1.36.3,1.5.98l.14.64c.14.68-.3,1.36-.98,1.5l-10.03,2.13c-.68.14-1.36-.3-1.5-.98-.14-.64-.48-1.35-.69-1.42-.23-.15-.91-.2-1.66-.04-.68.14-1.36-.3-1.5-.94l-.8-3.76c-.16-.75.28-1.43.96-1.58.75-.16,1.37-.37,1.52-.6.15-.23.17-1.02.03-1.69-.14-.64.31-1.32.98-1.47.64-.14,1.27-.47,1.44-.62.15-.23.18-1.02.04-1.66-.14-.68-.83-1.12-1.5-.97l-3.08.65c-.75.16-1.4.42-1.55.64-.15.23-.18,1.02-.04,1.66.14.68-.3,1.36-.94,1.5-.68.14-1.28.47-1.42.7-.15.23-.2.91-.06,1.58.14.64-.31,1.32-.98,1.47l-.64.14c-.68.14-1.36-.3-1.5-.94l-.14-.68c-.14-.64.31-1.32.98-1.47.64-.14,1.35-.48,1.51-.64.07-.21.1-1-.03-1.64-.14-.68.3-1.36.94-1.49.68-.14,1.39-.49,1.54-.72.15-.23.09-.88-.06-1.56-.16-.75.28-1.43,1.04-1.59l.56-.12c.75-.16,1.19-.84,1.06-1.48l-.14-.68c-.14-.64-.82-1.08-1.57-.92l-6.84,1.45Z"/>
      <path class="cls-1" d="M229.65,37.99c.16.75.84,1.2,1.59,1.04l3.76-.8c.68-.14,1.36.3,1.5.94l.14.68c.14.64-.31,1.32-.98,1.47l-.64.14c-.68.14-1.12.83-.98,1.5l.14.64c.14.68.83,1.12,1.5.98l.64-.14c.68-.14,1.36.3,1.5.94l.14.68c.14.64-.31,1.32-.98,1.47l-13.15,2.8c-.75.16-1.43-.28-1.57-.92l-.14-.68c-.14-.64.31-1.32,1.06-1.48l.56-.12c.75-.16,1.2-.84,1.05-1.52l-.14-.64c-.14-.68-.83-1.12-1.58-.96l-.56.12c-.75.16-1.44-.29-1.57-.92l-.14-.68c-.14-.64.31-1.32,1.06-1.48l3.76-.8c.68-.14,1.12-.83.96-1.58l-.12-.56c-.16-.75.28-1.43.92-1.57l.68-.14c.64-.14,1.32.31,1.48,1.06l.12.56ZM239.01,60.22c-.68.14-1.12.83-.98,1.46l.14.68c.14.64.82,1.08,1.5.94l.64-.14c.68-.14,1.36.3,1.5.98l.14.64c.14.68-.3,1.36-.98,1.5l-.64.14c-.68.14-1.12.83-.96,1.58l.12.56c.16.75-.28,1.44-1.04,1.6l-.56.12c-.75.16-1.44-.28-1.59-1.04l-1.46-6.88c-.14-.64-.82-1.08-1.46-.95l-.68.14c-.64.14-1.08.82-.95,1.46l.8,3.76c.14.68-.3,1.36-.98,1.5l-.08.02c-.75.16-1.39.49-1.45.58-.15.23-.12.93.02,1.57l.02.11c.16.75-.28,1.44-1.04,1.59l-.56.12c-.75.16-1.44-.28-1.59-1.04l-.12-.56c-.16-.75.28-1.43.96-1.58.64-.14,1.28-.47,1.42-.7.22-.24.25-1.03.09-1.79l-.62-2.93c-.14-.64-.82-1.08-1.57-.92l-.56.12c-.75.16-1.44-.28-1.59-1.04l-1.45-6.84c-.14-.68.3-1.36,1.05-1.52l13.15-2.8c.68-.14,1.36.3,1.5.97l1.45,6.84c.16.75-.28,1.44-.96,1.58l-.64.14ZM235.78,57.57c.75-.16,1.22-.73,1.08-1.41-.14-.64-.07-1.24.12-1.28.19-.04.31-.38.22-.83-.1-.49-.53-.67-.91-.59-.45.1-.79.36-.75.55.04.19-.48.5-1.16.64l-6.09,1.29c-.68.14-1.12.83-.98,1.47l.14.68c.14.64.82,1.08,1.5.94l6.84-1.45ZM230.85,43.62c-.14-.68-.83-1.12-1.47-.98l-.68.14c-.64.14-1.08.82-.94,1.49l.14.64c.14.68.83,1.12,1.47.98l.68-.14c.64-.14,1.08-.82.94-1.5l-.14-.64ZM242.61,46.31c-.75.16-1.43-.28-1.57-.92l-.14-.68c-.14-.64.31-1.32,1.06-1.48l.56-.12c.75-.16,1.2-.84,1.05-1.52l-.14-.64c-.14-.68-.83-1.12-1.58-.96l-.56.12c-.75.16-1.44-.29-1.57-.92l-.14-.68c-.14-.64.31-1.32,1.06-1.48l3.76-.8c.68-.14,1.12-.83.96-1.58l-.12-.56c-.16-.75.28-1.43.92-1.57l.68-.14c.64-.14,1.32.31,1.48,1.06l.12.56c.16.75.84,1.2,1.59,1.04l3.68-.78c.75-.16,1.43.28,1.57.92l.14.68c.14.64-.31,1.32-1.06,1.48l-.56.12c-.68.14-1.12.83-.98,1.5l.14.64c.14.68.83,1.12,1.5.98l.56-.12c.75-.16,1.43.28,1.57.92l.14.68c.14.64-.31,1.32-1.06,1.48l-13.07,2.78ZM259.4,54.52c.16.75-.28,1.44-1.03,1.59l-.56.12c-.68.14-1.12.83-.98,1.46l.64,3c.14.68.08,1.28-.19,1.34-.19.04-.3.45-.22.83.1.45.55.75,1,.65.38-.08.71-.35.66-.61-.04-.19.41-.48,1.05-.61.68-.14,1.36.3,1.52,1.05l.12.56c.16.75-.28,1.44-1.03,1.59l-3.68.78c-.75.16-1.44-.28-1.59-1.04l-1.46-6.88c-.14-.64-.82-1.08-1.46-.95l-.68.14c-.64.14-1.08.82-.95,1.46l.8,3.76c.14.68-.3,1.36-.98,1.5l-.19.04c-.64.14-1.27.47-1.45.58-.03.2,0,.9.13,1.54l.02.11c.16.75-.28,1.44-1.04,1.59l-.56.12c-.75.16-1.44-.28-1.59-1.04l-.12-.56c-.16-.75.28-1.43.96-1.58.56-.12,1.28-.47,1.42-.7.22-.24.25-1.03.09-1.79l-.62-2.93c-.14-.64-.82-1.08-1.57-.92l-.56.12c-.75.16-1.44-.28-1.59-1.04l-1.45-6.84c-.14-.68.3-1.36,1.05-1.52l13.07-2.78c.75-.16,1.43.28,1.58.96l1.45,6.84ZM255.06,49.47c-.45.1-.71.35-.67.54.04.19-.48.5-1.23.66l-6.09,1.29c-.68.14-1.12.83-.98,1.47l.14.68c.14.64.82,1.08,1.5.94l6.84-1.45c.75-.16,1.22-.73,1.08-1.41-.14-.64-.14-1.23.12-1.28.19-.04.31-.38.22-.83-.1-.49-.42-.7-.91-.59ZM249.63,39.63c-.14-.68-.83-1.12-1.47-.98l-.68.14c-.64.14-1.08.82-.94,1.49l.14.64c.14.68.83,1.12,1.47.98l.68-.14c.64-.14,1.08-.82.94-1.49l-.14-.64Z"/>
      <path class="cls-1" d="M289.31,41.01l1.45,6.84c.16.75-.28,1.44-1.04,1.59-.68.14-1.3.35-1.45.58-.15.23-.18,1.02-.03,1.69.14.64-.31,1.32-.98,1.46-.64.14-1.35.48-1.5.71-.09.14-.12.93.02,1.57.14.68-.3,1.36-.94,1.5l-6.95,1.48c-.68.14-1.36-.3-1.5-.98l-.14-.64c-.14-.68.3-1.36.98-1.5l6.27-1.33c.68-.14,1.27-.47,1.42-.69.17-.12.2-.91.06-1.58-.14-.64.31-1.32.98-1.46.64-.14,1.35-.48,1.5-.71.15-.23.12-.89-.03-1.64l-1.18-5.56c-.14-.64-.41-1.37-.64-1.51-.23-.15-1-.1-1.64.04l-8.75,1.86c-.64.14-1.37.41-1.44.62-.15.23-.18,1.02-.04,1.66.14.68-.3,1.36-.94,1.49l-3.76.8c-.75.16-1.43-.28-1.58-.96l-.14-.64c-.14-.68.3-1.36,1.05-1.52l3.08-.66c.68-.14,1.39-.49,1.42-.7.15-.23.2-.91.06-1.58-.16-.75.28-1.43.96-1.58l10.03-2.13c.68-.14,1.36.3,1.52,1.05.14.68.47,1.27.69,1.42.23.15.91.2,1.58.06.75-.16,1.43.28,1.58.96Z"/>
      <path class="cls-1" d="M306.76,30.7c-.14-.64-.82-1.08-1.57-.92l-3.76.8c-.68.14-1.36-.3-1.5-.98l-.14-.64c-.14-.68.3-1.36.98-1.5l6.95-1.48c.64-.14,1.08-.82.95-1.46l-.14-.68c-.14-.64.31-1.32.98-1.47l.64-.14c.68-.14,1.36.3,1.5.94l.14.68c.14.64.82,1.08,1.57.92l3.76-.8c.64-.14,1.32.31,1.47.98l.14.64c.14.68-.3,1.36-.94,1.5l-6.95,1.48c-.68.14-1.12.83-.98,1.47l.8,3.76c.16.75-.28,1.44-.92,1.57-.68.14-1.4.42-1.55.64-.15.23-.06.99.07,1.63l.66,3.12c.14.64-.31,1.32-.98,1.47-.75.16-1.35.48-1.5.71-.15.23-.19.94-.03,1.69l1.31,6.16c.14.68-.3,1.36-.98,1.5l-.64.14c-.68.14-1.36-.3-1.5-.98l-1.45-6.84c-.16-.75.28-1.43.96-1.58.64-.14,1.37-.37,1.52-.6.15-.23.1-1-.04-1.68l-.65-3.08c-.14-.68.3-1.36.94-1.49.75-.16,1.39-.49,1.54-.72.15-.23.2-.91.04-1.66l-.66-3.12ZM318.67,49.77c-.75.16-1.44-.28-1.58-.96-.14-.64-.41-1.37-.62-1.44-.23-.15-1.02-.18-1.66-.04-.68.14-1.36-.3-1.5-.94l-.8-3.76c-.16-.75.28-1.43.96-1.58l.64-.14c.68-.14,1.36.3,1.52,1.05l.65,3.08c.14.68.49,1.39.69,1.42.23.15.91.2,1.66.04l12.51-2.66c.64-.14,1.32.31,1.47.98l.14.64c.14.68-.3,1.36-.94,1.5l-13.15,2.79ZM318.43,33.52c-.64.14-1.32-.31-1.48-1.06l-.12-.56c-.16-.75.28-1.43.92-1.57l6.87-1.46c.75-.16,1.43.28,1.59,1.03l.12.56c.16.75-.28,1.44-1.04,1.6l-6.87,1.46Z"/>
      <path class="cls-1" d="M347.85,33.75c-.68.14-1.36-.3-1.5-.94-.14-.68-.47-1.27-.58-1.45-.23-.15-1.02-.18-1.7-.03-.64.14-1.32-.31-1.47-.98l-2.13-10.03c-.14-.68.3-1.36.94-1.49.68-.14,1.39-.49,1.54-.72.04-.2.09-.88-.06-1.56-.16-.75.31-1.32.98-1.47l.64-.14c.68-.14,1.36.3,1.5.94l.14.68c.14.64-.31,1.32-.98,1.47-.64.14-1.29.39-1.44.62-.15.23-.18,1.02-.04,1.66l1.86,8.75c.14.64.48,1.35.71,1.5.21.07.74.16,1.3.04.45-.1.97-.4,1.14-.56.15-.23.1-1-.03-1.64-.14-.68.3-1.36,1.05-1.52l.56-.12c.75-.16,1.43.28,1.58.96l.14.64c.14.68-.3,1.36-.98,1.5-.75.16-1.35.48-1.5.71-.15.23-.2.91-.06,1.58.14.64-.31,1.32-.98,1.47l-.64.14ZM361.68,34.14c-.68.14-1.3.35-1.45.58-.15.23-.18,1.02-.03,1.69.14.64-.31,1.32-.98,1.46-.64.14-1.35.48-1.42.7-.16.15-.19.94-.06,1.58.14.68-.3,1.36-.94,1.5l-3.76.8c-.75.16-1.43-.28-1.58-.96l-.14-.64c-.14-.68.3-1.36,1.05-1.52l3.08-.65c.68-.14,1.27-.47,1.42-.69.17-.11.2-.91.06-1.58-.14-.64.31-1.32.98-1.46.64-.14,1.35-.48,1.5-.71.15-.23.12-.89-.03-1.64l-3.31-15.59c-.14-.68.3-1.36,1.05-1.52l.56-.12c.75-.16,1.43.28,1.58.96l3.45,16.23c.16.75-.28,1.44-1.04,1.59Z"/>
      <path class="cls-1" d="M392.37,24.28l-.68.14c-.64.14-1.32-.31-1.46-.95l-3.46-16.27c-.14-.64.31-1.32.95-1.46l.68-.14c.64-.14,1.32.31,1.46.95l3.46,16.27c.14.64-.31,1.32-.95,1.46ZM391.43,29.07c-.14-.64.31-1.32.95-1.46l.68-.14c.64-.14,1.32.31,1.46.95l.8,3.76c.14.68-.3,1.36-.94,1.5l-.68.14c-.64.14-1.32-.31-1.47-.98l-.8-3.76Z"/>
      <path class="cls-1" d="M435.06,3.43l.8,3.76c.16.75-.28,1.44-.96,1.58-.64.14-1.37.41-1.51.64-.15.23-.1,1,.04,1.64.14.68-.3,1.36-.94,1.49-.68.14-1.39.49-1.54.72-.15.23-.09.88.06,1.56l.66,3.08c.16.75-.28,1.44-1.04,1.6l-.56.12c-.75.16-1.43-.28-1.59-1.04l-.8-3.76c-.13-.64.31-1.32.95-1.46.75-.16,1.39-.49,1.55-.64.15-.23.18-1.02.04-1.66-.14-.68.3-1.36.94-1.49.68-.14,1.27-.47,1.42-.7.15-.23.2-.91.04-1.66l-.5-2.37c-.16-.75-.48-1.35-.71-1.5-.23-.15-.91-.2-1.58-.06l-5.63,1.2c-.64.14-1.35.48-1.42.7-.15.23-.2.91-.04,1.66l.64,3.01c.16.75-.28,1.44-.92,1.57l-.68.14c-.64.14-1.32-.31-1.48-1.06l-.8-3.76c-.13-.64.31-1.32.95-1.46.68-.14,1.4-.42,1.44-.62.15-.23.18-1.02.04-1.66-.14-.68.3-1.36.98-1.5l6.95-1.48c.64-.14,1.32.31,1.47.98.14.64.41,1.37.64,1.51.23.15,1,.1,1.64-.03.68-.14,1.36.3,1.5.94ZM429.66,24.21c-.14-.68.3-1.36,1.05-1.52l.56-.12c.75-.16,1.44.28,1.58.96l.14.64c.14.68-.3,1.36-1.05,1.52l-.56.12c-.75.16-1.43-.28-1.58-.96l-.14-.64Z"/>
    </g>
  </g>
</svg>