<?xml version="1.0" encoding="UTF-8"?>
<svg id="_レイヤー_2" data-name="レイヤー 2" xmlns="http://www.w3.org/2000/svg" viewBox="0 0 388.24 171.92">
  <defs>
    <style>
      .cls-1 {
        fill: #ff0;
        stroke-width: 0px;
      }
    </style>
  </defs>
  <g id="_レイヤー_6" data-name="レイヤー 6">
    <g>
      <path class="cls-1" d="M43.21,10.4c-.13.63-.8,1.07-1.43.94l-.67-.13c-.63-.13-1.3.31-1.43.98-.13.63-.2,1.38-.06,1.61.15.22.68.45,1.16.54.44.09,1.02.09,1.24-.06.22-.15.56-.85.69-1.48.13-.67.8-1.11,1.47-.97l.63.13c.67.14,1.11.8.98,1.47l-.13.63c-.13.67-.8,1.11-1.47.97-.63-.13-1.41-.09-1.63.05-.22.15-.45.68-.54,1.12-.1.48-.1,1.06.05,1.28.15.22.87.45,1.5.57.67.13,1.11.8.96,1.54l-.11.56c-.15.74-.82,1.18-1.49,1.05l-.63-.13c-.67-.14-1.11-.8-.98-1.43.15-.74.1-1.44-.05-1.67-.15-.22-.74-.54-1.41-.67-.74-.15-1.09-.68-.94-1.42.13-.67.08-1.33-.07-1.56-.15-.22-.78-.54-1.52-.69-.63-.13-1.07-.8-.94-1.46l.6-2.96c.13-.63.42-1.15.61-1.11.26.05.52-.28.59-.65.1-.48-.2-.93-.64-1.02-.37-.08-.78.04-.82.22-.06.3-.65.37-1.32.23l-2.96-.6c-.63-.13-1.3.31-1.42.94l-1.99,9.81c-.15.74.29,1.41.92,1.54l6.77,1.37c.74.15,1.18.82,1.05,1.48l-.75,3.7c-.13.63.2,1.27.94,1.42.67.13,1.31.19,1.53.04.22-.15.56-.85.69-1.52.13-.63.79-1.07,1.46-.94l.63.13c.67.14,1.11.8.98,1.43l-.13.67c-.13.63-.8,1.07-1.46.94-.63-.13-1.41-.09-1.63.06-.22.15-.47.79-.62,1.53-.13.63-.8,1.07-1.43.94l-.67-.13c-.63-.13-1.3.32-1.42.94-.13.67-.21,1.42-.04,1.53.15.22.67.52,1.15.62.44.09,1.04.02,1.26-.13.2-.04.54-.74.67-1.41.13-.63.79-1.07,1.46-.94l.63.13c.67.13,1.11.8.98,1.43l-.13.67c-.13.63-.8,1.07-1.46.94-.63-.13-1.41-.09-1.63.06-.21.07-.43.61-.54,1.16-.09.44-.09,1.02.06,1.24.15.22.87.48,1.49.61.67.13,1.11.8.96,1.54l-.11.56c-.15.74-.82,1.18-1.49,1.05l-.63-.13c-.67-.14-1.11-.8-.96-1.54.13-.67.08-1.33-.07-1.56s-.74-.54-1.41-.67c-.74-.15-1.07-.8-.94-1.46.13-.63.09-1.41-.07-1.56-.15-.22-.78-.54-1.52-.69-.63-.13-1.07-.79-.94-1.42l1.21-6c.15-.74.45-1.26.63-1.22.26.05.5-.21.59-.65.1-.48-.22-.82-.67-.91-.37-.08-.78.04-.81.22-.04.19-.63.26-1.3.12l-2.96-.6c-.63-.13-1.3.31-1.42.94l-2.62,12.96c-.15.74-.82,1.18-1.56,1.03l-.56-.11c-.74-.15-1.18-.82-1.03-1.56l2.62-12.96c.13-.63-.31-1.3-.98-1.43l-3.7-.75c-.63-.13-1.3.32-1.42.94l-.75,3.7c-.15.74-.82,1.18-1.48,1.05-.74-.15-1.38-.2-1.61-.06-.22.15-.56.85-.69,1.52l-.62,3.04c-.13.67-.8,1.11-1.47.97-.63-.13-1.33-.08-1.56.07-.22.15-.54.74-.67,1.41-.15.74-.82,1.18-1.45,1.06l-.67-.14c-.63-.13-1.07-.79-.92-1.54l.11-.56c.15-.74.82-1.18,1.45-1.06.67.13,1.43.17,1.65.03.11-.17.45-.87.58-1.5l.62-3.07c.13-.63.79-1.07,1.46-.94.63.13,1.41.09,1.63-.05.22-.15.46-.75.61-1.5l.62-3.07c.13-.63-.32-1.3-.98-1.43l-3.7-.75c-.63-.13-1.07-.79-.94-1.46l.13-.63c.13-.67.8-1.11,1.43-.98l3.7.75c.67.13,1.33-.31,1.48-1.05l.11-.55c.15-.74-.29-1.41-.96-1.54l-3.7-.75c-.63-.13-1.07-.8-.94-1.42l.13-.67c.13-.63.79-1.07,1.42-.94l6.11,1.24c.74.15,1.43.17,1.65.03.22-.15.56-.85.69-1.48.13-.67.8-1.11,1.43-.98l.67.14c.63.13,1.07.79.94,1.46l-.13.63c-.13.67-.8,1.11-1.43.98-.67-.14-1.44-.1-1.67.05-.22.15-.42.76-.57,1.5l-.6,2.96c-.15.74.29,1.41.92,1.54l3.7.75c.67.13,1.33-.31,1.48-1.05l1.99-9.81c.13-.63-.31-1.3-.98-1.43l-9.88-2c-.67-.14-1.11-.8-.96-1.54l.11-.56c.15-.74.82-1.18,1.48-1.05l22.21,4.5c.74.15,1.18.82,1.03,1.56l-.11.55c-.15.74.18,1.39.92,1.54.67.13,1.33.08,1.56-.07.22-.15.54-.78.69-1.52.13-.63.79-1.07,1.46-.94l.63.13c.67.13,1.11.8.96,1.54l-.11.56c-.15.74-.82,1.18-1.49,1.05-.63-.13-1.38-.2-1.61-.06-.22.15-.48.87-.62,1.53Z"/>
      <path class="cls-1" d="M49.48,26.97c.13-.63-.31-1.3-.94-1.42l-.67-.13c-.63-.13-1.07-.8-.94-1.46l.13-.63c.13-.67.8-1.11,1.43-.98l.67.13c.63.13,1.3-.31,1.45-1.06l.11-.56c.15-.74.82-1.18,1.48-1.05.63.13,1.38.2,1.61.06.22-.15.48-.86.62-1.53.13-.63.8-1.07,1.42-.94.74.15,1.43.17,1.65.03s.56-.85.69-1.48c.13-.67.8-1.11,1.43-.98l.67.14c.63.13,1.07.79.94,1.46l-.13.63c-.13.67-.8,1.11-1.43.98-.67-.14-1.44-.1-1.67.05-.22.15-.42.76-.56,1.43-.15.74-.8,1.07-1.46.94-.74-.15-1.41-.09-1.63.05-.22.15-.56.85-.69,1.52l-3.73,18.4c-.15.74-.82,1.18-1.48,1.05l-.63-.13c-.67-.13-1.11-.8-.96-1.54l2.62-12.96ZM56.22,11.38c-.22.15-.54.78-.69,1.52-.13.63-.79,1.07-1.46.94-.63-.13-1.32-.15-1.54,0-.22.15-.56.85-.69,1.48-.13.67-.8,1.11-1.43.98l-.67-.13c-.63-.13-1.07-.8-.94-1.46l.13-.63c.13-.67.8-1.11,1.43-.98.67.13,1.44.1,1.67-.05.11-.17.42-.76.56-1.43.15-.74.8-1.07,1.46-.94.63.13,1.41.09,1.63-.06.22-.15.47-.79.62-1.53.13-.63.8-1.07,1.54-.92l.56.11c.74.15,1.18.82,1.03,1.56l-.11.56c-.15.74-.82,1.18-1.48,1.05-.74-.15-1.38-.2-1.61-.06ZM80.59,25.57c.67.14,1.11.8.96,1.54l-.11.56c-.15.74-.82,1.18-1.49,1.05l-3.7-.75c-.63-.13-1.3.32-1.43.98l-3.24,15.99c-.15.74-.82,1.18-1.56,1.03l-3.7-.75c-.67-.13-1.11-.8-.96-1.54l.11-.56c.15-.74.82-1.18,1.37-1.07.67.14,1.18.43,1.15.62-.05.26.28.52.65.59.44.09.89-.2.98-.65.08-.37-.03-.78-.29-.83-.19-.04-.26-.63-.12-1.3l2.47-12.18c.13-.67-.31-1.33-.97-1.47l-9.88-2c-.67-.13-1.11-.8-.96-1.54l.11-.56c.15-.74.82-1.18,1.48-1.05l19.14,3.88ZM65.84,16.22c-.74-.15-1.18-.82-1.05-1.45l.13-.67c.13-.63.79-1.07,1.54-.92l12.95,2.62c.63.13,1.07.79.94,1.42l-.13.67c-.13.63-.79,1.07-1.42.94l-12.95-2.62Z"/>
      <path class="cls-1" d="M96.63,22.46l.55.11c.74.15,1.18.82,1.05,1.48l-.13.63c-.13.67-.8,1.11-1.54.96l-.55-.11c-.74-.15-1.41.29-1.54.92l-.75,3.7c-.15.74.29,1.41,1.03,1.56l.55.11c.74.15,1.18.82,1.05,1.48l-.13.63c-.13.67-.8,1.11-1.54.96l-.55-.11c-.74-.15-1.41.29-1.54.92l-2.62,12.96c-.15.74-.82,1.18-1.45,1.06l-.67-.13c-.63-.13-1.07-.79-.92-1.54l2.62-12.96c.13-.63-.31-1.3-.98-1.43-.63-.13-1.41-.09-1.63.05-.22.15-.46.75-.6,1.42l-.62,3.04c-.15.74-.82,1.18-1.56,1.03l-.56-.11c-.74-.15-1.18-.82-1.03-1.56l.75-3.7c.13-.63.8-1.07,1.54-.92.67.13,1.33.08,1.54,0,.22-.15.56-.85.69-1.48l.62-3.07c.15-.74.82-1.18,1.48-1.05l.63.13c.67.13,1.33-.31,1.46-.94l.13-.67c.13-.63-.31-1.3-.98-1.43l-3.7-.75c-.74-.15-1.18-.82-1.05-1.48l.13-.63c.13-.67.8-1.11,1.54-.96l3.7.75c.67.13,1.33-.31,1.46-.94l.75-3.7c.15-.74.82-1.18,1.45-1.06l.67.14c.63.13,1.07.79.92,1.54l-.75,3.7c-.13.63.31,1.3,1.05,1.45ZM108.73,19.82c.15-.74.82-1.18,1.48-1.05l.63.13c.67.14,1.11.8.96,1.54l-3.24,15.99c-.13.67.31,1.33.94,1.46l6.77,1.37c.74.15,1.18.82,1.06,1.45l-.13.67c-.13.63-.79,1.07-1.54.92l-6.77-1.37c-.63-.13-1.3.32-1.45,1.06-.13.67-.21,1.42-.04,1.53.15.22.78.54,1.52.69.63.13,1.07.79.95,1.42l-.13.67c-.13.63.31,1.3,1.05,1.45.67.13,1.33.08,1.53.04.22-.15.56-.85.69-1.52.13-.63.8-1.07,1.46-.94l.55.11c.74.15,1.18.82,1.06,1.45l-.13.67c-.13.63-.79,1.07-1.46.94-.63-.13-1.41-.09-1.63.06-.22.15-.45.68-.54,1.16-.09.44-.09,1.02.06,1.24.15.22.75.46,1.42.6.74.15,1.18.82,1.03,1.56l-.11.56c-.15.74-.82,1.18-1.56,1.03l-.55-.11c-.67-.14-1.11-.8-.97-1.47.13-.63.09-1.41-.06-1.63-.15-.22-.85-.56-1.48-.69l-2.41-.49c-.67-.14-1.44-.1-1.67.05-.22.15-.42.76-.56,1.43-.15.74-.82,1.18-1.48,1.05l-.63-.13c-.67-.14-1.11-.8-.96-1.54l.11-.56c.15-.74.74-1.2,1.48-1.05.63.13,1.32.15,1.54,0,.22-.15.56-.85.69-1.48l.47-2.33c.15-.74.09-1.41-.03-1.74-.15-.22-.8-.43-1.54-.58-.63-.13-1-.78-.85-1.52l.11-.56c.15-.74-.29-1.41-1.03-1.56l-.56-.11c-.74-.15-1.41.29-1.56,1.03l-.6,2.96c-.13.63-.09,1.41.05,1.63.15.22.85.56,1.52.69.63.13,1.07.8.94,1.46l-.13.63c-.13.67-.8,1.11-1.54.96l-.56-.11c-.74-.15-1.18-.82-1.05-1.48.15-.74.2-1.38.06-1.61-.15-.22-.61-.43-1.16-.54-.44-.09-1.04-.02-1.26.13-.22.15-.56.85-.69,1.52l-.6,2.96c-.15.74-.82,1.18-1.48,1.05l-.63-.13c-.67-.13-1.11-.8-.96-1.54l.75-3.7c.13-.67.8-1.11,1.47-.97.63.13,1.41.09,1.61.06.15-.16.48-.87.62-1.53l.62-3.04c.15-.74-.29-1.41-.96-1.54l-.63-.13c-.67-.13-1.11-.8-.98-1.43l.13-.67c.13-.63.8-1.07,1.46-.94l6.74,1.37c.74.15,1.41-.29,1.54-.96l3.24-15.99ZM101.86,21.98c-.1.48,0,.96.15,1.19.04.2.74.54,1.41.67.63.13,1.07.79.94,1.46l-.13.63c-.13.67-.69,1.13-1.36,1-.63-.13-1.41-.09-1.63.05-.22.15-.52.67-.61,1.11-.08.37-.33.7-.52.67-.18-.04-.45.29-.52.67-.1.48.09.9.57,1,.44.09.78-.04.82-.22.06-.3.65-.37,1.28-.24.67.14,1,.78.85,1.52l-.11.56c-.15.74-.82,1.18-1.45,1.06l-3.7-.75c-.67-.13-1.11-.8-.96-1.54l.75-3.7c.13-.63.8-1.07,1.46-.94l.07.02c.67.14,1.32.15,1.54,0,.22-.15.42-.57.54-1.12s.04-1.15-.11-1.37c-.07-.21-.79-.47-1.42-.6-.67-.13-1.11-.8-.98-1.43l.13-.67c.13-.63.8-1.07,1.46-.94l.07.02c.67.14,1.33.08,1.54,0,.22-.15.46-.75.61-1.49s.82-1.18,1.45-1.06l.67.14c.63.13,1.07.79.92,1.54l-.11.56c-.15.74-.71,1.21-1.37,1.07-.63-.13-1.38-.2-1.63.05-.22.15-.52.67-.61,1.11ZM117.29,25.1c-.1.48-.08.95.07,1.17.15.22.85.56,1.48.69.67.14,1.11.8.97,1.47l-.13.63c-.13.67-.8,1.11-1.47.97-.63-.13-1.33-.08-1.56.07-.31.21-.52.67-.61,1.11-.07.37-.33.7-.59.65-.19-.04-.45.29-.52.67-.1.48.2.93.64,1.02.37.08.78-.04.82-.22.06-.3.58-.38,1.21-.26.67.14,1.11.8.96,1.54l-.11.56c-.15.74-.82,1.18-1.56,1.03l-3.63-.73c-.74-.15-1.18-.82-1.03-1.56l.75-3.7c.13-.63.79-1.07,1.54-.92s1.43.17,1.65.03c.09-.06.39-.58.5-1.13s.04-1.15-.11-1.37c-.15-.22-.75-.46-1.5-.61-.67-.13-1.11-.8-.98-1.43l.13-.67c.13-.63.79-1.07,1.54-.92s1.44.1,1.65.03c.11-.17.42-.76.57-1.5s.82-1.18,1.48-1.05l.55.11c.74.15,1.18.82,1.03,1.56l-.11.56c-.15.74-.82,1.18-1.48,1.05-.63-.13-1.31-.19-1.56.07-.3.13-.52.67-.61,1.11Z"/>
      <path class="cls-1" d="M137.91,56.45c-.63-.13-1.07-.8-.94-1.46.13-.63.09-1.41-.07-1.56-.15-.22-.78-.54-1.52-.69-.63-.13-1.07-.8-.94-1.42.13-.67.17-1.43.03-1.65-.15-.22-.87-.45-1.5-.57-.67-.13-1.11-.8-.96-1.54l1.37-6.74c.13-.67.8-1.11,1.47-.97.63.13,1.41.09,1.63-.06.22-.15.46-.75.6-1.42.15-.74.82-1.18,1.45-1.06.74.15,1.42.21,1.64.06.22-.15.56-.85.69-1.52.13-.63-.32-1.3-1.06-1.45l-3.07-.62c-.63-.13-1.41-.09-1.56.07-.22.15-.54.74-.67,1.41-.15.74-.79,1.07-1.42.94l-6.85-1.39c-.67-.13-1.11-.8-.98-1.43l.13-.67c.13-.63.79-1.07,1.46-.94l6.18,1.25c.67.13,1.43.17,1.54,0,.22-.15.56-.85.69-1.48.13-.67.8-1.11,1.47-.97l9.25,1.88c.63.13,1.41.09,1.63-.06s.46-.75.6-1.42c.15-.74.8-1.07,1.54-.92l3.7.75c.63.13,1.07.8.95,1.42l-.13.67c-.13.63-.8,1.07-1.43.94l-3.07-.62c-.74-.15-1.39-.17-1.61-.02s-.56.85-.69,1.48c-.13.67-.8,1.11-1.47.97l-.63-.13c-.67-.13-1.33.31-1.46.94l-.13.67c-.13.63-.79,1.07-1.42.94-.67-.14-1.44-.1-1.67.05-.22.15-.43.8-.58,1.54-.13.63-.8,1.07-1.54.92-.67-.14-1.32-.15-1.54,0-.22.15-.56.85-.68,1.48l-1.11,5.48c-.15.74-.09,1.41.05,1.63.15.22.74.54,1.41.67.74.15,1.18.82,1.06,1.45-.13.67-.19,1.31-.04,1.53.15.22.85.56,1.52.69l3.04.62c.67.13,1.11.8.97,1.47l-.13.63c-.13.67-.8,1.11-1.47.97l-3.7-.75ZM147.8,42.46l-.56-.11c-.74-.15-1.18-.82-1.03-1.56l.75-3.7c.13-.63.8-1.07,1.54-.92l.56.11c.74.15,1.18.82,1.06,1.45l-.75,3.7c-.15.74-.82,1.18-1.56,1.03ZM153.98,43.71l-.63-.13c-.67-.13-1.11-.8-.96-1.54l.75-3.7c.13-.63.79-1.07,1.46-.94l.63.13c.67.14,1.11.8.98,1.43l-.75,3.7c-.15.74-.82,1.18-1.49,1.05Z"/>
      <path class="cls-1" d="M189.52,48.99l-1.99,9.81c-.15.74-.82,1.18-1.45,1.06-.74-.15-1.42-.21-1.64-.06-.22.15-.45.87-.58,1.54-.13.63-.8,1.07-1.54.92-.67-.14-1.33-.08-1.56.07-.21.07-.54.78-.67,1.41-.13.67-.8,1.11-1.47.97l-3.7-.75c-.63-.13-1.07-.8-.94-1.46l.13-.63c.13-.67.8-1.11,1.43-.98l3.07.62c.63.13,1.41.09,1.63-.06.22-.15.46-.75.6-1.42.13-.63.8-1.07,1.42-.94.74.15,1.45.1,1.67-.05.22-.15.54-.74.69-1.48l1.72-8.51c.15-.74.1-1.44-.05-1.67-.15-.22-.78-.54-1.52-.69-.63-.13-1.09-.68-.94-1.42.13-.67.15-1.32,0-1.54-.15-.22-.85-.56-1.48-.68l-3.07-.62c-.63-.13-1.3.31-1.42.94l-1.39,6.85c-.13.67-.8,1.11-1.54.96-.67-.14-1.33-.08-1.56.07-.22.15-.53.74-.67,1.41-.13.63-.35,1.74-.5,2.48l-.11.56c-.15.74-.82,1.18-1.48,1.05-.63-.13-1.38-.2-1.53-.04-.22.15-.56.85-.69,1.52-.13.63-.8,1.07-1.43.94l-3.7-.75c-.74-.15-1.18-.82-1.05-1.45.13-.67.17-1.43.03-1.65-.15-.22-.87-.45-1.5-.57-.67-.13-1.11-.8-.96-1.54l1.37-6.74c.13-.67.8-1.11,1.47-.97.63.13,1.41.09,1.63-.06.22-.15.46-.75.6-1.42.15-.74.82-1.18,1.45-1.06.74.15,1.42.21,1.64.06s.56-.85.69-1.52c.13-.63.79-1.07,1.42-.94.67.14,1.43.17,1.54,0,.22-.15.56-.85.69-1.48.13-.67.8-1.11,1.47-.97l9.88,2c.67.14,1.11.8.97,1.47-.13.63-.09,1.41.05,1.63.15.22.75.46,1.42.6.74.15,1.18.82,1.06,1.45-.13.67-.21,1.42-.06,1.64.15.22.8.43,1.54.58.63.13,1.07.8.92,1.54ZM174.72,42.71c.13-.63-.32-1.3-.98-1.43-.63-.13-1.41-.09-1.56.07-.22.15-.54.74-.67,1.41-.15.74-.8,1.07-1.43.94-.67-.13-1.44-.1-1.67.05-.22.15-.43.8-.58,1.54-.13.63-.8,1.07-1.46.94-.74-.15-1.39-.17-1.61-.02-.22.15-.56.85-.69,1.48l-1.11,5.48c-.15.74-.09,1.41.06,1.63s.74.54,1.48.69l2.41.49c.67.13,1.45.1,1.56-.07.22-.15.54-.74.69-1.48l.62-3.07c.13-.63.79-1.07,1.46-.94.63.13,1.41.09,1.61.02.22-.15.48-.87.61-1.49l1.26-6.22Z"/>
      <path class="cls-1" d="M199.57,72.22l-.55-.11c-.74-.15-1.18-.82-1.03-1.56l1.99-9.81c.15-.74-.29-1.41-.96-1.54-.63-.13-1.33-.08-1.56.07-.22.15-.54.78-.69,1.52-.13.63-.8,1.07-1.42.94l-.67-.13c-.63-.13-1.07-.79-.92-1.54l.11-.56c.15-.74.82-1.18,1.45-1.06.67.14,1.42.21,1.64.06.11-.17.45-.87.58-1.54l.62-3.03c.13-.67.8-1.11,1.47-.97l.63.13c.67.14,1.33-.31,1.48-1.05l.11-.56c.15-.74-.29-1.41-.96-1.54l-3.7-.75c-.63-.13-1.07-.79-.94-1.42l.13-.67c.13-.63.79-1.07,1.42-.94l3.7.75c.67.14,1.33-.31,1.47-.97l.13-.63c.13-.67-.31-1.33-.97-1.47l-3.7-.75c-.63-.13-1.07-.79-.94-1.42l.13-.67c.13-.63.79-1.07,1.42-.94l3.7.75c.67.14,1.33-.31,1.48-1.05l.11-.56c.15-.74.82-1.18,1.56-1.03l3.7.75c.63.13,1.07.8.92,1.54l-.11.56c-.15.74-.82,1.18-1.45,1.06l-.67-.14c-.63-.13-1.3.32-1.42.94l-.75,3.7c-.13.67.31,1.33.94,1.46l.67.14c.63.13,1.07.79.94,1.42l-.13.67c-.13.63-.79,1.07-1.42.94l-.67-.13c-.63-.13-1.3.32-1.45,1.06l-.11.56c-.15.74.29,1.41.92,1.54l.67.14c.63.13,1.07.79.94,1.46l-.13.63c-.13.67-.8,1.11-1.43.98l-.67-.14c-.63-.13-1.3.32-1.42.94l-2.62,12.96c-.15.74-.82,1.18-1.56,1.03ZM208.27,73.98c-.74-.15-1.18-.82-1.03-1.56l.11-.56c.15-.74.82-1.18,1.56-1.03l3.04.61c.67.14,1.43.17,1.65.03.11-.17.45-.87.58-1.5l.49-2.41c.13-.67.1-1.44.06-1.64-.15-.22-.69-.41-1.24-.52-.48-.1-1.05-.14-1.27.01-.22.15-.45.87-.58,1.54-.13.63-.8,1.07-1.54.92l-.56-.11c-.74-.15-1.18-.82-1.05-1.45l.13-.67c.13-.63.8-1.07,1.54-.92.63.13,1.33.08,1.56-.07.22-.15.54-.74.69-1.48.13-.67.8-1.11,1.43-.98.67.14,1.42.21,1.64.06.11-.17.45-.87.58-1.54.13-.63.79-1.07,1.46-.94l.63.13c.67.13,1.33-.31,1.47-.97l.13-.63c.13-.67.8-1.11,1.54-.96l.55.11c.74.15,1.18.82,1.05,1.48l-.13.63c-.13.67.31,1.33.94,1.46l3.7.75c.67.14,1.11.8.98,1.43l-.75,3.7c-.15.74-.82,1.18-1.48,1.05-.63-.13-1.38-.2-1.61-.06-.15.16-.48.87-.62,1.53-.13.63-.79,1.07-1.42.94-.67-.14-1.44-.1-1.67.05-.21.07-.43.8-.56,1.43-.13.67-.8,1.11-1.54.96l-3.07-.62c-.63-.13-1.33-.08-1.56.07-.22.15-.54.74-.67,1.41-.15.74-.82,1.18-1.45,1.06l-3.7-.75ZM211.4,58.54c-.74-.15-1.18-.82-1.05-1.48l.13-.63c.13-.67.8-1.11,1.54-.96l2.96.6c.74.15,1.41.09,1.63-.06.22-.15.52-.67.63-1.22.09-.44.13-1.01-.02-1.24-.16-.15-.79-.47-1.42-.6l-.11-.02c-.63-.13-1.09-.68-.94-1.42.13-.67.08-1.33-.07-1.56-.15-.22-.78-.54-1.52-.69-.63-.13-1.07-.8-.94-1.46l.13-.63c.13-.67.8-1.11,1.43-.98.74.15,1.44.1,1.67-.05s.54-.74.69-1.48l.6-2.96c.15-.74.82-1.18,1.45-1.06l.67.14c.63.13,1.07.8.92,1.54l-.11.55c-.15.74.29,1.41.96,1.54l6.74,1.37c.74.15,1.18.82,1.06,1.45l-.75,3.7c-.13.67-.8,1.11-1.43.98-.74-.15-1.44-.1-1.67.05-.22.15-.42.76-.56,1.43-.15.74-.79,1.07-1.54.92-.67-.13-1.33-.08-1.56.07-.22.15-.54.78-.69,1.52-.13.63-.8,1.07-1.46.94-.63-.13-1.39-.17-1.61-.02-.22.15-.48.87-.61,1.49-.13.67-.8,1.11-1.43.98l-3.7-.75ZM217.52,62.94c-.63-.13-1.33-.08-1.56.07-.22.15-.52.67-.62,1.15-.09.44-.02,1.04.13,1.26.15.22.78.54,1.41.67.67.14,1.11.8.98,1.43l-.13.67c-.13.63.31,1.3.94,1.42.74.15,1.45.1,1.67-.05.2-.04.54-.74.67-1.41.13-.63.8-1.07,1.42-.94.67.14,1.33.08,1.56-.07.22-.15.5-.55.59-1.04.09-.44.35-.78.54-.74s.45-.3.54-.78c.08-.37-.11-.79-.59-.89-.44-.09-.78.03-.82.22-.04.19-.63.26-1.37.11l-5.37-1.09ZM225.15,47.73c-.48-.1-.87-.06-.93.2-.04.18-.52.28-1.19.15-.63-.13-1.74-.35-2.41-.49l-.63-.13c-.67-.13-1.78-.36-2.41-.49-.67-.14-1.43-.17-1.65-.03-.22.15-.41.69-.5,1.13-.11.56-.15,1.12,0,1.35.15.22.87.48,1.53.62.63.13,1.07.79.95,1.42-.13.67-.08,1.33.07,1.56.12.33.67.52,1.15.62.44.09,1.01.13,1.24-.02.22-.15.48-.86.62-1.53.13-.63.79-1.07,1.42-.94.74.15,1.43.17,1.65.03.22-.15.52-.67.61-1.11.1-.48.25-.84.54-.78.18.04.44-.3.52-.67.09-.44-.22-.82-.59-.89Z"/>
      <path class="cls-1" d="M244.07,55.53c-.74-.15-1.41.29-1.54.92l-.13.67c-.13.63.32,1.3,1.05,1.45l3.7.75c.67.14,1.11.8.96,1.54l-2.62,12.95c-.13.63-.79,1.07-1.46.94l-3.7-.75c-.74-.15-1.41.29-1.54.96l-.13.63c-.13.67.31,1.33,1.05,1.48l.56.11c.74.15,1.18.82,1.03,1.56l-.11.56c-.15.74-.82,1.18-1.56,1.03l-9.81-1.99c-.74-.15-1.18-.82-1.03-1.56l.11-.56c.15-.74.82-1.18,1.56-1.03l3.7.75c.67.13,1.33-.31,1.47-.97l.13-.63c.13-.67-.31-1.33-.97-1.47l-3.7-.75c-.74-.15-1.18-.82-1.05-1.45l2.62-12.95c.15-.74.82-1.18,1.56-1.03l3.7.75c.67.13,1.33-.31,1.46-.94l.13-.67c.13-.63-.32-1.3-.98-1.43l-3.7-.75c-.74-.15-1.18-.82-1.05-1.48l.13-.63c.13-.67.8-1.11,1.54-.96l.55.11c.74.15,1.41-.29,1.54-.92l.13-.67c.13-.63.79-1.07,1.46-.94l3.04.62c.67.13,1.44.1,1.67-.05.22-.15.43-.8.58-1.54.13-.63.8-1.07,1.54-.92l.56.11c.74.15,1.18.82,1.03,1.56l-.11.56c-.15.74-.82,1.18-1.45,1.06-.74-.15-1.42-.21-1.64-.06s-.54.78-.69,1.52c-.13.63.32,1.3,1.05,1.45l3.7.75c.67.13,1.11.8.97,1.47l-.13.63c-.13.67-.8,1.11-1.47.97l-3.7-.75ZM236.98,68.24c.15-.74-.29-1.41-.96-1.54l-.63-.13c-.67-.13-1.33.31-1.48,1.05l-.11.56c-.15.74.29,1.41.96,1.54l.63.13c.67.13,1.33-.31,1.48-1.05l.11-.56ZM238.24,62.06c.13-.67-.31-1.33-.97-1.47l-.63-.13c-.67-.13-1.33.31-1.47.97l-.13.63c-.13.67.31,1.33.97,1.47l.63.13c.67.13,1.33-.31,1.47-.97l.13-.63ZM243.16,69.49c.15-.74-.29-1.41-1.03-1.56l-.56-.11c-.74-.15-1.41.29-1.56,1.03l-.11.56c-.15.74.29,1.41,1.03,1.56l.56.11c.74.15,1.41-.29,1.56-1.03l.11-.56ZM242.74,61.7c-.67-.14-1.33.31-1.47.97l-.13.63c-.13.67.31,1.33,1.05,1.48l.56.11c.74.15,1.41-.29,1.52-.85.13-.67.43-1.18.62-1.15.18.04.45-.3.52-.67.09-.44-.21-.89-.58-.96-.44-.09-.85.02-.9.28-.04.19-.56.27-1.19.15ZM266.2,60.02c.74.15,1.18.82,1.06,1.45l-3.88,19.14c-.13.67-.8,1.11-1.47.97-.74-.15-1.41-.09-1.63.06-.22.15-.46.75-.6,1.42-.15.74-.82,1.18-1.56,1.03l-3.7-.75c-.63-.13-1.07-.79-.92-1.54l.11-.56c.15-.74.82-1.18,1.45-1.06l3.07.62c.63.13,1.39.17,1.61.02.22-.15.56-.85.69-1.48l2.96-14.62c.13-.63.35-1.16.61-1.11.18.04.44-.3.54-.78.08-.37-.22-.81-.59-.89-.44-.09-.85.02-.89.21-.06.3-.63.26-1.3.12l-2.96-.6c-.63-.13-1.3.32-1.45,1.06l-1.99,9.81c-.15.74-.82,1.18-1.48,1.05-.63-.13-1.38-.2-1.61-.06-.22.15-.48.87-.62,1.53l-.62,3.04c-.13.67-.8,1.11-1.54.96-.63-.13-1.33-.08-1.55.07-.22.15-.54.74-.67,1.41-.15.74-.82,1.18-1.45,1.06l-.67-.13c-.63-.13-1.07-.79-.92-1.54l.11-.56c.15-.74.82-1.18,1.45-1.06.67.14,1.43.17,1.65.03.22-.15.45-.87.58-1.5l.62-3.07c.13-.63.79-1.07,1.46-.94.74.15,1.41.09,1.63-.06.22-.15.54-.74.68-1.48l1.86-9.18c.15-.74-.29-1.41-1.03-1.56l-3.7-.75c-.63-.13-1.07-.79-.94-1.42l.13-.67c.13-.63.79-1.07,1.42-.94l3.7.75c.74.15,1.41-.29,1.54-.96l1.37-6.74c.15-.74.82-1.18,1.48-1.05l.63.13c.67.14,1.11.8.96,1.54l-1.37,6.74c-.13.67.31,1.33.94,1.46l6.77,1.37Z"/>
      <path class="cls-1" d="M303.83,64.44c.74.15,1.18.82,1.05,1.48l-2.62,12.96c-.13.63-.79,1.07-1.54.92l-12.88-2.61c-.74-.15-1.41.29-1.56,1.03l-1.99,9.81c-.15.74-.82,1.18-1.45,1.06l-.67-.13c-.63-.13-1.07-.8-.92-1.54l1.99-9.81c.15-.74-.29-1.41-.96-1.54l-12.96-2.62c-.74-.15-1.18-.82-1.05-1.45l2.62-12.95c.13-.67.8-1.11,1.54-.96l12.96,2.62c.67.14,1.33-.31,1.46-.94l.75-3.7c.15-.74.82-1.18,1.45-1.06l.67.13c.63.13,1.07.8.92,1.54l-.75,3.7c-.13.63.32,1.3,1.06,1.45l12.88,2.61ZM285.76,65.21c.13-.63-.32-1.3-.98-1.43l-9.88-2c-.67-.14-1.33.31-1.46.94l-1.39,6.85c-.13.67.31,1.33.97,1.47l9.88,2c.67.14,1.33-.31,1.47-.97l1.39-6.85ZM301.59,66.42c-.44-.09-.85.02-.89.21-.04.18-.63.26-1.3.12l-9.07-1.84c-.74-.15-1.41.29-1.54.92l-1.39,6.85c-.13.67.31,1.33,1.05,1.48l9.81,1.99c.74.15,1.41-.29,1.54-.96l1.21-6c.15-.74.37-1.27.63-1.22.18.04.43-.22.52-.66.08-.37-.22-.82-.59-.89Z"/>
      <path class="cls-1" d="M310.45,70.22c.13-.63.79-1.07,1.46-.94.63.13,1.39.17,1.61.02.15-.16.48-.87.61-1.49l.62-3.07c.13-.63.79-1.07,1.42-.94l.67.14c.63.13,1.07.79.95,1.42l-.75,3.7c-.13.67-.8,1.11-1.43.98-.67-.14-1.33-.08-1.56.07-.22.15-.53.74-.68,1.48l-2.98,14.69c-.13.67-.08,1.33.07,1.56.15.22.74.54,1.41.67.63.13,1.07.8.94,1.46l-.13.63c-.13.67-.8,1.11-1.43.98l-.67-.13c-.63-.13-1.07-.8-.94-1.46.13-.63.09-1.41,0-1.54-.15-.22-.85-.56-1.48-.69-.67-.13-1.11-.8-.98-1.43l3.26-16.1ZM320.46,90.24c-.63-.13-1.07-.79-.94-1.42.13-.67.1-1.44-.05-1.67-.07-.21-.8-.43-1.43-.56-.67-.14-1.11-.8-.96-1.54l.11-.56c.15-.74.82-1.18,1.48-1.05.63.13,1.38.2,1.53.04.22-.15.56-.85.69-1.52.13-.63.8-1.07,1.42-.94l.67.14c.63.13,1.07.79.94,1.42l-.13.67c-.13.63-.79,1.07-1.42.94-.67-.14-1.44-.1-1.56.07-.22.15-.52.67-.62,1.15-.09.44-.02,1.04.13,1.26.04.2.74.54,1.41.67l12.29,2.49c.74.15,1.18.82,1.06,1.45l-.13.67c-.13.63-.79,1.07-1.54.92l-12.95-2.62ZM337.78,71.32c.74.15,1.18.82,1.05,1.48l-.75,3.7c-.13.63-.79,1.07-1.54.92l-.55-.11c-.74-.15-1.21-.71-1.07-1.37.13-.63.42-1.15.61-1.11.3.06.54-.2.63-.64.08-.37-.22-.81-.7-.91-.37-.08-.78.03-.82.22-.04.19-.63.26-1.26.13l-9.18-1.86c-.63-.13-1.07-.8-.94-1.46l.13-.63c.13-.67.8-1.11,1.43-.98l12.95,2.62Z"/>
      <path class="cls-1" d="M9.07,77.13c-.63-.13-1.33-.08-1.55.07-.22.15-.54.78-.69,1.52-.13.63-.79,1.07-1.42.94-.67-.13-1.43-.17-1.65-.03-.22.15-.45.87-.57,1.5-.13.67-.8,1.11-1.54.96l-.56-.11c-.74-.15-1.18-.82-1.05-1.48l.13-.63c.14-.67.8-1.11,1.54-.96.63.13,1.33.08,1.56-.07.22-.15.54-.74.67-1.41.15-.74.82-1.18,1.45-1.06.67.13,1.42.21,1.64.06.11-.17.45-.87.58-1.54l1.24-6.11c.13-.63.8-1.07,1.46-.94l.63.13c.67.14,1.11.8.98,1.43l-.75,3.7c-.13.67.31,1.33,1.05,1.48l15.99,3.24c.67.13,1.11.8.98,1.43l-.13.67c-.13.63-.8,1.07-1.46.94l-6.74-1.36c-.74-.15-1.41.29-1.56,1.03l-1.99,9.81c-.15.74-.82,1.18-1.49,1.05-.63-.13-1.38-.2-1.53-.04-.22.15-.56.85-.69,1.52-.13.63-.8,1.07-1.42.94-.67-.13-1.44-.1-1.67.05-.21.07-.43.8-.56,1.43-.13.67-.8,1.11-1.54.96l-3.7-.75c-.67-.14-1.11-.8-.97-1.47l.13-.63c.13-.67.8-1.11,1.47-.97l3.04.61c.74.15,1.44.1,1.67-.05.22-.15.54-.74.67-1.41.13-.63.8-1.07,1.42-.94.67.13,1.44.1,1.56-.07.22-.15.54-.74.68-1.48l1.86-9.18c.15-.74-.29-1.41-.92-1.54l-6.22-1.26ZM22.63,73.52l-.67-.14c-.63-.13-1.07-.79-.92-1.54l.75-3.7c.13-.63.79-1.07,1.42-.94l.67.14c.63.13,1.07.8.95,1.42l-.75,3.7c-.15.74-.82,1.18-1.45,1.06ZM28.74,74.76l-.55-.11c-.74-.15-1.18-.82-1.03-1.56l.75-3.7c.13-.63.79-1.07,1.54-.92l.55.11c.74.15,1.18.82,1.06,1.45l-.75,3.7c-.15.74-.82,1.18-1.56,1.03Z"/>
      <path class="cls-1" d="M44.27,90.74c-.63-.13-1.07-.79-.94-1.46.13-.63.09-1.41-.05-1.63-.15-.22-.79-.47-1.42-.6-.74-.15-1.18-.82-1.03-1.56l.11-.56c.15-.74.82-1.18,1.56-1.03l.56.11c.74.15,1.18.82,1.03,1.56-.13.67-.19,1.31-.04,1.53.15.22.85.56,1.52.69l15.36,3.11c.74.15,1.18.82,1.05,1.48l-.13.63c-.13.67-.8,1.11-1.54.96l-16.03-3.25Z"/>
      <path class="cls-1" d="M99.45,112.78l-.13.63c-.13.67-.8,1.11-1.47.97l-.63-.13c-.67-.13-1.11-.8-.97-1.47.13-.63.09-1.41-.07-1.56-.15-.22-.74-.53-1.48-.68l-8.51-1.73c-.67-.14-1.44-.1-1.67.05-.21.07-.43.8-.56,1.43-.13.67-.8,1.11-1.54.96l-9.81-1.99c-.74-.15-1.18-.82-1.05-1.48l.13-.63c.13-.67.8-1.11,1.54-.96l.56.11c.74.15,1.41-.29,1.54-.92l.75-3.7c.15-.74.82-1.18,1.45-1.06.67.13,1.42.21,1.64.06.11-.17.45-.87.58-1.54l.61-3.04c.14-.67.8-1.11,1.47-.97.63.13,1.41.09,1.63-.05.22-.15.46-.75.61-1.5l.62-3.07c.13-.63.79-1.07,1.42-.94.74.15,1.43.17,1.65.03s.56-.85.69-1.48l.62-3.07c.13-.63.8-1.07,1.42-.94l.67.13c.63.13,1.07.8.94,1.42l-.75,3.7c-.13.67-.8,1.11-1.43.98-.67-.14-1.44-.1-1.67.05s-.42.76-.57,1.5l-.6,2.96c-.15.74-.82,1.18-1.48,1.05-.74-.15-1.39-.17-1.62-.02-.22.15-.56.85-.68,1.48l-.62,3.07c-.13.63-.79,1.07-1.46.94-.63-.13-1.33-.08-1.55.07-.22.15-.54.78-.69,1.52l-.62,3.04c-.13.63.31,1.3.98,1.43l3.04.62c.74.15,1.45.1,1.67-.05.2-.04.54-.74.67-1.41.13-.63.8-1.07,1.42-.94l6.77,1.37c.74.15,1.41-.29,1.54-.92.15-.74.1-1.44-.05-1.67-.15-.22-.78-.54-1.52-.69-.63-.13-1.07-.8-.95-1.42.14-.67.15-1.32,0-1.54-.15-.22-.85-.56-1.48-.69-.67-.13-1.11-.8-.97-1.47l.13-.63c.13-.67.8-1.11,1.47-.97l.63.13c.67.14,1.11.8.97,1.47-.13.63-.09,1.41.05,1.63.16.15.75.46,1.42.6.74.15,1.18.82,1.06,1.45-.14.67-.21,1.42-.06,1.64.15.22.87.45,1.54.58.63.13,1.07.8.92,1.54l-.62,3.04c-.13.67-.17,1.43,0,1.54.15.22.85.56,1.48.69.67.14,1.11.8.98,1.47Z"/>
      <path class="cls-1" d="M129.47,101.53c.63.13,1.07.79.92,1.54l-2.62,12.96c-.13.63-.79,1.07-1.42.94-.67-.14-1.44-.1-1.67.05-.21.07-.43.8-.56,1.43-.13.67-.8,1.11-1.54.96l-3.7-.75c-.67-.13-1.11-.8-.97-1.47l.13-.63c.13-.67.8-1.11,1.47-.97l3.03.62c.74.15,1.44.1,1.67-.05.2-.04.54-.74.67-1.41l2.36-11.62c.13-.67.1-1.44-.05-1.67s-.78-.54-1.52-.69l-3.03-.62c-.67-.13-1.33.31-1.48,1.05l-.75,3.7c-.13.67-.8,1.11-1.43.98-.67-.14-1.44-.1-1.67.05-.22.15-.42.76-.56,1.43l-.61,3.04c-.15.74-.82,1.18-1.48,1.05-.74-.15-1.39-.2-1.61-.06-.22.15-.56.85-.69,1.52l-.62,3.04c-.13.67-.8,1.11-1.47.97l-.63-.13c-.67-.13-1.11-.8-.97-1.47l.75-3.7c.13-.63.79-1.07,1.46-.94.63.13,1.41.09,1.63-.06.22-.15.46-.75.61-1.49l.62-3.07c.13-.63.79-1.07,1.42-.94.74.15,1.45.1,1.65.03.22-.15.56-.85.69-1.48l.62-3.07c.15-.74-.29-1.41-1.03-1.56l-3.7-.75c-.67-.13-1.11-.8-.98-1.43l.14-.67c.13-.63.79-1.07,1.46-.94l6.85,1.39c.63.13,1.3-.32,1.43-.98l.75-3.7c.13-.63.79-1.07,1.46-.94l.63.13c.67.14,1.11.8.98,1.43l-.75,3.7c-.13.67.31,1.33,1.05,1.48l.55.11c.74.15,1.18.82,1.06,1.45-.13.67-.21,1.42-.06,1.64.15.22.87.45,1.54.58ZM138.09,106.55c.63.13,1.07.8.94,1.46l-1.36,6.74c-.15.74-.82,1.18-1.45,1.06l-.67-.14c-.63-.13-1.07-.79-.92-1.54l1.24-6.11c.13-.63.09-1.41-.05-1.63-.15-.22-.79-.47-1.53-.62-.63-.13-1.07-.8-.94-1.42.15-.74.17-1.43.03-1.65-.15-.22-.85-.56-1.48-.69-.67-.13-1.11-.8-.98-1.43l.14-.67c.13-.63.8-1.07,1.46-.94l.63.13c.67.13,1.11.8.98,1.43-.14.67-.1,1.44.05,1.67.15.22.76.42,1.43.56.74.15,1.18.82,1.03,1.56-.13.67-.19,1.31-.04,1.53.15.22.78.54,1.52.69ZM137.74,98.77c-.13.67-.8,1.11-1.54.96l-.56-.11c-.74-.15-1.18-.82-1.05-1.48l.75-3.7c.13-.63.8-1.07,1.54-.92l.56.11c.74.15,1.18.82,1.06,1.45l-.75,3.7ZM143.61,94.88c.67.14,1.11.8.98,1.43l-.75,3.7c-.13.67-.8,1.11-1.47.97l-.63-.13c-.67-.13-1.11-.8-.97-1.47l.75-3.7c.13-.63.79-1.07,1.46-.94l.63.13Z"/>
      <path class="cls-1" d="M162.07,127.4c-.63-.13-1.07-.8-.94-1.46.13-.63.09-1.41-.07-1.56-.15-.22-.78-.54-1.52-.69-.63-.13-1.07-.79-.94-1.42.13-.67.17-1.43.03-1.65-.15-.22-.87-.45-1.5-.57-.67-.13-1.11-.8-.96-1.54l1.37-6.74c.13-.67.8-1.11,1.47-.97.63.13,1.41.09,1.63-.05.22-.15.46-.75.6-1.42.15-.74.82-1.18,1.45-1.06.74.15,1.42.21,1.64.06.22-.15.56-.85.69-1.52.13-.63-.32-1.3-1.06-1.45l-3.07-.62c-.63-.13-1.41-.09-1.55.07-.22.15-.54.74-.67,1.41-.15.74-.8,1.07-1.43.94l-6.85-1.39c-.67-.13-1.11-.8-.98-1.43l.13-.67c.13-.63.79-1.07,1.46-.94l6.18,1.25c.67.13,1.43.17,1.54,0,.22-.15.56-.85.69-1.48.13-.67.8-1.11,1.47-.97l9.25,1.88c.63.13,1.41.09,1.63-.05.22-.15.46-.75.6-1.42.15-.74.8-1.07,1.54-.92l3.7.75c.63.13,1.07.8.94,1.42l-.13.67c-.13.63-.79,1.07-1.42.94l-3.07-.62c-.74-.15-1.39-.17-1.62-.02-.22.15-.56.85-.68,1.48-.13.67-.8,1.11-1.47.97l-.63-.13c-.67-.14-1.33.31-1.46.94l-.14.67c-.13.63-.79,1.07-1.42.94-.67-.13-1.44-.1-1.67.05-.22.15-.43.8-.58,1.54-.13.63-.79,1.07-1.54.92-.67-.14-1.32-.15-1.54,0s-.56.85-.68,1.48l-1.11,5.48c-.15.74-.09,1.41.05,1.63.15.22.74.54,1.41.67.74.15,1.18.82,1.06,1.45-.13.67-.19,1.31-.04,1.53.15.22.85.56,1.52.69l3.04.62c.67.13,1.11.8.97,1.47l-.13.63c-.13.67-.8,1.11-1.47.97l-3.7-.75ZM171.96,113.41l-.56-.11c-.74-.15-1.18-.82-1.03-1.56l.75-3.7c.13-.63.8-1.07,1.53-.92l.56.11c.74.15,1.18.82,1.06,1.45l-.75,3.7c-.15.74-.82,1.18-1.56,1.03ZM178.14,114.66l-.63-.13c-.67-.13-1.11-.8-.96-1.54l.75-3.7c.13-.63.79-1.07,1.46-.94l.63.13c.67.14,1.11.8.98,1.43l-.75,3.7c-.15.74-.82,1.18-1.48,1.05Z"/>
      <path class="cls-1" d="M185.75,130.93c.13-.63.17-1.39,0-1.54-.15-.22-.85-.56-1.48-.68-.67-.14-1.11-.8-.98-1.43l.75-3.7c.15-.74.82-1.18,1.48-1.05.63.13,1.38.2,1.61.06s.48-.87.62-1.53c.13-.63.79-1.07,1.54-.92l9.81,1.99c.74.15,1.41-.29,1.54-.96l.13-.63c.14-.67-.31-1.33-1.05-1.48l-12.96-2.62c-.67-.13-1.11-.8-.96-1.54l.11-.56c.15-.74.82-1.18,1.48-1.05l9.88,2c.67.14,1.33-.31,1.46-.94l.14-.67c.13-.63-.32-1.3-.98-1.43l-6.74-1.37c-.74-.15-1.18-.82-1.05-1.48l.13-.63c.13-.67.8-1.11,1.54-.96l3.7.75c.63.13,1.3-.31,1.42-.94l.13-.67c.13-.63.8-1.07,1.46-.94l.63.13c.67.13,1.11.8.98,1.43l-.13.67c-.13.63.32,1.3,1.05,1.45l3.04.61c.67.14,1.33.08,1.56-.07.22-.15.54-.74.67-1.41.15-.74.79-1.07,1.46-.94l.63.13c.67.13,1.11.8.98,1.43l-.13.67c-.13.63-.8,1.07-1.46.94-.63-.13-1.39-.17-1.61-.02-.22.15-.48.87-.61,1.49-.13.67-.8,1.11-1.43.98l-.67-.14c-.63-.13-1.3.32-1.42.94l-.14.67c-.13.63.32,1.3.94,1.42l6.11,1.24c.67.13,1.42.21,1.64.06.22-.15.56-.85.69-1.52.13-.63.79-1.07,1.42-.94l.67.14c.63.13,1.07.8.95,1.42l-.13.67c-.13.63-.79,1.07-1.42.94-.74-.15-1.44-.1-1.67.05-.22.15-.43.8-.58,1.54-.13.63-.79,1.07-1.54.92l-3.7-.75c-.67-.13-1.33.31-1.47.97l-.13.63c-.13.67.31,1.33.97,1.47l.63.13c.67.14,1.11.8.98,1.43-.14.67-.1,1.44.05,1.67.15.22.76.42,1.43.56.74.15,1.18.82,1.03,1.56l-.11.56c-.15.74-.82,1.18-1.56,1.03l-.55-.11c-.74-.15-1.18-.82-1.05-1.45.15-.74.17-1.43.03-1.65-.15-.22-.85-.56-1.48-.69l-14.73-2.98c-.74-.15-1.41-.09-1.63.06-.22.15-.54.78-.69,1.52l-.48,2.37c-.13.67-.1,1.44.07,1.56.15.22.74.54,1.48.69l15.36,3.11c.67.14,1.11.8.97,1.47l-.13.63c-.13.67-.8,1.11-1.47.97l-15.99-3.24c-.74-.15-1.18-.82-1.05-1.48Z"/>
      <path class="cls-1" d="M244.79,118.54c.67.14,1.11.8.97,1.47l-.13.63c-.13.67-.8,1.11-1.47.97l-9.88-2c-.67-.14-1.33.31-1.46.94l-.14.67c-.13.63.32,1.3.98,1.43l6.85,1.39c.63.13,1.07.8.92,1.54-.13.67-.08,1.33,0,1.54.15.22.85.56,1.48.68.67.13,1.11.8.97,1.47-.13.63-.09,1.41.05,1.63.16.15.75.46,1.42.6.74.15,1.18.82,1.06,1.45l-.75,3.7c-.15.74-.82,1.18-1.56,1.03-.67-.14-1.31-.19-1.53-.04-.22.15-.56.85-.69,1.52-.13.63-.79,1.07-1.46.94-.63-.13-1.41-.09-1.63.05-.13.09-.47.79-.6,1.42-.13.67-.8,1.11-1.43.98l-9.92-2.01c-.63-.13-1.07-.8-.94-1.46l.13-.63c.13-.67.8-1.11,1.43-.98l9.25,1.88c.67.13,1.33.08,1.56-.07.2-.04.54-.74.67-1.41.13-.63.8-1.07,1.46-.94.63.13,1.41.09,1.63-.06.22-.15.46-.75.61-1.49l.49-2.41c.14-.67.15-1.32,0-1.54-.15-.22-.85-.56-1.48-.69-.67-.14-1.11-.8-.97-1.47.13-.63.09-1.41-.06-1.63-.15-.22-.75-.46-1.42-.6l-6.18-1.25c-.67-.14-1.33.31-1.47.97l-.13.63c-.13.67-.8,1.11-1.43.98-.67-.13-1.44-.1-1.67.05-.22.15-.42.76-.56,1.43-.13.63-.79,1.07-1.54.92l-.55-.11c-.74-.15-1.18-.82-1.06-1.45l.14-.67c.13-.63.79-1.07,1.42-.94.74.15,1.44.1,1.65.03.22-.15.56-.85.68-1.48l1.26-6.22c.13-.63-.32-1.3-1.06-1.45l-3.7-.75c-.67-.14-1.11-.8-.97-1.47l.13-.63c.13-.67.8-1.11,1.47-.97l6.85,1.39c.63.13,1.3-.31,1.42-.94l.13-.67c.13-.63.79-1.07,1.46-.94l.63.13c.67.13,1.11.8.98,1.43l-.13.67c-.13.63.31,1.3,1.05,1.45l6.74,1.37Z"/>
      <path class="cls-1" d="M283.85,139.67c-.22.15-.42.76-.56,1.43-.13.63-.79,1.07-1.54.92l-6.77-1.37c-.63-.13-1.07-.8-.95-1.42l.14-.67c.13-.63.79-1.07,1.42-.94l6.11,1.24c.67.13,1.44.1,1.65.03.22-.15.52-.67.63-1.22.09-.44.02-1.04-.13-1.26-.15-.22-.79-.47-1.53-.62-.63-.13-1.07-.8-.94-1.42.15-.74.17-1.43.03-1.65-.15-.22-.85-.56-1.48-.69-.67-.13-1.33.31-1.48,1.05l-.11.56c-.15.74-.82,1.18-1.45,1.06l-6.85-1.39c-.67-.13-1.33.31-1.47.97-.13.63-.09,1.41.06,1.63.09.13.79.47,1.42.6.67.13,1.11.8.98,1.43l-1.25,6.18c-.13.67-.1,1.44.07,1.56.15.22.74.54,1.41.67.74.15,1.18.82,1.05,1.48l-.13.63c-.13.67-.8,1.11-1.54.96l-.55-.11c-.74-.15-1.18-.82-1.05-1.48.13-.63.17-1.39,0-1.54-.15-.22-.85-.56-1.48-.68-.67-.13-1.11-.8-.98-1.43l1.25-6.18c.14-.67.08-1.33-.07-1.56-.04-.2-.74-.54-1.41-.67l-6.18-1.25c-.67-.13-1.11-.8-.97-1.47l.13-.63c.14-.67.8-1.11,1.47-.97l3.7.75c.74.15,1.41-.29,1.56-1.03l.75-3.7c.13-.63.79-1.07,1.42-.94l.67.14c.63.13,1.07.79.95,1.42l-.14.67c-.13.63.32,1.3.98,1.43l3.7.75c.74.15,1.39-.18,1.54-.92.13-.67.08-1.33-.07-1.56-.15-.22-.78-.54-1.52-.69-.63-.13-1.07-.8-.94-1.46l.13-.63c.13-.67.8-1.11,1.54-.96l.55.11c.74.15,1.18.82,1.05,1.48-.13.63-.2,1.38-.06,1.61.15.22.86.48,1.53.62l3.04.62c.67.13,1.11.8.98,1.43-.13.67-.1,1.44.05,1.67.15.22.76.42,1.43.56.74.15,1.18.82,1.03,1.56-.13.67-.19,1.31-.04,1.53.15.22.78.54,1.52.69.63.13,1.07.8.94,1.46l-.13.63c-.13.67-.8,1.11-1.43.98-.74-.15-1.44-.1-1.67.05Z"/>
      <path class="cls-1" d="M320.95,144.87l-.75,3.7c-.13.63-.79,1.07-1.42.94-.67-.14-1.44-.1-1.67.05-.22.15-.43.8-.58,1.54-.13.63-.8,1.07-1.46.94-.63-.13-1.38-.2-1.61-.06-.22.15-.48.87-.62,1.53-.13.63-.8,1.07-1.54.92-.63-.13-1.33-.08-1.56.07-.21.07-.54.78-.67,1.41-.13.67-.8,1.11-1.43.98l-6.77-1.37c-.74-.15-1.18-.82-1.05-1.48l.13-.63c.13-.67.8-1.11,1.54-.96l6.11,1.24c.67.14,1.44.1,1.67-.05.22-.15.42-.76.56-1.43.13-.63.8-1.07,1.46-.94.74.15,1.41.09,1.63-.06.22-.15.54-.74.69-1.48.13-.67.73-1.12,1.47-.97.63.13,1.31.19,1.53.04.22-.15.56-.85.69-1.52l.49-2.41c.13-.63.09-1.41-.06-1.63s-.79-.47-1.42-.6c-.74-.15-1.11-.8-.98-1.43.15-.74.1-1.44-.05-1.67s-.74-.54-1.48-.69l-5.48-1.11c-.63-.13-1.41-.09-1.63.05-.22.15-.47.79-.62,1.53-.13.63-.79,1.07-1.54.92l-3.7-.75c-.63-.13-1.07-.79-.92-1.54l.11-.56c.15-.74.82-1.18,1.45-1.06l3.07.62c.74.15,1.38.2,1.61.06.22-.15.56-.85.69-1.52.13-.63.79-1.07,1.46-.94l6.74,1.36c.74.15,1.18.82,1.06,1.45-.13.67-.17,1.43-.03,1.65.15.22.87.45,1.5.57.67.13,1.11.8.96,1.54-.13.67-.19,1.31-.04,1.53.15.22.85.56,1.52.69.63.13,1.07.79.94,1.46ZM306.4,127.86c-.67-.13-1.11-.8-.96-1.54l.11-.56c.15-.74.82-1.18,1.56-1.03l.55.11c.74.15,1.18.82,1.06,1.45-.15.74-.17,1.43-.03,1.65.15.22.85.56,1.48.69l6.11,1.24c.74.15,1.18.82,1.06,1.45l-.13.67c-.13.63-.8,1.07-1.54.92l-6.74-1.36c-.67-.14-1.11-.8-.98-1.43.15-.74.1-1.44-.05-1.67-.15-.22-.76-.42-1.5-.57Z"/>
      <path class="cls-1" d="M343.8,159.1c.13-.63.79-1.07,1.42-.94l.67.13c.63.13,1.07.8.95,1.42l-.75,3.7c-.13.67-.8,1.11-1.43.98l-.67-.13c-.63-.13-1.07-.8-.94-1.46l.75-3.7ZM346.53,155.15l-.67-.13c-.63-.13-1.07-.8-.94-1.42l3.25-16.03c.13-.63.79-1.07,1.42-.94l.67.13c.63.13,1.07.8.95,1.42l-3.25,16.03c-.13.63-.79,1.07-1.42.94Z"/>
      <path class="cls-1" d="M380.82,166.6c.13-.63.79-1.07,1.42-.94l.67.14c.63.13,1.07.79.94,1.42l-.75,3.7c-.13.67-.8,1.11-1.43.98l-.67-.14c-.63-.13-1.07-.8-.94-1.46l.75-3.7ZM383.54,162.65l-.67-.14c-.63-.13-1.07-.8-.94-1.42l3.25-16.03c.13-.63.79-1.07,1.42-.94l.67.14c.63.13,1.07.8.94,1.42l-3.25,16.03c-.13.63-.79,1.07-1.42.94Z"/>
    </g>
  </g>
</svg>